<svg aria-hidden="true" style="position: absolute; width: 0; height: 0; overflow: hidden;" version="1.1" xmlns="http://www.w3.org/2000/svg" xmlns:xlink="http://www.w3.org/1999/xlink">
<defs>
<symbol id="icon-Business-44" viewBox="0 0 24 24">
<path d="M21.994 10.406h-6.24v-5.4c0-0.237-0.192-0.429-0.429-0.429v0h-6.66c-0.235 0.005-0.424 0.194-0.429 0.428v3.566h-6.231c-0.235 0.005-0.424 0.194-0.429 0.428v9.995c0 0.237 0.192 0.429 0.429 0.429v0h19.989c0.237 0 0.429-0.192 0.429-0.429v0-8.16c0-0.237-0.192-0.429-0.429-0.429v0zM8.28 18.566h-5.846v-9.137h5.803zM14.94 10.851v7.714h-5.846v-13.131h5.803zM21.609 18.566h-5.854v-7.303h5.811z"></path>
<path d="M11.571 7.714v1.286c0 0.237 0.192 0.429 0.429 0.429s0.429-0.192 0.429-0.429v0-1.997c-0.001-0.157-0.086-0.294-0.212-0.367l-0.002-0.001c-0.060-0.036-0.133-0.058-0.21-0.058s-0.15 0.021-0.212 0.059l0.002-0.001-0.651 0.351c-0.133 0.072-0.221 0.211-0.221 0.37 0 0.079 0.022 0.152 0.059 0.215l-0.001-0.002c0.071 0.129 0.206 0.216 0.362 0.216 0.086 0 0.165-0.026 0.231-0.071l-0.001 0.001z"></path>
<path d="M4.843 13.431h0.994c0.237 0 0.429-0.192 0.429-0.429v0c0-0.237-0.192-0.429-0.429-0.429v0h-0.566v-0.060c-0-0.003-0-0.006-0-0.009 0-0.043 0.035-0.077 0.077-0.077 0 0 0 0 0 0h-0c0.026 0.006 0.055 0.010 0.086 0.010s0.060-0.004 0.088-0.010l-0.003 0.001c0.425-0.086 0.741-0.456 0.741-0.9 0-0.507-0.411-0.917-0.917-0.917-0.001 0-0.002 0-0.004 0h-0.497c-0.237 0-0.429 0.192-0.429 0.429v0c0 0.237 0.192 0.429 0.429 0.429v0h0.497c0.003-0 0.006-0.001 0.009-0.001 0.033 0 0.060 0.027 0.060 0.060 0 0.003-0 0.006-0.001 0.010l0-0c0 0.038-0.031 0.069-0.069 0.069v0c-0.026-0.004-0.055-0.007-0.086-0.007s-0.060 0.002-0.089 0.007l0.003-0c-0.43 0.087-0.75 0.46-0.754 0.908v0.489c0 0.237 0.192 0.429 0.429 0.429v0z"></path>
<path d="M18.163 14.571c-0.237 0-0.429 0.192-0.429 0.429v0c0 0.237 0.192 0.429 0.429 0.429v0h0.497c0.006 0 0.013 0 0.020 0 0.502 0 0.909-0.407 0.909-0.909 0-0.196-0.062-0.377-0.168-0.526l0.002 0.003c0.098-0.139 0.158-0.311 0.163-0.496l0-0.001c0-0.511-0.414-0.926-0.926-0.926v0h-0.497c-0.237 0-0.429 0.192-0.429 0.429v0c0 0.237 0.192 0.429 0.429 0.429v0h0.497c0.038 0 0.069 0.031 0.069 0.069s-0.031 0.069-0.069 0.069v0c-0.237 0-0.429 0.192-0.429 0.429v0c0 0.237 0.192 0.429 0.429 0.429v0c0 0 0 0 0.001 0 0.038 0 0.069 0.031 0.069 0.069 0 0.003-0 0.006-0.001 0.009l0-0c0 0.038-0.031 0.069-0.069 0.069v0z"></path>
</symbol>
<symbol id="icon-leaderboard" viewBox="0 0 24 24">
<path d="M7.5 21h-5.484v-12h5.484v12zM14.766 3h-5.531v18h5.531v-18zM21.984 11.016h-5.484v9.984h5.484v-9.984z"></path>
</symbol>
<symbol id="icon-favorite_outline" viewBox="0 0 24 24">
<path d="M12.094 18.563q2.25-2.016 3.328-3.047t2.344-2.438 1.758-2.484 0.492-2.109q0-1.5-1.008-2.484t-2.508-0.984q-1.172 0-2.18 0.656t-1.383 1.688h-1.875q-0.375-1.031-1.383-1.688t-2.18-0.656q-1.5 0-2.508 0.984t-1.008 2.484q0 1.031 0.492 2.109t1.758 2.484 2.344 2.438 3.328 3.047l0.094 0.094zM16.5 3q2.344 0 3.914 1.594t1.57 3.891q0 1.359-0.516 2.648t-1.898 2.883-2.508 2.672-3.609 3.328l-1.453 1.313-1.453-1.266q-3.234-2.906-4.664-4.359t-2.648-3.422-1.219-3.797q0-2.297 1.57-3.891t3.914-1.594q2.719 0 4.5 2.109 1.781-2.109 4.5-2.109z"></path>
</symbol>
<symbol id="icon-favorite" viewBox="0 0 24 24">
<path d="M12 21.328l-1.453-1.313q-2.484-2.25-3.609-3.328t-2.508-2.672-1.898-2.883-0.516-2.648q0-2.297 1.57-3.891t3.914-1.594q2.719 0 4.5 2.109 1.781-2.109 4.5-2.109 2.344 0 3.914 1.594t1.57 3.891q0 1.828-1.219 3.797t-2.648 3.422-4.664 4.359z"></path>
</symbol>
<symbol id="icon-people_outline" viewBox="0 0 24 24">
<path d="M16.5 6.516q-0.797 0-1.406 0.586t-0.609 1.383 0.609 1.406 1.406 0.609 1.406-0.609 0.609-1.406-0.609-1.383-1.406-0.586zM16.5 12q-1.453 0-2.484-1.031t-1.031-2.484 1.031-2.461 2.484-1.008 2.484 1.008 1.031 2.461-1.031 2.484-2.484 1.031zM7.5 6.516q-0.797 0-1.406 0.586t-0.609 1.383 0.609 1.406 1.406 0.609 1.406-0.609 0.609-1.406-0.609-1.383-1.406-0.586zM7.5 12q-1.453 0-2.484-1.031t-1.031-2.484 1.031-2.461 2.484-1.008 2.484 1.008 1.031 2.461-1.031 2.484-2.484 1.031zM21.516 17.484v-1.219q0-0.469-1.664-1.125t-3.352-0.656q-1.219 0-3 0.563 0.516 0.609 0.516 1.219v1.219h7.5zM12.516 17.484v-1.219q0-0.469-1.664-1.125t-3.352-0.656-3.352 0.656-1.664 1.125v1.219h10.031zM16.5 12.984q2.016 0 4.266 0.914t2.25 2.367v2.719h-22.031v-2.719q0-1.453 2.25-2.367t4.266-0.914q2.203 0 4.5 1.031 2.297-1.031 4.5-1.031z"></path>
</symbol>
<symbol id="icon-group" viewBox="0 0 24 24">
<path d="M15.984 12.984q1.313 0 2.859 0.375t2.859 1.219 1.313 1.922v2.484h-6v-2.484q0-2.063-1.969-3.469 0.328-0.047 0.938-0.047zM8.016 12.984q1.313 0 2.859 0.375t2.836 1.219 1.289 1.922v2.484h-14.016v-2.484q0-1.078 1.313-1.922t2.859-1.219 2.859-0.375zM8.016 11.016q-1.219 0-2.109-0.891t-0.891-2.109 0.891-2.109 2.109-0.891 2.086 0.891 0.867 2.109-0.867 2.109-2.086 0.891zM15.984 11.016q-1.219 0-2.109-0.891t-0.891-2.109 0.891-2.109 2.109-0.891 2.109 0.891 0.891 2.109-0.891 2.109-2.109 0.891z"></path>
</symbol>
<symbol id="icon-notifications_none" viewBox="0 0 24 24">
<path d="M15.984 17.016v-6q0-1.922-1.078-3.211t-2.906-1.289-2.906 1.289-1.078 3.211v6h7.969zM18 15.984l2.016 2.016v0.984h-16.031v-0.984l2.016-2.016v-4.969q0-2.344 1.195-4.078t3.305-2.25v-0.703q0-0.609 0.422-1.055t1.078-0.445 1.078 0.445 0.422 1.055v0.703q2.109 0.516 3.305 2.25t1.195 4.078v4.969zM12 21.984q-0.797 0-1.406-0.586t-0.609-1.383h4.031q0 0.797-0.609 1.383t-1.406 0.586z"></path>
</symbol>
<symbol id="icon-notifications" viewBox="0 0 24 24">
<path d="M18 15.984l2.016 2.016v0.984h-16.031v-0.984l2.016-2.016v-4.969q0-2.344 1.195-4.078t3.305-2.25v-0.703q0-0.609 0.422-1.055t1.078-0.445 1.078 0.445 0.422 1.055v0.703q2.109 0.516 3.305 2.25t1.195 4.078v4.969zM12 21.984q-0.844 0-1.43-0.563t-0.586-1.406h4.031q0 0.797-0.609 1.383t-1.406 0.586z"></path>
</symbol>
<symbol id="icon-public" viewBox="0 0 24 24">
<path d="M17.906 17.391q2.109-2.25 2.109-5.391 0-2.484-1.383-4.5t-3.633-2.906v0.422q0 0.797-0.609 1.383t-1.406 0.586h-1.969v2.016q0 0.422-0.305 0.703t-0.727 0.281h-1.969v2.016h6q0.422 0 0.703 0.281t0.281 0.703v3h0.984q1.406 0 1.922 1.406zM11.016 19.922v-1.922q-0.797 0-1.406-0.609t-0.609-1.406v-0.984l-4.781-4.781q-0.234 0.938-0.234 1.781 0 3.047 2.039 5.297t4.992 2.625zM12 2.016q4.125 0 7.055 2.93t2.93 7.055-2.93 7.055-7.055 2.93-7.055-2.93-2.93-7.055 2.93-7.055 7.055-2.93z"></path>
</symbol>
<symbol id="icon-check" viewBox="0 0 24 24">
<path d="M9 16.172l10.594-10.594 1.406 1.406-12 12-5.578-5.578 1.406-1.406z"></path>
</symbol>
<symbol id="icon-contest" viewBox="0 0 24 24">
<path d="M18.984 8.016v-1.031h-1.969v3.844q1.969-0.703 1.969-2.813zM6.984 10.828v-3.844h-1.969v1.031q0 2.109 1.969 2.813zM18.984 5.016q0.797 0 1.406 0.586t0.609 1.383v1.031q0 1.875-1.266 3.281t-3.141 1.641q-0.422 1.031-1.477 1.875t-2.133 1.078v3.094h4.031v2.016h-10.031v-2.016h4.031v-3.094q-1.078-0.234-2.133-1.078t-1.477-1.875q-1.875-0.234-3.141-1.641t-1.266-3.281v-1.031q0-0.797 0.609-1.383t1.406-0.586h1.969v-2.016h10.031v2.016h1.969z"></path>
</symbol>
<symbol id="icon-insight" viewBox="0 0 24 24">
<path d="M17.016 17.016v-4.031h-2.016v4.031h2.016zM12.984 17.016v-10.031h-1.969v10.031h1.969zM9 17.016v-7.031h-2.016v7.031h2.016zM18.984 3q0.797 0 1.406 0.609t0.609 1.406v13.969q0 0.797-0.609 1.406t-1.406 0.609h-13.969q-0.797 0-1.406-0.609t-0.609-1.406v-13.969q0-0.797 0.609-1.406t1.406-0.609h13.969z"></path>
</symbol>
<symbol id="icon-event" viewBox="0 0 24 24">
<path d="M12 17.25l-6.188 3.75 1.641-7.031-5.438-4.734 7.172-0.609 2.813-6.609 2.813 6.609 7.172 0.609-5.438 4.734 1.641 7.031z"></path>
</symbol>
<symbol id="icon-verified" viewBox="0 0 24 24">
<path d="M23.016 12l-2.438-2.813 0.328-3.656-3.609-0.844-1.875-3.188-3.422 1.453-3.422-1.453-1.875 3.188-3.609 0.797 0.328 3.703-2.438 2.813 2.438 2.813-0.328 3.656 3.609 0.844 1.875 3.188 3.422-1.453 3.422 1.453 1.875-3.188 3.609-0.844-0.328-3.656zM10.078 16.734l-3.797-3.844 1.5-1.453 2.297 2.344 5.859-5.906 1.5 1.5z"></path>
</symbol>
<symbol id="icon-arrow-left" viewBox="0 0 24 24">
<path d="M12.707 18.293l-5.293-5.293h11.586c0.552 0 1-0.448 1-1s-0.448-1-1-1h-11.586l5.293-5.293c0.391-0.391 0.391-1.024 0-1.414s-1.024-0.391-1.414 0l-7 7c-0.096 0.096-0.168 0.206-0.217 0.324-0.051 0.122-0.076 0.253-0.076 0.383 0 0.256 0.098 0.512 0.293 0.707l7 7c0.391 0.391 1.024 0.391 1.414 0s0.391-1.024 0-1.414z"></path>
</symbol>
<symbol id="icon-arrow-right" viewBox="0 0 24 24">
<path d="M11.293 5.707l5.293 5.293h-11.586c-0.552 0-1 0.448-1 1s0.448 1 1 1h11.586l-5.293 5.293c-0.391 0.391-0.391 1.024 0 1.414s1.024 0.391 1.414 0l7-7c0.092-0.092 0.166-0.202 0.217-0.324 0.101-0.245 0.101-0.521 0-0.766-0.049-0.118-0.121-0.228-0.217-0.324l-7-7c-0.391-0.391-1.024-0.391-1.414 0s-0.391 1.024 0 1.414z"></path>
</symbol>
<symbol id="icon-chevron-down" viewBox="0 0 24 24">
<path d="M5.293 9.707l6 6c0.391 0.391 1.024 0.391 1.414 0l6-6c0.391-0.391 0.391-1.024 0-1.414s-1.024-0.391-1.414 0l-5.293 5.293-5.293-5.293c-0.391-0.391-1.024-0.391-1.414 0s-0.391 1.024 0 1.414z"></path>
</symbol>
<symbol id="icon-voting" viewBox="0 0 32 32">
<path d="M31.983 21.701l-2.248-12.163c-0.088-0.474-0.501-0.818-0.983-0.818h-2.773l1.004-3.208c0.164-0.524-0.125-1.082-0.648-1.25l-13.066-4.212c-0.255-0.082-0.532-0.059-0.77 0.065s-0.415 0.338-0.493 0.594l-2.449 8.012h-6.31c-0.482 0-0.896 0.344-0.983 0.818l-2.248 12.163c-0.054 0.292 0.025 0.593 0.215 0.821s0.472 0.36 0.769 0.36h30c0.297 0 0.579-0.132 0.769-0.36s0.269-0.529 0.215-0.821zM13.622 2.263l11.156 3.597-2.797 8.941h-12.19zM2.202 20.882l1.878-10.163h4.867l-1.248 4.082h-1.112c-0.552 0-1 0.448-1 1s0.448 1 1 1h18.827c0.552 0 1-0.448 1-1s-0.448-1-1-1h-1.337l1.277-4.082h2.567l1.878 10.163zM9.921 25.901l-1.959 5.438c-0.143 0.397-0.519 0.661-0.941 0.661s-0.798-0.264-0.941-0.661l-1.959-5.438c-0.187-0.52 0.082-1.093 0.602-1.28s1.093 0.082 1.28 0.602l1.018 2.826 1.018-2.826c0.187-0.52 0.76-0.789 1.28-0.602s0.789 0.76 0.602 1.28zM21.813 25.562c0 0.552-0.448 1-1 1h-0.794v4.438c0 0.552-0.448 1-1 1s-1-0.448-1-1v-4.438h-0.794c-0.552 0-1-0.448-1-1s0.448-1 1-1h3.588c0.552 0 1 0.448 1 1zM24.349 26.562v0.719h1.455c0.552 0 1 0.448 1 1s-0.448 1-1 1h-1.455v0.719h2.588c0.552 0 1 0.448 1 1s-0.448 1-1 1h-3.588c-0.552 0-1-0.448-1-1v-5.438c0-0.552 0.448-1 1-1h3.588c0.552 0 1 0.448 1 1s-0.448 1-1 1zM13.913 24.562h-1.664c-1.082 0-1.962 0.894-1.962 1.992v3.454c0 1.098 0.88 1.992 1.962 1.992h1.664c1.082 0 1.962-0.894 1.962-1.992v-3.454c-0-1.098-0.88-1.992-1.962-1.992zM13.874 30h-1.587l0.001-3.438h1.587z"></path>
</symbol>
<symbol id="icon-pageant" viewBox="0 0 32 32">
<path d="M31.612 24.706c-1.395-0.55-2.76-1.178-4.205-1.593l0.422-1.679c0.084-0.335-0.119-0.675-0.454-0.759-0.458-0.115-0.918-0.223-1.379-0.324 0.38-0.406 0.614-0.951 0.614-1.549 0-1.25-1.017-2.267-2.268-2.267h-16.19l-1.457-6.105c0.314-0.171 0.586-0.41 0.796-0.7l2.599 0.985c1.337 0.506 2.862-0.058 3.547-1.312l1.743-3.191c0.407 0.106 0.839 0.106 1.246-0.004l1.783 3.212c0.691 1.246 2.216 1.801 3.547 1.292l2.555-0.978c0.207 0.286 0.475 0.522 0.785 0.692l-0.288 1.204c-0.080 0.336 0.127 0.673 0.463 0.753s0.673-0.127 0.753-0.463l0.287-1.201c1.292-0.033 2.334-1.094 2.334-2.394 0-1.321-1.075-2.395-2.395-2.395s-2.395 1.074-2.395 2.395c0 0.080 0.004 0.16 0.012 0.238l-2.557 0.978c-0.753 0.288-1.615-0.026-2.006-0.731l-1.798-3.24c0.424-0.432 0.686-1.024 0.686-1.676 0-1.321-1.075-2.395-2.395-2.395s-2.395 1.075-2.395 2.395c0 0.658 0.267 1.255 0.698 1.688l-1.758 3.218c-0.388 0.71-1.25 1.029-2.007 0.742l-2.6-0.985c0.008-0.077 0.012-0.155 0.012-0.234 0-1.321-1.075-2.395-2.395-2.395s-2.395 1.074-2.395 2.395c0 1.297 1.036 2.355 2.324 2.393l1.42 5.949c-0.874 0.317-1.518 1.166-1.518 2.134 0 0.6 0.234 1.145 0.616 1.551-0.458 0.1-0.915 0.208-1.371 0.322-0.161 0.040-0.299 0.143-0.384 0.285s-0.11 0.313-0.070 0.473l0.422 1.679c-1.445 0.415-2.81 1.042-4.205 1.593-0.491 0.194-0.524 0.9-0.053 1.139 0.798 0.405 1.587 0.839 2.352 1.294-0.315 0.846-0.603 1.704-0.858 2.557-0.147 0.489 0.352 0.949 0.828 0.761 1.343-0.53 2.641-1.157 4.047-1.511 0.335-0.084 0.538-0.424 0.454-0.759l-0.094-0.375c5.86-1.373 12.012-1.373 17.872 0l-0.094 0.375c-0.084 0.335 0.119 0.675 0.454 0.759 1.406 0.353 2.704 0.981 4.047 1.511 0.476 0.188 0.975-0.271 0.828-0.761-0.255-0.853-0.543-1.71-0.858-2.557 0.764-0.455 1.553-0.889 2.352-1.294 0.471-0.239 0.438-0.945-0.053-1.139zM26.45 7.18c0.631 0 1.145 0.513 1.145 1.145s-0.514 1.145-1.145 1.145c-0.623 0-1.145-0.522-1.145-1.145-0-0.631 0.513-1.145 1.145-1.145zM15.995 2.751c0.631 0 1.145 0.514 1.145 1.145 0 0.432-0.24 0.808-0.594 1.003-0.341 0.189-0.769 0.187-1.108-0.005-0.35-0.196-0.587-0.57-0.587-0.998 0-0.631 0.513-1.145 1.145-1.145zM4.406 8.325c0-0.631 0.513-1.145 1.145-1.145s1.145 0.513 1.145 1.145c0 0.623-0.522 1.145-1.145 1.145-0.631 0-1.145-0.514-1.145-1.145zM7.648 17.785h16.694c0.561 0 1.017 0.456 1.017 1.017 0 0.551-0.466 1.017-1.017 1.017h-1.188c-4.747-0.737-9.561-0.737-14.308 0h-1.198c-0.561 0-1.017-0.456-1.017-1.017-0-0.551 0.466-1.017 1.017-1.017zM3.431 28.784c0.19-0.565 0.394-1.129 0.609-1.685 0.109-0.282 0.001-0.601-0.256-0.758-0.55-0.338-1.115-0.665-1.688-0.98 0.005-0.002 0.009-0.004 0.014-0.006 0.938-0.389 1.769-0.733 2.789-1.029l0.898 3.571c-0.884 0.261-1.582 0.555-2.365 0.887zM6.759 26.599l-0.803-3.195c0-0-0-0-0-0l-0.418-1.664c6.859-1.623 14.066-1.623 20.925 0l-1.222 4.859c-6.060-1.423-12.422-1.423-18.482 0zM28.217 26.341c-0.257 0.158-0.365 0.477-0.256 0.758 0.215 0.557 0.419 1.12 0.609 1.685-0.783-0.332-1.481-0.626-2.365-0.887l0.898-3.571c1.019 0.296 1.85 0.64 2.789 1.029 0.005 0.002 0.009 0.004 0.014 0.006-0.573 0.315-1.137 0.642-1.688 0.98z"></path>
<path d="M13.889 12.456v0.924c0 1.161 0.945 2.106 2.106 2.106s2.106-0.945 2.106-2.106v-0.924c0-1.161-0.945-2.106-2.106-2.106s-2.106 0.945-2.106 2.106zM16.851 12.456v0.924c0 0.472-0.384 0.855-0.855 0.855s-0.855-0.384-0.855-0.855v-0.924c0-0.472 0.384-0.855 0.855-0.855s0.855 0.384 0.855 0.855z"></path>
<path d="M22.291 22.914c-0.123-0.024-3.047-0.58-6.29-0.58-0 0-0.001 0-0.001 0s-0.001 0-0.001 0c-3.234 0-6.166 0.556-6.289 0.58-0.339 0.065-0.561 0.393-0.496 0.732 0.057 0.299 0.319 0.508 0.613 0.508 0.039 0 0.079-0.004 0.119-0.011 0.029-0.006 2.938-0.557 6.054-0.557 3.119 0 6.025 0.552 6.054 0.557 0.339 0.065 0.667-0.157 0.732-0.496s-0.157-0.667-0.496-0.732z"></path>
<path d="M25.504 14.076c-0.312-0.476-1.072-0.288-1.14 0.271-0.067 0.552 0.597 0.912 1.022 0.556 0.241-0.202 0.292-0.565 0.118-0.826z"></path>
</symbol>
<symbol id="icon-award" viewBox="0 0 32 32">
<path d="M23 25h-0.5v-0.5c0-0.828-0.672-1.5-1.5-1.5v0h-0.43l0.317-2.436c0.002-0.017 0.003-0.036 0.003-0.056 0-0.276-0.224-0.5-0.5-0.5-0.25 0-0.458 0.184-0.494 0.424l-0 0.003-0.334 2.564h-7.132l-2.847-18.506c4.679-0.099 9.068-1.243 12.974-3.206l-0.174 0.079-2.226 17.068c-0.003 0.019-0.004 0.042-0.004 0.064 0 0.276 0.224 0.5 0.5 0.5 0.253 0 0.463-0.189 0.496-0.433l0-0.003 2.35-18c0.003-0.020 0.004-0.043 0.004-0.066 0-0.276-0.224-0.5-0.5-0.5-0.082 0-0.16 0.020-0.229 0.055l0.003-0.001-0.739 0.37c-3.799 1.935-8.285 3.071-13.036 3.078h-0.002c-0.276 0-0.5 0.224-0.5 0.5 0 0.027 0.002 0.053 0.006 0.079l-0-0.003 2.911 18.924h-0.417c-0.828 0-1.5 0.672-1.5 1.5v0 0.5h-0.5c-0.828 0-1.5 0.672-1.5 1.5v0 5c0 0.276 0.224 0.5 0.5 0.5v0h16c0.276 0 0.5-0.224 0.5-0.5v0-5c0-0.828-0.672-1.5-1.5-1.5v0zM23.5 31h-15v-4.5c0-0.276 0.224-0.5 0.5-0.5v0h3c0.276 0 0.5-0.224 0.5-0.5s-0.224-0.5-0.5-0.5v0h-1.5v-0.5c0-0.276 0.224-0.5 0.5-0.5v0h10c0.276 0 0.5 0.224 0.5 0.5v0 0.5h-7.5c-0.276 0-0.5 0.224-0.5 0.5s0.224 0.5 0.5 0.5v0h9c0.276 0 0.5 0.224 0.5 0.5v0z"></path>
<path d="M19 28h-6c-0.276 0-0.5 0.224-0.5 0.5s0.224 0.5 0.5 0.5v0h6c0.276 0 0.5-0.224 0.5-0.5s-0.224-0.5-0.5-0.5v0z"></path>
<path d="M19.63 8.137c-0.060-0.179-0.213-0.312-0.401-0.34l-0.003-0-1.919-0.279-0.857-1.739c-0.092-0.155-0.258-0.256-0.448-0.256s-0.356 0.102-0.447 0.254l-0.001 0.002-0.859 1.739-1.919 0.279c-0.243 0.037-0.427 0.244-0.427 0.495 0 0.14 0.058 0.267 0.151 0.358l0 0 1.389 1.354-0.328 1.912c-0.005 0.025-0.007 0.055-0.007 0.084 0 0.276 0.224 0.5 0.5 0.5 0.085 0 0.165-0.021 0.235-0.059l-0.003 0.001 1.715-0.902 1.717 0.902c0.067 0.036 0.148 0.057 0.233 0.057 0.276 0 0.5-0.224 0.5-0.5 0-0.030-0.003-0.059-0.008-0.087l0 0.003-0.328-1.912 1.389-1.354c0.093-0.091 0.151-0.218 0.151-0.358 0-0.055-0.009-0.108-0.025-0.158l0.001 0.004zM17.23 9.471c-0.094 0.091-0.152 0.218-0.152 0.359 0 0.030 0.003 0.059 0.008 0.087l-0-0.003 0.2 1.172-1.053-0.553c-0.067-0.036-0.147-0.057-0.232-0.057s-0.165 0.021-0.235 0.059l0.003-0.001-1.053 0.553 0.2-1.172c0.005-0.025 0.007-0.054 0.007-0.084 0-0.141-0.058-0.268-0.151-0.358l-0-0-0.85-0.83 1.177-0.171c0.166-0.025 0.304-0.128 0.375-0.27l0.001-0.003 0.527-1.066 0.526 1.066c0.073 0.145 0.21 0.248 0.374 0.273l0.003 0 1.177 0.171z"></path>
<path d="M19 15.5c0-0.276-0.224-0.5-0.5-0.5v0h-5c-0.276 0-0.5 0.224-0.5 0.5s0.224 0.5 0.5 0.5v0h5c0.276 0 0.5-0.224 0.5-0.5v0z"></path>
<path d="M14.5 17c-0.276 0-0.5 0.224-0.5 0.5s0.224 0.5 0.5 0.5v0h3c0.276 0 0.5-0.224 0.5-0.5s-0.224-0.5-0.5-0.5v0z"></path>
</symbol>
<symbol id="icon-campaign" viewBox="0 0 32 32">
<path d="M14.501 5.552c-0.354-0.354-0.826-0.549-1.329-0.549s-0.975 0.195-1.329 0.549c-0.62 0.62-0.715 1.568-0.287 2.29-1.456 5.398-2.135 6.006-4.913 8.486-0.989 0.884-2.221 1.983-3.831 3.594-0.34 0.34-0.527 0.792-0.527 1.274s0.187 0.934 0.527 1.274l4.436 4.436c0.34 0.34 0.792 0.527 1.274 0.527 0.313 0 0.613-0.079 0.878-0.227l4.548 4.548c0.161 0.161 0.381 0.248 0.618 0.248 0.049 0 0.099-0.004 0.15-0.011 0.243-0.036 0.479-0.159 0.665-0.345l1.583-1.583c0.432-0.432 0.48-1.062 0.109-1.433l-2.448-2.448c0.724-1.298 0.575-2.902-0.387-4.048 1.855-2.016 2.908-2.695 7.637-3.971 0.295 0.175 0.627 0.263 0.96 0.263 0.481 0 0.963-0.183 1.329-0.55 0.733-0.733 0.733-1.926 0-2.659zM7.954 26.198l-4.436-4.436c-0.151-0.151-0.234-0.352-0.234-0.567s0.083-0.416 0.234-0.567c1.112-1.112 2.042-1.978 2.836-2.698l5.432 5.432c-0.72 0.794-1.586 1.724-2.698 2.836-0.151 0.151-0.352 0.234-0.567 0.234s-0.416-0.083-0.567-0.234zM16.256 29.353l-1.583 1.583c-0.028 0.028-0.055 0.044-0.075 0.053l-4.445-4.445c0.634-0.642 1.186-1.222 1.674-1.748l4.482 4.482c-0.009 0.020-0.025 0.047-0.053 0.075zM13.878 25.433l-1.374-1.374c0.321-0.354 0.613-0.681 0.885-0.985 0.058-0.064 0.114-0.127 0.169-0.19 0.556 0.739 0.672 1.708 0.32 2.549zM12.643 22.408c-0.061 0.069-0.124 0.139-0.188 0.21l-5.357-5.357c0.071-0.064 0.141-0.126 0.21-0.188 2.776-2.479 3.616-3.229 5.043-8.354l8.645 8.645c-5.125 1.427-5.874 2.267-8.353 5.043zM23.457 17.167c-0.343 0.343-0.901 0.343-1.244 0l-9.664-9.663c-0.343-0.343-0.343-0.901 0-1.244 0.165-0.165 0.386-0.256 0.622-0.256s0.457 0.091 0.622 0.256l9.664 9.663c0.343 0.343 0.343 0.901 0 1.244zM22.047 7.669c-0.195-0.195-0.195-0.512 0-0.707l2.744-2.744c0.195-0.195 0.512-0.195 0.707 0s0.195 0.512 0 0.707l-2.744 2.744c-0.098 0.098-0.226 0.146-0.354 0.146s-0.256-0.049-0.354-0.146zM29.716 14.4c0 0.276-0.224 0.5-0.5 0.5h-3.881c-0.276 0-0.5-0.224-0.5-0.5s0.224-0.5 0.5-0.5h3.881c0.276 0 0.5 0.224 0.5 0.5zM14.816 4.381v-3.881c0-0.276 0.224-0.5 0.5-0.5s0.5 0.224 0.5 0.5v3.881c0 0.276-0.224 0.5-0.5 0.5s-0.5-0.224-0.5-0.5z"></path>
</symbol>
<symbol id="icon-checkmark" viewBox="0 0 34 32">
<path fill="#bf48f4" style="fill: var(--color1, #bf48f4)" d="M15.973 32c-4.236 0-8.299-1.686-11.295-4.686s-4.678-7.070-4.678-11.314c0-4.243 1.683-8.313 4.678-11.314s7.058-4.686 11.295-4.686c2.993-0.022 5.93 0.811 8.466 2.403l-1.539 2.473c-2.075-1.302-4.478-1.984-6.927-1.967-2.585 0-5.112 0.768-7.261 2.206s-3.824 3.483-4.813 5.875c-0.989 2.392-1.248 5.024-0.744 7.563s1.749 4.872 3.577 6.703c1.828 1.831 4.156 3.078 6.692 3.583s5.163 0.246 7.551-0.745c2.388-0.991 4.429-2.669 5.865-4.821s2.202-4.684 2.202-7.273c0.007-1.155-0.124-2.306-0.392-3.43l2.817-0.704c0.325 1.354 0.486 2.742 0.479 4.134-0.005 4.242-1.689 8.309-4.684 11.308s-7.055 4.687-11.289 4.692z"></path>
<path fill="#bf48f4" style="fill: var(--color1, #bf48f4)" d="M15.974 20.366c-0.385-0-0.754-0.153-1.027-0.426l-6.835-6.846 2.053-2.057 5.808 5.818 15.973-16 2.053 2.057-17 17.028c-0.272 0.273-0.642 0.426-1.027 0.426z"></path>
</symbol>
<symbol id="icon-menu" viewBox="0 0 32 32">
<path fill="#545454" style="fill: var(--color2, #545454)" d="M4 24h24v-2.667h-24v2.667zM4 17.333h24v-2.667h-24v2.667zM4 8v2.667h24v-2.667h-24z"></path>
</symbol>
<symbol id="icon-account" viewBox="0 0 32 32">
<path fill="#8d8d8d" style="fill: var(--color3, #8d8d8d)" opacity="0.2" d="M16 32c-8.843 0-16-7.166-16-16 0-8.843 7.156-16 16-16s16 7.156 16 16c0 8.842-7.167 16-16 16v0z"></path>
<path fill="#7c7c7c" style="fill: var(--color4, #7c7c7c)" opacity="0.5" d="M16.001 19.75c-4.656 0-9.095 2.035-12.339 6.436 6.46 7.809 18.418 7.742 24.791-0.139-1.574-1.566-5.119-6.296-12.453-6.296z"></path>
<path fill="#7c7c7c" style="fill: var(--color4, #7c7c7c)" opacity="0.5" d="M16 16.938c-3.102 0-5.625-2.523-5.625-5.625v-1.875c0-3.102 2.523-5.625 5.625-5.625s5.625 2.523 5.625 5.625v1.875c0 3.102-2.523 5.625-5.625 5.625z"></path>
</symbol>
<symbol id="icon-facebook" viewBox="0 0 32 32">
<path d="M19 6h5v-6h-5c-3.86 0-7 3.14-7 7v3h-4v6h4v16h6v-16h5l1-6h-6v-3c0-0.542 0.458-1 1-1z"></path>
</symbol>
<symbol id="icon-instagram" viewBox="0 0 32 32">
<path d="M16 2.881c4.275 0 4.781 0.019 6.462 0.094 1.563 0.069 2.406 0.331 2.969 0.55 0.744 0.288 1.281 0.638 1.837 1.194 0.563 0.563 0.906 1.094 1.2 1.838 0.219 0.563 0.481 1.412 0.55 2.969 0.075 1.688 0.094 2.194 0.094 6.463s-0.019 4.781-0.094 6.463c-0.069 1.563-0.331 2.406-0.55 2.969-0.288 0.744-0.637 1.281-1.194 1.837-0.563 0.563-1.094 0.906-1.837 1.2-0.563 0.219-1.413 0.481-2.969 0.55-1.688 0.075-2.194 0.094-6.463 0.094s-4.781-0.019-6.463-0.094c-1.563-0.069-2.406-0.331-2.969-0.55-0.744-0.288-1.281-0.637-1.838-1.194-0.563-0.563-0.906-1.094-1.2-1.837-0.219-0.563-0.481-1.413-0.55-2.969-0.075-1.688-0.094-2.194-0.094-6.463s0.019-4.781 0.094-6.463c0.069-1.563 0.331-2.406 0.55-2.969 0.288-0.744 0.638-1.281 1.194-1.838 0.563-0.563 1.094-0.906 1.838-1.2 0.563-0.219 1.412-0.481 2.969-0.55 1.681-0.075 2.188-0.094 6.463-0.094zM16 0c-4.344 0-4.887 0.019-6.594 0.094-1.7 0.075-2.869 0.35-3.881 0.744-1.056 0.412-1.95 0.956-2.837 1.85-0.894 0.888-1.438 1.781-1.85 2.831-0.394 1.019-0.669 2.181-0.744 3.881-0.075 1.713-0.094 2.256-0.094 6.6s0.019 4.887 0.094 6.594c0.075 1.7 0.35 2.869 0.744 3.881 0.413 1.056 0.956 1.95 1.85 2.837 0.887 0.887 1.781 1.438 2.831 1.844 1.019 0.394 2.181 0.669 3.881 0.744 1.706 0.075 2.25 0.094 6.594 0.094s4.888-0.019 6.594-0.094c1.7-0.075 2.869-0.35 3.881-0.744 1.050-0.406 1.944-0.956 2.831-1.844s1.438-1.781 1.844-2.831c0.394-1.019 0.669-2.181 0.744-3.881 0.075-1.706 0.094-2.25 0.094-6.594s-0.019-4.887-0.094-6.594c-0.075-1.7-0.35-2.869-0.744-3.881-0.394-1.063-0.938-1.956-1.831-2.844-0.887-0.887-1.781-1.438-2.831-1.844-1.019-0.394-2.181-0.669-3.881-0.744-1.712-0.081-2.256-0.1-6.6-0.1v0z"></path>
<path d="M16 7.781c-4.537 0-8.219 3.681-8.219 8.219s3.681 8.219 8.219 8.219 8.219-3.681 8.219-8.219c0-4.537-3.681-8.219-8.219-8.219zM16 21.331c-2.944 0-5.331-2.387-5.331-5.331s2.387-5.331 5.331-5.331c2.944 0 5.331 2.387 5.331 5.331s-2.387 5.331-5.331 5.331z"></path>
<path d="M26.462 7.456c0 1.060-0.859 1.919-1.919 1.919s-1.919-0.859-1.919-1.919c0-1.060 0.859-1.919 1.919-1.919s1.919 0.859 1.919 1.919z"></path>
</symbol>
<symbol id="icon-whatsapp" viewBox="0 0 32 32">
<path d="M27.281 4.65c-2.994-3-6.975-4.65-11.219-4.65-8.738 0-15.85 7.112-15.85 15.856 0 2.794 0.731 5.525 2.119 7.925l-2.25 8.219 8.406-2.206c2.319 1.262 4.925 1.931 7.575 1.931h0.006c0 0 0 0 0 0 8.738 0 15.856-7.113 15.856-15.856 0-4.238-1.65-8.219-4.644-11.219zM16.069 29.050v0c-2.369 0-4.688-0.637-6.713-1.837l-0.481-0.288-4.987 1.306 1.331-4.863-0.313-0.5c-1.325-2.094-2.019-4.519-2.019-7.012 0-7.269 5.912-13.181 13.188-13.181 3.519 0 6.831 1.375 9.319 3.862 2.488 2.494 3.856 5.8 3.856 9.325-0.006 7.275-5.919 13.188-13.181 13.188zM23.294 19.175c-0.394-0.2-2.344-1.156-2.706-1.288s-0.625-0.2-0.894 0.2c-0.262 0.394-1.025 1.288-1.256 1.556-0.231 0.262-0.462 0.3-0.856 0.1s-1.675-0.619-3.188-1.969c-1.175-1.050-1.975-2.35-2.206-2.744s-0.025-0.613 0.175-0.806c0.181-0.175 0.394-0.463 0.594-0.694s0.262-0.394 0.394-0.662c0.131-0.262 0.069-0.494-0.031-0.694s-0.894-2.15-1.219-2.944c-0.319-0.775-0.65-0.669-0.894-0.681-0.231-0.012-0.494-0.012-0.756-0.012s-0.694 0.1-1.056 0.494c-0.363 0.394-1.387 1.356-1.387 3.306s1.419 3.831 1.619 4.1c0.2 0.262 2.794 4.269 6.769 5.981 0.944 0.406 1.681 0.65 2.256 0.837 0.95 0.3 1.813 0.256 2.494 0.156 0.762-0.113 2.344-0.956 2.675-1.881s0.331-1.719 0.231-1.881c-0.094-0.175-0.356-0.275-0.756-0.475z"></path>
</symbol>
<symbol id="icon-twitter" viewBox="0 0 32 32">
<path d="M32 7.075c-1.175 0.525-2.444 0.875-3.769 1.031 1.356-0.813 2.394-2.1 2.887-3.631-1.269 0.75-2.675 1.3-4.169 1.594-1.2-1.275-2.906-2.069-4.794-2.069-3.625 0-6.563 2.938-6.563 6.563 0 0.512 0.056 1.012 0.169 1.494-5.456-0.275-10.294-2.888-13.531-6.862-0.563 0.969-0.887 2.1-0.887 3.3 0 2.275 1.156 4.287 2.919 5.463-1.075-0.031-2.087-0.331-2.975-0.819 0 0.025 0 0.056 0 0.081 0 3.181 2.263 5.838 5.269 6.437-0.55 0.15-1.131 0.231-1.731 0.231-0.425 0-0.831-0.044-1.237-0.119 0.838 2.606 3.263 4.506 6.131 4.563-2.25 1.762-5.075 2.813-8.156 2.813-0.531 0-1.050-0.031-1.569-0.094 2.913 1.869 6.362 2.95 10.069 2.95 12.075 0 18.681-10.006 18.681-18.681 0-0.287-0.006-0.569-0.019-0.85 1.281-0.919 2.394-2.075 3.275-3.394z"></path>
</symbol>
<symbol id="icon-youtube2" viewBox="0 0 80 32">
<path d="M10.75 5.294c0.007-0.027 0.011-0.046 0.012-0.056l0.033-0.236-1.48-0.008c-1.337-0.008-1.746 0-1.783 0.034-0.018 0.016-0.479 1.77-1.302 4.946-0.392 1.515-0.723 2.725-0.734 2.689s-0.481-1.766-1.044-3.843c-0.563-2.078-1.034-3.789-1.048-3.803-0.019-0.019-1.812-0.028-3.263-0.016-0.21 0.002-0.327-0.41 1.876 6.598 0.305 0.97 0.762 2.344 1.015 3.052 0.292 0.817 0.5 1.448 0.642 1.974 0.251 1.002 0.26 1.63 0.205 2.363-0.063 0.847-0.073 6.826-0.011 6.926 0.047 0.077 2.851 0.112 3.116 0.040 0.042-0.012 0.071-0.053 0.090-0.279 0.066-0.194 0.071-0.968 0.071-4.18v-4.103l0.179-0.566c0.117-0.37 0.413-1.344 0.656-2.163s0.538-1.801 0.654-2.18c1.057-3.447 2.067-6.838 2.094-7.032l0.022-0.158z"></path>
<path d="M26.441 10.27l-0.001 0.214-0.033 0-0.019 5.906-0.018 5.726-0.458 0.467c-0.513 0.522-0.925 0.722-1.297 0.629-0.405-0.102-0.395 0.056-0.429-6.712l-0.031-6.23h-2.947v0.214h-0.034v6.759c0 7.242-0 7.237 0.367 7.965 0.293 0.579 0.719 0.861 1.45 0.958h0c0.962 0.128 2-0.308 2.962-1.244l0.418-0.407v0.701c0 0.606 0.017 0.706 0.127 0.737 0.18 0.050 2.412 0.053 2.653 0.004l0.2-0.041v-0.207l0.034-0.007v-15.472l-2.944 0.039z"></path>
<path d="M18.965 13.323c-0.279-1.198-0.802-2.004-1.664-2.561-1.353-0.875-2.897-0.967-4.331-0.259-1.045 0.516-1.717 1.372-2.065 2.628-0.041 0.15-0.072 0.275-0.095 0.463-0.088 0.443-0.099 1.105-0.122 4.186-0.035 4.748 0.019 5.313 0.614 6.391 0.583 1.058 1.794 1.833 3.112 1.993 0.397 0.048 1.201-0.027 1.663-0.155 1.051-0.291 2.058-1.122 2.504-2.065 0.192-0.407 0.309-0.691 0.379-1.208 0.13-0.707 0.14-1.849 0.14-4.762-0-3.715-0.012-4.121-0.136-4.651zM15.604 23c-0.247 0.188-0.679 0.27-1.031 0.195-0.271-0.058-0.636-0.482-0.748-0.869-0.14-0.482-0.151-7.187-0.030-8.502 0.199-0.658 0.756-1.002 1.364-0.838 0.474 0.128 0.716 0.424 0.854 1.046 0.103 0.461 0.115 1.035 0.093 4.414-0.014 2.241-0.022 3.336-0.096 3.924-0.074 0.371-0.197 0.47-0.407 0.63z"></path>
<path d="M71.887 16.692h1.424l-0.023-1.29c-0.022-1.183-0.039-1.319-0.198-1.64-0.249-0.507-0.617-0.731-1.201-0.731-0.701 0-1.146 0.339-1.356 1.036-0.089 0.296-0.183 2.334-0.116 2.51 0.038 0.098 0.241 0.116 1.469 0.116z"></path>
<path d="M62.369 13.757c-0.19-0.383-0.543-0.571-0.954-0.556-0.319 0.011-0.674 0.146-1.015 0.407l-0.254 0.193v9.269l0.254 0.193c0.576 0.439 1.209 0.532 1.644 0.241 0.172-0.115 0.285-0.274 0.372-0.527 0.114-0.329 0.124-0.75 0.109-4.649-0.015-4.064-0.024-4.303-0.157-4.57z"></path>
<path d="M80.027 9.582c-0.284-3.401-0.509-4.505-1.211-5.923-0.929-1.878-2.272-2.868-4.184-3.086-1.478-0.168-7.041-0.405-12.189-0.52-8.912-0.198-23.564 0.183-25.436 0.662-0.865 0.221-1.513 0.597-2.188 1.269-1.183 1.177-1.887 2.865-2.17 5.2-0.647 5.331-0.66 11.773-0.037 17.297 0.268 2.376 0.82 3.92 1.857 5.192 0.647 0.794 1.761 1.469 2.758 1.67 0.7 0.141 4.201 0.337 9.3 0.521 0.76 0.027 2.771 0.074 4.47 0.105 3.541 0.063 10.051 0.026 13.772-0.079 2.504-0.070 7.069-0.255 7.922-0.321 0.24-0.019 0.796-0.054 1.236-0.079 1.477-0.083 2.417-0.393 3.3-1.086 1.142-0.897 2.027-2.556 2.4-4.501 0.354-1.84 0.59-5.118 0.638-8.839 0.040-3.109-0.013-4.787-0.238-7.482zM44.54 8.35l-1.656 0.020-0.073 17.661-1.435 0.018c-1.11 0.015-1.447-0.001-1.474-0.073-0.019-0.051-0.042-4.032-0.052-8.849l-0.018-8.758-3.234-0.041v-2.76l9.557 0.039 0.041 2.721-1.656 0.020zM54.694 18.472v7.595h-2.616v-0.799c0-0.601-0.023-0.799-0.093-0.799-0.051 0-0.288 0.198-0.527 0.441-0.517 0.526-1.13 0.949-1.653 1.145-1.083 0.405-2.112 0.169-2.551-0.586-0.401-0.691-0.409-0.845-0.409-8.010v-6.58h2.614l0.020 6.196c0.019 6.088 0.022 6.2 0.168 6.448 0.193 0.329 0.488 0.417 0.956 0.288 0.276-0.076 0.464-0.21 0.911-0.654l0.563-0.561v-11.717h2.616v7.595zM64.899 24.982c-0.23 0.513-0.744 1.016-1.165 1.14-1.099 0.324-1.98 0.060-2.998-0.897-0.316-0.297-0.61-0.538-0.654-0.538-0.053 0-0.082 0.233-0.082 0.69v0.69h-2.616v-20.495h2.616v3.343c0 1.839 0.025 3.343 0.054 3.343s0.306-0.244 0.613-0.541c0.707-0.683 1.298-0.981 2.049-1.038 1.338-0.101 2.135 0.587 2.501 2.16 0.114 0.491 0.125 1.051 0.125 5.596-0 5.537-0.001 5.56-0.443 6.546zM75.968 21.943c-0.023 0.57-0.092 1.223-0.154 1.454-0.364 1.349-1.332 2.304-2.732 2.696-1.885 0.527-3.96-0.337-4.788-1.994-0.465-0.93-0.481-1.116-0.481-5.662 0-3.707 0.013-4.162 0.132-4.667 0.336-1.431 1.168-2.357 2.578-2.871 0.408-0.149 0.835-0.225 1.261-0.234 1.521-0.031 3.031 0.787 3.663 2.119 0.427 0.899 0.48 1.283 0.522 3.816l0.039 2.271-5.578 0.039-0.020 1.526c-0.029 2.153 0.116 2.815 0.697 3.207 0.489 0.329 1.24 0.305 1.649-0.055 0.383-0.337 0.491-0.698 0.529-1.753l0.034-0.927h2.694l-0.043 1.036z"></path>
</symbol>
<symbol id="icon-linkedin2" viewBox="0 0 32 32">
<path d="M12 12h5.535v2.837h0.079c0.77-1.381 2.655-2.837 5.464-2.837 5.842 0 6.922 3.637 6.922 8.367v9.633h-5.769v-8.54c0-2.037-0.042-4.657-3.001-4.657-3.005 0-3.463 2.218-3.463 4.509v8.688h-5.767v-18z"></path>
<path d="M2 12h6v18h-6v-18z"></path>
<path d="M8 7c0 1.657-1.343 3-3 3s-3-1.343-3-3c0-1.657 1.343-3 3-3s3 1.343 3 3z"></path>
</symbol>
</defs>
</svg>
