<svg aria-hidden="true" style="position: absolute; width: 0; height: 0; overflow: hidden;" version="1.1" xmlns="http://www.w3.org/2000/svg" xmlns:xlink="http://www.w3.org/1999/xlink">
<defs>
<symbol id="icon-check" viewBox="0 0 24 24">
<path d="M9 16.172l10.594-10.594 1.406 1.406-12 12-5.578-5.578 1.406-1.406z"></path>
</symbol>
<symbol id="icon-contest" viewBox="0 0 24 24">
<path d="M18.984 8.016v-1.031h-1.969v3.844q1.969-0.703 1.969-2.813zM6.984 10.828v-3.844h-1.969v1.031q0 2.109 1.969 2.813zM18.984 5.016q0.797 0 1.406 0.586t0.609 1.383v1.031q0 1.875-1.266 3.281t-3.141 1.641q-0.422 1.031-1.477 1.875t-2.133 1.078v3.094h4.031v2.016h-10.031v-2.016h4.031v-3.094q-1.078-0.234-2.133-1.078t-1.477-1.875q-1.875-0.234-3.141-1.641t-1.266-3.281v-1.031q0-0.797 0.609-1.383t1.406-0.586h1.969v-2.016h10.031v2.016h1.969z"></path>
</symbol>
<symbol id="icon-insight" viewBox="0 0 24 24">
<path d="M17.016 17.016v-4.031h-2.016v4.031h2.016zM12.984 17.016v-10.031h-1.969v10.031h1.969zM9 17.016v-7.031h-2.016v7.031h2.016zM18.984 3q0.797 0 1.406 0.609t0.609 1.406v13.969q0 0.797-0.609 1.406t-1.406 0.609h-13.969q-0.797 0-1.406-0.609t-0.609-1.406v-13.969q0-0.797 0.609-1.406t1.406-0.609h13.969z"></path>
</symbol>
<symbol id="icon-event" viewBox="0 0 24 24">
<path d="M12 17.25l-6.188 3.75 1.641-7.031-5.438-4.734 7.172-0.609 2.813-6.609 2.813 6.609 7.172 0.609-5.438 4.734 1.641 7.031z"></path>
</symbol>
<symbol id="icon-verified" viewBox="0 0 24 24">
<path d="M23.016 12l-2.438-2.813 0.328-3.656-3.609-0.844-1.875-3.188-3.422 1.453-3.422-1.453-1.875 3.188-3.609 0.797 0.328 3.703-2.438 2.813 2.438 2.813-0.328 3.656 3.609 0.844 1.875 3.188 3.422-1.453 3.422 1.453 1.875-3.188 3.609-0.844-0.328-3.656zM10.078 16.734l-3.797-3.844 1.5-1.453 2.297 2.344 5.859-5.906 1.5 1.5z"></path>
</symbol>
<symbol id="icon-arrow-left" viewBox="0 0 24 24">
<path d="M12.707 18.293l-5.293-5.293h11.586c0.552 0 1-0.448 1-1s-0.448-1-1-1h-11.586l5.293-5.293c0.391-0.391 0.391-1.024 0-1.414s-1.024-0.391-1.414 0l-7 7c-0.096 0.096-0.168 0.206-0.217 0.324-0.051 0.122-0.076 0.253-0.076 0.383 0 0.256 0.098 0.512 0.293 0.707l7 7c0.391 0.391 1.024 0.391 1.414 0s0.391-1.024 0-1.414z"></path>
</symbol>
<symbol id="icon-arrow-right" viewBox="0 0 24 24">
<path d="M11.293 5.707l5.293 5.293h-11.586c-0.552 0-1 0.448-1 1s0.448 1 1 1h11.586l-5.293 5.293c-0.391 0.391-0.391 1.024 0 1.414s1.024 0.391 1.414 0l7-7c0.092-0.092 0.166-0.202 0.217-0.324 0.101-0.245 0.101-0.521 0-0.766-0.049-0.118-0.121-0.228-0.217-0.324l-7-7c-0.391-0.391-1.024-0.391-1.414 0s-0.391 1.024 0 1.414z"></path>
</symbol>
<symbol id="icon-chevron-down" viewBox="0 0 24 24">
<path d="M5.293 9.707l6 6c0.391 0.391 1.024 0.391 1.414 0l6-6c0.391-0.391 0.391-1.024 0-1.414s-1.024-0.391-1.414 0l-5.293 5.293-5.293-5.293c-0.391-0.391-1.024-0.391-1.414 0s-0.391 1.024 0 1.414z"></path>
</symbol>
<symbol id="icon-checkmark" viewBox="0 0 34 32">
<path fill="#bf48f4" style="fill: var(--color1, #bf48f4)" d="M15.973 32c-4.236 0-8.299-1.686-11.295-4.686s-4.678-7.070-4.678-11.314c0-4.243 1.683-8.313 4.678-11.314s7.058-4.686 11.295-4.686c2.993-0.022 5.93 0.811 8.466 2.403l-1.539 2.473c-2.075-1.302-4.478-1.984-6.927-1.967-2.585 0-5.112 0.768-7.261 2.206s-3.824 3.483-4.813 5.875c-0.989 2.392-1.248 5.024-0.744 7.563s1.749 4.872 3.577 6.703c1.828 1.831 4.156 3.078 6.692 3.583s5.163 0.246 7.551-0.745c2.388-0.991 4.429-2.669 5.865-4.821s2.202-4.684 2.202-7.273c0.007-1.155-0.124-2.306-0.392-3.43l2.817-0.704c0.325 1.354 0.486 2.742 0.479 4.134-0.005 4.242-1.689 8.309-4.684 11.308s-7.055 4.687-11.289 4.692z"></path>
<path fill="#bf48f4" style="fill: var(--color1, #bf48f4)" d="M15.974 20.366c-0.385-0-0.754-0.153-1.027-0.426l-6.835-6.846 2.053-2.057 5.808 5.818 15.973-16 2.053 2.057-17 17.028c-0.272 0.273-0.642 0.426-1.027 0.426z"></path>
</symbol>
<symbol id="icon-advertising" viewBox="0 0 43 32">
<path fill="#fb15a6" style="fill: var(--color2, #fb15a6); stroke: var(--color3, #fff)" stroke="#fff" stroke-linejoin="miter" stroke-linecap="butt" stroke-miterlimit="4" stroke-width="0.4571" d="M41.984 15.149h-4.189c-0.524 0-1.047-0.393-1.047-1.047s0.393-1.047 1.047-1.047h4.189c0.524 0 1.047 0.393 1.047 1.047s-0.393 1.047-1.047 1.047zM35.569 9.651c-0.524 0-1.047-0.393-1.047-1.047 0-0.262 0.131-0.524 0.262-0.654l3.011-3.011c0.393-0.393 1.047-0.393 1.44 0s0.393 1.047 0 1.44l-3.011 3.011c-0.131 0.131-0.393 0.262-0.654 0.262zM38.58 23.527c-0.262 0-0.524-0.131-0.654-0.262l-3.011-3.011c-0.393-0.393-0.393-1.047 0-1.44s1.047-0.393 1.44 0l3.011 3.011c0.393 0.393 0.393 1.047 0 1.44-0.262 0.131-0.524 0.262-0.785 0.262z"></path>
<path fill="#7e81b0" style="fill: var(--color4, #7e81b0); stroke: var(--color3, #fff)" stroke="#fff" stroke-linejoin="miter" stroke-linecap="butt" stroke-miterlimit="4" stroke-width="0.4571" d="M35.046 14.102c0-2.356-1.702-4.451-3.927-4.843v-7.069c0-0.524-0.393-1.047-1.047-1.047-0.262 0-0.393 0-0.524 0.131-5.367 3.665-14.268 5.629-15.446 5.891h-5.891c-3.927 0-7.069 3.011-7.069 6.938 0 3.272 2.356 6.152 5.629 6.807l3.796 7.985c0.393 0.785 1.047 1.44 1.833 1.702 0.393 0.131 0.655 0.131 1.047 0.131 0.524 0 1.047-0.131 1.44-0.393 1.571-0.785 2.225-2.618 1.571-4.189l-2.094-5.105c5.236 1.047 10.341 3.011 15.054 5.76 0.131 0.131 0.393 0.131 0.524 0.131s0.393 0 0.524-0.131c0.262-0.131 0.524-0.524 0.524-0.916v-7.069c2.356-0.262 4.058-2.356 4.058-4.712zM3.106 14.102c0-2.749 2.225-4.974 4.974-4.974h4.974v9.948h-4.843c-2.88 0-5.105-2.225-5.105-4.974zM14.756 27.061c0.262 0.654 0 1.309-0.655 1.571-0.262 0.131-0.655 0.131-1.047 0s-0.655-0.393-0.785-0.654l-3.273-6.938h3.273l2.487 6.021zM29.025 24.312c-4.451-2.225-9.163-3.927-14.006-4.974v-10.472c4.843-1.047 9.556-2.749 14.006-4.974v20.42zM31.119 16.982v-5.629c1.571 0.524 2.356 2.225 1.833 3.796-0.393 0.785-1.047 1.44-1.833 1.833z"></path>
<path fill="#fb15a6" style="fill: var(--color2, #fb15a6); stroke: var(--color3, #fff)" stroke="#fff" stroke-linejoin="miter" stroke-linecap="butt" stroke-miterlimit="4" stroke-width="0.4571" d="M13.186 11.222v1.963h-4.974c-0.524 0-1.047-0.393-1.047-1.047 0-0.524 0.393-1.047 1.047-1.047h4.974v0.131zM13.186 15.149v1.964h-2.88c-0.524 0-1.047-0.393-1.047-1.047 0-0.524 0.393-1.047 1.047-1.047h2.88v0.131z"></path>
</symbol>
<symbol id="icon-production" viewBox="0 0 32 32">
<path fill="#7e81b0" style="fill: var(--color4, #7e81b0)" d="M25 2.5h-18c-0.592-0.005-1.18 0.107-1.728 0.332s-1.047 0.556-1.466 0.974c-0.419 0.419-0.75 0.917-0.974 1.466s-0.337 1.136-0.332 1.728v18c-0.005 0.593 0.107 1.18 0.332 1.728s0.556 1.047 0.974 1.465c0.419 0.419 0.917 0.75 1.466 0.974s1.136 0.337 1.728 0.332h18c0.592 0.005 1.18-0.107 1.728-0.332s1.047-0.556 1.465-0.974c0.419-0.419 0.75-0.917 0.974-1.465s0.337-1.136 0.332-1.728v-18c0.005-0.592-0.107-1.18-0.332-1.728s-0.555-1.047-0.974-1.466c-0.419-0.419-0.917-0.75-1.465-0.974s-1.136-0.337-1.728-0.332zM23.46 15.5v13h-14.96v-25h15v12h-0.040zM3.5 7c-0.005-0.461 0.082-0.919 0.256-1.346s0.432-0.815 0.758-1.141c0.326-0.326 0.714-0.584 1.141-0.758s0.885-0.261 1.346-0.256h0.5v6h-4v-2.5zM3.5 10.54h4v5h-4v-5zM7.5 16.54v5h-4v-5h4zM3.5 25v-2.5h4v6h-0.5c-0.461 0.004-0.918-0.084-1.344-0.258s-0.814-0.432-1.14-0.758-0.583-0.713-0.758-1.14c-0.174-0.426-0.262-0.883-0.258-1.344zM28.5 25c0.004 0.461-0.084 0.918-0.258 1.344s-0.432 0.814-0.758 1.14-0.713 0.584-1.14 0.758c-0.426 0.174-0.883 0.262-1.344 0.258h-0.5v-6h4v2.5zM28.5 21.46h-4v-5h4v5zM24.5 15.46v-5h4v5h-4zM24.5 9.46v-6h0.5c0.465-0.006 0.925 0.083 1.355 0.259s0.82 0.438 1.146 0.768c0.327 0.33 0.583 0.723 0.755 1.155s0.255 0.894 0.244 1.358v2.5l-4-0.040z"></path>
<path fill="#fb15a6" style="fill: var(--color2, #fb15a6)" d="M20.77 14.69l-6.77-4.16c-0.232-0.143-0.498-0.22-0.771-0.226s-0.541 0.063-0.779 0.196c-0.238 0.134-0.435 0.328-0.572 0.564s-0.209 0.503-0.208 0.776v8.31c-0.004 0.273 0.066 0.543 0.203 0.779s0.337 0.43 0.577 0.561c0.233 0.129 0.494 0.198 0.76 0.2 0.28-0.002 0.553-0.082 0.79-0.23l6.81-4.15c0.223-0.138 0.408-0.331 0.535-0.56s0.195-0.487 0.195-0.75-0.067-0.521-0.195-0.75c-0.128-0.229-0.312-0.422-0.535-0.56h-0.040zM20.24 16.45l-6.8 4.16c-0.081 0.051-0.175 0.077-0.27 0.077s-0.189-0.027-0.27-0.077c-0.083-0.047-0.152-0.115-0.2-0.198s-0.072-0.177-0.070-0.272v-8.3c-0-0.095 0.024-0.189 0.072-0.271s0.116-0.151 0.198-0.199c0.084-0.041 0.176-0.065 0.27-0.070 0.096 0.001 0.189 0.028 0.27 0.080l6.8 4.16c0.079 0.048 0.145 0.116 0.19 0.196s0.070 0.171 0.070 0.264c-0.001 0.091-0.026 0.18-0.071 0.259s-0.111 0.145-0.189 0.191z"></path>
</symbol>
<symbol id="icon-model" viewBox="0 0 27 32">
<path fill="#fb15a6" style="fill: var(--color2, #fb15a6)" d="M13.7 22.3c6.1 0 11.1-5 11.1-11.1s-4.9-11.2-11.1-11.2c-6.2 0-11.1 5-11.1 11.1s5 11.2 11.1 11.2zM13.7 1.1c5.5 0 10 4.5 10 10s-4.5 10-10 10c-5.5 0-10-4.5-10-10s4.5-10 10-10z"></path>
<path fill="#7e81b0" style="fill: var(--color4, #7e81b0)" d="M27.4 11.1h-1.1c0 6.5-5.1 12-11.5 12.6-0.7 0.1-1.5 0.1-2.2 0-6.5-0.6-11.5-6.1-11.5-12.6h-1.1c0 7 5.1 12.8 12 13.6v3.1h-1.6c-1.3 0.1-2.4 1.2-2.4 2.5v1.7h11.4v-1.7c0-1.3-1.1-2.4-2.4-2.4h-1.6v-3.1c6.9-0.9 12-6.7 12-13.7zM17 29c0.7 0 1.3 0.6 1.3 1.3v0.6h-9.2v-0.6c0-0.7 0.6-1.3 1.3-1.3h6.6zM13.1 27.9v-3c0.4 0 0.8 0 1.2 0v3h-1.2z"></path>
</symbol>
<symbol id="icon-record" viewBox="0 0 32 32">
<path fill="#7e81b0" style="fill: var(--color4, #7e81b0)" d="M16 32c-4.5 0-9 0-13.4 0-1.7 0-2.6-0.9-2.6-2.6 0-9 0-17.9 0-26.9 0-1.6 0.9-2.5 2.6-2.5 9 0 17.9 0 26.9 0 1.6 0 2.5 0.9 2.5 2.6 0 6 0 12 0 18 0 3 0 6.1 0 9.1 0 1.1-0.9 2.2-2.1 2.2-0.3 0-0.7 0-1 0-4.3 0.1-8.6 0.1-12.9 0.1zM1.5 7.6c0 0.2 0 0.3 0 0.4 0 7.2 0 14.3 0 21.5 0 0.7 0.3 1 1 1 3.5 0 7 0 10.5 0 5.5 0 10.9 0 16.4 0 0.9 0 1.1-0.2 1.1-1.1 0-1.7 0-3.5 0-5.2 0-5.3 0-10.7 0-16 0-0.2 0-0.4 0-0.6-9.7 0-19.3 0-29 0zM30.5 6.1c0-1.2 0-2.4 0-3.5 0-0.8-0.2-1.1-1-1.1-2.7 0-5.5 0-8.2 0-6.2 0-12.4 0-18.7 0-0.8 0-1 0.2-1 1 0 0.7 0 1.5 0 2.2 0 0.5 0 0.9 0 1.4 9.6 0 19.2 0 28.9 0z"></path>
<path fill="#fb15a6" style="fill: var(--color2, #fb15a6)" d="M12.9 24.3c1.2 0.1 1.5 0.3 1.5 0.8s-0.3 0.7-1.5 0.8c0 0.6 0 1.2 0 1.8 0 0.2 0 0.4 0 0.5-0.1 0.4-0.3 0.6-0.8 0.7-0.4 0-0.7-0.3-0.7-0.7 0-0.6 0-1.1 0-1.7 0-0.2 0-0.4 0-0.6-0.6-0.1-1.5 0.2-1.5-0.8 0-0.9 0.8-0.7 1.5-0.8 0-0.2 0-0.4 0-0.6 0-4.5 0-9 0-13.5 0-0.7 0.2-1.1 0.7-1.1s0.8 0.4 0.8 1.1c0 4.5 0 9 0 13.5 0 0.3 0 0.4 0 0.6z"></path>
<path fill="#7e81b0" style="fill: var(--color4, #7e81b0)" d="M17.5 19.8c-1.2-0.1-1.5-0.3-1.5-0.8 0.1-0.9 0.9-0.7 1.5-0.8 0-0.2 0-0.3 0-0.5 0-2.5 0-5 0-7.5 0-0.2 0-0.3 0-0.5 0.1-0.4 0.3-0.6 0.7-0.7 0.4 0 0.7 0.3 0.8 0.6 0 0.2 0 0.3 0 0.5 0 2.5 0 5 0 7.4 0 0.2 0 0.3 0 0.5 0.6 0.1 1.5-0.2 1.5 0.8 0 0.9-0.9 0.7-1.5 0.8 0 0.4 0 0.9 0 1.3 0 2.3 0 4.6 0 6.9 0 0.1 0 0.2 0 0.2-0.1 0.4-0.3 0.7-0.8 0.7-0.4 0-0.7-0.3-0.8-0.7 0-0.3 0-0.5 0-0.8 0-2.3 0-4.7 0-7 0.1 0 0.1-0.2 0.1-0.4z"></path>
<path fill="#7e81b0" style="fill: var(--color4, #7e81b0)" d="M5.3 13.7c-1.2-0.1-1.6-0.3-1.5-0.8 0.1-0.9 0.9-0.7 1.5-0.8 0-0.7 0-1.5 0-2.2 0-0.4 0.2-0.7 0.6-0.8 0.5 0 0.9 0.3 0.9 0.9 0 0.7 0 1.4 0 2.2 0.6 0.1 1.5-0.2 1.5 0.8 0 0.9-0.9 0.7-1.5 0.8 0 0.2 0 0.4 0 0.6 0 4.5 0 9 0 13.5 0 0.8-0.3 1.1-0.8 1.1s-0.7-0.4-0.7-1.1c0-4.5 0-9 0-13.5 0-0.3 0-0.4 0-0.7z"></path>
<path fill="#fb15a6" style="fill: var(--color2, #fb15a6)" d="M28.2 23.6c0 1.7-1.4 3-3.1 3s-3-1.4-3-3.1c0-1.7 1.4-3 3.1-3 1.6 0.1 3 1.4 3 3.1zM26.7 23.6c0-0.8-0.7-1.5-1.5-1.5s-1.5 0.7-1.5 1.5c0 0.8 0.7 1.5 1.5 1.5s1.5-0.7 1.5-1.5z"></path>
<path fill="#fb15a6" style="fill: var(--color2, #fb15a6)" d="M25.1 17.5c-1.7 0-3-1.4-3-3 0-1.7 1.4-3 3-3 1.7 0 3.1 1.4 3.1 3.1 0 1.5-1.4 2.9-3.1 2.9zM25.1 12.9c-0.8 0-1.5 0.7-1.5 1.6 0 0.8 0.7 1.5 1.6 1.5 0.8 0 1.5-0.7 1.5-1.5 0-0.9-0.7-1.6-1.6-1.6z"></path>
</symbol>
<symbol id="icon-corporate" viewBox="0 0 32 32">
<path fill="#7e81b0" style="fill: var(--color4, #7e81b0)" d="M31.429 30.857h-1.714v-20c0-0.152-0.060-0.297-0.167-0.404s-0.253-0.167-0.404-0.167h-1.714v-1.714c0-0.152-0.060-0.297-0.167-0.404s-0.253-0.167-0.404-0.167h-1.714v-1.714c0-0.152-0.060-0.297-0.167-0.404s-0.253-0.167-0.404-0.167h-1.143v-1.714c0-0.152-0.060-0.297-0.167-0.404s-0.253-0.167-0.404-0.167-0.297 0.060-0.404 0.167c-0.107 0.107-0.167 0.252-0.167 0.404v1.714h-1.143c-0.152 0-0.297 0.060-0.404 0.167s-0.167 0.253-0.167 0.404v1.714h-1.143v-7.429c0-0.152-0.060-0.297-0.167-0.404s-0.253-0.167-0.404-0.167h-16c-0.152 0-0.297 0.060-0.404 0.167s-0.167 0.253-0.167 0.404v30.286h-1.714c-0.152 0-0.297 0.060-0.404 0.167s-0.167 0.253-0.167 0.404 0.060 0.297 0.167 0.404c0.107 0.107 0.253 0.167 0.404 0.167h30.857c0.152 0 0.297-0.060 0.404-0.167s0.167-0.253 0.167-0.404-0.060-0.297-0.167-0.404c-0.107-0.107-0.253-0.167-0.404-0.167zM21.714 6.857h2.286v1.143h-2.286v-1.143zM26.286 9.143v1.143h-6.857v-1.143h6.857zM3.429 1.143h14.857v9.143h-12c-0.152 0-0.297 0.060-0.404 0.167s-0.167 0.252-0.167 0.404c0 0.152 0.060 0.297 0.167 0.404s0.253 0.167 0.404 0.167h9.714v2.286h-9.714c-0.152 0-0.297 0.060-0.404 0.167s-0.167 0.253-0.167 0.404 0.060 0.297 0.167 0.404c0.107 0.107 0.253 0.167 0.404 0.167h9.714v2.286h-9.714c-0.152 0-0.297 0.060-0.404 0.167s-0.167 0.253-0.167 0.404 0.060 0.297 0.167 0.404c0.107 0.107 0.253 0.167 0.404 0.167h9.714v2.286h-9.714c-0.152 0-0.297 0.060-0.404 0.167s-0.167 0.253-0.167 0.404 0.060 0.297 0.167 0.404c0.107 0.107 0.253 0.167 0.404 0.167h9.714v2.286h-9.714c-0.152 0-0.297 0.060-0.404 0.167s-0.167 0.253-0.167 0.404 0.060 0.297 0.167 0.404c0.107 0.107 0.253 0.167 0.404 0.167h9.714v2.286h-9.714c-0.152 0-0.297 0.060-0.404 0.167s-0.167 0.253-0.167 0.404 0.060 0.297 0.167 0.404c0.107 0.107 0.253 0.167 0.404 0.167h9.714v2.286h-12.571v-29.714zM18.857 30.857h-1.714v-19.429h11.429v19.429h-9.714z"></path>
<path fill="#7e81b0" style="fill: var(--color4, #7e81b0)" d="M6.286 8h10.286c0.152 0 0.297-0.060 0.404-0.167s0.167-0.253 0.167-0.404-0.060-0.297-0.167-0.404c-0.107-0.107-0.253-0.167-0.404-0.167h-10.286c-0.152 0-0.297 0.060-0.404 0.167s-0.167 0.253-0.167 0.404c0 0.152 0.060 0.297 0.167 0.404s0.253 0.167 0.404 0.167z"></path>
<path fill="#fb15a6" style="fill: var(--color2, #fb15a6)" d="M25.714 13.714h-5.714c-0.152 0-0.297 0.060-0.404 0.167s-0.167 0.253-0.167 0.404 0.060 0.297 0.167 0.404c0.107 0.107 0.253 0.167 0.404 0.167h5.714c0.152 0 0.297-0.060 0.404-0.167s0.167-0.253 0.167-0.404-0.060-0.297-0.167-0.404c-0.107-0.107-0.253-0.167-0.404-0.167zM25.714 18.286h-5.714c-0.152 0-0.297 0.060-0.404 0.167s-0.167 0.253-0.167 0.404 0.060 0.297 0.167 0.404c0.107 0.107 0.253 0.167 0.404 0.167h5.714c0.152 0 0.297-0.060 0.404-0.167s0.167-0.253 0.167-0.404-0.060-0.297-0.167-0.404c-0.107-0.107-0.253-0.167-0.404-0.167zM25.714 22.857h-5.714c-0.152 0-0.297 0.060-0.404 0.167s-0.167 0.253-0.167 0.404 0.060 0.297 0.167 0.404c0.107 0.107 0.253 0.167 0.404 0.167h5.714c0.152 0 0.297-0.060 0.404-0.167s0.167-0.253 0.167-0.404-0.060-0.297-0.167-0.404c-0.107-0.107-0.253-0.167-0.404-0.167zM25.714 27.429h-5.714c-0.152 0-0.297 0.060-0.404 0.167s-0.167 0.253-0.167 0.404 0.060 0.297 0.167 0.404c0.107 0.107 0.253 0.167 0.404 0.167h5.714c0.152 0 0.297-0.060 0.404-0.167s0.167-0.253 0.167-0.404-0.060-0.297-0.167-0.404c-0.107-0.107-0.253-0.167-0.404-0.167z"></path>
<path fill="#7e81b0" style="fill: var(--color4, #7e81b0)" d="M6.286 4.571h10.286c0.152 0 0.297-0.060 0.404-0.167s0.167-0.253 0.167-0.404-0.060-0.297-0.167-0.404c-0.107-0.107-0.253-0.167-0.404-0.167h-10.286c-0.152 0-0.297 0.060-0.404 0.167s-0.167 0.252-0.167 0.404c0 0.152 0.060 0.297 0.167 0.404s0.253 0.167 0.404 0.167z"></path>
</symbol>
<symbol id="icon-menu" viewBox="0 0 32 32">
<path fill="#545454" style="fill: var(--color5, #545454)" d="M4 24h24v-2.667h-24v2.667zM4 17.333h24v-2.667h-24v2.667zM4 8v2.667h24v-2.667h-24z"></path>
</symbol>
<symbol id="icon-account" viewBox="0 0 32 32">
<path fill="#8d8d8d" style="fill: var(--color6, #8d8d8d)" opacity="0.2" d="M16 32c-8.843 0-16-7.166-16-16 0-8.843 7.156-16 16-16s16 7.156 16 16c0 8.842-7.167 16-16 16v0z"></path>
<path fill="#7c7c7c" style="fill: var(--color7, #7c7c7c)" opacity="0.5" d="M16.001 19.75c-4.656 0-9.095 2.035-12.339 6.436 6.46 7.809 18.418 7.742 24.791-0.139-1.574-1.566-5.119-6.296-12.453-6.296z"></path>
<path fill="#7c7c7c" style="fill: var(--color7, #7c7c7c)" opacity="0.5" d="M16 16.938c-3.102 0-5.625-2.523-5.625-5.625v-1.875c0-3.102 2.523-5.625 5.625-5.625s5.625 2.523 5.625 5.625v1.875c0 3.102-2.523 5.625-5.625 5.625z"></path>
</symbol>
<symbol id="icon-facebook" viewBox="0 0 32 32">
<path d="M19 6h5v-6h-5c-3.86 0-7 3.14-7 7v3h-4v6h4v16h6v-16h5l1-6h-6v-3c0-0.542 0.458-1 1-1z"></path>
</symbol>
<symbol id="icon-instagram" viewBox="0 0 32 32">
<path d="M16 2.881c4.275 0 4.781 0.019 6.462 0.094 1.563 0.069 2.406 0.331 2.969 0.55 0.744 0.288 1.281 0.638 1.837 1.194 0.563 0.563 0.906 1.094 1.2 1.838 0.219 0.563 0.481 1.412 0.55 2.969 0.075 1.688 0.094 2.194 0.094 6.463s-0.019 4.781-0.094 6.463c-0.069 1.563-0.331 2.406-0.55 2.969-0.288 0.744-0.637 1.281-1.194 1.837-0.563 0.563-1.094 0.906-1.837 1.2-0.563 0.219-1.413 0.481-2.969 0.55-1.688 0.075-2.194 0.094-6.463 0.094s-4.781-0.019-6.463-0.094c-1.563-0.069-2.406-0.331-2.969-0.55-0.744-0.288-1.281-0.637-1.838-1.194-0.563-0.563-0.906-1.094-1.2-1.837-0.219-0.563-0.481-1.413-0.55-2.969-0.075-1.688-0.094-2.194-0.094-6.463s0.019-4.781 0.094-6.463c0.069-1.563 0.331-2.406 0.55-2.969 0.288-0.744 0.638-1.281 1.194-1.838 0.563-0.563 1.094-0.906 1.838-1.2 0.563-0.219 1.412-0.481 2.969-0.55 1.681-0.075 2.188-0.094 6.463-0.094zM16 0c-4.344 0-4.887 0.019-6.594 0.094-1.7 0.075-2.869 0.35-3.881 0.744-1.056 0.412-1.95 0.956-2.837 1.85-0.894 0.888-1.438 1.781-1.85 2.831-0.394 1.019-0.669 2.181-0.744 3.881-0.075 1.713-0.094 2.256-0.094 6.6s0.019 4.887 0.094 6.594c0.075 1.7 0.35 2.869 0.744 3.881 0.413 1.056 0.956 1.95 1.85 2.837 0.887 0.887 1.781 1.438 2.831 1.844 1.019 0.394 2.181 0.669 3.881 0.744 1.706 0.075 2.25 0.094 6.594 0.094s4.888-0.019 6.594-0.094c1.7-0.075 2.869-0.35 3.881-0.744 1.050-0.406 1.944-0.956 2.831-1.844s1.438-1.781 1.844-2.831c0.394-1.019 0.669-2.181 0.744-3.881 0.075-1.706 0.094-2.25 0.094-6.594s-0.019-4.887-0.094-6.594c-0.075-1.7-0.35-2.869-0.744-3.881-0.394-1.063-0.938-1.956-1.831-2.844-0.887-0.887-1.781-1.438-2.831-1.844-1.019-0.394-2.181-0.669-3.881-0.744-1.712-0.081-2.256-0.1-6.6-0.1v0z"></path>
<path d="M16 7.781c-4.537 0-8.219 3.681-8.219 8.219s3.681 8.219 8.219 8.219 8.219-3.681 8.219-8.219c0-4.537-3.681-8.219-8.219-8.219zM16 21.331c-2.944 0-5.331-2.387-5.331-5.331s2.387-5.331 5.331-5.331c2.944 0 5.331 2.387 5.331 5.331s-2.387 5.331-5.331 5.331z"></path>
<path d="M26.462 7.456c0 1.060-0.859 1.919-1.919 1.919s-1.919-0.859-1.919-1.919c0-1.060 0.859-1.919 1.919-1.919s1.919 0.859 1.919 1.919z"></path>
</symbol>
<symbol id="icon-twitter" viewBox="0 0 32 32">
<path d="M32 7.075c-1.175 0.525-2.444 0.875-3.769 1.031 1.356-0.813 2.394-2.1 2.887-3.631-1.269 0.75-2.675 1.3-4.169 1.594-1.2-1.275-2.906-2.069-4.794-2.069-3.625 0-6.563 2.938-6.563 6.563 0 0.512 0.056 1.012 0.169 1.494-5.456-0.275-10.294-2.888-13.531-6.862-0.563 0.969-0.887 2.1-0.887 3.3 0 2.275 1.156 4.287 2.919 5.463-1.075-0.031-2.087-0.331-2.975-0.819 0 0.025 0 0.056 0 0.081 0 3.181 2.263 5.838 5.269 6.437-0.55 0.15-1.131 0.231-1.731 0.231-0.425 0-0.831-0.044-1.237-0.119 0.838 2.606 3.263 4.506 6.131 4.563-2.25 1.762-5.075 2.813-8.156 2.813-0.531 0-1.050-0.031-1.569-0.094 2.913 1.869 6.362 2.95 10.069 2.95 12.075 0 18.681-10.006 18.681-18.681 0-0.287-0.006-0.569-0.019-0.85 1.281-0.919 2.394-2.075 3.275-3.394z"></path>
</symbol>
<symbol id="icon-youtube2" viewBox="0 0 80 32">
<path d="M10.75 5.294c0.007-0.027 0.011-0.046 0.012-0.056l0.033-0.236-1.48-0.008c-1.337-0.008-1.746 0-1.783 0.034-0.018 0.016-0.479 1.77-1.302 4.946-0.392 1.515-0.723 2.725-0.734 2.689s-0.481-1.766-1.044-3.843c-0.563-2.078-1.034-3.789-1.048-3.803-0.019-0.019-1.812-0.028-3.263-0.016-0.21 0.002-0.327-0.41 1.876 6.598 0.305 0.97 0.762 2.344 1.015 3.052 0.292 0.817 0.5 1.448 0.642 1.974 0.251 1.002 0.26 1.63 0.205 2.363-0.063 0.847-0.073 6.826-0.011 6.926 0.047 0.077 2.851 0.112 3.116 0.040 0.042-0.012 0.071-0.053 0.090-0.279 0.066-0.194 0.071-0.968 0.071-4.18v-4.103l0.179-0.566c0.117-0.37 0.413-1.344 0.656-2.163s0.538-1.801 0.654-2.18c1.057-3.447 2.067-6.838 2.094-7.032l0.022-0.158z"></path>
<path d="M26.441 10.27l-0.001 0.214-0.033 0-0.019 5.906-0.018 5.726-0.458 0.467c-0.513 0.522-0.925 0.722-1.297 0.629-0.405-0.102-0.395 0.056-0.429-6.712l-0.031-6.23h-2.947v0.214h-0.034v6.759c0 7.242-0 7.237 0.367 7.965 0.293 0.579 0.719 0.861 1.45 0.958h0c0.962 0.128 2-0.308 2.962-1.244l0.418-0.407v0.701c0 0.606 0.017 0.706 0.127 0.737 0.18 0.050 2.412 0.053 2.653 0.004l0.2-0.041v-0.207l0.034-0.007v-15.472l-2.944 0.039z"></path>
<path d="M18.965 13.323c-0.279-1.198-0.802-2.004-1.664-2.561-1.353-0.875-2.897-0.967-4.331-0.259-1.045 0.516-1.717 1.372-2.065 2.628-0.041 0.15-0.072 0.275-0.095 0.463-0.088 0.443-0.099 1.105-0.122 4.186-0.035 4.748 0.019 5.313 0.614 6.391 0.583 1.058 1.794 1.833 3.112 1.993 0.397 0.048 1.201-0.027 1.663-0.155 1.051-0.291 2.058-1.122 2.504-2.065 0.192-0.407 0.309-0.691 0.379-1.208 0.13-0.707 0.14-1.849 0.14-4.762-0-3.715-0.012-4.121-0.136-4.651zM15.604 23c-0.247 0.188-0.679 0.27-1.031 0.195-0.271-0.058-0.636-0.482-0.748-0.869-0.14-0.482-0.151-7.187-0.030-8.502 0.199-0.658 0.756-1.002 1.364-0.838 0.474 0.128 0.716 0.424 0.854 1.046 0.103 0.461 0.115 1.035 0.093 4.414-0.014 2.241-0.022 3.336-0.096 3.924-0.074 0.371-0.197 0.47-0.407 0.63z"></path>
<path d="M71.887 16.692h1.424l-0.023-1.29c-0.022-1.183-0.039-1.319-0.198-1.64-0.249-0.507-0.617-0.731-1.201-0.731-0.701 0-1.146 0.339-1.356 1.036-0.089 0.296-0.183 2.334-0.116 2.51 0.038 0.098 0.241 0.116 1.469 0.116z"></path>
<path d="M62.369 13.757c-0.19-0.383-0.543-0.571-0.954-0.556-0.319 0.011-0.674 0.146-1.015 0.407l-0.254 0.193v9.269l0.254 0.193c0.576 0.439 1.209 0.532 1.644 0.241 0.172-0.115 0.285-0.274 0.372-0.527 0.114-0.329 0.124-0.75 0.109-4.649-0.015-4.064-0.024-4.303-0.157-4.57z"></path>
<path d="M80.027 9.582c-0.284-3.401-0.509-4.505-1.211-5.923-0.929-1.878-2.272-2.868-4.184-3.086-1.478-0.168-7.041-0.405-12.189-0.52-8.912-0.198-23.564 0.183-25.436 0.662-0.865 0.221-1.513 0.597-2.188 1.269-1.183 1.177-1.887 2.865-2.17 5.2-0.647 5.331-0.66 11.773-0.037 17.297 0.268 2.376 0.82 3.92 1.857 5.192 0.647 0.794 1.761 1.469 2.758 1.67 0.7 0.141 4.201 0.337 9.3 0.521 0.76 0.027 2.771 0.074 4.47 0.105 3.541 0.063 10.051 0.026 13.772-0.079 2.504-0.070 7.069-0.255 7.922-0.321 0.24-0.019 0.796-0.054 1.236-0.079 1.477-0.083 2.417-0.393 3.3-1.086 1.142-0.897 2.027-2.556 2.4-4.501 0.354-1.84 0.59-5.118 0.638-8.839 0.040-3.109-0.013-4.787-0.238-7.482zM44.54 8.35l-1.656 0.020-0.073 17.661-1.435 0.018c-1.11 0.015-1.447-0.001-1.474-0.073-0.019-0.051-0.042-4.032-0.052-8.849l-0.018-8.758-3.234-0.041v-2.76l9.557 0.039 0.041 2.721-1.656 0.020zM54.694 18.472v7.595h-2.616v-0.799c0-0.601-0.023-0.799-0.093-0.799-0.051 0-0.288 0.198-0.527 0.441-0.517 0.526-1.13 0.949-1.653 1.145-1.083 0.405-2.112 0.169-2.551-0.586-0.401-0.691-0.409-0.845-0.409-8.010v-6.58h2.614l0.020 6.196c0.019 6.088 0.022 6.2 0.168 6.448 0.193 0.329 0.488 0.417 0.956 0.288 0.276-0.076 0.464-0.21 0.911-0.654l0.563-0.561v-11.717h2.616v7.595zM64.899 24.982c-0.23 0.513-0.744 1.016-1.165 1.14-1.099 0.324-1.98 0.060-2.998-0.897-0.316-0.297-0.61-0.538-0.654-0.538-0.053 0-0.082 0.233-0.082 0.69v0.69h-2.616v-20.495h2.616v3.343c0 1.839 0.025 3.343 0.054 3.343s0.306-0.244 0.613-0.541c0.707-0.683 1.298-0.981 2.049-1.038 1.338-0.101 2.135 0.587 2.501 2.16 0.114 0.491 0.125 1.051 0.125 5.596-0 5.537-0.001 5.56-0.443 6.546zM75.968 21.943c-0.023 0.57-0.092 1.223-0.154 1.454-0.364 1.349-1.332 2.304-2.732 2.696-1.885 0.527-3.96-0.337-4.788-1.994-0.465-0.93-0.481-1.116-0.481-5.662 0-3.707 0.013-4.162 0.132-4.667 0.336-1.431 1.168-2.357 2.578-2.871 0.408-0.149 0.835-0.225 1.261-0.234 1.521-0.031 3.031 0.787 3.663 2.119 0.427 0.899 0.48 1.283 0.522 3.816l0.039 2.271-5.578 0.039-0.020 1.526c-0.029 2.153 0.116 2.815 0.697 3.207 0.489 0.329 1.24 0.305 1.649-0.055 0.383-0.337 0.491-0.698 0.529-1.753l0.034-0.927h2.694l-0.043 1.036z"></path>
</symbol>
<symbol id="icon-linkedin2" viewBox="0 0 32 32">
<path d="M12 12h5.535v2.837h0.079c0.77-1.381 2.655-2.837 5.464-2.837 5.842 0 6.922 3.637 6.922 8.367v9.633h-5.769v-8.54c0-2.037-0.042-4.657-3.001-4.657-3.005 0-3.463 2.218-3.463 4.509v8.688h-5.767v-18z"></path>
<path d="M2 12h6v18h-6v-18z"></path>
<path d="M8 7c0 1.657-1.343 3-3 3s-3-1.343-3-3c0-1.657 1.343-3 3-3s3 1.343 3 3z"></path>
</symbol>
</defs>
</svg>
