<svg id="Layer_1" enable-background="new 0 0 512 512" height="512" viewBox="0 0 512 512" width="512" xmlns="http://www.w3.org/2000/svg"><path d="m232.011 88.828c-5.664-5.664-13.217-8.784-21.269-8.784s-15.605 3.12-21.269 8.783c-9.917 9.917-11.446 25.09-4.593 36.632-23.293 86.372-34.167 96.094-78.604 135.776-15.831 14.138-35.533 31.731-61.302 57.5-5.434 5.434-8.426 12.673-8.426 20.383s2.993 14.949 8.426 20.383l70.981 70.98c5.434 5.435 12.672 8.427 20.382 8.427 5.003 0 9.805-1.267 14.046-3.637l72.768 72.768c2.574 2.574 6.09 3.962 9.896 3.961.789 0 1.59-.06 2.398-.181 3.883-.581 7.662-2.543 10.641-5.521l25.329-25.329c6.918-6.919 7.684-16.993 1.741-22.936l-39.164-39.164c11.586-20.762 9.203-46.431-6.187-64.762 29.684-32.251 46.532-43.128 122.192-63.532 4.716 2.801 10.038 4.203 15.361 4.203 7.703 0 15.405-2.933 21.269-8.796 11.728-11.729 11.728-30.811 0-42.539zm-104.743 330.339-70.981-70.981c-2.412-2.411-3.74-5.632-3.74-9.068s1.328-6.657 3.74-9.068c17.786-17.786 32.665-31.645 45.371-43.163l86.911 86.911c-11.519 12.706-25.378 27.585-43.164 45.371-2.412 2.411-5.632 3.74-9.068 3.74-3.437-.001-6.657-1.33-9.069-3.742zm132.832 50.486-25.33 25.33c-.444.444-.873.704-1.197.85l-71.123-71.123c10.152-10.279 18.973-19.552 26.786-27.968l71.714 71.713c-.145.325-.405.754-.85 1.198zm-38.055-62.731-21.982-21.981c5.136-5.661 9.812-10.897 14.157-15.763.921-1.032 1.821-2.039 2.712-3.035 8.895 11.831 10.752 27.329 5.113 40.779zm-19.759-48.401c-.982 1.1-1.986 2.224-3.004 3.362l-85.711-85.711c1.138-1.017 2.261-2.021 3.361-3.003 44.419-39.665 57.85-51.661 80.687-133.656l138.322 138.322c-81.993 22.837-93.99 36.268-133.655 80.686zm173.027-83.854c-5.489 5.49-14.422 5.49-19.911 0l-154.616-154.615c-5.489-5.489-5.489-14.421 0-19.91 2.642-2.643 6.178-4.098 9.956-4.098s7.313 1.455 9.955 4.098l154.616 154.615c5.489 5.489 5.489 14.421 0 19.91zm-22.558-151.968c-3.124-3.125-3.124-8.189 0-11.314l43.904-43.904c3.124-3.123 8.189-3.123 11.313 0 3.124 3.125 3.124 8.189 0 11.314l-43.904 43.904c-1.562 1.562-3.609 2.343-5.657 2.343s-4.094-.781-5.656-2.343zm122.699 107.695c0 4.418-3.582 8-8 8h-62.09c-4.418 0-8-3.582-8-8s3.582-8 8-8h62.09c4.418 0 8 3.582 8 8zm-238.393-160.304v-62.09c0-4.418 3.582-8 8-8s8 3.582 8 8v62.09c0 4.418-3.582 8-8 8s-8-3.582-8-8z"/></svg>