<svg width="340" height="210" viewBox="0 0 340 210" fill="none" xmlns="http://www.w3.org/2000/svg">
<path d="M259.148 45.0388C258.787 46.0323 258.335 47.1162 257.884 48.2C256.8 50.6388 255.535 52.6259 254.271 54.071C252.645 55.8775 250.929 56.7807 249.123 56.9613C247.406 57.0517 245.69 56.2388 244.065 54.5226C243.884 54.342 243.703 54.071 243.523 53.8904C243.613 53.7097 243.703 53.6194 243.703 53.4388C245.329 49.7355 246.232 46.1226 246.503 45.1291H245.961C245.69 46.213 244.787 49.7355 243.252 53.2581C243.252 53.3484 243.161 53.3484 243.161 53.4388C242.168 52.1742 241.265 50.4581 240.452 48.5613C239.91 47.3871 239.548 46.213 239.187 45.1291H238.645C239.006 46.3033 239.458 47.4775 240 48.742C240.903 50.8194 241.897 52.6259 242.981 53.9807C241.987 56.1484 240.813 57.8646 239.639 59.1291C238.013 60.9355 236.297 61.8388 234.49 62.0194C232.774 62.1097 231.058 61.2968 229.432 59.5807C228.168 58.1355 226.903 56.1484 225.819 53.5291C225.277 52.3549 224.826 51.0904 224.465 49.9162C225.187 48.9226 225.819 47.7484 226.452 46.3033C226.632 45.942 226.813 45.4904 226.994 45.1291H226.452C225.91 46.5742 225.187 48.0194 224.284 49.2839C223.742 47.4775 223.29 45.942 223.11 45.1291H222.568C222.748 45.942 223.2 47.7484 223.923 49.8259C222.748 51.3613 221.303 52.5355 219.497 52.6259C216.335 52.8065 213.987 48.742 212.632 45.1291H212.09C212.271 45.5807 212.452 46.0323 212.632 46.4839C213.535 48.471 214.439 50.0065 215.432 51.1807C216.606 52.5355 217.961 53.1678 219.316 53.1678C219.406 53.1678 219.497 53.1678 219.587 53.1678C221.032 53.0775 222.477 52.2646 223.742 50.9097C223.832 50.7291 224.013 50.6388 224.103 50.4581C224.465 51.542 224.916 52.6259 225.368 53.7097C226.542 56.3291 227.806 58.4065 229.071 59.942C230.697 61.7484 232.413 62.6517 234.219 62.6517C234.31 62.6517 234.4 62.6517 234.581 62.6517C236.568 62.5613 238.374 61.4775 240.09 59.5807C241.265 58.3162 242.348 56.6 243.342 54.5226C243.523 54.7033 243.613 54.8839 243.794 54.9742C245.419 56.7807 247.135 57.6839 248.942 57.6839C249.032 57.6839 249.123 57.6839 249.303 57.6839C251.29 57.5936 253.097 56.5097 254.813 54.613C256.168 53.0775 257.432 51.0904 258.516 48.5613C259.058 47.3871 259.51 46.213 259.871 45.2194H259.148V45.0388Z" fill="#3B314A"/>
<path d="M185.626 45.0388C185.174 45.942 184.723 46.8452 184.09 47.8388C181.742 51.7226 177.768 56.3291 172.077 56.6C166.568 56.871 162.594 52.0839 160.245 48.0194C159.613 47.0259 159.161 46.0323 158.619 45.0388H157.987C158.439 46.1226 159.071 47.2065 159.703 48.2904C161.239 50.9097 162.955 52.9871 164.761 54.5226C166.929 56.2388 169.187 57.142 171.626 57.142C171.806 57.142 171.897 57.142 172.077 57.142C174.697 57.0517 177.135 56.0581 179.484 54.1613C181.29 52.7162 183.006 50.6388 184.542 48.1097C185.174 47.1162 185.716 46.0323 186.168 45.0388H185.626Z" fill="#3B314A"/>
<path d="M133.69 45.0387C132.335 48.9225 129.897 53.8 126.374 53.6193C124.658 53.529 123.213 52.3548 121.948 50.8193C122.942 47.929 123.394 45.5806 123.394 45.5806L122.852 45.4903C122.852 45.4903 122.4 47.5677 121.497 50.2774C120.413 48.6516 119.51 46.7548 118.968 45.0387H118.426C118.697 45.7612 118.968 46.4838 119.329 47.2967C119.961 48.7419 120.594 49.9161 121.316 50.9096C120.955 52.0838 120.503 53.258 119.961 54.5225C118.877 57.1419 117.613 59.129 116.348 60.5742C114.723 62.2903 113.097 63.1935 111.29 63.0129C109.484 62.9225 107.768 61.929 106.142 60.1225C104.968 58.858 103.884 57.0516 102.8 54.9742C103.884 53.6193 104.787 51.8129 105.781 49.7354C106.503 48.1096 107.045 46.4838 107.497 45.0387H106.955C106.503 46.3935 105.961 47.929 105.329 49.4645C104.516 51.4516 103.613 53.0774 102.619 54.3419C102.619 54.2516 102.529 54.2516 102.529 54.1612C100.632 49.9161 99.729 45.6709 99.729 45.6709L99.1871 45.7612C99.1871 45.7612 100.09 50.0967 101.987 54.3419C102.077 54.5225 102.077 54.6129 102.168 54.7935C101.987 55.0645 101.806 55.2451 101.626 55.4258C100 57.1419 98.3742 58.0451 96.5677 57.8645C94.7613 57.7741 93.0451 56.7806 91.4193 54.9742C90.1548 53.529 88.8903 51.5419 87.8064 49.1032C87.1742 47.658 86.6322 46.1225 86.1806 44.858H85.6387C86.0903 46.2129 86.6322 47.7483 87.3548 49.2838C88.529 51.8129 89.7032 53.8903 91.058 55.3354C92.7742 57.2322 94.5806 58.2258 96.5677 58.4064C96.658 58.4064 96.7484 58.4064 96.929 58.4064C98.7354 58.4064 100.452 57.5032 102.077 55.6967C102.258 55.5161 102.348 55.3354 102.529 55.2451C103.523 57.3225 104.606 59.0387 105.781 60.3032C107.497 62.2 109.303 63.1935 111.29 63.3742C111.381 63.3742 111.471 63.3742 111.652 63.3742C113.458 63.3742 115.174 62.4709 116.8 60.6645C118.155 59.2193 119.419 57.1419 120.503 54.4322C120.955 53.3483 121.406 52.1742 121.768 51.1806C121.858 51.3612 122.039 51.4516 122.129 51.6322C123.394 53.0774 124.839 53.8 126.284 53.8903C126.374 53.8903 126.464 53.8903 126.555 53.8903C127.91 53.8903 129.264 53.1677 130.439 51.9032C131.432 50.8193 132.426 49.1935 133.239 47.2064C133.6 46.3935 133.871 45.5806 134.142 44.7677H133.69V45.0387Z" fill="#3B314A"/>
<path d="M137.845 32.2129L144.348 38.4451L150.671 32.3032L151.303 32.9355L144.981 39.0774L151.303 45.2193L150.671 45.8516L144.348 39.7097L137.845 45.8516L137.213 45.2193L143.626 39.0774L137.123 32.8451L137.845 32.2129Z" fill="#3B314A"/>
<path d="M151.032 32.2129L156.361 38.4451L161.69 32.3032L162.232 32.9355L156.903 39.0774L162.232 45.2193L161.69 45.8516L156.361 39.7097L151.123 45.8516L150.49 45.2193L155.819 39.0774L150.49 32.8451L151.032 32.2129Z" fill="#3B314A"/>
<path d="M124.477 32.2129L130.981 38.4451L137.394 32.3032L138.026 32.9355L131.613 39.0774L138.026 45.2193L137.394 45.8516L130.981 39.7097L124.568 45.8516L123.845 45.2193L130.348 39.0774L123.845 32.8451L124.477 32.2129Z" fill="#3B314A"/>
<path d="M111.11 32.2129L117.613 38.4451L124.026 32.3032L124.658 32.9355L118.335 39.0774L124.658 45.2193L124.026 45.8516L117.613 39.7097L111.2 45.8516L110.568 45.2193L116.981 39.0774L110.477 32.8451L111.11 32.2129Z" fill="#3B314A"/>
<path d="M97.8322 32.2129L104.335 38.4451L110.658 32.3032L111.381 32.9355L104.968 39.0774L111.381 45.2193L110.658 45.8516L104.335 39.7097L97.9225 45.8516L97.2 45.2193L103.613 39.0774L97.2 32.8451L97.8322 32.2129Z" fill="#3B314A"/>
<path d="M84.4645 32.2129L90.9678 38.4451L97.3807 32.3032L98.0129 32.9355L91.6903 39.0774L98.0129 45.2193L97.3807 45.8516L90.9678 39.7097L84.5549 45.8516L83.9226 45.2193L90.3355 39.0774L83.8323 32.8451L84.4645 32.2129Z" fill="#3B314A"/>
<path d="M71.1872 32.2129L77.6904 38.4451L84.013 32.3032L84.6452 32.9355L78.3227 39.0774L84.6452 45.2193L84.013 45.8516L77.6904 39.7097L71.1872 45.8516L70.5549 45.2193L76.9678 39.0774L70.4646 32.8451L71.1872 32.2129Z" fill="#3B314A"/>
<path d="M57.8193 32.2129L64.3225 38.4451L70.7354 32.3032L71.3677 32.9355L64.9548 39.0774L71.3677 45.2193L70.7354 45.8516L64.3225 39.7097L57.9096 45.8516L57.187 45.2193L63.6902 39.0774L57.187 32.8451L57.8193 32.2129Z" fill="#3B314A"/>
<path d="M45.1742 32.2129L51.6775 38.4451L58.0001 32.3032L58.7226 32.9355L52.3097 39.0774L58.7226 45.2193L58.0001 45.8516L51.6775 39.7097L45.2646 45.8516L44.542 45.2193L51.0452 39.0774L44.542 32.8451L45.1742 32.2129Z" fill="#3B314A"/>
<path d="M32.529 32.2129L39.0322 38.4451L45.3548 32.3032L46.0774 32.9355L39.6645 39.0774L46.0774 45.2193L45.3548 45.8516L39.0322 39.7097L32.6193 45.8516L31.8967 45.2193L38.4 39.0774L31.8967 32.8451L32.529 32.2129Z" fill="#3B314A"/>
<path d="M158.439 32.2129H30V33.1161H158.439V32.2129Z" fill="#3B314A"/>
<path d="M158.439 45.0388H30V45.942H158.439V45.0388Z" fill="#3B314A"/>
<path d="M229.523 32.2129L236.026 38.4451L242.348 32.3032L243.071 32.9355L236.658 39.0774L243.071 45.2193L242.348 45.8516L236.026 39.7097L229.613 45.8516L228.89 45.2193L235.394 39.0774L228.89 32.8451L229.523 32.2129Z" fill="#3B314A"/>
<path d="M216.155 32.2129L222.658 38.4451L229.071 32.3032L229.703 32.9355L223.381 39.0774L229.703 45.2193L229.071 45.8516L222.658 39.7097L216.245 45.8516L215.613 45.2193L222.026 39.0774L215.523 32.8451L216.155 32.2129Z" fill="#3B314A"/>
<path d="M256.529 32.2129L263.032 38.4451L269.355 32.3032L270.077 32.9355L263.664 39.0774L270.077 45.2193L269.355 45.8516L263.032 39.7097L256.529 45.8516L255.897 45.2193L262.31 39.0774L255.806 32.8451L256.529 32.2129Z" fill="#3B314A"/>
<path d="M243.161 32.2129L249.665 38.4451L256.077 32.3032L256.71 32.9355L250.297 39.0774L256.71 45.2193L256.077 45.8516L249.665 39.7097L243.252 45.8516L242.619 45.2193L249.032 39.0774L242.529 32.8451L243.161 32.2129Z" fill="#3B314A"/>
<path d="M270.168 32.2129L276.671 38.4451L283.084 32.3032L283.716 32.9355L277.303 39.0774L283.716 45.2193L283.084 45.8516L276.671 39.7097L270.258 45.8516L269.535 45.2193L276.039 39.0774L269.535 32.8451L270.168 32.2129Z" fill="#3B314A"/>
<path d="M282.723 32.2129L289.226 38.4451L295.548 32.3032L296.181 32.9355L289.858 39.0774L296.181 45.2193L295.548 45.8516L289.226 39.7097L282.723 45.8516L282.09 45.2193L288.503 39.0774L282 32.8451L282.723 32.2129Z" fill="#3B314A"/>
<path d="M295.187 32.2129L301.69 38.4451L308.103 32.3032L308.736 32.9355L302.413 39.0774L308.736 45.2193L308.103 45.8516L301.69 39.7097L295.278 45.8516L294.645 45.2193L301.058 39.0774L294.555 32.8451L295.187 32.2129Z" fill="#3B314A"/>
<path d="M202.877 32.2129L209.381 38.4451L215.703 32.3032L216.426 32.9355L210.013 39.0774L216.426 45.2193L215.703 45.8516L209.381 39.7097L202.877 45.8516L202.245 45.2193L208.658 39.0774L202.155 32.8451L202.877 32.2129Z" fill="#3B314A"/>
<path d="M189.51 32.2129L196.013 38.4451L202.426 32.3032L203.058 32.9355L196.645 39.0774L203.058 45.2193L202.426 45.8516L196.013 39.7097L189.6 45.8516L188.877 45.2193L195.381 39.0774L188.877 32.8451L189.51 32.2129Z" fill="#3B314A"/>
<path d="M176.232 32.2129L182.645 38.4451L189.058 32.3032L189.69 32.9355L183.368 39.0774L189.69 45.2193L189.058 45.8516L182.645 39.7097L176.232 45.8516L175.6 45.2193L182.013 39.0774L175.51 32.8451L176.232 32.2129Z" fill="#3B314A"/>
<path d="M162.864 32.2129L169.368 38.4451L175.69 32.3032L176.413 32.9355L170 39.0774L176.413 45.2193L175.69 45.8516L169.368 39.7097L162.955 45.8516L162.232 45.2193L168.735 39.0774L162.232 32.8451L162.864 32.2129Z" fill="#3B314A"/>
<path d="M310 32.2129H158.439V33.1161H310V32.2129Z" fill="#3B314A"/>
<path d="M310 45.0388H158.439V45.942H310V45.0388Z" fill="#3B314A"/>
<path d="M310 29.5936H30V33.2065H310V29.5936Z" fill="#3B314A"/>
<path d="M62.5161 54.7032L62.6968 56.0581L69.2 62.5613L69.3806 61.6581L68.3871 57.6839L62.5161 54.7032Z" fill="#6C5E81"/>
<path d="M62.5161 54.7033L68.1161 49.1033H70.6451L76.6064 54.7033L69.3806 61.6581L62.5161 54.7033Z" fill="#3B314A"/>
<path d="M81.2128 59.4904L79.858 60.8452L78.8645 60.0323L77.9612 61.2065L78.5935 62.1097L75.8838 64.8194L75.1612 63.7355L74.258 65.271L74.7999 65.9936L73.8064 67.0775L76.3354 71.4129L85.9999 61.2968L81.2128 59.4904Z" fill="#6C5E81"/>
<path d="M68.3871 65.6323L67.5742 69.6968L71.1871 71.7742L72.9936 67.3484L69.2 64.5484L68.3871 65.6323Z" fill="#3B314A"/>
<path d="M69.4709 63.7355L73.2645 66.7161L80.7613 58.9484L77.2387 55.9677L69.4709 63.7355Z" fill="#3B314A"/>
<path d="M79.1354 54.2516L82.8386 52.4452L85.729 55.5162L81.3031 58.4968L78.2322 55.6065L79.1354 54.2516Z" fill="#3B314A"/>
<path d="M76.6066 54.7032L69.3808 61.6581L68.3872 65.6323L80.4001 53.8903L76.6066 54.7032Z" fill="#6C5E81"/>
<path d="M79.5872 58.3162L80.7614 57.142L81.213 57.9549L80.0388 58.9484L79.5872 58.3162Z" fill="#3B314A"/>
<path d="M71.3677 66.7162C71.458 66.6259 73.2645 64.9097 73.2645 64.9097L73.0838 66.4452L71.9096 67.7097C71.8193 67.6194 71.3677 66.7162 71.3677 66.7162Z" fill="#3B314A"/>
<path d="M74.529 60.4839C72.8128 62.2 71.9096 64.0065 72.4515 64.6388C72.9935 65.1807 74.8903 64.2775 76.6064 62.5613C78.3225 60.8452 79.2257 59.0388 78.6838 58.4065C78.1419 57.7742 76.2451 58.7678 74.529 60.4839Z" fill="#FB15A6"/>
<path d="M64.0517 45.4904H63.3291V54.342H64.0517V45.4904Z" fill="#3B314A"/>
<path d="M73.9872 45.4904H73.2646V54.342H73.9872V45.4904Z" fill="#3B314A"/>
<path d="M156 54.7032L155.819 56.058L149.316 62.5613L149.135 61.658L150.129 57.6838L156 54.7032Z" fill="#6C5E81"/>
<path d="M156 54.7033L150.4 49.1033H147.871L141.91 54.7033L149.135 61.6581L156 54.7033Z" fill="#3B314A"/>
<path d="M137.303 59.4904L138.658 60.8452L139.652 60.0323L140.555 61.2065L139.923 62.1097L142.632 64.8194L143.355 63.7355L144.258 65.271L143.716 65.9936L144.71 67.0775L142.181 71.4129L132.516 61.2968L137.303 59.4904Z" fill="#6C5E81"/>
<path d="M150.129 65.6323L150.942 69.6968L147.329 71.7742L145.523 67.3484L149.316 64.5484L150.129 65.6323Z" fill="#3B314A"/>
<path d="M149.045 63.7355L145.252 66.7161L137.755 58.9484L141.277 55.9677L149.045 63.7355Z" fill="#3B314A"/>
<path d="M139.381 54.2516L135.768 52.4451L132.787 55.5161L137.213 58.4967L140.284 55.6064L139.381 54.2516Z" fill="#3B314A"/>
<path d="M141.91 54.7032L149.136 61.6581L150.129 65.6323L138.116 53.8903L141.91 54.7032Z" fill="#6C5E81"/>
<path d="M138.929 58.3161L137.755 57.1419L137.303 57.9548L138.477 58.9484L138.929 58.3161Z" fill="#3B314A"/>
<path d="M147.148 66.7162C147.058 66.6259 145.252 64.9097 145.252 64.9097L145.432 66.4452L146.607 67.7097C146.697 67.6194 147.148 66.7162 147.148 66.7162Z" fill="#3B314A"/>
<path d="M143.987 60.4839C145.703 62.2 146.606 64.0064 146.064 64.6387C145.522 65.1806 143.626 64.2774 141.91 62.5613C140.193 60.8451 139.29 59.0387 139.832 58.4064C140.464 57.7742 142.271 58.7677 143.987 60.4839Z" fill="#FB15A6"/>
<path d="M154.461 54.3233H155.184V45.4717H154.461V54.3233Z" fill="#3B314A"/>
<path d="M144.569 54.3233H145.292V45.4717H144.569V54.3233Z" fill="#3B314A"/>
<path d="M187.342 54.7032L187.523 56.0581L194.026 62.5613L194.207 61.6581L193.213 57.6839L187.342 54.7032Z" fill="#6C5E81"/>
<path d="M187.342 54.7033L192.942 49.1033H195.561L201.432 54.7033L194.207 61.6581L187.342 54.7033Z" fill="#3B314A"/>
<path d="M206.039 59.4904L204.684 60.8452L203.781 60.0323L202.787 61.2065L203.419 62.1097L200.8 64.8194L199.987 63.7355L199.084 65.271L199.626 65.9936L198.632 67.0775L201.161 71.4129L210.916 61.2968L206.039 59.4904Z" fill="#6C5E81"/>
<path d="M193.213 65.6323L192.49 69.6968L196.103 71.7742L197.82 67.3484L194.026 64.5484L193.213 65.6323Z" fill="#3B314A"/>
<path d="M194.297 63.7355L198.09 66.7161L205.587 58.9484L202.155 55.9677L194.297 63.7355Z" fill="#3B314A"/>
<path d="M203.961 54.2516L207.665 52.4452L210.555 55.5162L206.129 58.4968L203.058 55.6065L203.961 54.2516Z" fill="#3B314A"/>
<path d="M201.432 54.7032L194.207 61.6581L193.213 65.6323L205.226 53.8903L201.432 54.7032Z" fill="#6C5E81"/>
<path d="M204.413 58.3162L205.587 57.142L206.039 57.9549L204.865 58.9484L204.413 58.3162Z" fill="#3B314A"/>
<path d="M196.194 66.7162C196.284 66.6259 198.09 64.9097 198.09 64.9097L197.91 66.4452L196.736 67.7097C196.645 67.6194 196.194 66.7162 196.194 66.7162Z" fill="#3B314A"/>
<path d="M199.355 60.4839C197.639 62.2 196.736 64.0065 197.277 64.6388C197.819 65.1807 199.716 64.2775 201.432 62.5613C203.148 60.8452 204.052 59.0388 203.51 58.4065C202.968 57.7742 201.071 58.7678 199.355 60.4839Z" fill="#FB15A6"/>
<path d="M188.878 45.4904H188.155V54.342H188.878V45.4904Z" fill="#3B314A"/>
<path d="M198.813 45.4904H198.091V54.342H198.813V45.4904Z" fill="#3B314A"/>
<path d="M280.916 54.7032L280.645 56.058L274.142 62.5613L273.961 61.658L274.955 57.6838L280.916 54.7032Z" fill="#6C5E81"/>
<path d="M280.916 54.7033L275.226 49.1033H272.697L266.736 54.7033L273.961 61.6581L280.916 54.7033Z" fill="#3B314A"/>
<path d="M262.219 59.4904L263.484 60.8452L264.478 60.0323L265.381 61.2065L264.748 62.1097L267.458 64.8194L268.271 63.7355L269.084 65.271L268.542 65.9936L269.626 67.0775L267.007 71.4129L257.342 61.2968L262.219 59.4904Z" fill="#6C5E81"/>
<path d="M274.955 65.6323L275.768 69.6968L272.155 71.7742L270.349 67.3484L274.142 64.5484L274.955 65.6323Z" fill="#3B314A"/>
<path d="M273.871 63.7355L270.168 66.7161L262.581 58.9484L266.103 55.9677L273.871 63.7355Z" fill="#3B314A"/>
<path d="M264.207 54.2516L260.594 52.4451L257.613 55.5161L262.039 58.4967L265.11 55.6064L264.207 54.2516Z" fill="#3B314A"/>
<path d="M266.736 54.7032L273.962 61.6581L274.955 65.6323L262.942 53.8903L266.736 54.7032Z" fill="#6C5E81"/>
<path d="M263.755 58.3161L262.581 57.1419L262.129 57.9548L263.303 58.9484L263.755 58.3161Z" fill="#3B314A"/>
<path d="M271.974 66.7162C271.884 66.6259 270.078 64.9097 270.078 64.9097L270.258 66.4452L271.432 67.7097C271.523 67.6194 271.974 66.7162 271.974 66.7162Z" fill="#3B314A"/>
<path d="M268.813 60.4839C270.529 62.2 271.432 64.0064 270.89 64.6387C270.348 65.1806 268.452 64.2774 266.736 62.5613C265.019 60.8451 264.116 59.0387 264.658 58.4064C265.2 57.7742 267.097 58.7677 268.813 60.4839Z" fill="#FB15A6"/>
<path d="M279.312 54.3233H280.034V45.4717H279.312V54.3233Z" fill="#3B314A"/>
<path d="M269.419 54.3233H270.142V45.4717H269.419V54.3233Z" fill="#3B314A"/>
<path d="M310 23H30V29.6839H310V23Z" fill="#FB15A6"/>
<path d="M246.413 135.903L249.845 111.697C250.025 110.252 251.29 109.258 252.645 109.258H272.245C273.961 109.258 275.316 110.794 275.045 112.419L272.064 137.077L246.413 135.903Z" fill="#FB15A6"/>
<path d="M245.148 135.903L248.58 111.697C248.761 110.252 250.026 109.258 251.38 109.258H270.98C272.697 109.258 274.051 110.794 273.78 112.419L270.348 137.981L245.148 135.903Z" fill="#FB15A6"/>
<path d="M250.748 118.652L246.232 118.11C246.232 118.11 244.787 121.632 242.98 125.426C240.993 124.703 235.755 121 235.484 120.91C235.213 120.729 234.49 116.574 234.129 116.755C233.677 117.026 234.49 119.013 234.039 119.103C233.497 119.284 229.522 116.394 229.432 116.755C229.342 117.477 231.871 118.652 231.69 118.923C231.6 119.284 229.161 117.477 228.8 117.929C228.439 118.381 231.239 119.374 231.239 119.645C231.239 119.916 228.529 119.103 228.619 119.735C228.709 120.097 231.058 120.368 230.968 120.729C230.787 121.09 228.98 121.181 229.071 121.632C229.161 121.994 230.606 121.271 231.6 121.723C232.503 122.174 233.406 121.903 234.671 123.077C235.935 124.252 242.439 130.935 244.335 130.303C245.871 129.942 250.748 118.652 250.748 118.652Z" fill="#BF6052"/>
<path d="M247.948 104.2C248.31 102.303 248.761 100.406 250.658 98.9613C252.193 97.8774 253.819 97.5161 255.626 98.1484C260.593 99.9548 257.884 103.929 264.026 108.084C265.922 109.348 266.645 109.8 268 111.606C269.897 114.045 270.981 117.297 269.987 120.006C268 125.606 261.858 127.142 258.606 125.968C252.555 123.8 247.587 116.123 247.226 114.045C246.955 111.787 247.768 105.465 247.948 104.2Z" fill="#3B314A"/>
<path d="M251.561 112.239C251.561 112.239 250.387 112.419 248.851 113.594C247.406 114.768 244.245 121.09 243.071 125.065C243.071 125.065 245.51 127.232 246.864 127.865C247.497 128.135 248.219 122.897 248.942 123.077C251.29 123.529 250.839 116.574 250.929 116.394C251.019 116.303 251.561 112.239 251.561 112.239Z" fill="#BF48F4"/>
<path d="M259.148 127.503C259.6 122.445 259.148 112.419 259.148 112.419C257.974 112.058 257.342 112.239 255.626 112.239C254.18 112.239 253.097 112.148 252.193 112.148C251.019 112.148 249.935 112.871 249.484 113.955C248.671 116.123 247.406 119.555 247.406 119.645C246.684 121.723 247.767 123.168 248.038 123.619C248.309 124.071 248.761 136.445 248.761 136.445C249.845 136.716 251.109 136.806 252.374 136.806H252.555C255.084 136.716 258.245 135.993 258.245 135.993C257.974 134.458 258.516 130.664 258.787 129.219C258.968 128.768 259.058 128.135 259.148 127.503Z" fill="#BF48F4"/>
<path d="M254.993 107.542C254.993 107.542 255.355 110.703 255.626 111.787C255.897 112.961 256.258 116.484 253.909 117.116C251.561 117.658 252.284 113.232 252.284 112.058C252.284 110.884 251.561 106.819 251.561 106.819L254.993 107.542Z" fill="#BF6052"/>
<path d="M254.271 99.4129C254.271 99.4129 255.626 99.7742 256.438 101.219C257.251 102.574 257.613 106.548 254.722 108.265C251.832 109.981 249.755 107.271 249.845 104.742C249.845 102.123 250.567 98.7806 254.271 99.4129Z" fill="#BF6052"/>
<path d="M249.122 103.568C249.122 104.2 249.393 104.742 249.755 104.832C250.116 104.832 250.477 104.29 250.477 103.658C250.477 103.026 250.206 102.484 249.845 102.393C249.484 102.393 249.213 102.845 249.122 103.568Z" fill="#BF6052"/>
<path d="M253.819 99.3226C253.819 99.3226 255.355 103.477 256.98 103.929C258.516 104.381 258.426 106.368 258.426 106.368C258.426 106.368 258.606 101.671 257.251 100.497C255.806 99.3226 253.819 99.3226 253.819 99.3226Z" fill="#3B314A"/>
<path d="M256.348 104.652C256.077 105.284 256.258 105.916 256.71 106.097C257.161 106.277 257.703 105.826 257.884 105.194C258.155 104.561 257.974 103.929 257.522 103.748C257.071 103.658 256.529 104.019 256.348 104.652Z" fill="#BF6052"/>
<path d="M251.2 105.645H253.638C253.638 105.645 253.638 106.548 252.555 106.639C251.2 106.729 251.2 105.645 251.2 105.645Z" fill="white"/>
<path d="M247.497 119.555L238.103 118.29C237.832 118.29 237.651 118.471 237.651 118.742L238.826 132.561C238.826 132.832 239.097 133.194 239.368 133.194L248.761 134.458C249.032 134.458 249.213 134.277 249.213 134.006L248.671 127.865L248.038 120.187C248.038 119.826 247.768 119.555 247.497 119.555Z" fill="#F4F2EA"/>
<path d="M250.838 132.29C250.748 132.2 250.567 131.839 249.664 130.935C249.393 130.665 248.851 130.574 248.851 130.574C248.851 130.574 248.219 130.394 248.129 130.574C248.038 130.755 248.129 130.935 248.219 131.026C248.309 131.116 248.58 131.116 248.671 131.206C248.761 131.297 248.851 131.658 248.851 131.839C248.851 132.019 246.955 131.568 246.955 131.568C246.955 131.568 246.413 131.387 246.232 131.297C246.051 131.206 245.69 131.026 245.69 131.026C245.69 131.026 245.058 130.755 244.967 130.935C244.967 131.026 245.419 131.477 245.961 131.748C246.503 132.11 247.135 132.29 247.135 132.381C247.135 132.561 246.051 132.29 246.051 132.29C246.051 132.29 245.6 132.11 245.329 132.019C245.058 131.839 244.516 131.658 244.516 131.929C244.516 132.019 245.148 132.381 245.148 132.381C245.148 132.381 245.6 132.561 245.78 132.652C246.142 132.832 246.774 132.923 247.045 133.103C247.226 133.194 247.135 133.194 247.135 133.284C247.135 133.284 246.864 133.194 246.413 133.103C246.232 133.013 245.961 133.013 245.69 132.923C245.509 132.832 245.148 132.742 244.967 132.742C244.426 132.652 244.426 133.013 244.967 133.194C245.148 133.284 245.329 133.374 245.6 133.465C246.413 133.735 247.226 133.916 247.226 134.006C247.226 134.097 245.78 133.826 245.78 133.826C245.78 133.826 244.967 133.916 245.69 134.187C246.503 134.548 247.226 134.639 247.226 134.639C247.406 134.639 248.219 134.91 248.942 134.819C249.484 134.729 250.297 134.639 250.658 134.548L250.838 132.29Z" fill="#F8A492"/>
<path d="M263.755 125.245L259.329 125.697C259.329 125.697 259.871 129.129 259.781 129.49C259.781 129.49 253.548 131.658 250.839 132.29L250.568 134.548C251.11 134.458 251.561 134.277 251.832 134.277C252.374 134.187 260.503 133.013 260.503 133.013C260.503 133.013 263.755 132.381 263.935 131.839C264.116 131.206 263.755 125.245 263.755 125.245Z" fill="#BF6052"/>
<path d="M259.329 112.419C259.329 112.419 260.593 112.871 261.858 115.129C263.032 117.297 264.477 128.677 264.477 128.677L259.6 129.129C259.6 129.129 257.884 123.258 257.793 122.806C256.439 117.839 256.439 116.393 258.064 113.503C258.516 112.69 258.968 112.239 259.329 112.419Z" fill="#BF48F4"/>
<path d="M248.942 129.49L249.122 131.839C249.122 131.839 248.58 131.839 248.49 131.748C248.49 131.748 247.948 130.484 247.948 130.394C247.948 130.303 247.948 129.852 248.039 129.852C248.219 129.852 248.942 129.49 248.942 129.49Z" fill="#EAFCFC"/>
<path d="M295.819 156.406H199.445V165.077H295.819V156.406Z" fill="#6C5E81"/>
<path d="M242.348 160.471V187.387L294.103 187.297L297.174 160.381L242.348 160.471Z" fill="#6C5E81"/>
<path d="M297.445 157.852L299.884 136.084L242.348 136.355V157.942L297.445 157.852Z" fill="#6C5E81"/>
<path d="M274.322 157.942L275.406 136.445L195.832 136.355L197.458 157.942H274.322Z" fill="#642D78"/>
<path d="M197.638 160.471L199.626 187.387H272.877L274.232 160.471H197.638Z" fill="#642D78"/>
<path opacity="0.1" d="M224.555 157.942L227.174 136.355L218.684 136.445C218.684 136.445 217.239 146.652 215.613 157.942H224.555Z" fill="#9BC1F9"/>
<path opacity="0.1" d="M215.342 160.381C213.626 172.484 211.819 185.219 211.368 187.387H220.942L224.284 160.381H215.342Z" fill="#9BC1F9"/>
<path opacity="0.1" d="M230.155 160.381C228.348 172.935 226.542 185.852 226.18 187.297H248.58L251.922 160.381H230.155Z" fill="#9BC1F9"/>
<path opacity="0.1" d="M252.193 157.942L254.813 136.355L233.497 136.084C233.497 136.084 232.051 146.471 230.426 157.942H252.193Z" fill="#9BC1F9"/>
<path d="M194.413 136.523H301.355V134.807H194.413V136.523Z" fill="#642D78"/>
<path d="M145.432 187.568H143.896L149.948 156.135L151.213 156.406L145.432 187.568Z" fill="#3B314A"/>
<path d="M190.309 187.377L191.64 187.124L185.77 156.153L184.439 156.406L190.309 187.377Z" fill="#3B314A"/>
<path d="M175.239 187.568H173.613L179.664 156.135L181.019 156.406L175.239 187.568Z" fill="#3B314A"/>
<path d="M160.245 187.568H161.6L155.819 156.316L154.464 156.587L160.245 187.568Z" fill="#3B314A"/>
<path d="M166.206 113.955C160.877 114.497 153.922 115.129 146.968 126.961C139.38 139.877 143.355 159.116 149.406 164.445C155.368 169.774 174.968 176.368 191.406 166.523C191.406 166.523 201.342 160.561 196.284 150.626C188.426 135.361 189.509 132.11 186.077 126.148C182.464 120.006 177.497 112.69 166.206 113.955Z" fill="#FB15A6"/>
<path d="M146.968 126.961C151.755 118.923 156.451 116.032 160.697 114.948C159.071 116.664 157.445 118.832 155.729 121.632C148.142 134.548 152.116 153.787 158.168 159.116C163.497 163.903 179.484 169.594 194.477 163.903C192.942 165.619 191.406 166.523 191.406 166.523C174.968 176.368 155.368 169.774 149.406 164.445C143.355 159.026 139.38 139.787 146.968 126.961Z" fill="#FB15A6"/>
<path d="M196.916 129.4C196.916 129.039 195.109 129.219 194.929 128.858C194.748 128.497 197.097 127.865 197.006 127.503C197.006 126.871 194.387 128.045 194.387 127.774C194.387 127.503 196.916 126.058 196.555 125.697C196.103 125.335 194.026 127.413 193.845 127.142C193.664 126.871 196.013 125.335 195.742 124.613C195.651 124.252 192.129 127.684 191.587 127.594C191.045 127.503 191.587 125.426 191.135 125.335C190.684 125.155 190.684 129.4 190.413 129.581C190.232 129.761 185.535 134.458 183.638 135.542C183.187 134.91 180.477 131.929 180.116 131.297C179.213 132.381 177.948 132.923 177.045 133.916C178.49 135.723 182.735 140.058 183.368 140.239C185.355 140.51 190.593 133.013 191.677 131.658C192.761 130.303 193.664 130.394 194.477 129.852C195.29 129.31 196.916 129.761 196.916 129.4Z" fill="#F48C7F"/>
<path d="M193.032 179.348C193.032 179.348 193.303 182.781 193.122 183.865C193.122 184.045 193.032 184.226 192.942 184.406C192.761 185.039 193.303 186.935 193.303 186.935H201.161C201.613 186.935 201.342 186.665 200.98 186.394C200.438 186.032 199.987 185.761 198.18 184.858C198.09 184.768 197.638 184.497 197.458 184.406C197.096 184.135 196.645 183.774 196.284 183.413C195.742 182.781 195.651 179.8 195.651 179.8L193.032 179.348Z" fill="#BF6052"/>
<path d="M197.458 184.587C195.381 185.129 193.845 184.768 193.032 184.497C192.852 185.129 192.4 187.206 192.671 187.206C194.658 187.206 196.284 187.568 201.974 187.477C202.155 187.477 202.155 186.755 202.064 186.665C201.523 186.213 197.548 184.677 197.458 184.587Z" fill="#3B314A"/>
<path d="M201.884 172.845C201.884 172.845 203.6 175.826 203.871 176.91C203.871 177.09 203.961 177.271 203.961 177.452C204.052 178.084 205.316 179.619 205.316 179.619L212.452 176.368C212.813 176.187 212.452 176.097 212.09 176.006C211.368 175.916 210.916 175.826 208.839 175.826C208.748 175.826 208.206 175.735 208.026 175.735C207.574 175.645 207.032 175.555 206.581 175.284C205.768 174.923 204.503 172.213 204.503 172.213L201.884 172.845Z" fill="#BF6052"/>
<path d="M175.058 116.032C174.155 114.135 171.806 113.052 169.638 113.052C162.864 113.052 162.051 121.723 157.716 125.064C156.451 126.058 155.006 126.871 153.742 127.955C153.742 128.677 153.832 129.4 154.103 130.032C154.374 130.755 154.735 131.387 155.187 132.019L156.993 130.935L156.18 133.194C157.806 134.91 159.974 136.084 162.051 137.258C164.942 138.794 168.103 139.516 171.264 139.606C172.438 137.258 173.251 134.548 174.155 132.11C175.238 129.129 176.142 126.058 176.322 122.897C176.503 120.639 176.142 118.29 175.058 116.032Z" fill="#3B314A"/>
<path d="M208.116 175.735C206.49 177.09 204.955 177.452 203.961 177.452C204.052 178.084 204.503 180.252 204.774 180.071C206.581 179.258 208.206 178.897 213.355 176.458C213.535 176.368 213.264 175.735 213.084 175.645C212.542 175.555 208.297 175.826 208.116 175.735Z" fill="#3B314A"/>
<path d="M175.329 126.239C178.581 125.968 182.374 132.832 182.374 132.832C182.374 132.832 179.032 135.723 177.587 135.542C177.587 135.542 173.793 130.394 173.432 130.845L175.329 126.239Z" fill="#F4F2EA"/>
<path d="M172.98 125.787C173.071 125.787 173.161 125.787 173.251 125.697C173.793 125.606 175.329 125.968 176.322 126.329C177.497 126.781 178.219 131.206 178.129 135.994C178.129 136.716 177.497 147.916 177.497 148.006C176.051 148.91 167.742 149.361 167.109 148.548C166.567 147.735 166.116 134.458 165.755 134.006L165.213 125.877C166.206 125.697 171.445 125.787 172.98 125.787Z" fill="#FFFDF5"/>
<path d="M169.548 122.806C169.548 122.806 170.09 125.606 170 126.781C169.91 127.864 170.452 131.477 172.8 131.477C175.148 131.477 173.252 126.961 172.981 125.787C172.8 124.703 172.71 121.361 172.71 121.361L169.548 122.806Z" fill="#BF6052"/>
<path d="M168.374 115.039C168.374 115.039 167.2 115.671 166.748 117.206C166.297 118.652 166.838 122.445 169.909 123.348C173.071 124.252 174.426 121.271 173.793 118.923C173.071 116.574 171.716 113.594 168.374 115.039Z" fill="#BF6052"/>
<path d="M174.155 118.019C174.064 118.652 173.703 119.103 173.342 119.103C172.981 119.103 172.71 118.561 172.8 117.929C172.89 117.297 173.252 116.845 173.613 116.845C173.974 116.845 174.245 117.387 174.155 118.019Z" fill="#BF6052"/>
<path d="M168.735 114.858C168.735 114.858 168.193 119.103 166.839 119.826C165.484 120.548 166.026 122.445 166.026 122.445C166.026 122.445 164.761 118.11 165.845 116.755C166.929 115.31 168.735 114.858 168.735 114.858Z" fill="#3B314A"/>
<path d="M167.561 120.458C167.922 121 167.922 121.632 167.561 121.903C167.2 122.174 166.568 121.903 166.206 121.361C165.845 120.819 165.845 120.187 166.206 119.916C166.658 119.645 167.2 119.916 167.561 120.458Z" fill="#BF6052"/>
<path d="M172.167 120.639L169.909 121.181C169.909 121.181 170.18 121.993 171.174 121.813C172.438 121.542 172.167 120.639 172.167 120.639Z" fill="white"/>
<path d="M177.497 147.194V149L194.116 152.523L198.271 164.897L196.013 163.361L196.555 182.419H193.032C193.032 182.419 186.98 166.432 188.968 158.394L172.529 158.664C170.813 158.664 168.284 158.213 167.019 156.948C165.122 155.052 164.039 151.439 166.568 145.748L177.497 147.194Z" fill="#BF48F4"/>
<path d="M177.497 149C177.497 149 194.748 149.09 195.922 150.084C197.097 151.077 206.309 174.471 206.309 174.471L202.335 176.006C202.335 176.006 194.387 162.729 193.935 161.735C193.484 160.832 190.413 153.877 189.239 153.155C188.155 152.432 177.497 149 177.497 149Z" fill="#BF48F4"/>
<path d="M179.394 144.123C179.665 143.852 178.31 142.677 178.4 142.316C178.49 141.955 180.568 143.129 180.839 142.858C181.29 142.406 178.581 141.413 178.852 141.142C179.032 140.961 181.832 141.864 181.832 141.232C181.832 140.69 178.852 140.6 178.942 140.239C179.032 139.877 181.742 140.51 182.013 139.877C182.194 139.516 177.316 139.426 176.955 138.974C176.594 138.523 178.49 137.439 178.219 136.987C178.039 136.535 174.968 139.426 174.697 139.426C174.426 139.426 168.103 139.426 166.116 138.794C166.206 138.071 166.206 133.916 166.297 133.284C164.852 133.374 163.677 132.923 162.232 132.923C161.871 135.181 161.69 141.323 162.142 141.864C163.316 143.49 172.348 142.045 174.065 141.864C175.781 141.684 176.323 142.406 177.316 142.587C178.4 142.948 179.123 144.394 179.394 144.123Z" fill="#BF6052"/>
<path d="M165.755 125.877C162.142 125.697 161.239 135.632 161.239 135.632C161.239 135.632 165.574 136.626 166.839 135.903C166.839 135.903 167.832 129.671 168.284 129.852L165.755 125.877Z" fill="#FFFDF5"/>
<path d="M84.0128 87.3097C83.5611 87.3097 83.1095 87.3097 82.5676 87.2193C82.0257 87.129 81.3934 87.0387 80.9418 87.129C80.1289 87.2193 78.774 87.7613 78.3224 88.8452C77.6902 90.2 75.7934 89.8387 77.8708 95.0774C80.2192 100.948 83.2902 99.2323 83.3805 99.0516C83.4708 98.9613 85.0966 94.2645 85.0966 94.2645C85.0966 94.2645 86.8128 96.1613 86.8128 96.071C86.8128 95.9806 89.7031 87.4 84.0128 87.3097Z" fill="#880136"/>
<path d="M111.471 110.071C111.38 109.981 111.471 109.71 111.38 109.619C110.568 109.89 109.574 111.335 109.484 111.245C109.393 111.064 109.484 110.613 109.574 110.432C109.664 110.252 109.755 110.071 109.845 109.89C109.935 109.71 109.845 109.529 109.664 109.439C109.484 109.348 109.032 109.89 108.851 110.071C108.49 110.794 107.858 112.871 107.768 113.052L99.0966 117.658C99.0966 117.658 97.8321 115.129 96.8385 112.69C96.4772 112.961 96.1159 113.142 95.9353 112.961C95.4837 112.6 93.2256 111.516 91.0579 110.252C91.9611 112.961 93.2256 115.671 93.8579 117.026C95.303 120.006 97.8321 123.529 98.4643 123.348C99.1869 123.168 108.761 115.761 108.761 115.761C108.761 115.761 110.568 114.858 111.29 114.497C111.922 114.226 112.374 113.774 112.735 113.503C112.013 112.419 111.922 111.245 111.471 110.071Z" fill="#BF6052"/>
<path d="M85.5483 103.387C85.5483 103.387 87.3548 102.935 90.0645 104.019C92.5032 105.013 98.3741 114.406 98.3741 114.406L93.4967 117.929L90.6967 113.323L88.1677 111.877L85.5483 103.387Z" fill="#FB15A6"/>
<path d="M68.7484 179.439C68.7484 179.439 67.6645 180.523 67.5742 180.974C67.5742 181.335 67.4838 185.671 67.9355 186.123C68.3871 186.484 69.7419 186.845 69.2903 187.297C68.929 187.658 66.4 187.568 64.7742 187.477C64.3226 187.477 63.6903 183.503 63.5097 182.961C63.2387 182.148 62.5161 180.252 62.7871 179.71C62.8774 179.439 63.5097 178.806 64.3226 178.264C65.2258 177.723 66.0387 176.458 66.0387 176.458L68.7484 179.439Z" fill="#F48C7F"/>
<path d="M80.4903 182.058L79.4968 184.948C79.4065 185.4 79.1355 186.484 79.1355 186.935C79.1355 188.471 86.0903 185.581 84.5549 184.948C84.3742 184.858 84.0129 184.406 83.9226 183.864C83.8323 183.052 84.4645 182.058 84.4645 182.058H80.4903Z" fill="#BF6052"/>
<path d="M91.4195 128.858L91.9614 134.006C91.9614 142.316 93.5872 158.484 93.3162 160.019C92.5936 163.813 84.3743 183.142 84.3743 183.142L79.9485 182.6L85.7291 159.387L83.5614 150.084L80.5807 131.658L91.4195 128.858Z" fill="#BF48F4"/>
<path d="M76.5161 133.465L75.7032 138.342L73.4451 158.303L64.7742 177.813C64.7742 177.813 65.9484 180.613 67.7548 181.065L81.5742 161.013L90.1548 135.361L89.8839 129.671L76.5161 133.465Z" fill="#BF48F4"/>
<path d="M90.1548 109.439C90.2451 110.342 92.6838 134.458 92.6838 134.458C81.4838 139.877 75.3419 135.452 75.3419 135.452C75.3419 135.452 75.7032 118.471 75.2516 116.213C74.9806 114.677 74.6193 104.561 75.6128 104.29C76.8774 103.929 78.3225 103.568 79.9483 103.387C81.3032 103.206 86.5419 103.206 87.5354 103.477C87.4451 103.387 89.6128 105.645 90.1548 109.439Z" fill="#FB15A6"/>
<path d="M64.4129 178.174C64.4129 178.174 67.0322 185.49 68.0258 185.852C68.2967 185.942 69.5612 186.213 69.8322 186.755C69.9225 186.935 69.8322 187.477 69.8322 187.477H64.4129C64.4129 187.477 63.6903 184.226 63.4193 182.871C63.4193 182.871 61.9741 179.439 62.1548 179.077C62.3354 178.806 64.4129 178.174 64.4129 178.174Z" fill="#3B314A"/>
<path d="M78.6838 187.387L79.4967 184.858C79.4967 184.858 81.2129 185.581 82.0258 185.49C82.8387 185.4 84.4645 184.858 84.4645 184.858C87.8064 185.942 90.5161 186.484 90.0645 187.387H78.6838Z" fill="#3B314A"/>
<path d="M81.3031 98.329L80.4902 103.387C80.4902 103.387 83.4709 109.8 85.2773 109.258C86.8128 108.806 85.8193 103.297 85.8193 103.297C85.8193 103.297 85.0064 100.316 85.2773 98.8709C85.5483 97.3354 81.3031 98.329 81.3031 98.329Z" fill="#BF6052"/>
<path d="M107.768 113.052L108.942 115.671C109.393 115.49 110.477 114.858 111.11 114.587L109.303 111.155V110.974V110.884C109.303 110.703 109.393 110.432 109.484 110.342C109.574 110.161 109.664 109.981 109.755 109.8C109.845 109.619 109.755 109.439 109.574 109.348C109.393 109.258 108.942 109.8 108.761 109.981C108.49 110.703 107.858 112.69 107.768 113.052Z" fill="#BF6052"/>
<path d="M65.3161 138.884C65.6774 138.071 66.4 137.258 66.671 136.264C66.7613 135.903 66.7613 135.452 66.8516 134.91C66.5807 131.026 65.7678 120.91 65.9484 120.368C66.129 119.735 70.9161 109.258 70.9161 109.258L74.9807 113.052L70.2839 122.626C70.2839 123.168 69.9226 133.555 69.9226 133.555C69.9226 133.555 69.8323 135.632 69.8323 136.716C69.8323 137.258 70.0129 137.71 70.1032 138.071C70.2839 138.613 70.3742 139.606 70.3742 139.877C70.3742 140.148 70.2839 140.781 70.1936 141.142C70.1032 141.503 70.1032 141.955 70.0129 142.135C70.0129 142.226 70.0129 142.497 70.0129 142.677C70.0129 142.948 69.7419 143.129 69.471 142.948C69.2903 142.768 69.2 142.406 69.2 142.135C69.1097 141.503 69.2903 140.419 69.2 140.419C69.1097 140.419 68.2065 141.955 68.0258 142.135C67.9355 142.316 66.8516 144.123 66.4903 144.393C66.129 144.664 65.9484 144.484 65.9484 144.303C65.9484 144.123 67.3032 141.503 67.3032 141.503C67.3032 141.503 67.4839 141.142 67.3032 141.232C67.1226 141.323 65.9484 143.581 65.6774 143.942C65.4065 144.213 65.1355 144.393 65.0452 143.942C64.9548 143.49 66.4 141.052 66.4 141.052C66.4 141.052 66.5807 140.781 66.4 140.69C66.2194 140.69 65.2258 142.677 65.0452 142.768C64.8645 142.948 64.5936 142.858 64.5936 142.497C64.5936 142.045 65.8581 139.968 65.8581 139.968C65.8581 139.968 65.9484 139.787 65.7678 139.787C65.6774 139.787 64.6839 141.503 64.4129 141.593C64.2323 141.684 64.1419 141.503 64.1419 141.503C63.7807 141.232 64.9548 139.697 65.3161 138.884Z" fill="#F8A492"/>
<path d="M67.5742 114.406L72.9033 118.019C72.9033 118.019 75.8839 113.594 77.5097 111.968C79.4968 109.981 76.7871 103.929 75.4323 104.2C72.542 105.013 67.5742 114.406 67.5742 114.406Z" fill="#FB15A6"/>
<path d="M120.232 114.226H113.007C111.29 114.226 109.845 112.781 109.845 111.064H123.394C123.303 112.871 121.948 114.226 120.232 114.226Z" fill="#0E2E35"/>
<path d="M137.935 187.658L139.29 187.568L122.129 112.419L120.865 112.6L137.935 187.658Z" fill="#3B314A"/>
<path d="M94.671 187.658L93.3162 187.568L110.387 112.419L111.742 112.6L94.671 187.658Z" fill="#3B314A"/>
<path d="M115.806 187.748H117.071L117.342 112.329H115.987L115.806 187.748Z" fill="#3B314A"/>
<path d="M134.774 169.232H98.1033V170.226H134.774V169.232Z" fill="#3B314A"/>
<path d="M140.645 110.071L134.503 109.348L135.677 99.2322L141.819 99.9548C143.355 100.135 144.439 101.49 144.348 103.116L143.806 107.632C143.626 109.168 142.181 110.252 140.645 110.071Z" fill="#3B314A"/>
<path d="M118.106 89.4386L117.767 89.313L116.919 91.5996L117.258 91.7252L118.106 89.4386Z" fill="#3B314A"/>
<path d="M124.148 90.1448L123.809 90.0192L122.961 92.3058L123.3 92.4313L124.148 90.1448Z" fill="#3B314A"/>
<path d="M125.832 90.6516L116.89 89.658C116.438 89.5677 116.077 89.2064 116.167 88.7548L116.8 83.1548C116.89 82.7032 117.251 82.3419 117.703 82.4322L126.645 83.4258C127.097 83.5161 127.458 83.8774 127.368 84.329L126.735 89.929C126.735 90.2903 126.284 90.6516 125.832 90.6516Z" fill="#6C5E81"/>
<path d="M133.148 114.226L107.135 111.245L109.393 91.1935L135.948 94.1741C137.213 94.3548 138.116 95.4386 137.935 96.7032L136.219 111.697C136.038 113.323 134.684 114.406 133.148 114.226Z" fill="#6C5E81"/>
<path d="M108.039 111.426L96.8385 110.161C96.2966 110.071 96.0256 109.619 96.0256 109.168L98.1031 90.9226C98.1934 90.3806 98.645 90.1097 99.0966 90.1097L110.297 91.3742C110.839 91.4645 111.11 91.9161 111.11 92.3677L109.032 110.613C109.032 111.065 108.58 111.426 108.039 111.426Z" fill="#3B314A"/>
<path d="M108.129 104.652L98.374 103.568C98.1031 103.568 97.9224 103.297 98.0128 103.116L99.2773 91.9161C99.2773 91.6451 99.5482 91.4645 99.7289 91.5548L109.484 92.5484C109.755 92.5484 109.935 92.8193 109.845 93L108.58 104.2C108.58 104.471 108.4 104.652 108.129 104.652Z" fill="#C1C1C1"/>
<path d="M99.3676 105.374C99.3676 105.645 99.0966 105.735 98.916 105.735C98.645 105.735 98.5547 105.464 98.5547 105.284C98.5547 105.013 98.8257 104.923 99.0063 104.923C99.1869 104.923 99.3676 105.103 99.3676 105.374Z" fill="#E6F7FF"/>
<path d="M100.993 105.555C100.993 105.826 100.722 105.916 100.542 105.916C100.271 105.916 100.18 105.645 100.18 105.465C100.18 105.194 100.451 105.103 100.632 105.103C100.903 105.103 101.084 105.284 100.993 105.555Z" fill="#E6F7FF"/>
<path d="M107.767 106.277C107.767 106.548 107.497 106.639 107.316 106.639C107.045 106.639 106.955 106.368 106.955 106.187C106.955 105.916 107.226 105.826 107.406 105.826C107.677 105.916 107.858 106.097 107.767 106.277Z" fill="#FB15A6"/>
<path d="M124.748 90.471L115.806 89.4774C115.355 89.3871 114.993 89.0258 115.084 88.5742L115.716 82.9742C115.806 82.5226 116.168 82.1613 116.619 82.2516L125.561 83.2452C126.013 83.3355 126.374 83.6968 126.284 84.1484L125.652 89.7484C125.561 90.2 125.2 90.5613 124.748 90.471Z" fill="#3B314A"/>
<path d="M124.568 89.5677L116.168 88.5742C115.987 88.5742 115.897 88.3935 115.897 88.2129L116.439 83.2451C116.439 83.0645 116.619 82.9742 116.8 82.9742L125.2 83.9677C125.381 83.9677 125.471 84.1484 125.471 84.329L124.929 89.2968C124.839 89.4774 124.658 89.5677 124.568 89.5677Z" fill="#C1C1C1"/>
<path d="M124.206 91.8257L116.8 91.0129C116.168 90.9225 115.626 91.3741 115.626 92.0064L125.2 93.0903C125.2 92.3677 124.748 91.8257 124.206 91.8257Z" fill="#3B314A"/>
<path d="M143.445 113.864L141.097 113.594C140.645 113.503 140.374 113.142 140.374 112.69L142.09 97.3354C142.18 96.8838 142.542 96.6129 142.993 96.6129L145.342 96.8838C145.793 96.9741 146.064 97.3354 146.064 97.7871L144.348 113.142C144.348 113.594 143.897 113.864 143.445 113.864Z" fill="#6C5E81"/>
<path d="M126.735 111.968L110.658 110.161C110.387 110.161 110.116 109.89 110.206 109.529L110.658 105.464C110.658 105.193 110.929 104.923 111.29 105.013L127.368 106.819C127.639 106.819 127.91 107.09 127.819 107.452L127.368 111.516C127.368 111.787 127.097 111.968 126.735 111.968Z" fill="#3B314A"/>
<path d="M118.877 104.471L111.652 103.658C111.471 103.658 111.381 103.477 111.381 103.297C111.381 103.116 111.561 103.026 111.742 103.026L118.968 103.839C119.148 103.839 119.239 104.019 119.239 104.2C119.148 104.381 118.968 104.561 118.877 104.471Z" fill="#3B314A"/>
<path d="M118.967 103.206L111.742 102.393C111.561 102.393 111.471 102.213 111.471 102.032C111.471 101.852 111.651 101.761 111.832 101.761L119.058 102.574C119.238 102.574 119.329 102.755 119.329 102.935C119.329 103.116 119.148 103.297 118.967 103.206Z" fill="#3B314A"/>
<path d="M119.148 101.942L111.922 101.129C111.742 101.129 111.651 100.948 111.651 100.768C111.651 100.587 111.832 100.497 112.013 100.497L119.238 101.31C119.419 101.31 119.509 101.49 119.509 101.671C119.419 101.852 119.329 102.032 119.148 101.942Z" fill="#3B314A"/>
<path d="M119.238 100.768L112.013 99.9548C111.832 99.9548 111.742 99.7741 111.742 99.5935C111.742 99.4128 111.922 99.3225 112.103 99.3225L119.329 100.135C119.509 100.135 119.6 100.316 119.6 100.497C119.6 100.587 119.419 100.768 119.238 100.768Z" fill="#3B314A"/>
<path d="M112.374 106.819C112.374 107.09 112.103 107.181 111.922 107.181C111.651 107.181 111.561 106.91 111.561 106.729C111.561 106.458 111.832 106.368 112.013 106.368C112.284 106.368 112.464 106.639 112.374 106.819Z" fill="#E6F7FF"/>
<path d="M114.632 107.09C114.632 107.361 114.361 107.452 114.181 107.452C113.91 107.452 113.819 107.181 113.819 107C113.819 106.729 114.09 106.639 114.271 106.639C114.542 106.639 114.723 106.819 114.632 107.09Z" fill="#E6F7FF"/>
<path d="M116.89 107.361C116.89 107.632 116.619 107.723 116.439 107.723C116.168 107.723 116.077 107.452 116.077 107.271C116.077 107 116.348 106.91 116.529 106.91C116.8 106.91 116.981 107.09 116.89 107.361Z" fill="#E6F7FF"/>
<path d="M119.148 107.632C119.148 107.903 118.877 107.994 118.697 107.994C118.426 107.994 118.335 107.723 118.335 107.542C118.335 107.271 118.606 107.181 118.787 107.181C119.058 107.181 119.148 107.361 119.148 107.632Z" fill="#E6F7FF"/>
<path d="M125.561 108.355C125.561 108.626 125.29 108.806 125.11 108.716C124.839 108.716 124.748 108.445 124.748 108.264C124.748 107.994 125.019 107.813 125.2 107.903C125.381 107.903 125.561 108.084 125.561 108.355Z" fill="#FB15A6"/>
<path opacity="0.5" d="M104.787 104.29L107.587 104.561L105.69 92.0967L102.89 91.8257L104.787 104.29Z" fill="#E6F7FF"/>
<path opacity="0.5" d="M102.077 103.929L103.432 104.11L101.535 91.6451L100.18 91.4645L102.077 103.929Z" fill="#E6F7FF"/>
<path opacity="0.5" d="M122.219 89.2968L123.664 89.4774L122.851 83.7871L121.316 83.6064L122.219 89.2968Z" fill="#E6F7FF"/>
<path opacity="0.5" d="M119.509 89.0258L120.322 89.1161L119.419 83.4258L118.606 83.3354L119.509 89.0258Z" fill="#E6F7FF"/>
<path d="M81.845 89.8386C83.4708 89.0257 85.5482 89.8386 86.0901 91.6451C86.3611 92.458 86.5418 93.3612 86.7224 94.4451C87.174 97.0645 86.1805 99.7741 85.0063 99.9548C83.8321 100.135 80.3095 98.8709 79.6772 95.258C79.2256 92.9999 80.0385 90.7419 81.845 89.8386Z" fill="#BF6052"/>
<path d="M80.5806 95.4387C80.671 95.9806 80.3097 96.5226 79.8581 96.6129C79.4065 96.7032 78.9548 96.2516 78.8645 95.7097C78.7742 95.1677 79.1355 94.6258 79.5871 94.5355C80.0387 94.4451 80.4903 94.8064 80.5806 95.4387Z" fill="#BF6052"/>
<path d="M79.5871 94.4451C79.5871 94.4451 81.0322 94.3548 81.3032 93.2709C81.4838 92.2774 82.7484 89.7483 85.2774 89.8387C87.8064 89.8387 82.658 88.5741 82.4774 88.6645C82.2967 88.7548 80.129 89.3871 80.129 89.3871C80.129 89.3871 78.7742 91.3742 78.7742 91.5548C78.7742 91.7354 78.7742 93.5419 78.7742 93.5419L79.5871 94.4451Z" fill="#880136"/>
<path d="M84.0129 97.0645L86.1807 96.7935C86.1807 96.7935 86.271 97.6064 85.2775 97.7871C84.1033 97.9677 84.0129 97.0645 84.0129 97.0645Z" fill="white"/>
<path d="M79.9483 93.1806C79.9483 93.1806 79.587 89.1161 79.9483 87.5806C79.9483 87.5806 78.9548 87.129 78.4128 88.3032C78.2322 88.6645 77.8709 90.4709 78.1419 93.5419L79.9483 93.1806Z" fill="#6C5E81"/>
<path d="M80.942 93.7226C81.4839 94.8065 81.213 96.071 80.2194 96.6129C79.2259 97.1548 77.9614 96.7032 77.4194 95.6194C76.8775 94.5355 77.1485 93.271 78.142 92.729C79.1356 92.2774 80.4001 92.6387 80.942 93.7226Z" fill="#FB15A6"/>
<path d="M80.7613 93.8129C81.3033 94.8967 81.0323 96.1613 80.0388 96.7032C79.0452 97.2451 77.7807 96.7935 77.2388 95.7097C76.6968 94.6258 76.9678 93.3613 77.9613 92.8193C78.8646 92.3677 80.1291 92.8193 80.7613 93.8129Z" fill="#FB15A6"/>
<path d="M80.0389 94.1741C80.4002 94.8064 80.2195 95.6193 79.5873 95.9806C78.955 96.3419 78.2324 96.0709 77.8711 95.3483C77.5099 94.7161 77.6905 93.9032 78.3228 93.5419C78.955 93.2709 79.6776 93.5419 80.0389 94.1741Z" fill="#A16EB0"/>
<path opacity="0.5" d="M78.2324 95.1677C77.9615 94.6258 78.0518 93.9032 78.5034 93.5419C78.4131 93.5419 78.3228 93.6323 78.3228 93.6323C77.6905 93.9935 77.5099 94.7161 77.8711 95.4387C78.2324 96.071 79.0453 96.3419 79.5873 96.071C79.6776 96.071 79.7679 95.9806 79.7679 95.8903C79.226 95.9806 78.5937 95.7097 78.2324 95.1677Z" fill="#642D78"/>
<path d="M203.058 127.503V128.406C201.523 128.406 200.258 129.671 200.258 131.206C200.258 132.742 201.523 134.006 203.058 134.006V134.368C203.058 134.639 203.239 134.91 203.6 134.91H207.484C207.755 134.91 208.026 134.729 208.026 134.368V127.594H203.058V127.503ZM200.89 131.206C200.89 130.032 201.794 129.129 202.968 129.129V133.284C201.884 133.284 200.89 132.29 200.89 131.206Z" fill="#FFE838"/>
<path d="M207.936 128.858C206.671 128.858 205.587 129.942 205.587 131.206C205.587 132.471 206.671 133.555 207.936 133.555V128.858Z" fill="#FB15A6"/>
<path d="M223.471 133.555C223.651 133.555 223.832 133.374 223.832 133.194V131.477C223.832 131.297 223.651 131.116 223.471 131.116C223.29 131.116 223.109 131.297 223.109 131.477V133.194C223.109 133.464 223.29 133.555 223.471 133.555Z" fill="#642D78"/>
<path d="M219.316 104.2C219.948 103.297 220.761 102.845 221.574 102.755C222.838 102.664 223.832 103.477 223.832 103.477L224.284 102.935C224.193 102.935 223.019 101.852 221.484 102.032C220.49 102.123 219.587 102.664 218.774 103.748L219.316 104.2Z" fill="#642D78"/>
<path d="M225.638 102.935L227.716 105.013C228.258 105.555 228.258 106.368 227.716 106.91L227.626 107C227.084 107.542 226.271 107.542 225.729 107L223.651 104.923C223.109 104.381 223.109 103.568 223.651 103.026L223.742 102.935C224.284 102.394 225.096 102.394 225.638 102.935Z" fill="#FB15A6"/>
<path d="M232.593 105.374L225.368 112.6C223.38 110.613 223.38 107.361 225.368 105.374C227.264 103.297 230.516 103.297 232.593 105.374Z" fill="#FB15A6"/>
<path d="M210.645 118.019L217.871 103.206L220.129 104.29L212.903 119.103L210.645 118.019ZM218.322 104.29L211.729 117.658L212.632 118.11L219.226 104.742L218.322 104.29Z" fill="#FB15A6"/>
<path d="M210.193 119.013L212.542 118.2L217.871 133.826L215.522 134.639L210.193 119.013ZM212.09 119.103L211.187 119.374L215.974 133.555L216.877 133.284L212.09 119.103Z" fill="#FB15A6"/>
<path d="M225.097 113.323C225.277 113.503 225.548 113.503 225.639 113.323L233.316 105.645C233.497 105.464 233.497 105.284 233.316 105.103C233.135 104.923 232.955 104.923 232.774 105.103L225.097 112.781C224.916 112.961 224.916 113.142 225.097 113.323Z" fill="#642D78"/>
<path d="M209.832 118.832C209.832 119.826 210.645 120.639 211.638 120.639C212.632 120.639 213.445 119.826 213.445 118.832C213.445 117.839 212.632 117.026 211.638 117.026C210.645 117.026 209.832 117.839 209.832 118.832Z" fill="#FB15A6"/>
<path d="M226.542 132.29H214.438C213.084 132.29 211.909 133.464 211.909 134.819H229.071C229.071 133.374 227.897 132.29 226.542 132.29Z" fill="#6C5E81"/>
<path d="M173.793 93.3613H202.516C203.509 93.3613 204.322 94.1742 204.322 95.1677V107.09C204.322 108.084 203.509 108.897 202.516 108.897H179.935C179.032 110.161 177.406 112.51 177.226 112.51C177.045 112.51 177.316 110.342 177.496 108.897H173.793C172.8 108.897 171.987 108.084 171.987 107.09V95.1677C171.987 94.1742 172.8 93.3613 173.793 93.3613Z" fill="#FB15A6"/>
<path d="M175.961 98.4193H193.032C193.213 98.4193 193.393 98.2387 193.393 98.058C193.393 97.8774 193.213 97.6967 193.032 97.6967H175.961C175.78 97.6967 175.6 97.8774 175.6 98.058C175.6 98.2387 175.78 98.4193 175.961 98.4193Z" fill="white"/>
<path d="M175.961 104.561H200.98C201.161 104.561 201.342 104.381 201.342 104.2C201.342 104.019 201.161 103.839 200.98 103.839H175.961C175.78 103.839 175.6 104.019 175.6 104.2C175.509 104.381 175.69 104.561 175.961 104.561Z" fill="white"/>
<path d="M188.967 101.49H200.98C201.161 101.49 201.342 101.31 201.342 101.129C201.342 100.948 201.161 100.768 200.98 100.768H188.967C188.787 100.768 188.606 100.948 188.606 101.129C188.606 101.31 188.787 101.49 188.967 101.49Z" fill="white"/>
<path d="M175.961 101.49H186.89C187.071 101.49 187.251 101.31 187.251 101.129C187.251 100.948 187.071 100.768 186.89 100.768H175.961C175.78 100.768 175.6 100.948 175.6 101.129C175.509 101.31 175.69 101.49 175.961 101.49Z" fill="white"/>
<path d="M195.651 98.4193H200.98C201.161 98.4193 201.342 98.2387 201.342 98.058C201.342 97.8774 201.161 97.6967 200.98 97.6967H195.651C195.471 97.6967 195.29 97.8774 195.29 98.058C195.29 98.2387 195.38 98.4193 195.651 98.4193Z" fill="white"/>
<path d="M248.942 80.6258H223.561C222.658 80.6258 221.935 81.3484 221.935 82.2516V92.729C221.935 93.6322 222.658 94.3548 223.561 94.3548H243.522C244.335 95.529 245.78 97.5161 245.961 97.5161C246.051 97.5161 245.871 95.6193 245.69 94.3548H248.942C249.845 94.3548 250.568 93.6322 250.568 92.729V82.2516C250.477 81.3484 249.755 80.6258 248.942 80.6258Z" fill="#A16EB0"/>
<path d="M232.593 85.0516H225.548C225.368 85.0516 225.187 84.8709 225.187 84.6903C225.187 84.5096 225.368 84.329 225.548 84.329H232.593C232.774 84.329 232.955 84.5096 232.955 84.6903C232.955 84.9612 232.774 85.0516 232.593 85.0516Z" fill="white"/>
<path d="M230.064 88.1225H225.548C225.368 88.1225 225.187 87.9419 225.187 87.7612C225.187 87.5806 225.368 87.4 225.548 87.4H230.064C230.245 87.4 230.426 87.5806 230.426 87.7612C230.426 87.9419 230.335 88.1225 230.064 88.1225Z" fill="white"/>
<path d="M237.2 88.1225H232.232C232.051 88.1225 231.871 87.9419 231.871 87.7612C231.871 87.5806 232.051 87.4 232.232 87.4H237.2C237.381 87.4 237.561 87.5806 237.561 87.7612C237.561 87.9419 237.381 88.1225 237.2 88.1225Z" fill="white"/>
<path d="M247.045 88.1225H239.548C239.368 88.1225 239.187 87.9419 239.187 87.7612C239.187 87.5806 239.368 87.4 239.548 87.4H247.045C247.226 87.4 247.406 87.5806 247.406 87.7612C247.406 87.9419 247.226 88.1225 247.045 88.1225Z" fill="white"/>
<path d="M247.045 85.0516H235.032C234.851 85.0516 234.671 84.8709 234.671 84.6903C234.671 84.5096 234.851 84.329 235.032 84.329H247.045C247.225 84.329 247.406 84.5096 247.406 84.6903C247.406 84.9612 247.225 85.0516 247.045 85.0516Z" fill="white"/>
<path d="M235.213 91.1935H225.548C225.368 91.1935 225.187 91.0129 225.187 90.8322C225.187 90.6516 225.368 90.4709 225.548 90.4709H235.213C235.393 90.4709 235.574 90.6516 235.574 90.8322C235.574 91.0129 235.484 91.1935 235.213 91.1935Z" fill="white"/>
<path d="M247.045 91.1935H237.381C237.2 91.1935 237.019 91.0129 237.019 90.8322C237.019 90.6516 237.2 90.4709 237.381 90.4709H247.045C247.226 90.4709 247.406 90.6516 247.406 90.8322C247.406 91.0129 247.226 91.1935 247.045 91.1935Z" fill="white"/>
<path d="M60.0773 187.748H298.258V187.116H59.1741L60.0773 187.748Z" fill="#C1C1C1"/>
</svg>
