<svg width="17" height="16" viewBox="0 0 17 16" fill="none" xmlns="http://www.w3.org/2000/svg">
<path d="M7.98662 16C5.86844 16 3.83701 15.1572 2.33923 13.6569C0.841445 12.1566 0 10.1218 0 8.00011C0 5.8784 0.841445 3.8436 2.33923 2.34333C3.83701 0.843057 5.86844 0.000213664 7.98662 0.000213664C9.48297 -0.0108236 10.9514 0.405966 12.2195 1.20165L11.4499 2.438C10.4124 1.78694 9.21092 1.44585 7.98662 1.45474C6.69422 1.45474 5.43084 1.83862 4.35624 2.55783C3.28165 3.27705 2.4441 4.29929 1.94952 5.4953C1.45494 6.69131 1.32554 8.00737 1.57767 9.27704C1.82981 10.5467 2.45216 11.713 3.36603 12.6284C4.27989 13.5438 5.44423 14.1672 6.7118 14.4197C7.97937 14.6723 9.29324 14.5426 10.4873 14.0472C11.6813 13.5518 12.7018 12.7129 13.4199 11.6365C14.1379 10.5601 14.5211 9.29466 14.5211 8.00011C14.5247 7.42267 14.4589 6.84691 14.3251 6.28522L15.7336 5.93323C15.8961 6.61004 15.9766 7.30401 15.9732 8.00011C15.9707 10.121 15.1285 12.1544 13.6313 13.6541C12.134 15.1539 10.104 15.9975 7.98662 16Z" fill="#BF48F4"/>
<path d="M7.98678 10.1828C7.79423 10.1827 7.60959 10.1061 7.47346 9.96966L4.05591 6.54644L5.08255 5.51809L7.98678 8.42714L15.9734 0.427246L17 1.4556L8.5001 9.96966C8.36397 10.1061 8.17932 10.1827 7.98678 10.1828Z" fill="#BF48F4"/>
</svg>
