<?xml version="1.0" encoding="UTF-8" standalone="no"?>
<!-- Created with Inkscape (http://www.inkscape.org/) -->

<svg
   width="46.124985mm"
   height="57.656258mm"
   viewBox="0 0 46.124985 57.656258"
   version="1.1"
   id="svg11098"
   inkscape:version="1.2.1 (0b8a7e5fb6, 2022-09-14, custom)"
   sodipodi:docname="logo.svg"
   xmlns:inkscape="http://www.inkscape.org/namespaces/inkscape"
   xmlns:sodipodi="http://sodipodi.sourceforge.net/DTD/sodipodi-0.dtd"
   xmlns:xlink="http://www.w3.org/1999/xlink"
   xmlns="http://www.w3.org/2000/svg"
   xmlns:svg="http://www.w3.org/2000/svg">
  <sodipodi:namedview
     id="namedview11100"
     pagecolor="#ffffff"
     bordercolor="#666666"
     borderopacity="1.0"
     inkscape:showpageshadow="2"
     inkscape:pageopacity="0.0"
     inkscape:pagecheckerboard="0"
     inkscape:deskcolor="#d1d1d1"
     inkscape:document-units="mm"
     showgrid="false"
     inkscape:zoom="0.75722503"
     inkscape:cx="220.5421"
     inkscape:cy="106.30922"
     inkscape:window-width="1848"
     inkscape:window-height="1016"
     inkscape:window-x="72"
     inkscape:window-y="27"
     inkscape:window-maximized="1"
     inkscape:current-layer="layer1" />
  <defs
     id="defs11095">
    <linearGradient
       inkscape:collect="always"
       xlink:href="#linearGradient7953"
       id="linearGradient7955"
       x1="110"
       y1="20"
       x2="220"
       y2="140"
       gradientUnits="userSpaceOnUse"
       gradientTransform="matrix(0.38437486,0,0,0.38437486,46.076164,85.912992)" />
    <linearGradient
       inkscape:collect="always"
       id="linearGradient7953">
      <stop
         style="stop-color:#8f00ff;stop-opacity:1"
         offset="0"
         id="stop7949" />
      <stop
         style="stop-color:#fb0ca2;stop-opacity:1"
         offset="1"
         id="stop7951" />
    </linearGradient>
  </defs>
  <g
     inkscape:label="Layer 1"
     inkscape:groupmode="layer"
     id="layer1"
     transform="translate(-84.513654,-85.912992)">
    <path
       id="path7924"
       style="color:#000000;fill:url(#linearGradient7955);fill-opacity:1;stroke-width:0.264583;paint-order:stroke fill markers"
       d="m 113.34176,85.912992 c -15.898454,0 -28.828106,12.929675 -28.828106,28.828128 0,15.89845 12.929652,28.82813 28.828106,28.82813 4.85719,0 9.43423,-1.21195 13.45313,-3.34153 1.34723,-0.71389 2.63334,-1.52781 3.84375,-2.43836 v -5.01266 c -0.29419,0.28201 -0.59546,0.55752 -0.90313,0.82509 -0.30769,0.26745 -0.62151,0.52758 -0.94217,0.77997 -0.32067,0.25251 -0.64809,0.49671 -0.98121,0.73348 -0.3331,0.23678 -0.67218,0.46561 -1.01724,0.68617 -3.88174,2.48124 -8.49421,3.92406 -13.45313,3.92406 -13.821152,0 -24.984363,-11.1632 -24.984363,-24.98435 0,-13.82119 11.163211,-24.984393 24.984363,-24.984393 4.95892,0 9.57139,1.44286 13.45313,3.9241 1.38026,0.88227 2.667,1.89603 3.84375,3.02471 v -5.01266 c -1.21041,-0.91059 -2.49652,-1.72451 -3.84375,-2.43836 -4.0189,-2.12958 -8.59594,-3.341525 -13.45313,-3.341525 z m 13.45313,49.888418 c 0.34505,-0.22064 0.68413,-0.44943 1.01724,-0.68617 0.33313,-0.23677 0.66054,-0.48105 0.98121,-0.73348 0.32066,-0.2525 0.63449,-0.51244 0.94217,-0.77997 0.30768,-0.26745 0.60894,-0.54293 0.90313,-0.82509 v -4.58245 h -3.84375 z M 113.34176,93.600467 c -11.6528,0 -21.140599,9.487823 -21.140599,21.140653 0,11.65279 9.487799,21.14061 21.140599,21.14061 3.45877,0 6.7236,-0.84098 9.60936,-2.32128 v -4.42481 -8.62891 h -3.84374 v 10.53953 c -1.80344,0.63566 -3.74051,0.99173 -5.76562,0.99173 -9.57551,0 -17.296856,-7.72138 -17.296856,-17.29687 0,-9.57552 7.721346,-17.296873 17.296856,-17.296873 3.56036,0 6.86331,1.06902 9.60936,2.902323 v -4.424823 c -2.88576,-1.48026 -6.15059,-2.32128 -9.60936,-2.32128 z" />
  </g>
</svg>
