<svg width="340" height="210" viewBox="0 0 340 210" fill="none" xmlns="http://www.w3.org/2000/svg">
<g clip-path="url(#clip0)">
<path d="M129.801 102.64V165.617H135.485V102.64H129.801Z" fill="#2F3354"/>
<path d="M79.4347 102.632V165.609H85.119V102.632H79.4347Z" fill="#2F3354"/>
<path d="M135.48 110.543H79.4283V43.6687C79.4283 41.5073 81.1732 39.7529 83.3228 39.7529H131.586C133.735 39.7529 135.48 41.5073 135.48 43.6687V110.543Z" fill="#210B04"/>
<path d="M135.48 110.363H79.4283V132.555H135.48V110.363Z" fill="#28110B"/>
<path d="M135.48 110.363H79.4283V117.841H135.48V110.363Z" fill="#2F3354"/>
<path d="M135.48 102.634V127.123H144.286V102.634H135.48Z" fill="#28110B"/>
<path d="M79.4283 102.64V127.129H72.179C71.3245 127.129 70.632 126.432 70.632 125.573V104.774C70.632 103.598 71.5853 102.64 72.7546 102.64H79.4283Z" fill="#28110B"/>
<path d="M194.656 102.638V165.615H200.34V102.638H194.656Z" fill="#2F3354"/>
<path d="M144.29 102.639V165.616H149.974V102.639H144.29Z" fill="#2F3354"/>
<path d="M200.337 110.543H144.286V43.6687C144.286 41.5073 146.03 39.7529 148.18 39.7529H196.443C198.593 39.7529 200.337 41.5073 200.337 43.6687V110.543Z" fill="#210B04"/>
<path d="M200.337 110.363H144.286V132.555H200.337V110.363Z" fill="#28110B"/>
<path d="M200.337 110.363H144.286V117.841H200.337V110.363Z" fill="#2F3354"/>
<path d="M200.335 102.632V127.121H209.141V102.632H200.335Z" fill="#28110B"/>
<path d="M259.511 102.635V165.613H265.195V102.635H259.511Z" fill="#2F3354"/>
<path d="M209.145 102.636V165.614H214.829V102.636H209.145Z" fill="#2F3354"/>
<path d="M265.195 110.543H209.143V43.6687C209.143 41.5073 210.888 39.7529 213.037 39.7529H261.3C263.45 39.7529 265.195 41.5073 265.195 43.6687V110.543Z" fill="#210B04"/>
<path d="M265.195 110.363H209.143V132.555H265.195V110.363Z" fill="#28110B"/>
<path d="M265.195 110.363H209.143V117.841H265.195V110.363Z" fill="#2F3354"/>
<path d="M274 104.774V125.573C274 126.432 273.307 127.129 272.453 127.129H265.195V102.64H271.877C273.047 102.64 274 103.598 274 104.774Z" fill="#28110B"/>
<path d="M76.9819 101.69C76.9819 101.69 75.0122 101.383 73.6541 101.066C72.6018 100.822 69.9844 101.157 69.3189 101.835C68.6533 102.513 66.5307 107.243 66.1349 107.532C65.7302 107.822 66.3418 108.491 67.0433 108.156C67.0433 108.156 67.6909 110.227 69.2829 109.449C70.8749 108.672 71.9632 106.98 72.7996 106.682C73.6361 106.384 78.502 104.882 78.502 104.882C78.502 104.882 78.2321 101.193 76.9819 101.69Z" fill="#BF6052"/>
<path d="M74.6884 164.514C74.6884 164.514 71.2886 170.31 69.8585 171.251C67.9068 172.535 69.13 173.837 70.0564 173.837C70.9828 173.837 75.7047 174.181 76.7481 172.987C77.7914 171.803 78.3041 168.24 79.2754 167.308C80.2468 166.377 81.2452 162.678 78.8077 161.774C76.6401 160.978 74.6884 164.514 74.6884 164.514Z" fill="#213A70"/>
<path d="M76.1544 161.963C76.1544 161.963 72.2599 168.746 71.5943 169.75C70.9198 170.754 72.8535 170.754 74.0587 170.274C75.255 169.795 78.268 164.93 78.7087 164.043C79.2214 162.985 78.7987 161.774 78.7987 161.774L76.1544 161.963Z" fill="#BF6052"/>
<path d="M80.1029 165.617L79.2035 172.571L78.7268 172.589L78.8707 167.588L80.1029 165.617Z" fill="#213A70"/>
<path d="M108.39 164.514C108.39 164.514 104.99 170.31 103.56 171.251C101.608 172.535 102.831 173.837 103.758 173.837C104.684 173.837 109.406 174.181 110.449 172.987C111.493 171.803 112.005 168.239 112.977 167.308C113.948 166.377 114.973 162.578 112.509 161.774C110.332 161.068 108.39 164.514 108.39 164.514Z" fill="#213A70"/>
<path d="M109.658 161.973C109.658 161.973 105.97 168.746 105.296 169.741C104.621 170.744 106.555 170.744 107.76 170.265C108.956 169.786 111.969 164.921 112.41 164.034C112.923 162.976 112.5 161.765 112.5 161.765L109.658 161.973Z" fill="#BF6052"/>
<path d="M113.804 165.617L112.905 172.571L112.428 172.589L112.581 167.588L113.804 165.617Z" fill="#213A70"/>
<path d="M123.473 111.792L92.7128 125.881C92.7128 125.881 89.277 127.002 88.8902 130.837C87.685 142.801 78.7897 161.783 78.7897 161.783C75.9296 163.184 76.1544 161.963 76.1544 161.963C77.9533 156.158 80.1478 132.22 80.9303 122.589C81.0922 120.554 81.2002 119.153 81.2182 118.71C81.2361 118.402 81.5599 118.004 82.1356 117.543C86.3538 114.098 103.722 106.981 103.722 106.981C116.763 106.646 123.473 111.792 123.473 111.792Z" fill="#BF6052"/>
<path d="M129.265 117.841C128.312 126.197 116.448 125.239 116.448 125.239H102.067C102.067 125.239 105.844 133.694 107.301 140.82C108.848 148.39 112.5 161.774 112.5 161.774C112.5 161.774 112.257 162.226 109.658 161.973C109.658 161.973 98.3701 139.346 94.0439 133.658C93.1175 132.437 90.4462 125.79 89.9875 121.83C89.8346 120.491 89.9245 119.469 90.4192 119.044C90.9139 118.628 92.0652 117.832 93.5942 116.865C98.1093 114.016 105.934 109.612 110.287 108.626C116.125 107.306 125.362 104.837 125.362 104.837C125.362 104.837 130.219 109.476 129.265 117.841Z" fill="#BF6052"/>
<path d="M119.479 53.4535C119.479 53.4535 121.629 49.3479 120.586 44.9709C119.533 40.594 115.495 36.2352 109.586 38.2337C103.668 40.2413 98.8828 44.8534 102.435 50.1979C105.979 55.5425 99.2245 57.948 100.951 60.4892C102.669 63.0303 102.022 65.68 101.293 66.2768C100.565 66.8646 98.2172 68.9717 98.478 71.4677C98.7388 73.9636 109.955 64.1969 109.955 64.1969C109.955 64.1969 116.044 51.8619 119.479 53.4535Z" fill="#3A3F47"/>
<path d="M101.455 105.977C101.455 105.977 102.346 110.327 125.317 104.837C125.317 104.837 117.618 102.26 101.455 105.977Z" fill="#EB4747"/>
<path d="M125.578 106.058C125.937 106.745 126.288 107.424 126.648 108.111C118.247 108.355 109.856 108.599 101.455 108.852C102.786 104.376 102.355 98.3261 102.121 93.7231C101.833 88.1072 98.7568 84.2006 99.0806 78.5305C97.4167 78.8018 97.1289 78.856 95.465 79.1092C98.0103 71.8204 98.8828 68.2121 106.789 65.3997C109.361 64.4863 111.052 64.3054 113.84 64.5406C122.996 65.3002 125.757 65.4087 130.255 73.7466C123.212 74.877 124.372 77.4181 122.241 84.4538C121.197 87.8902 120.109 91.7155 120.676 95.3418C121.215 98.8958 125.578 102.803 125.578 106.058Z" fill="white"/>
<path d="M110.971 67.1631C114.722 66.4487 113.921 64.3597 113.921 64.3597C113.921 64.3597 113.75 63.175 113.678 61.6829C113.66 61.303 113.651 60.8961 113.651 60.4891C113.651 59.8652 113.678 59.2321 113.75 58.6353C114.056 56.1032 106.951 57.6134 106.951 57.6134C106.951 57.6134 107.364 62.7319 106.384 64.2602C105.404 65.7885 107.22 67.8685 110.971 67.1631Z" fill="#BF6052"/>
<path d="M118.112 64.3416C118.112 64.3416 110.557 73.1136 107.76 75.1483C107.76 75.1483 104.549 72.2364 106.528 64.5315C106.537 64.5315 110.18 62.6958 118.112 64.3416Z" fill="#BF6052"/>
<path d="M117.906 43.2256C117.906 43.2256 121.827 50.831 117.942 58.0294C114.047 65.2279 106.402 54.8914 105.907 53.6796C105.413 52.4678 102.786 45.604 108.003 43.5241C113.22 41.4351 116.799 41.1638 117.906 43.2256Z" fill="#BF6052"/>
<path d="M116.601 45.9205C116.601 45.9205 119.3 49.4925 119.623 52.1241C119.623 52.1241 120.703 47.1413 117.663 42.3484C114.623 37.5555 106.888 42.1223 105.853 44.0304C104.819 45.9476 101.779 47.6296 106.879 55.85C106.879 55.859 116.053 49.4564 116.601 45.9205Z" fill="#3A3F47"/>
<path d="M149.997 99.2124C149.997 99.2124 151.859 100.044 152.749 99.6645C153.63 99.2847 154.998 99.2124 155.429 99.2124C156.005 99.2124 157.813 98.5612 157.786 99.2757C157.759 99.981 154.854 100.478 154.26 100.704C153.666 100.922 156.032 102.242 156.257 102.821C156.473 103.399 153.801 107.225 152.29 106.139C150.779 105.054 149.961 102.875 149.655 102.739C149.349 102.604 148.522 101.989 148.522 101.989L149.997 99.2124Z" fill="#BF6052"/>
<path d="M155.969 102.477C155.969 102.477 160.34 106.121 160.412 106.619C160.484 107.107 160.25 107.342 159.828 107.017C159.405 106.691 155.492 103.616 155.492 103.616C155.492 103.616 159.873 108.825 160.025 109.205C160.115 109.431 159.693 109.902 159.45 109.748C159.207 109.594 154.539 104.693 154.539 104.693C154.539 104.693 158.622 109.558 158.649 109.929C158.667 110.245 158.182 110.589 157.849 110.254C157.516 109.911 153.451 105.615 153.451 105.615C153.451 105.615 156.185 109.35 156.014 109.684C155.915 109.883 155.564 110.308 154.89 109.323C154.215 108.337 152.371 106.185 152.371 106.185L155.969 102.477Z" fill="#BF6052"/>
<path d="M103.569 125.239H116.448C116.448 125.239 128.312 126.197 129.265 117.841C130.219 109.476 125.362 104.837 125.362 104.837C125.362 104.837 119.093 106.519 113.615 107.849C110.872 107.261 107.571 106.881 103.713 106.981C103.713 106.981 80.5076 114.685 81.2092 118.746C81.2182 118.746 90.9229 113.528 103.569 125.239Z" fill="#BF48F4"/>
<path d="M104.324 107.614C104.324 107.614 109.847 109.766 116.619 107.822L116.934 105.28L102.993 106.058L104.324 107.614Z" fill="white"/>
<path d="M104.405 108.789C104.477 109.703 103.56 110.363 102.723 110.001L101.293 109.386C100.862 109.205 100.619 108.744 100.691 108.283C101.284 104.548 102.561 90.0063 100.7 87.5104C100.016 86.588 99.5843 85.7831 99.3415 85.0778C98.2982 87.7817 97.039 91.1367 96.3104 93.4428C96.0766 94.1934 95.6179 94.8445 94.9973 95.3238L78.0342 105.47L75.6777 101.247C86.7136 93.696 89.9875 91.0373 89.9875 91.0373C90.743 88.9844 92.1641 84.8336 94.0889 79.2991C95.3031 75.8084 96.4274 72.589 97.03 70.8618C97.3358 69.9846 97.9294 69.2521 98.7209 68.7728C100.52 67.6966 103.515 65.9875 106.231 64.6672C106.24 64.6581 106.249 64.6581 106.267 64.6491C106.357 64.6038 106.438 64.5677 106.528 64.5225C106.528 64.5225 106.528 64.5225 106.537 64.5225C101.374 72.381 103.389 94.5641 104.405 108.753V108.789Z" fill="#FB15A6"/>
<path d="M123.572 65.2007C125.227 65.4539 129.805 68.0132 133.717 70.3915C138.772 73.4572 144.214 76.2154 146.111 77.9426C149.601 81.1168 151.67 99.4927 152.128 99.2214C152.308 99.1129 149.448 102.576 149.088 102.739C148.909 102.821 141.353 82.609 139.105 81.3158C137.036 80.1221 126.216 76.5229 125.056 76.7037C125.056 76.7037 125.056 76.7037 125.056 76.7128C124.966 76.9027 123.563 79.9683 122.232 84.4447C122.214 84.5171 122.187 84.5894 122.169 84.6708C121.251 87.7907 121.332 91.182 121.836 94.9982C122.214 97.874 124.345 102.576 125.632 104.864C125.784 105.136 125.748 105.66 125.578 106.058C125.479 106.293 125.335 106.492 125.155 106.555L120.496 108.292L119.399 108.699C118.607 108.988 117.78 108.843 117.168 108.391C116.664 108.02 116.296 107.451 116.206 106.763C115.171 98.7512 113.858 90.5761 112.815 87.4923C108.237 73.9636 114.605 63.808 114.605 63.808C114.605 63.808 122.124 64.6581 123.572 65.2007Z" fill="#FB15A6"/>
<path d="M109.775 50.7948C109.775 50.7948 108.264 53.155 109.658 55.1898C111.052 57.2245 109.307 59.2231 109.001 61.3844C108.695 63.5367 114.82 69.2701 108.012 72.1459C101.203 75.0307 99.0357 70.2649 100.772 67.6423C102.507 65.0198 103.74 62.8946 103.884 59.1507C104.045 55.4159 105.269 49.592 109.775 50.7948Z" fill="#3A3F47"/>
<path d="M259.096 64.839L254.95 79.7875C254.806 80.2758 254.635 80.8727 254.455 81.5599L254.446 81.5871C254.446 81.5961 254.447 81.5961 254.438 81.6052C253.745 84.2729 252.891 88.3333 252.639 92.8459C252.468 95.9206 253.034 108.292 253.034 108.292C253.034 108.292 246.765 110.643 237.375 110.046C237.375 110.046 228.354 112.09 229.182 105.868C231.358 89.4004 228.156 80.321 227.869 78.6661C227.869 78.6661 226.501 70.6628 225.521 63.9618C228.363 62.8947 240.496 58.7981 240.496 58.7981L246.783 59.2683C246.783 59.2864 256.335 61.6558 259.096 64.839Z" fill="#FB15A6"/>
<path d="M243.653 37.6821C243.653 37.6821 249.787 38.7221 248.744 48.3802C247.701 58.0384 242.286 57.1884 241.927 57.1703C241.567 57.1522 236.476 57.2878 236.215 45.4774C236.206 45.4774 236.134 36.7506 243.653 37.6821Z" fill="#BF6052"/>
<path d="M246.343 54.3668C246.343 54.3668 246.127 58.3458 246.505 59.2049C246.882 60.0731 241.576 62.8041 238.284 59.6933C238.284 59.6933 238.95 55.3525 238.743 53.8152C238.536 52.2778 246.343 54.3668 246.343 54.3668Z" fill="#BF6052"/>
<path d="M248.87 45.6491C248.87 45.6491 249.554 44.9347 249.788 45.6672C250.03 46.3997 248.699 49.6553 248.78 49.809C248.78 49.809 248.654 50.0894 248.492 49.9356C248.339 49.7729 248.87 45.6491 248.87 45.6491Z" fill="#BF6052"/>
<path d="M236.278 45.3869C236.278 45.3869 235.631 44.6453 235.361 45.3688C235.091 46.0923 236.071 49.3478 236.197 49.5468C236.197 49.5468 236.404 49.8814 236.575 49.7276C236.737 49.5739 236.278 45.3869 236.278 45.3869Z" fill="#BF6052"/>
<path d="M249.266 44.8262C249.05 46.1465 248.852 47.1322 248.852 47.1322L247.962 48.3079C247.962 48.3079 248.016 45.7125 247.881 45.3055C247.827 45.1518 247.764 44.8805 247.71 44.5821C247.611 44.0937 247.503 43.5421 247.431 43.3612C247.314 43.0718 242.169 41.5616 237.591 43.6777C237.591 43.6777 237.627 44.0756 237.627 44.5187C237.627 45.0342 237.573 45.613 237.331 45.7034C236.89 45.8662 237.079 48.7419 237.079 48.7419L236.368 47.91C236.368 47.91 236.161 46.4088 235.954 44.6815C235.954 44.6815 235.954 44.6815 235.954 44.6725C235.909 44.2746 235.865 43.8586 235.82 43.4426C235.721 41.7063 235.892 38.5592 238.131 36.7054C239.651 36.0543 242.071 35.5026 246.1 36.7416C246.1 36.7416 247.026 36.8049 247.287 37.0581C249.788 39.8343 249.266 44.8262 249.266 44.8262Z" fill="#252E3B"/>
<path d="M237.654 59.7748C237.654 59.7748 239.291 62.9128 242.421 62.9218C245.56 62.9309 246.784 60.661 246.918 59.3135C246.918 59.3226 242.484 57.4325 237.654 59.7748Z" fill="#BF6052"/>
<path d="M252.288 93.1895C252.288 93.1895 251.487 96.3275 254.923 97.494C254.923 97.494 268.028 88.1795 268.172 86.8321C268.306 85.5841 261.156 65.8969 258.548 64.2872L255.976 75.6546C256.29 75.5642 260.733 82.3014 260.751 83.676C260.769 85.5208 252.288 93.1895 252.288 93.1895Z" fill="#FB15A6"/>
<path d="M231.008 93.9944C231.008 93.9944 231.817 97.1324 228.372 98.299C228.372 98.299 212.929 86.4975 212.785 85.1501C212.65 83.9021 222.904 65.5805 225.521 63.9798L228.264 76.1249C227.95 76.0345 222.103 82.9435 222.085 84.3271C222.058 86.1629 231.008 93.9944 231.008 93.9944Z" fill="#FB15A6"/>
<path d="M219.513 160.001C219.513 160.001 217.876 161.448 216.41 163.664C214.944 165.879 211.041 165.997 210.87 169.026C210.699 172.056 216.176 172.146 219.045 171.16C221.915 170.175 222.355 167.218 224.091 166.485C225.827 165.744 226.726 165.147 226.601 163.709C226.466 162.262 225.503 159.929 225.503 159.929C225.503 159.929 224.424 160.272 223.785 160.345C223.147 160.399 221.015 160.426 219.513 160.001Z" fill="#213A70"/>
<path d="M259.933 159.124C259.933 159.124 261.444 160.797 262.334 161.819C263.225 162.832 266.643 164.649 266.661 167.67C266.679 170.943 264.142 170.654 261.885 170.536C259.627 170.419 257.792 168.845 256.839 167.001C255.886 165.147 253.358 164.658 253.178 163.166C252.998 161.674 254.348 158.988 254.348 158.988L259.933 159.124Z" fill="#213A70"/>
<path d="M254.635 156.194L254.348 158.979C254.348 158.979 259.061 161.041 259.933 159.133L259.735 156.655L254.635 156.194Z" fill="#BF6052"/>
<path d="M219.765 157.984L219.504 160.001C219.504 160.001 222.355 161.014 225.494 159.911L225.557 158.12L219.765 157.984Z" fill="#BF6052"/>
<path d="M255.166 106.944C255.166 106.944 264.331 114.468 264.385 118.628C264.439 122.788 262.856 134.318 262.739 136.606C262.622 138.894 260.482 157.93 260.482 157.93C260.482 157.93 258.827 159.477 253.88 157.541C253.88 157.541 252.783 139.482 252.675 137.547C252.558 135.611 252.558 126.713 251.451 125.42C250.345 124.126 243.644 120.084 242.772 119.324C241.9 118.565 226.672 122.218 225.08 122.634C220.952 123.71 222.832 130.936 223.749 134.183C225.278 139.599 226.618 159.178 226.618 159.178C226.618 159.178 223.677 160.435 218.748 159.377C218.748 159.377 209.071 124.027 208.756 120.518C208.441 117 207.695 111.819 231.547 107.415L255.166 106.944Z" fill="#BF48F4"/>
<path d="M246.091 36.7416C246.091 36.7416 248.402 36.1719 249.149 38.297C250.291 41.5616 248.852 47.1323 248.852 47.1323L246.091 36.7416Z" fill="#252E3B"/>
<path d="M176.476 159.513C176.476 159.513 176.836 162.479 177.321 163.79C177.798 165.101 180.406 168.122 179.309 171.034C178.113 174.181 172.905 171.151 170.782 170.184C168.66 169.225 169.136 167.48 168.912 165.346C168.687 163.211 167.643 163.148 168.03 161.647C168.417 160.146 170.737 157.27 170.737 157.27L176.476 159.513Z" fill="#213A70"/>
<path d="M171.736 155.715C171.736 155.715 170.405 157.596 170.441 157.641C170.477 157.695 176.152 161.168 176.548 160.037C176.863 159.142 176.997 157.84 176.997 157.84L171.736 155.715Z" fill="#BF6052"/>
<path d="M152.488 161.611C152.488 161.611 150.752 163.139 149.196 165.481C147.64 167.823 143.512 167.95 143.332 171.151C143.152 174.353 148.944 174.452 151.985 173.412C155.025 172.372 155.483 169.243 157.318 168.456C159.153 167.679 160.115 167.046 159.971 165.517C159.828 163.989 158.811 161.511 158.811 161.511C158.811 161.511 157.669 161.882 156.994 161.954C156.347 162.027 154.08 162.054 152.488 161.611Z" fill="#213A70"/>
<path d="M173.328 74.8588C173.328 74.8588 172.159 81.8221 171.223 86.4251C170.845 88.288 170.495 89.7711 170.288 90.2323C170.018 90.8201 167.832 93.1804 165.152 95.9476C160.457 100.813 154.251 106.926 154.251 106.926L151.823 102.296C151.823 102.296 157.336 95.8029 161.069 91.4622C162.796 89.4546 164.145 87.9172 164.397 87.6912C165.179 86.9858 166.087 80.0677 167.356 74.3614C168.633 68.6551 171.187 65.5081 171.187 65.5081L173.328 74.8588Z" fill="#FB15A6"/>
<path d="M165.152 95.9477C160.457 100.813 154.251 106.926 154.251 106.926L151.823 102.296C151.823 102.296 157.336 95.803 161.069 91.4622C162.22 92.041 164.325 93.3794 165.152 95.9477Z" fill="#BF6052"/>
<path d="M152.767 159.477L152.497 161.611C152.497 161.611 155.51 162.678 158.829 161.511L158.892 159.612L152.767 159.477Z" fill="#BF6052"/>
<path d="M195.552 105.995C195.723 106.619 163.623 105.995 163.623 105.995C163.623 105.995 172.5 99.4926 173.076 97.7563C173.652 96.02 170.818 85.6022 170.441 82.211C170.144 79.498 169.406 67.3619 171.178 65.5081C173.04 63.5728 179.732 61.5381 179.732 61.5381L189.49 61.8998C189.49 61.8998 191.1 62.2344 192.252 62.777C193.403 63.3106 199.987 65.6709 201.057 68.9807C202.127 72.2905 194.491 82.9163 194.491 82.9163C194.491 82.9163 194.473 83.3956 194.455 84.1733C194.428 85.2133 194.383 86.8049 194.338 88.5231C194.284 90.7478 194.239 93.2076 194.239 94.9981C194.248 99.2304 195.382 105.371 195.552 105.995Z" fill="#FB15A6"/>
<path d="M195.552 105.995C195.552 105.995 199.915 112.443 199.978 116.847C200.041 121.251 192.234 135.991 191.046 138.098C187.494 144.438 177.753 158.12 177.753 158.12C177.753 158.12 176.071 158.075 170.836 156.031C170.836 156.031 177.321 137.963 178.14 136.091C181.62 128.133 183.572 122.49 182.394 121.133C181.225 119.768 178.032 118.402 177.105 117.597C176.179 116.792 160.07 120.663 158.379 121.097C154.008 122.236 155.996 129.887 156.967 133.314C158.586 139.048 159.998 159.766 159.998 159.766C159.998 159.766 156.886 161.104 151.67 159.974C151.67 159.974 141.425 122.562 141.102 118.845C140.769 115.128 140.607 108.988 165.854 104.331L195.552 105.995Z" fill="#BF48F4"/>
<path d="M182.421 40.2322C182.421 40.2322 173.948 38.315 175.882 49.0313C177.816 59.7475 179.858 60.5885 184.966 58.3729C190.075 56.1574 189.616 49.2845 189.877 45.9204C190.129 42.5563 185.119 40.3498 182.421 40.2322Z" fill="#BF6052"/>
<path d="M180.181 64.2963C180.181 64.2963 183.932 68.2935 189.859 64.6581C189.859 64.6581 188.537 55.9946 189.23 51.7714C189.931 47.5482 181.495 58.3097 181.495 58.3097C181.602 58.364 181.674 58.7709 181.692 59.3406C181.71 59.829 181.683 60.4349 181.602 61.0588C181.432 62.4696 181 63.9527 180.181 64.2963Z" fill="#BF6052"/>
<path d="M189.463 51.4187C189.463 51.4187 189.248 48.0456 188.015 47.9371C186.792 47.8286 186.603 49.1941 186.603 49.1941L185.362 49.4292C185.362 49.4292 185.758 46.4721 184.526 45.9566C183.302 45.4411 176.593 47.5844 175.603 46.7162C174.623 45.8481 175.082 39.8434 176.862 39.0204C178.643 38.1975 183.554 36.3617 187.152 38.8034C187.152 38.8034 189.958 38.4778 190.372 40.7567C190.795 43.0356 190.228 49.7276 189.463 51.4187Z" fill="#3A3F47"/>
<path d="M192.36 62.8313C192.36 62.8313 187.88 71.7932 180.649 71.2144C173.418 70.6356 179.417 61.6286 179.741 61.5381C180.1 61.4568 187.161 59.6843 192.36 62.8313Z" fill="#BF6052"/>
<path d="M159.953 105.534C159.953 105.534 182.124 108.283 195.552 105.986L169.892 102.757C169.892 102.766 169.739 103.426 159.953 105.534Z" fill="#E8734D"/>
<path d="M176.539 101.753L174.884 102.594C174.884 102.594 175.262 105.235 176.161 106.031L178.014 105.552C178.023 105.552 177.636 102.658 176.539 101.753Z" fill="#BF6052"/>
<path d="M202.19 96.3546C201.857 96.7434 197.504 98.4978 192.575 100.406C185.848 103.01 178.266 105.479 178.266 105.479L176.539 101.753C176.539 101.753 184.481 97.4126 189.85 94.3651C192.387 92.9272 194.347 91.7787 194.626 91.5164C195.49 90.6935 195.714 89.3641 195.076 87.0491C194.437 84.734 192.98 74.1082 192.818 72.8693C192.656 71.6303 193.232 68.3205 196.317 68.1577C199.402 67.9949 200.967 68.8631 200.967 68.8631C200.967 68.8631 201.74 69.1887 202.316 76.7126C202.892 84.2366 202.973 95.4412 202.19 96.3546Z" fill="#FB15A6"/>
<path d="M194.455 84.1914C194.428 85.2405 194.383 86.823 194.338 88.5412C191.325 81.1258 193.07 75.2024 193.097 75.103C192.773 77.1196 194.437 84.092 194.455 84.1914Z" fill="#A65237"/>
<path d="M171.223 86.4252C170.845 88.2881 170.495 89.7712 170.288 90.2324C169.262 85.2315 170.189 78.8289 170.189 78.8289C170.324 81.8855 171.223 86.4252 171.223 86.4252Z" fill="#A65237"/>
<path d="M192.575 100.406C185.848 103.01 178.014 105.552 178.014 105.552L176.53 101.753C176.53 101.753 184.472 97.4127 189.841 94.3651C189.85 94.3651 191.802 95.3237 192.575 100.406Z" fill="#BF6052"/>
<path d="M175.244 102.649C175.244 102.649 173.274 102.341 171.916 102.025C170.863 101.781 168.246 102.115 167.58 102.793C166.915 103.472 164.792 108.21 164.397 108.491C163.992 108.78 164.603 109.449 165.305 109.115C165.305 109.115 165.953 111.186 167.544 110.408C169.136 109.63 170.225 107.939 171.061 107.641C171.898 107.342 176.764 105.841 176.764 105.841C176.764 105.841 176.494 102.142 175.244 102.649Z" fill="#BF6052"/>
<path d="M168.057 102.486C168.057 102.486 166.789 103.101 166.465 103.372C166.132 103.644 164.801 104.656 164.477 104.891C164.154 105.127 164.963 105.805 167.356 104.765C169.739 103.716 168.057 102.486 168.057 102.486Z" fill="#BF6052"/>
<path d="M186.63 47.7562C186.738 46.8067 188.6 46.4631 188.753 47.8829C188.906 49.3026 187.907 51.7895 187.206 51.5454C186.495 51.3012 186.477 49.0675 186.63 47.7562Z" fill="#BF6052"/>
<path d="M254.923 88.071C254.923 88.071 258.368 88.3695 258.89 90.2595C259.42 92.1495 258.809 94.1571 258.251 94.9891C257.693 95.8301 256.092 97.9282 255.175 97.0871C252.207 94.3832 254.923 88.071 254.923 88.071Z" fill="#BF6052"/>
<path d="M257.226 88.9483C257.226 88.9483 257.487 86.6242 256.497 86.7146C255.508 86.805 255.832 88.4961 255.832 88.4961L257.226 88.9483Z" fill="#BF6052"/>
<path d="M227.356 88.1434C227.356 88.1434 223.902 88.1886 223.237 90.0334C222.571 91.8782 223.039 93.922 223.533 94.7992C224.028 95.6764 225.467 97.892 226.457 97.1142C229.605 94.6364 227.356 88.1434 227.356 88.1434Z" fill="#BF6052"/>
<path d="M224.127 88.9844C224.127 88.9844 224.037 86.6513 225.018 86.814C225.998 86.9768 225.557 88.6317 225.557 88.6317L224.127 88.9844Z" fill="#BF6052"/>
</g>
<defs>
<clipPath id="clip0">
<rect width="208" height="138" fill="white" transform="translate(66 36)"/>
</clipPath>
</defs>
</svg>
