<svg width="15" height="14" viewBox="0 0 15 14" fill="none" xmlns="http://www.w3.org/2000/svg">
<path d="M6.83426 1.04893C7.04381 0.404017 7.95619 0.404018 8.16574 1.04894L9.25121 4.38967C9.34492 4.67808 9.61369 4.87336 9.91695 4.87336L13.4296 4.87336C14.1077 4.87336 14.3897 5.74109 13.8411 6.13967L10.9993 8.20435C10.7539 8.3826 10.6513 8.69856 10.745 8.98698L11.8304 12.3277C12.04 12.9726 11.3018 13.5089 10.7532 13.1103L7.91145 11.0456C7.66611 10.8674 7.33389 10.8674 7.08855 11.0456L4.24675 13.1103C3.69815 13.5089 2.96002 12.9726 3.16956 12.3277L4.25503 8.98698C4.34875 8.69856 4.24609 8.3826 4.00074 8.20435L1.15895 6.13967C0.610348 5.74109 0.892291 4.87336 1.5704 4.87336L5.08305 4.87336C5.38631 4.87336 5.65508 4.67808 5.74879 4.38967L6.83426 1.04893Z" fill="#FB15A6"/>
</svg>
