<svg width="340" height="210" viewBox="0 0 340 210" fill="none" xmlns="http://www.w3.org/2000/svg">
<path d="M261.368 170.098C253.498 170.098 245.752 165.884 240.808 158.642L241.261 158.355C246.988 166.743 256.548 170.998 265.653 169.116C274.718 167.275 282.547 159.828 282.423 153.241C282.382 150.295 280.775 148.453 278.756 146.162C276.49 143.543 273.647 140.311 271.958 134.173C271.051 130.9 269.733 125.99 272.246 122.226C273.441 120.426 275.089 119.607 276.531 118.871C277.973 118.134 279.251 117.52 279.951 116.047C281.146 113.552 279.992 109.869 276.572 105.123L277.026 104.795C280.569 109.705 281.723 113.552 280.445 116.252C279.663 117.889 278.262 118.625 276.778 119.362C275.336 120.098 273.853 120.835 272.699 122.512C270.309 126.072 271.628 130.859 272.493 134.01C274.141 139.984 276.943 143.216 279.168 145.794C281.269 148.208 282.918 150.09 282.959 153.241C283.082 160.81 274.018 167.971 265.777 169.648C264.335 169.975 262.852 170.098 261.368 170.098Z" fill="#210B04"/>
<path d="M242.703 114.697H213.078V170.057H242.703V114.697Z" fill="#210B04"/>
<path d="M227.87 139.861C221.401 139.861 216.168 134.664 216.168 128.241C216.168 121.817 221.401 116.62 227.87 116.62C234.339 116.62 239.572 121.817 239.572 128.241C239.572 134.664 234.339 139.861 227.87 139.861ZM227.87 116.784C221.525 116.784 216.333 121.898 216.333 128.241C216.333 134.583 221.483 139.697 227.87 139.697C234.215 139.697 239.407 134.583 239.407 128.241C239.407 121.898 234.256 116.784 227.87 116.784Z" fill="white"/>
<path d="M227.87 138.347C222.266 138.347 217.693 133.805 217.693 128.241C217.693 122.676 222.266 118.134 227.87 118.134C233.474 118.134 238.047 122.676 238.047 128.241C238.047 133.805 233.474 138.347 227.87 138.347ZM227.87 118.298C222.349 118.298 217.899 122.758 217.899 128.2C217.899 133.682 222.39 138.101 227.87 138.101C233.391 138.101 237.841 133.642 237.841 128.2C237.882 122.758 233.391 118.298 227.87 118.298Z" fill="white"/>
<path d="M227.87 139.861C221.401 139.861 216.168 134.664 216.168 128.241C216.168 121.817 221.401 116.62 227.87 116.62C234.339 116.62 239.572 121.817 239.572 128.241C239.572 134.664 234.339 139.861 227.87 139.861ZM227.87 116.784C221.525 116.784 216.333 121.898 216.333 128.241C216.333 134.583 221.483 139.697 227.87 139.697C234.215 139.697 239.407 134.583 239.407 128.241C239.407 121.898 234.256 116.784 227.87 116.784Z" fill="white"/>
<path d="M227.87 138.347C222.266 138.347 217.693 133.805 217.693 128.241C217.693 122.676 222.266 118.134 227.87 118.134C233.474 118.134 238.047 122.676 238.047 128.241C238.047 133.805 233.474 138.347 227.87 138.347ZM227.87 118.298C222.349 118.298 217.899 122.758 217.899 128.2C217.899 133.682 222.39 138.101 227.87 138.101C233.391 138.101 237.841 133.642 237.841 128.2C237.882 122.758 233.391 118.298 227.87 118.298Z" fill="white"/>
<path d="M227.87 165.393C221.401 165.393 216.168 160.196 216.168 153.773C216.168 147.349 221.401 142.152 227.87 142.152C234.339 142.152 239.572 147.349 239.572 153.773C239.572 160.196 234.339 165.393 227.87 165.393ZM227.87 142.357C221.525 142.357 216.333 147.471 216.333 153.813C216.333 160.115 221.483 165.27 227.87 165.27C234.215 165.27 239.407 160.155 239.407 153.813C239.407 147.471 234.256 142.357 227.87 142.357Z" fill="white"/>
<path d="M227.87 163.879C222.266 163.879 217.693 159.337 217.693 153.773C217.693 148.208 222.266 143.666 227.87 143.666C233.474 143.666 238.047 148.208 238.047 153.773C238.047 159.337 233.474 163.879 227.87 163.879ZM227.87 143.871C222.349 143.871 217.899 148.331 217.899 153.773C217.899 159.255 222.39 163.674 227.87 163.674C233.391 163.674 237.841 159.214 237.841 153.773C237.882 148.331 233.391 143.871 227.87 143.871Z" fill="white"/>
<path d="M92.8469 133.519H69.0314V178.077H92.8469V133.519Z" fill="#210B04"/>
<path d="M80.9391 153.772C75.7475 153.772 71.5035 149.558 71.5035 144.403C71.5035 139.247 75.7475 135.033 80.9391 135.033C86.1307 135.033 90.3746 139.247 90.3746 144.403C90.3746 149.558 86.1307 153.772 80.9391 153.772ZM80.9391 135.196C75.8299 135.196 71.6684 139.329 71.6684 144.403C71.6684 149.476 75.8299 153.609 80.9391 153.609C86.0483 153.609 90.2098 149.476 90.2098 144.403C90.1686 139.329 86.0483 135.196 80.9391 135.196Z" fill="white"/>
<path d="M80.9391 152.545C76.4067 152.545 72.7396 148.903 72.7396 144.403C72.7396 139.902 76.4067 136.26 80.9391 136.26C85.4714 136.26 89.1385 139.902 89.1385 144.403C89.1385 148.903 85.4714 152.545 80.9391 152.545ZM80.9391 136.424C76.5303 136.424 72.9044 139.984 72.9044 144.403C72.9044 148.781 76.4891 152.381 80.9391 152.381C85.3478 152.381 88.9737 148.822 88.9737 144.403C88.9325 140.025 85.3478 136.424 80.9391 136.424Z" fill="white"/>
<path d="M80.9391 153.772C75.7475 153.772 71.5035 149.558 71.5035 144.403C71.5035 139.247 75.7475 135.033 80.9391 135.033C86.1307 135.033 90.3746 139.247 90.3746 144.403C90.3746 149.558 86.1307 153.772 80.9391 153.772ZM80.9391 135.196C75.8299 135.196 71.6684 139.329 71.6684 144.403C71.6684 149.476 75.8299 153.609 80.9391 153.609C86.0483 153.609 90.2098 149.476 90.2098 144.403C90.1686 139.329 86.0483 135.196 80.9391 135.196Z" fill="white"/>
<path d="M80.9391 152.545C76.4067 152.545 72.7396 148.903 72.7396 144.403C72.7396 139.902 76.4067 136.26 80.9391 136.26C85.4714 136.26 89.1385 139.902 89.1385 144.403C89.1385 148.903 85.4714 152.545 80.9391 152.545ZM80.9391 136.424C76.5303 136.424 72.9044 139.984 72.9044 144.403C72.9044 148.781 76.4891 152.381 80.9391 152.381C85.3478 152.381 88.9737 148.822 88.9737 144.403C88.9325 140.025 85.3478 136.424 80.9391 136.424Z" fill="white"/>
<path d="M80.9391 174.313C75.7475 174.313 71.5035 170.098 71.5035 164.943C71.5035 159.787 75.7475 155.573 80.9391 155.573C86.1307 155.573 90.3746 159.787 90.3746 164.943C90.3746 170.098 86.1307 174.313 80.9391 174.313ZM80.9391 155.777C75.8299 155.777 71.6684 159.91 71.6684 164.984C71.6684 170.057 75.8299 174.19 80.9391 174.19C86.0483 174.19 90.2098 170.057 90.2098 164.984C90.1686 159.869 86.0483 155.777 80.9391 155.777Z" fill="white"/>
<path d="M80.9391 173.085C76.4067 173.085 72.7396 169.444 72.7396 164.943C72.7396 160.442 76.4067 156.8 80.9391 156.8C85.4714 156.8 89.1385 160.442 89.1385 164.943C89.1385 169.444 85.4714 173.085 80.9391 173.085ZM80.9391 157.005C76.5303 157.005 72.9044 160.565 72.9044 164.984C72.9044 169.362 76.4891 172.962 80.9391 172.962C85.3478 172.962 88.9737 169.403 88.9737 164.984C88.9325 160.565 85.3478 157.005 80.9391 157.005Z" fill="white"/>
<path d="M193.836 57.8232C194.825 58.7234 195.855 59.5827 196.844 60.4828C195.525 62.7332 194.578 64.6563 193.918 66.0475C191.117 71.9804 190.457 73.8625 188.274 75.9083C187.161 76.9313 185.266 78.2815 182.134 79.0998C181.681 77.4223 181.187 75.7038 180.692 74.0262C181.681 72.2668 182.629 70.9984 183.247 70.18C186.749 65.802 189.757 64.7791 192.476 60.3191C193.177 59.2553 193.589 58.3552 193.836 57.8232Z" fill="#BF6052"/>
<path d="M187.944 73.4124L187.82 79.1407C183.535 79.3453 179.951 79.3044 177.272 79.2635C165.653 78.9771 162.686 77.6268 161.492 75.581C161.244 75.1718 161.121 74.8036 161.038 74.5581C165.159 73.4124 169.238 72.2668 173.358 71.1211C178.22 71.8576 183.082 72.635 187.944 73.4124Z" fill="#BF6052"/>
<path d="M177.19 71.2848C176.16 75.2127 175.171 79.1407 174.141 83.0687C173.646 83.0687 163.964 83.0278 160.832 76.6448C160.42 75.7856 160.008 74.599 159.926 73.0442C160.132 72.5123 160.75 70.9574 162.398 69.9345C164.747 68.4206 167.26 69.1571 167.672 69.2389C170.803 69.9345 173.976 70.6301 177.19 71.2848Z" fill="#FB15A6"/>
<path d="M167.054 163.552C161.904 163.552 156.712 163.592 151.562 163.592C151.397 163.02 151.273 162.16 151.644 161.219C151.768 160.851 151.932 160.646 152.015 160.524C152.427 159.869 152.921 158.764 153.168 156.841C154.116 156.718 155.023 156.637 155.97 156.514C159.514 161.26 161.533 162.201 162.728 162.119C163.552 162.079 164.376 162.529 165.2 162.529C165.735 162.529 166.395 162.488 166.807 162.897C166.972 163.142 167.054 163.388 167.054 163.552Z" fill="#BF6052"/>
<path d="M166.23 164.288H151.438C151.356 163.633 151.314 162.815 151.479 161.833C151.768 160.155 152.468 158.887 152.921 158.191C153.416 159.828 153.91 160.155 154.281 160.196C154.899 160.237 155.27 159.214 156.424 158.887C157.042 158.723 157.618 158.805 157.989 158.887C164.417 160.892 167.548 162.406 167.384 163.429C167.342 163.797 166.972 164.043 166.23 164.288Z" fill="#210B04"/>
<path d="M167.425 164.615H151.356C151.149 164.615 151.026 164.452 151.026 164.288C151.026 164.124 151.191 163.961 151.356 163.961H167.425C167.631 163.961 167.754 164.124 167.754 164.288C167.754 164.452 167.59 164.615 167.425 164.615Z" fill="#210B04"/>
<path d="M157.701 160.606C157.536 160.606 157.412 160.483 157.412 160.319C157.412 160.155 157.454 159.992 157.495 159.828C157.783 159.092 158.648 158.928 158.813 158.928C158.978 158.887 159.102 159.01 159.143 159.133C159.184 159.296 159.06 159.419 158.937 159.46C158.854 159.46 158.236 159.583 158.03 160.074C157.989 160.155 157.989 160.278 157.989 160.36C157.989 160.483 157.866 160.606 157.701 160.606Z" fill="#210B04"/>
<path d="M158.854 160.974C158.69 160.974 158.566 160.851 158.566 160.687C158.566 160.524 158.607 160.36 158.648 160.196C158.937 159.46 159.802 159.296 159.967 159.255C160.132 159.214 160.255 159.337 160.297 159.501C160.338 159.664 160.214 159.787 160.049 159.787C160.008 159.787 159.349 159.91 159.143 160.401C159.102 160.483 159.102 160.606 159.102 160.687C159.102 160.851 158.978 160.974 158.854 160.974Z" fill="#210B04"/>
<path d="M159.885 161.26C159.72 161.26 159.596 161.137 159.596 160.974C159.596 160.81 159.637 160.646 159.679 160.483C159.967 159.746 160.832 159.583 160.997 159.542C161.162 159.501 161.286 159.624 161.327 159.746C161.368 159.91 161.244 160.033 161.121 160.074C161.038 160.074 160.42 160.196 160.214 160.687C160.173 160.769 160.173 160.892 160.173 160.974C160.132 161.178 160.008 161.26 159.885 161.26Z" fill="#210B04"/>
<path d="M206.485 162.079C201.335 162.079 196.143 162.119 190.993 162.119C190.828 161.547 190.705 160.687 191.075 159.746C191.199 159.378 191.364 159.173 191.446 159.051C191.858 158.396 192.353 157.291 192.6 155.368C193.548 155.245 194.454 155.164 195.402 155.041C198.945 159.787 200.964 160.728 202.159 160.646C202.983 160.606 203.807 161.056 204.631 161.056C205.167 161.056 205.826 161.015 206.238 161.424C206.403 161.628 206.485 161.874 206.485 162.079Z" fill="#BF6052"/>
<path d="M205.661 162.815H190.869C190.787 162.16 190.746 161.342 190.911 160.36C191.199 158.682 191.9 157.414 192.353 156.719C192.847 158.355 193.342 158.682 193.712 158.723C194.331 158.764 194.701 157.741 195.855 157.414C196.473 157.25 197.05 157.332 197.421 157.414C203.848 159.419 206.98 160.933 206.815 161.956C206.774 162.283 206.403 162.57 205.661 162.815Z" fill="#210B04"/>
<path d="M206.815 163.101H190.787C190.581 163.101 190.457 162.938 190.457 162.774C190.457 162.61 190.622 162.447 190.787 162.447H206.815C207.021 162.447 207.145 162.61 207.145 162.774C207.145 162.938 207.021 163.101 206.815 163.101Z" fill="#210B04"/>
<path d="M197.132 159.133C196.967 159.133 196.844 159.01 196.844 158.846C196.844 158.683 196.885 158.519 196.926 158.355C197.215 157.619 198.08 157.455 198.245 157.455C198.41 157.414 198.533 157.537 198.574 157.701C198.616 157.864 198.492 157.987 198.327 158.028C198.286 158.028 197.627 158.151 197.421 158.642C197.38 158.723 197.38 158.846 197.38 158.928C197.421 159.01 197.297 159.133 197.132 159.133Z" fill="#210B04"/>
<path d="M198.286 159.501C198.121 159.501 197.998 159.378 197.998 159.214C197.998 159.051 198.039 158.887 198.08 158.723C198.368 157.987 199.234 157.823 199.398 157.823C199.563 157.782 199.687 157.905 199.728 158.028C199.769 158.191 199.646 158.314 199.522 158.355C199.44 158.355 198.822 158.478 198.616 158.969C198.574 159.051 198.574 159.173 198.574 159.255C198.533 159.378 198.41 159.501 198.286 159.501Z" fill="#210B04"/>
<path d="M199.316 159.787C199.151 159.787 199.028 159.664 199.028 159.501C199.028 159.337 199.069 159.173 199.11 159.01C199.399 158.273 200.264 158.11 200.429 158.11C200.593 158.069 200.717 158.191 200.758 158.355C200.799 158.519 200.676 158.642 200.511 158.642C200.47 158.642 199.811 158.764 199.605 159.255C199.563 159.337 199.563 159.46 199.563 159.542C199.563 159.664 199.44 159.787 199.316 159.787Z" fill="#210B04"/>
<path d="M168.496 57.7823C168.661 58.9689 168.826 60.1555 168.949 61.3421C169.197 63.2242 169.444 65.1064 169.691 67.0295L161.286 68.216C161.244 64.2062 161.203 60.1964 161.121 56.1866C162.357 56.6367 163.799 57.0867 165.447 57.4141C166.56 57.5777 167.59 57.7005 168.496 57.7823Z" fill="#BF6052"/>
<path d="M168.496 57.7823C168.661 58.9689 168.826 60.1555 168.949 61.3421C167.384 61.5057 165.818 59.7872 165.488 57.455V57.4141C166.477 57.4959 167.507 57.6596 168.496 57.7823Z" fill="#210B04"/>
<path d="M174.8 129.591C174.841 129.918 174.883 130.245 174.883 130.573C173.688 131.759 172.452 133.069 171.216 134.501C169.609 133.642 167.672 131.718 165.941 128.936C165.9 128.854 165.859 128.772 165.777 128.691C163.057 121.98 160.297 115.27 157.536 108.601C161.904 106.35 166.271 104.1 170.639 101.849C171.71 104.018 172.822 106.596 173.605 109.583C175.377 116.416 174.965 122.512 174.265 126.686C174.512 127.668 174.718 128.65 174.8 129.591Z" fill="#BF6052"/>
<path d="M174.841 130.532C173.646 131.718 172.41 133.028 171.174 134.46C170.144 135.646 169.073 136.915 168.043 138.306C162.604 145.344 159.102 152.218 156.794 157.905C155.558 157.578 154.363 157.209 153.127 156.841C154.075 151.849 155.187 147.717 156.135 144.484C158.978 135.115 160.915 133.069 162.192 132.005C163.016 131.35 163.964 130.736 165.488 129.263C165.612 129.141 165.735 129.018 165.859 128.895C167.713 127.054 168.949 125.295 169.773 124.067C171.421 125.908 173.07 127.709 174.718 129.55C174.841 129.918 174.841 130.245 174.841 130.532Z" fill="#BF6052"/>
<path d="M196.514 156.432C195.278 156.759 194.042 157.046 192.847 157.373C191.117 152.627 189.922 148.453 189.098 145.221C186.749 135.728 187.367 132.987 187.903 131.432C188.274 130.409 188.768 129.427 189.345 127.381C190.087 124.64 190.293 122.308 190.375 120.753C192.971 121.571 195.567 122.39 198.121 123.208C197.297 126.399 196.597 129.959 196.102 133.887C195.072 142.684 195.567 150.376 196.514 156.432Z" fill="#BF6052"/>
<path d="M169.032 58.437C167.631 58.7643 164.87 59.0507 161.038 57.4141C160.832 57.3323 157.577 55.9002 157.042 52.4223C156.671 50.1719 157.577 48.2079 158.731 46.9395C161.162 44.3208 165.406 44.1981 166.972 45.5074C167.26 45.712 167.425 45.9575 167.59 46.162C168.826 47.9624 169.403 48.7807 169.444 48.8216C169.444 48.8216 169.526 48.8625 169.526 48.9853C169.526 49.0262 169.567 49.108 169.526 49.108C169.567 49.3944 169.609 49.6809 169.65 49.9673C170.433 51.6449 170.803 52.3814 170.927 52.545C170.927 52.545 170.968 52.5859 170.968 52.6269C171.174 52.9542 171.298 53.1179 171.298 53.3224C171.298 53.3634 171.298 53.4043 171.339 53.4452C171.422 53.527 171.504 53.4452 171.586 53.4861C171.71 53.5679 171.628 53.8134 171.586 53.8953C171.586 53.9362 171.463 54.3453 171.174 54.3863C171.051 54.4272 170.968 54.3863 170.968 54.3863C170.968 54.3863 171.504 54.3453 171.586 54.5499C171.628 54.6318 171.586 54.7545 171.545 54.7545C171.504 54.8363 171.463 54.8773 171.422 54.9182C171.298 55.1228 172.163 56.0638 172.204 56.5548C172.328 57.2504 170.68 58.0688 169.032 58.437Z" fill="#BF6052"/>
<path d="M171.834 51.5221C171.957 51.8085 171.751 52.1358 171.669 52.2586C171.463 52.5859 171.133 52.7496 171.01 52.7905C170.886 52.7496 170.721 52.7087 170.598 52.545C170.515 52.4222 170.556 52.2995 170.515 52.0949C170.474 51.9722 170.392 51.8085 170.185 51.6039C169.979 50.9902 169.732 50.4173 169.526 49.8036C169.856 50.09 170.144 50.2946 170.309 50.4583C170.927 50.9493 170.927 50.9902 171.092 51.1129C171.545 51.3175 171.751 51.3175 171.834 51.5221Z" fill="#BF6052"/>
<path d="M215.427 78.8134C213.202 75.7447 211.1 73.8625 209.576 72.4713C208.134 71.162 207.722 70.9574 207.68 70.4255C207.598 69.8118 208.01 69.1571 208.587 68.5843C209.246 67.9296 210.153 67.3568 210.894 66.9476C207.804 64.6972 204.673 62.4059 201.541 60.1145C201.088 61.2193 200.676 62.2422 200.305 63.1833C198.863 66.9476 198.039 69.6481 197.668 71.5712C197.338 70.9165 196.968 70.2618 196.638 69.6481C196.597 69.5253 196.514 69.4026 196.432 69.2799C196.308 69.0344 196.185 68.7889 196.061 68.5434C195.773 67.9296 195.443 67.3159 195.155 66.743C195.031 66.4975 194.907 66.252 194.784 66.0065C194.454 65.3109 194.083 64.6563 193.754 63.9607C193.63 63.7152 193.507 63.4697 193.383 63.2242C193.053 62.5695 192.724 61.9558 192.394 61.342C192.27 61.0965 192.147 60.851 192.023 60.6055C191.652 59.9509 191.323 59.2962 190.952 58.6416C190.828 58.3961 190.705 58.1915 190.54 57.946C186.749 51.1538 183.453 46.8576 180.321 47.0622C179.909 47.0622 178.302 47.3486 176.696 48.4533C176.284 48.7398 175.871 49.0262 175.583 49.3126C175.501 49.3944 175.418 49.4762 175.295 49.5581C174.677 50.1718 174.223 50.7856 173.935 51.2357C174.265 51.7676 174.594 52.2995 174.883 52.8314C174.924 52.7905 175.006 52.7905 175.047 52.7087C175.377 52.4632 175.665 52.2177 175.913 52.0131C176.078 51.8494 176.242 51.6448 176.407 51.5221C177.231 50.7856 177.89 50.6219 178.385 50.6628C181.516 50.7447 183.041 57.7823 189.015 72.7987C190.169 75.7037 191.405 78.4042 193.877 83.8052C194.166 84.419 194.454 85.0736 194.743 85.6465C195.031 86.2193 195.278 86.7512 195.525 87.2422C198.369 93.0933 200.841 96.8576 204.879 97.9623C205.208 98.0442 205.579 98.126 205.909 98.1669C211.76 99.0671 218.27 94.6481 219.3 89.0834C220.041 85.1555 217.899 82.2095 215.427 78.8134Z" fill="#6C5E81"/>
<path d="M208.546 68.5843C205.703 66.743 202.818 64.8609 199.975 63.0196C199.769 61.0147 199.605 58.9689 199.399 56.964C204.508 60.6874 209.576 64.4517 214.685 68.1751C212.666 68.2979 210.606 68.4206 208.546 68.5843Z" fill="#6C5E81"/>
<path d="M208.546 68.6661H208.505L199.934 63.1015C199.893 63.0606 199.893 63.0196 199.893 62.9787C199.934 62.9378 199.975 62.9378 200.017 62.9378L208.628 68.5025C208.669 68.5434 208.669 68.5843 208.669 68.6252C208.628 68.6252 208.587 68.6661 208.546 68.6661Z" fill="white"/>
<path d="M212.996 67.766H212.954L200.14 58.6416C200.099 58.6007 200.099 58.5597 200.099 58.5188C200.14 58.4779 200.181 58.4779 200.223 58.4779L213.037 67.5614C213.078 67.6023 213.078 67.6432 213.078 67.6841C213.078 67.766 213.037 67.766 212.996 67.766Z" fill="white"/>
<path d="M193.259 62.0786C193.506 61.9149 194.042 62.2831 194.495 62.8969C194.949 63.5106 195.113 64.1653 194.866 64.329C194.619 64.4926 194.083 64.1244 193.63 63.5106C193.218 62.856 193.053 62.2422 193.259 62.0786Z" fill="#210B04"/>
<path d="M192.013 64.1704L192.489 64.8389L194.071 63.7299L193.596 63.0613L192.013 64.1704Z" fill="#210B04"/>
<path d="M191.858 59.5008C192.106 59.3371 192.641 59.7054 193.095 60.3191C193.548 60.9329 193.713 61.5875 193.465 61.7512C193.218 61.9149 192.682 61.5466 192.229 60.9329C191.817 60.2782 191.611 59.6645 191.858 59.5008Z" fill="#210B04"/>
<path d="M190.602 61.5773L191.078 62.2459L192.66 61.1369L192.185 60.4683L190.602 61.5773Z" fill="#210B04"/>
<path d="M188.851 53.4861C189.098 53.3224 189.633 53.6907 190.087 54.3044C190.54 54.9182 190.705 55.5728 190.457 55.7365C190.21 55.9002 189.675 55.5319 189.221 54.9182C188.768 54.3044 188.603 53.6498 188.851 53.4861Z" fill="#210B04"/>
<path d="M187.58 55.5767L188.055 56.2452L189.637 55.1362L189.162 54.4676L187.58 55.5767Z" fill="#210B04"/>
<path d="M187.326 50.3355C187.573 50.1718 188.109 50.5401 188.562 51.1538C189.015 51.7676 189.18 52.4223 188.933 52.5859C188.686 52.7496 188.15 52.3813 187.697 51.7676C187.244 51.1129 187.079 50.4992 187.326 50.3355Z" fill="#210B04"/>
<path d="M186.063 52.4061L186.538 53.0746L188.12 51.9658L187.645 51.2972L186.063 52.4061Z" fill="#210B04"/>
<path d="M185.637 47.9623C185.884 47.7987 186.42 48.1669 186.873 48.7807C187.326 49.3944 187.491 50.0491 187.244 50.2128C186.996 50.3764 186.461 50.0082 186.007 49.3944C185.595 48.7398 185.431 48.126 185.637 47.9623Z" fill="#210B04"/>
<path d="M184.375 50.0628L184.85 50.7314L186.432 49.6223L185.957 48.9538L184.375 50.0628Z" fill="#210B04"/>
<path d="M190.416 56.8003C190.663 56.6366 191.199 57.0049 191.652 57.6186C192.106 58.2324 192.27 58.887 192.023 59.0507C191.776 59.2144 191.24 58.8461 190.787 58.2324C190.375 57.5777 190.21 56.964 190.416 56.8003Z" fill="#210B04"/>
<path d="M189.183 58.8925L189.658 59.561L191.241 58.4522L190.765 57.7836L189.183 58.8925Z" fill="#210B04"/>
<path d="M195.031 64.5745C195.278 64.4108 195.814 64.779 196.267 65.3928C196.72 66.0065 196.885 66.6612 196.638 66.8249C196.391 66.9885 195.855 66.6203 195.402 66.0065C194.949 65.3928 194.784 64.7381 195.031 64.5745Z" fill="white"/>
<path d="M193.785 66.6584L194.261 67.327L195.843 66.2179L195.368 65.5494L193.785 66.6584Z" fill="white"/>
<path d="M196.473 67.0294C196.72 66.8658 197.256 67.234 197.709 67.8478C198.163 68.4615 198.327 69.1162 198.08 69.2798C197.833 69.4435 197.297 69.0753 196.844 68.4615C196.432 67.8068 196.267 67.1931 196.473 67.0294Z" fill="white"/>
<path d="M195.232 69.0997L195.707 69.7683L197.289 68.6593L196.814 67.9907L195.232 69.0997Z" fill="white"/>
<path d="M207.31 75.581C207.062 76.4812 206.115 77.0131 205.208 76.7676C204.302 76.5221 203.766 75.581 204.013 74.6808C204.261 73.7807 205.208 73.2488 206.115 73.4943C207.062 73.7807 207.598 74.6808 207.31 75.581Z" fill="white"/>
<path d="M210.029 78.6907C209.782 79.5908 208.834 80.1228 207.928 79.8773C207.021 79.6318 206.486 78.6907 206.733 77.7905C206.98 76.8903 207.928 76.3584 208.834 76.6039C209.741 76.8494 210.276 77.7905 210.029 78.6907Z" fill="white"/>
<path d="M212.336 82.0458C212.089 82.9459 211.141 83.4779 210.235 83.2324C209.329 82.9869 208.793 82.0458 209.04 81.1456C209.287 80.2455 210.235 79.7135 211.142 79.959C212.089 80.2045 212.584 81.1456 212.336 82.0458Z" fill="white"/>
<path d="M176.407 51.5221C176.242 51.6858 176.119 51.8494 175.913 52.0131C175.665 52.2586 175.377 52.4632 175.047 52.7087C175.006 52.7496 174.924 52.7905 174.883 52.8314C174.512 53.1178 174.182 53.3224 173.852 53.527C172.946 53.8543 171.998 54.1817 171.092 54.509C170.845 54.3453 170.597 54.1817 170.35 54.0589C171.215 53.4043 172.081 52.7496 172.987 52.1358C173.317 51.6858 173.688 51.2357 174.141 50.7447C174.512 50.2946 174.883 49.9263 175.295 49.599C175.377 49.5172 175.459 49.4353 175.583 49.3535C175.83 50.09 176.119 50.7856 176.407 51.5221Z" fill="#210B04"/>
<path d="M175.539 49.0222L174.687 49.5983L176.312 51.9649L177.163 51.3888L175.539 49.0222Z" fill="#210B04"/>
<path d="M176.201 51.8494C176.16 51.8494 176.16 51.8494 176.119 51.8085L174.841 49.9673C174.8 49.9264 174.841 49.8854 174.883 49.8445C174.924 49.8036 174.965 49.8445 175.006 49.8854L176.284 51.7267C176.325 51.7676 176.284 51.8085 176.242 51.8494C176.201 51.8494 176.201 51.8494 176.201 51.8494Z" fill="white"/>
<path d="M189.098 124.067C183.7 121.203 177.932 117.848 171.998 114.002C167.384 111.015 163.14 107.987 159.225 105.041C162.975 100.908 166.724 96.7758 170.474 92.6432C177.767 98.9852 183.618 104.223 187.985 108.028C187.985 108.028 191.24 110.851 195.155 115.884C195.855 116.784 196.968 118.257 197.833 120.466C198.327 121.694 198.574 122.717 198.739 123.494C198.204 134.051 197.627 144.566 197.091 155.123C194.99 155.245 192.847 155.409 190.746 155.532C188.562 151.317 184.359 141.702 186.873 130.532C187.45 128.118 188.232 125.949 189.098 124.067Z" fill="#BF48F4"/>
<path d="M175.089 131.923C173.44 134.01 171.751 136.219 170.103 138.592C165.488 145.18 161.821 151.604 158.937 157.537C157.042 157.332 155.105 157.087 153.21 156.882C153.004 152.545 153.127 142.561 159.761 133.723C161.409 131.555 163.14 129.836 164.829 128.445C161.698 123.331 158.731 116.784 157.412 108.969C157.206 107.864 157.083 106.759 156.959 105.696C162.48 106.064 168.002 106.432 173.523 106.8C174.265 109.337 174.965 112.242 175.377 115.516C176.242 121.98 175.789 127.668 175.089 131.923Z" fill="#BF48F4"/>
<path d="M180.445 98.4124C180.321 99.0262 180.033 99.9264 179.497 100.908C178.385 102.872 176.819 103.895 175.871 104.509C168.991 108.928 165.571 111.137 161.821 110.196C160.585 109.869 158.854 109.174 157.083 107.373C156.794 102.586 156.465 96.1211 156.3 88.3879C156.053 79.018 156.176 73.4124 159.514 67.6432C160.214 66.4566 160.873 65.5565 161.327 64.9836C162.645 64.9836 163.923 64.9836 165.241 65.0246C166.683 65.0246 168.084 65.0246 169.526 65.0655C170.721 66.293 171.628 67.3977 172.328 68.257C173.44 69.6072 174.553 71.0393 175.707 73.126C176.283 74.1489 176.737 75.1719 177.149 76.1539C177.149 76.1539 177.684 77.4223 178.014 78.7316C178.756 81.3912 178.467 83.0278 178.756 86.874C178.879 88.3061 179.168 90.1473 179.703 93.8707C179.951 95.671 180.239 97.2259 180.445 98.4124Z" fill="#FB15A6"/>
<path d="M168.949 128.118C168.908 128.118 168.867 128.077 168.867 128.036L165.365 112.651C165.365 112.61 165.365 112.57 165.447 112.529C165.488 112.529 165.529 112.529 165.571 112.61L169.073 127.995C169.073 128.077 169.032 128.118 168.949 128.118Z" fill="white"/>
<path d="M154.775 155.859C154.734 155.859 154.693 155.818 154.693 155.777C154.981 149.64 156.753 143.666 159.885 138.47C162.068 134.828 164.911 131.596 168.249 128.895C168.29 128.854 168.331 128.854 168.372 128.895C168.414 128.936 168.414 128.977 168.372 129.018C165.035 131.718 162.233 134.91 160.049 138.552C156.959 143.707 155.146 149.64 154.899 155.777C154.858 155.818 154.858 155.859 154.775 155.859Z" fill="white"/>
<path d="M175.542 116.866C175.501 116.866 175.459 116.825 175.459 116.784L173.853 108.642C173.853 108.601 173.894 108.56 173.935 108.519C173.976 108.519 174.017 108.56 174.059 108.601L175.665 116.743C175.624 116.825 175.583 116.866 175.542 116.866Z" fill="white"/>
<path d="M191.405 122.512H191.364L174.1 111.097C174.059 111.056 174.059 111.015 174.059 110.974C174.1 110.933 174.141 110.933 174.182 110.933L191.446 122.349C191.488 122.389 191.488 122.43 191.488 122.471C191.488 122.512 191.446 122.512 191.405 122.512Z" fill="white"/>
<path d="M191.776 154.509C191.735 154.509 191.694 154.468 191.694 154.468C189.263 147.553 188.438 140.516 189.345 133.519C189.757 130.327 190.499 127.177 191.57 124.108C191.57 124.067 191.652 124.026 191.694 124.067C191.735 124.067 191.776 124.149 191.735 124.19C190.663 127.218 189.922 130.409 189.51 133.56C188.644 140.556 189.427 147.553 191.858 154.468C191.858 154.427 191.858 154.468 191.776 154.509Z" fill="white"/>
<path d="M197.503 156.637C195.031 156.596 192.559 156.555 190.045 156.514V155.041C192.394 154.795 194.784 154.509 197.132 154.263C197.256 155.041 197.38 155.859 197.503 156.637Z" fill="#FB15A6"/>
<path d="M158.896 158.396C156.794 157.946 154.652 157.455 152.55 157.005C152.55 156.473 152.55 155.941 152.509 155.45C154.981 155.982 157.454 156.514 159.926 157.005C159.596 157.496 159.225 157.946 158.896 158.396Z" fill="#FB15A6"/>
<path d="M163.387 51.7676C162.81 51.8903 162.563 51.4403 162.027 51.6448C161.203 51.9313 160.626 53.2406 161.038 53.8952C161.327 54.3862 161.945 54.1817 162.274 54.6317C162.769 55.3273 162.151 57.1277 161.162 57.455C159.431 58.0687 155.311 54.6317 154.94 50.4173C154.734 48.0033 155.805 45.5892 157.371 44.1162C158.937 42.6841 161.327 41.784 162.728 41.743C163.181 41.743 163.964 41.784 164.87 41.4157C165.529 41.1293 165.694 40.8838 166.024 40.9247C166.766 41.0475 167.219 42.3568 167.178 43.3797C167.178 43.6252 167.178 43.9934 166.972 44.4026C166.477 45.5074 165.447 45.3846 164.953 46.2439C164.541 46.9804 165.159 47.3486 164.994 48.8216C164.911 49.9673 164.376 51.5221 163.387 51.7676Z" fill="#210B04"/>
<path d="M192.27 68.4615C193.259 69.3617 194.289 70.221 195.278 71.1211C193.96 73.3715 193.012 75.2946 192.353 76.6858C190.251 81.1866 189.139 83.6825 186.708 86.5466C185.76 87.6514 184.359 89.1244 182.176 89.5745C181.516 89.6972 180.939 89.7381 180.569 89.7381C180.115 88.0606 179.621 86.3421 179.126 84.6645C180.115 82.9051 181.063 81.6367 181.681 80.8183C185.183 76.4403 188.191 75.4174 190.911 70.9575C191.611 69.8936 192.023 68.9935 192.27 68.4615Z" fill="#BF6052"/>
<path d="M183.865 84.9918L180.569 89.6972C176.902 87.4877 173.894 85.4828 171.71 83.9689C162.192 77.3404 160.461 74.5581 160.626 72.2259C160.667 71.7758 160.75 71.3666 160.832 71.162C164.87 72.4714 168.949 73.7398 172.987 75.0491C176.654 78.3634 180.28 81.6776 183.865 84.9918Z" fill="#BF6052"/>
<path d="M176.077 77.2995C173.028 80 170.021 82.7414 166.972 85.4419C166.559 85.1555 158.525 79.7954 159.473 72.7578C159.596 71.8167 159.926 70.5892 160.709 69.2799C161.162 68.9525 162.563 68.0115 164.499 68.0524C167.301 68.0933 168.99 70.0573 169.238 70.3846C171.545 72.6759 173.811 74.9673 176.077 77.2995Z" fill="#FB15A6"/>
<path d="M194.001 73.1669C193.301 71.9803 192.641 70.7528 191.941 69.5663C191.9 68.216 191.9 66.8248 191.858 65.4746C192.435 64.1244 193.177 63.3469 193.63 63.4697C194.083 63.5924 194.207 64.6154 194.207 64.8609C194.495 64.9018 195.319 65.0245 195.979 65.6383C197.05 66.6203 196.968 68.0114 196.968 68.216C197.256 70.5483 196.926 71.2847 196.514 71.4893C196.226 71.6121 195.979 71.4484 195.526 71.5712C194.784 71.8167 194.289 72.5532 194.001 73.1669Z" fill="#BF6052"/>
<path d="M196.844 60.4828C196.432 60.7692 195.937 61.0556 195.361 61.3011C194.372 61.7512 193.465 61.9558 192.765 62.0785C192.6 61.9149 192.476 61.7512 192.312 61.5875C191.405 60.4419 190.993 59.2144 190.787 58.2324C190.746 58.2733 190.457 58.6825 189.922 58.6825C189.386 58.6825 189.057 58.2733 189.057 58.2324C189.675 57.4141 190.334 56.5957 190.952 55.7774C191.982 55.982 193.012 56.1457 194.042 56.3502C194.99 57.6596 195.937 59.0916 196.844 60.4828Z" fill="#BF6052"/>
<path d="M190.828 58.6006C190.787 58.6006 190.746 58.6006 190.746 58.6006C190.622 58.5597 190.54 58.3961 190.581 58.2324L190.952 57.2913C190.993 57.1686 191.158 57.0867 191.323 57.1276C191.446 57.1686 191.529 57.3322 191.488 57.4959L191.117 58.437C191.034 58.5597 190.952 58.6006 190.828 58.6006Z" fill="#210B04"/>
<path d="M193.548 57.6595C193.506 57.6595 191.364 57.4549 191.364 57.4549C191.199 57.4549 191.117 57.2913 191.117 57.1685C191.117 57.0049 191.24 56.923 191.405 56.923L193.548 57.1276C193.712 57.1276 193.795 57.2913 193.795 57.414C193.795 57.5777 193.671 57.6595 193.548 57.6595Z" fill="#210B04"/>
<path d="M183.123 79.4681C183.041 79.4681 183 79.4272 182.917 79.3863C182.794 79.2635 182.835 79.0998 182.917 79.018L188.85 73.2897C188.974 73.1669 189.139 73.2079 189.221 73.2897C189.345 73.4124 189.304 73.5761 189.221 73.6579L183.288 79.3863C183.247 79.4272 183.206 79.4681 183.123 79.4681Z" fill="#210B04"/>
<path d="M182.093 73.7398C181.97 73.7398 181.846 73.6579 181.846 73.5352L181.64 72.7987C181.599 72.6759 181.681 72.5123 181.846 72.4714C182.011 72.4304 182.134 72.5123 182.176 72.6759L182.382 73.4124C182.423 73.5352 182.34 73.6989 182.176 73.7398C182.134 73.6989 182.093 73.7398 182.093 73.7398Z" fill="#210B04"/>
<path d="M181.063 83.3142C180.939 83.3142 180.857 83.2324 180.816 83.1096L180.527 82.1685C180.486 82.0458 180.569 81.8821 180.692 81.8412C180.816 81.8003 180.981 81.8821 181.022 82.0049L181.31 82.946C181.351 83.0687 181.269 83.2324 181.145 83.2733C181.104 83.3142 181.063 83.3142 181.063 83.3142Z" fill="#210B04"/>
<path d="M207.68 88.5516C207.639 88.5516 207.639 88.5516 207.598 88.5106L198.204 73.126C198.162 73.0851 198.204 73.0442 198.245 73.0033C198.286 72.9624 198.327 73.0033 198.368 73.0442L207.763 88.4288C207.804 88.4697 207.763 88.5106 207.722 88.5516C207.68 88.5516 207.68 88.5516 207.68 88.5516Z" fill="white"/>
<path d="M144.557 177.668C138.953 177.668 133.391 177.709 127.787 177.709C127.622 177.095 127.499 176.154 127.87 175.172C128.034 174.804 128.199 174.558 128.282 174.394C128.735 173.699 129.229 172.512 129.518 170.426C130.548 170.303 131.537 170.18 132.567 170.098C136.399 175.213 138.583 176.236 139.86 176.195C140.766 176.154 141.632 176.645 142.538 176.645C143.115 176.645 143.857 176.604 144.269 177.054C144.475 177.218 144.557 177.463 144.557 177.668Z" fill="#BF6052"/>
<path d="M133.679 174.353C132.278 174.435 130.877 174.517 129.477 174.599C129.435 173.576 129.312 171.939 129.106 169.975C127.952 159.869 125.562 156.391 125.521 150.417C125.521 147.758 125.974 143.748 128.488 138.838C131.001 138.265 133.514 137.692 136.028 137.119C135.451 141.293 134.915 145.671 134.545 150.213C133.803 158.805 133.556 166.907 133.679 174.353Z" fill="#BF6052"/>
<path d="M126.881 178.036H145.958C145.958 177.709 145.958 177.218 145.669 176.809C145.299 176.277 144.639 176.113 144.433 176.031C143.28 175.745 139.448 174.108 133.844 171.653C132.732 174.394 131.825 175.09 131.125 175.049C130.259 175.008 129.641 173.822 128.776 174.067C128.282 174.19 127.993 174.64 127.828 175.049C127.664 175.172 127.087 175.581 126.84 176.358C126.551 177.177 126.798 177.831 126.881 178.036Z" fill="#210B04"/>
<path d="M120.659 172.962C119.299 173.167 117.898 173.372 116.498 173.576C116.374 172.676 116.168 171.367 115.88 169.771C115.838 169.525 115.797 169.28 115.756 169.034C115.591 168.257 115.467 167.561 115.261 166.866C113.325 158.601 110.935 155.45 110.482 149.845C110.276 147.308 110.441 143.625 112.212 138.92C114.767 137.856 117.28 136.751 119.794 135.687C119.547 139.902 119.423 144.28 119.423 148.863C119.423 155.982 119.753 162.692 120.288 168.953C120.371 170.303 120.494 171.653 120.659 172.962Z" fill="#BF6052"/>
<path d="M121.318 176.44C121.318 176.522 121.36 176.768 121.318 177.013C121.195 177.504 120.741 177.872 120.206 177.872H112.748C112.707 177.668 112.666 177.381 112.748 177.054C112.954 176.358 113.737 176.031 114.025 175.867C114.767 175.499 115.673 174.558 116.333 171.98C117.734 172.103 119.135 172.267 120.577 172.39C120.906 174.313 121.153 175.745 121.318 176.44Z" fill="#BF6052"/>
<path d="M111.388 178.036H123.42C123.255 177.463 123.008 176.768 122.637 176.072C122.019 174.844 121.318 173.903 120.7 173.249C120.123 173.003 118.64 172.512 116.951 173.003C116.25 173.208 115.673 173.494 115.261 173.781C114.726 173.985 113.902 174.394 113.16 175.131C111.965 176.195 111.553 177.422 111.388 178.036Z" fill="#210B04"/>
<path d="M116.292 174.149C116.292 174.394 116.498 174.558 116.745 174.558L118.558 174.435C118.805 174.435 118.97 174.231 118.97 173.985C118.97 173.74 118.764 173.576 118.517 173.576L116.704 173.699C116.456 173.74 116.25 173.903 116.292 174.149Z" fill="#210B04"/>
<path d="M116.539 172.962C116.539 173.208 116.745 173.372 116.992 173.372L118.805 173.249C119.052 173.249 119.217 173.044 119.217 172.799C119.217 172.553 119.011 172.39 118.764 172.39L116.951 172.512C116.704 172.512 116.539 172.717 116.539 172.962Z" fill="#210B04"/>
<path d="M128.405 61.4239H118.104C118.517 57.2914 118.887 53.1997 119.299 49.0671C122.019 49.0671 124.738 49.0671 127.458 49.0671C127.787 53.1588 128.076 57.2914 128.405 61.4239Z" fill="#BF6052"/>
<path d="M123.255 54.3044C119.917 54.3044 117.198 51.6039 117.198 48.2897V39.4517C118.022 38.9198 120.288 37.5696 123.502 37.6105C126.428 37.6923 128.529 38.8789 129.353 39.4517C129.353 42.3977 129.353 45.3437 129.353 48.2488C129.312 51.6039 126.592 54.3044 123.255 54.3044Z" fill="#BF6052"/>
<path d="M117.404 46.7349C118.314 46.7349 119.052 45.8556 119.052 44.7709C119.052 43.6862 118.314 42.8069 117.404 42.8069C116.494 42.8069 115.756 43.6862 115.756 44.7709C115.756 45.8556 116.494 46.7349 117.404 46.7349Z" fill="#BF6052"/>
<path d="M129.312 46.7349C130.222 46.7349 130.96 45.8556 130.96 44.7709C130.96 43.6862 130.222 42.8069 129.312 42.8069C128.401 42.8069 127.664 43.6862 127.664 44.7709C127.664 45.8556 128.401 46.7349 129.312 46.7349Z" fill="#BF6052"/>
<path d="M127.993 136.301C127.993 136.547 127.993 136.833 128.034 137.079C128.735 141.211 131.331 143.666 132.979 143.462C134.709 143.257 136.687 139.861 135.945 135.319C137.635 130 139.901 120.262 137.882 108.396C136.852 102.259 134.915 97.2668 133.144 93.5434L122.348 105.777C123.997 115.679 125.315 120.998 126.263 124.067C126.551 125.008 127.458 127.831 127.828 131.719C128.034 133.601 128.034 135.156 127.993 136.301Z" fill="#BF6052"/>
<path d="M134.915 77.1767C134.297 79.0589 133.638 80.8183 132.938 82.455C133.226 86.2602 133.473 90.0245 133.72 93.8298C133.968 96.6939 133.514 99.3944 132.608 101.645C131.001 105.614 127.993 108.355 124.985 108.764C121.318 109.296 116.745 106.514 114.355 101.645C113.242 99.4353 112.583 96.7758 112.666 93.8298C112.789 90.27 112.954 86.7103 113.078 83.1506C112.542 82.1276 112.006 81.0638 111.512 79.9182C108.628 73.4533 107.474 67.1931 107.103 61.7512C107.392 61.4648 107.68 61.1784 108.01 60.892C109.699 59.3781 111.553 58.3551 113.242 57.6596H113.284C115.879 57.0049 118.97 56.5548 122.431 56.5548C127.21 56.5957 131.289 57.5368 134.339 58.6006C135.616 59.3371 136.852 60.36 137.923 61.7512C137.594 66.3339 136.77 71.5712 134.915 77.1767Z" fill="#BF6052"/>
<path d="M121.401 62.2831C121.772 63.0606 122.513 63.347 123.049 63.1424C123.461 62.9787 123.585 62.4468 123.626 62.365L121.401 62.2831Z" fill="#210B04"/>
<path d="M112.171 62.2013C112.666 62.5695 113.531 63.0605 114.726 63.2651C116.621 63.6334 118.187 63.0605 118.805 62.815L112.171 62.2013Z" fill="#210B04"/>
<path d="M126.304 62.9378C126.881 63.1833 127.828 63.4697 129.023 63.4697C130.96 63.4288 132.361 62.5286 132.896 62.1604L126.304 62.9378Z" fill="#210B04"/>
<path d="M110.935 59.4599C110.647 64.329 110.358 69.239 110.111 74.108C109.369 75.4583 108.587 76.8494 107.845 78.1997C107.268 79.2226 106.691 80.2864 106.114 81.3093C104.631 83.9689 103.148 86.6285 101.664 89.2471L95.0306 87.1195C96.1019 83.7234 97.132 80.7365 98.0385 78.2406C98.4093 77.2586 98.7389 76.3175 99.0686 75.4992C104.013 62.8969 106.774 60.1146 109.617 59.5417C110.152 59.5008 110.647 59.4599 110.935 59.4599Z" fill="#BF6052"/>
<path d="M107.804 78.1997C107.227 79.2226 106.65 80.2864 106.073 81.3093C103.395 80.2864 100.675 79.3044 98.0385 78.2815C101.046 78.1588 104.095 77.9951 107.062 77.8314C107.309 77.9951 107.556 78.0769 107.804 78.1997Z" fill="#210B04"/>
<path d="M110.399 80.1637C106.279 79.5499 102.159 78.9362 98.0385 78.3224C98.1621 77.1768 99.769 62.1195 109.575 58.8052C110.605 58.437 111.842 58.1915 113.284 58.1506C113.036 60.4828 112.83 62.8151 112.583 65.1473C111.842 70.1391 111.1 75.1309 110.399 80.1637Z" fill="#FB15A6"/>
<path d="M133.638 59.4599C133.927 64.329 134.215 69.239 134.462 74.108C135.204 75.4583 135.987 76.8494 136.728 78.1997C137.305 79.2226 137.882 80.2864 138.459 81.3093C139.942 83.9689 141.426 86.6285 142.909 89.2471L149.543 87.1195C148.471 83.7234 147.441 80.7365 146.535 78.2406C146.164 77.2586 145.834 76.3175 145.505 75.4992C140.56 62.8969 137.8 60.1146 134.957 59.5417C134.421 59.5008 133.927 59.4599 133.638 59.4599Z" fill="#BF6052"/>
<path d="M136.77 78.1997C137.346 79.2226 137.923 80.2864 138.5 81.3093C141.178 80.2864 143.898 79.3044 146.535 78.2815C143.527 78.1588 140.478 77.9951 137.511 77.8314C137.264 77.9951 137.017 78.0769 136.77 78.1997Z" fill="#210B04"/>
<path d="M134.174 80.1637C138.294 79.5499 142.414 78.9362 146.535 78.3224C146.411 77.1768 144.804 62.1195 134.998 58.8052C133.968 58.437 132.732 58.1915 131.29 58.1506C131.537 60.4828 131.743 62.8151 131.99 65.1473C132.732 70.1391 133.473 75.1309 134.174 80.1637Z" fill="#FB15A6"/>
<path d="M119.917 136.301C119.917 136.547 119.917 136.833 119.876 137.079C119.176 141.211 116.58 143.666 114.932 143.462C113.201 143.257 111.224 139.861 111.965 135.319C110.276 130 108.01 120.262 110.029 108.396C111.059 102.259 112.995 97.2668 114.767 93.5434L125.562 105.777C123.914 115.679 122.596 120.998 121.648 124.067C121.36 125.008 120.453 127.831 120.082 131.719C119.876 133.601 119.876 135.156 119.917 136.301Z" fill="#BF6052"/>
<path d="M130.465 37.3241C130.836 39.4517 129.93 41.784 129.477 42.766C128.776 41.7021 128.076 41.3339 127.622 41.2111C125.356 40.4337 123.955 43.0933 121.071 42.6023C119.794 42.3977 118.887 41.6612 117.857 42.1931C117.157 42.5614 116.992 43.216 116.704 43.1751C116.209 43.0524 116.333 40.9247 116.497 39.7791C116.704 38.2651 116.786 37.4877 117.28 36.6285C118.31 34.8282 120.082 34.1735 121.071 33.8052C123.42 32.946 125.974 32.9869 126.18 33.6007C126.263 33.8462 125.892 34.0507 125.974 34.4599C126.098 34.9509 126.84 35.1964 127.416 35.401C128.735 35.8102 129.229 35.5237 129.806 35.9738C130.012 36.0966 130.301 36.383 130.465 37.3241Z" fill="#210B04"/>
<path d="M115.962 49.0671C114.932 49.0671 114.108 48.2488 114.108 47.2259V42.3977C114.108 41.3748 114.932 40.5565 115.962 40.5565C116.992 40.5565 117.816 41.3748 117.816 42.3977V47.1849C117.816 48.2078 116.992 49.0671 115.962 49.0671Z" fill="#210B04"/>
<path d="M130.259 49.2717C129.229 49.2717 128.405 48.4534 128.405 47.4305V42.6432C128.405 41.6203 129.229 40.802 130.259 40.802C131.29 40.802 132.114 41.6203 132.114 42.6432V47.4305C132.155 48.4534 131.29 49.2717 130.259 49.2717Z" fill="#210B04"/>
<path d="M130.589 42.6841C130.424 42.6841 130.342 42.5614 130.301 42.4386C130.301 41.9885 130.053 38.0606 126.84 36.1784C125.109 35.1555 123.378 35.2373 122.843 35.2782C121.813 35.3601 120.329 35.7283 118.846 37.0376C117.033 38.6743 116.621 40.761 116.539 41.5794C116.539 41.743 116.374 41.8249 116.25 41.8249C116.085 41.8249 116.003 41.6612 116.003 41.5385C116.085 40.6383 116.539 38.3879 118.475 36.6285C120.041 35.2373 121.689 34.8281 122.76 34.7463C123.296 34.7054 125.191 34.6236 127.046 35.7283C130.507 37.7741 130.754 41.9885 130.754 42.4386C130.877 42.5205 130.754 42.6432 130.589 42.6841Z" fill="#210B04"/>
<path d="M121.195 168.993C118.599 168.789 115.962 168.625 113.366 168.421C111.429 164.493 108.545 157.128 109.122 147.881C109.369 144.198 110.07 141.007 110.894 138.429C109.04 130.818 107.474 119.73 109.781 106.882C110.523 102.75 111.553 99.0262 112.707 95.7529C117.116 98.3306 121.483 100.949 125.892 103.527C124.326 125.376 122.76 147.185 121.195 168.993Z" fill="#210B04"/>
<path d="M133.679 168.625C131.619 168.707 129.559 168.83 127.458 168.912C126.263 165.556 125.15 161.465 124.45 156.719C123.255 148.249 123.955 141.007 124.903 135.892C123.502 126.522 122.101 117.152 120.741 107.782C118.063 103.773 115.385 99.7627 112.707 95.7529C119.876 95.18 127.087 94.5663 134.256 93.9935C135.987 99.149 137.717 105.859 138.5 113.797C139.407 122.84 138.788 130.655 137.841 136.465C136.481 147.185 135.08 157.905 133.679 168.625Z" fill="#210B04"/>
<path d="M140.437 68.0933C139.613 79.3044 138.83 90.4746 138.047 101.645C136.646 102.381 134.668 103.322 132.237 104.141C131.949 104.223 130.795 104.632 129.477 104.959C127.416 105.491 123.585 106.473 119.67 106.064C115.097 105.614 111.512 103.404 109.246 101.604C107.886 89.0835 106.568 76.563 105.208 64.0425C105.744 63.3061 106.362 62.4877 107.103 61.7103C107.392 61.4239 107.68 61.1375 108.01 60.8511C109.699 59.3371 111.553 58.3142 113.243 57.6187H113.284C115.426 56.7594 117.363 56.4321 118.599 56.3093C119.464 58.0278 121.236 59.1326 123.173 59.2144C125.191 59.2962 127.087 58.1915 128.035 56.3912C128.694 56.473 131.537 56.8412 134.339 58.5597C135.616 59.2962 136.852 60.3191 137.923 61.7103C138.129 61.9967 138.335 62.2422 138.5 62.5696C139.819 64.6972 140.272 66.743 140.437 68.0933Z" fill="#FB15A6"/>
<path d="M121.03 96.6939C120.329 97.9624 119.588 99.1899 118.887 100.458C116.374 99.6399 114.314 99.108 112.83 98.7807C107.144 97.5123 104.919 96.7758 103.436 96.0802C103.189 95.9574 102.777 95.7529 101.994 95.3437C98.2857 93.4206 96.4315 92.3977 95.6899 91.0884C95.319 90.4337 94.7834 89.2062 95.0718 87.2013C96.4727 86.7512 99.2334 86.0556 102.447 86.9149C103.519 87.2013 104.425 87.6105 105.167 88.0196C105.167 88.0196 106.073 88.3879 106.938 88.838C111.924 91.3748 113.448 94.239 118.352 95.9984C119.464 96.3257 120.453 96.5712 121.03 96.6939Z" fill="#BF6052"/>
<path d="M126.469 101.604C127.499 102.627 128.529 103.609 129.6 104.632C131.784 103.159 133.638 102.095 134.957 101.399C140.066 98.6579 142.002 97.3077 143.28 96.2438C143.486 96.0802 143.815 95.7528 144.433 95.1391C148.389 91.3748 149.007 90.3928 149.337 89.3289C149.46 88.8788 149.625 88.1423 149.584 87.1604C148.883 86.8739 145.216 85.36 141.714 87.1194C140.684 87.6514 139.942 88.306 139.407 88.9198C139.407 88.9198 138.624 89.5335 137.923 90.1882C133.803 93.9934 133.144 97.144 128.9 100.172C127.87 100.826 126.963 101.317 126.469 101.604Z" fill="#BF6052"/>
<path d="M128.57 166.866C128.529 166.866 128.488 166.825 128.488 166.825C126.675 161.465 125.809 155.859 125.892 150.254C125.974 145.794 126.675 141.375 127.952 137.12C127.952 137.079 128.034 137.038 128.076 137.079C128.117 137.079 128.158 137.16 128.117 137.201C126.84 141.457 126.139 145.876 126.057 150.295C125.974 155.9 126.84 161.465 128.611 166.825C128.694 166.784 128.652 166.825 128.57 166.866C128.611 166.866 128.57 166.866 128.57 166.866Z" fill="white"/>
<path d="M127.993 136.547C127.87 136.547 127.746 136.465 127.705 136.301L124.697 108.805C124.697 108.642 124.779 108.519 124.944 108.519C125.109 108.519 125.233 108.601 125.233 108.764L128.241 136.26C128.282 136.424 128.158 136.547 127.993 136.547C128.034 136.547 127.993 136.547 127.993 136.547Z" fill="#210B04"/>
<path d="M123.955 129.345C123.914 129.345 123.873 129.304 123.873 129.264L124.244 115.925C124.244 115.884 124.285 115.843 124.326 115.843C124.367 115.843 124.409 115.884 124.409 115.925L124.038 129.264C124.038 129.304 123.997 129.345 123.955 129.345Z" fill="white"/>
<path d="M133.968 173.74C133.803 173.576 133.844 173.331 134.009 173.167L135.451 171.939C135.616 171.776 135.863 171.817 136.028 171.98C136.193 172.144 136.151 172.39 135.987 172.553L134.545 173.781C134.38 173.944 134.133 173.903 133.968 173.74Z" fill="#210B04"/>
<path d="M134.915 174.435C134.751 174.272 134.792 174.026 134.957 173.863L136.399 172.635C136.563 172.471 136.811 172.512 136.976 172.676C137.14 172.84 137.099 173.085 136.934 173.249L135.492 174.476C135.327 174.64 135.08 174.64 134.915 174.435Z" fill="#210B04"/>
<path d="M170.927 100.458H79.7443V105.123H170.927V100.458Z" fill="#6C5E81"/>
<path d="M162.48 98.5761H84.3179V100.458H162.48V98.5761Z" fill="#EABEB2"/>
<path d="M87.9438 100.704C87.779 100.704 87.6554 100.581 87.6554 100.417V98.5352C87.6554 98.3715 87.779 98.2488 87.9438 98.2488C88.1086 98.2488 88.2322 98.3715 88.2322 98.5352V100.417C88.191 100.581 88.0674 100.704 87.9438 100.704Z" fill="#210B04"/>
<path d="M91.8994 100.704C91.7346 100.704 91.611 100.581 91.611 100.417V98.5352C91.611 98.3715 91.7346 98.2488 91.8994 98.2488C92.0642 98.2488 92.1878 98.3715 92.1878 98.5352V100.417C92.1878 100.581 92.0642 100.704 91.8994 100.704Z" fill="#210B04"/>
<path d="M95.69 100.704C95.5252 100.704 95.4016 100.581 95.4016 100.417V98.5352C95.4016 98.3715 95.5252 98.2488 95.69 98.2488C95.8548 98.2488 95.9785 98.3715 95.9785 98.5352V100.417C95.9373 100.581 95.8136 100.704 95.69 100.704Z" fill="#210B04"/>
<path d="M99.6456 100.704C99.4808 100.704 99.3572 100.581 99.3572 100.417V98.5352C99.3572 98.3715 99.4808 98.2488 99.6456 98.2488C99.8104 98.2488 99.934 98.3715 99.934 98.5352V100.417C99.934 100.581 99.8104 100.704 99.6456 100.704Z" fill="#210B04"/>
<path d="M103.725 100.704C103.56 100.704 103.436 100.581 103.436 100.417V98.5352C103.436 98.3715 103.56 98.2488 103.725 98.2488C103.889 98.2488 104.013 98.3715 104.013 98.5352V100.417C104.013 100.581 103.889 100.704 103.725 100.704Z" fill="#210B04"/>
<path d="M107.68 100.704C107.515 100.704 107.392 100.581 107.392 100.417V98.5352C107.392 98.3715 107.515 98.2488 107.68 98.2488C107.845 98.2488 107.969 98.3715 107.969 98.5352V100.417C107.969 100.581 107.845 100.704 107.68 100.704Z" fill="#210B04"/>
<path d="M111.471 100.704C111.306 100.704 111.182 100.581 111.182 100.417V98.5352C111.182 98.3715 111.306 98.2488 111.471 98.2488C111.636 98.2488 111.759 98.3715 111.759 98.5352V100.417C111.759 100.581 111.636 100.704 111.471 100.704Z" fill="#210B04"/>
<path d="M115.426 100.704C115.262 100.704 115.138 100.581 115.138 100.417V98.5352C115.138 98.3715 115.262 98.2488 115.426 98.2488C115.591 98.2488 115.715 98.3715 115.715 98.5352V100.417C115.715 100.581 115.591 100.704 115.426 100.704Z" fill="#210B04"/>
<path d="M120.041 100.704C119.876 100.704 119.753 100.581 119.753 100.417V98.5352C119.753 98.3715 119.876 98.2488 120.041 98.2488C120.206 98.2488 120.33 98.3715 120.33 98.5352V100.417C120.33 100.581 120.206 100.704 120.041 100.704Z" fill="#210B04"/>
<path d="M123.997 100.704C123.832 100.704 123.708 100.581 123.708 100.417V98.5352C123.708 98.3715 123.832 98.2488 123.997 98.2488C124.161 98.2488 124.285 98.3715 124.285 98.5352V100.417C124.285 100.581 124.161 100.704 123.997 100.704Z" fill="#210B04"/>
<path d="M127.787 100.704C127.623 100.704 127.499 100.581 127.499 100.417V98.5352C127.499 98.3715 127.623 98.2488 127.787 98.2488C127.952 98.2488 128.076 98.3715 128.076 98.5352V100.417C128.076 100.581 127.952 100.704 127.787 100.704Z" fill="#210B04"/>
<path d="M131.743 100.704C131.578 100.704 131.454 100.581 131.454 100.417V98.5352C131.454 98.3715 131.578 98.2488 131.743 98.2488C131.908 98.2488 132.031 98.3715 132.031 98.5352V100.417C132.031 100.581 131.908 100.704 131.743 100.704Z" fill="#210B04"/>
<path d="M135.822 100.704C135.657 100.704 135.534 100.581 135.534 100.417V98.5352C135.534 98.3715 135.657 98.2488 135.822 98.2488C135.987 98.2488 136.11 98.3715 136.11 98.5352V100.417C136.11 100.581 135.987 100.704 135.822 100.704Z" fill="#210B04"/>
<path d="M139.819 100.704C139.654 100.704 139.53 100.581 139.53 100.417V98.5352C139.53 98.3715 139.654 98.2488 139.819 98.2488C139.984 98.2488 140.107 98.3715 140.107 98.5352V100.417C140.066 100.581 139.942 100.704 139.819 100.704Z" fill="#210B04"/>
<path d="M143.568 100.704C143.403 100.704 143.28 100.581 143.28 100.417V98.5352C143.28 98.3715 143.403 98.2488 143.568 98.2488C143.733 98.2488 143.857 98.3715 143.857 98.5352V100.417C143.857 100.581 143.733 100.704 143.568 100.704Z" fill="#210B04"/>
<path d="M147.565 100.704C147.4 100.704 147.276 100.581 147.276 100.417V98.5352C147.276 98.3715 147.4 98.2488 147.565 98.2488C147.73 98.2488 147.853 98.3715 147.853 98.5352V100.417C147.812 100.581 147.689 100.704 147.565 100.704Z" fill="#210B04"/>
<path d="M151.562 100.704C151.397 100.704 151.273 100.581 151.273 100.417V98.5352C151.273 98.3715 151.397 98.2488 151.562 98.2488C151.726 98.2488 151.85 98.3715 151.85 98.5352V100.417C151.85 100.581 151.726 100.704 151.562 100.704Z" fill="#210B04"/>
<path d="M155.558 100.704C155.394 100.704 155.27 100.581 155.27 100.417V98.5352C155.27 98.3715 155.394 98.2488 155.558 98.2488C155.723 98.2488 155.847 98.3715 155.847 98.5352V100.417C155.806 100.581 155.682 100.704 155.558 100.704Z" fill="#210B04"/>
<path d="M159.308 100.704C159.143 100.704 159.019 100.581 159.019 100.417V98.5352C159.019 98.3715 159.143 98.2488 159.308 98.2488C159.473 98.2488 159.596 98.3715 159.596 98.5352V100.417C159.596 100.581 159.473 100.704 159.308 100.704Z" fill="#210B04"/>
<path d="M88.8914 97.7169H87.1196V98.5761H88.8914V97.7169Z" fill="#210B04"/>
<path d="M92.8881 97.7169H91.1163V98.5761H92.8881V97.7169Z" fill="#210B04"/>
<path d="M96.8436 97.7169H95.0719V98.5761H96.8436V97.7169Z" fill="#210B04"/>
<path d="M100.84 97.7169H99.0686V98.5761H100.84V97.7169Z" fill="#210B04"/>
<path d="M104.631 97.7169H102.859V98.5761H104.631V97.7169Z" fill="#210B04"/>
<path d="M108.628 97.7169H106.856V98.5761H108.628V97.7169Z" fill="#210B04"/>
<path d="M112.583 97.7169H110.812V98.5761H112.583V97.7169Z" fill="#210B04"/>
<path d="M116.58 97.7169H114.808V98.5761H116.58V97.7169Z" fill="#210B04"/>
<path d="M120.906 97.7169H119.135V98.5761H120.906V97.7169Z" fill="#210B04"/>
<path d="M124.862 97.7169H123.09V98.5761H124.862V97.7169Z" fill="#210B04"/>
<path d="M128.859 97.7169H127.087V98.5761H128.859V97.7169Z" fill="#210B04"/>
<path d="M132.814 97.7169H131.042V98.5761H132.814V97.7169Z" fill="#210B04"/>
<path d="M136.646 97.7169H134.874V98.5761H136.646V97.7169Z" fill="#210B04"/>
<path d="M140.601 97.7169H138.83V98.5761H140.601V97.7169Z" fill="#210B04"/>
<path d="M144.598 97.7169H142.827V98.5761H144.598V97.7169Z" fill="#210B04"/>
<path d="M148.554 97.7169H146.782V98.5761H148.554V97.7169Z" fill="#210B04"/>
<path d="M152.468 97.7169H150.696V98.5761H152.468V97.7169Z" fill="#210B04"/>
<path d="M156.424 97.7169H154.652V98.5761H156.424V97.7169Z" fill="#210B04"/>
<path d="M160.379 97.7169H158.607V98.5761H160.379V97.7169Z" fill="#210B04"/>
<path d="M148.842 178.036H145.834L124.821 145.835L123.296 143.502L98.0386 104.836L100.222 103.568L124.821 141.211L126.304 143.502L148.842 178.036Z" fill="#6C5E81"/>
<path d="M151.562 104.836L126.304 143.502L124.821 145.835L103.766 178.036H100.758L123.296 143.502L124.821 141.211L149.378 103.568L151.562 104.836Z" fill="#6C5E81"/>
<path d="M158.607 108.601H92.1052C91.0339 108.601 90.5807 108.151 90.5807 107.619C90.5807 107.087 91.0339 106.637 91.5696 106.637H158.072C158.607 106.637 159.061 107.087 159.061 107.619C159.061 108.151 158.607 108.601 158.607 108.601Z" fill="#6C5E81"/>
<path d="M125.356 79.9182C118.887 79.2226 112.46 78.527 105.991 77.8314C106.732 79.7545 107.433 82.0049 107.845 84.5418C109.04 91.9886 107.392 98.2079 105.991 101.931C112.336 101.931 118.723 101.931 125.068 101.931H125.562H144.639C143.651 98.0033 142.785 92.6432 143.238 86.383C143.486 83.1506 144.021 80.2864 144.639 77.7905C138.212 78.527 131.784 79.2226 125.356 79.9182Z" fill="#EABEB2"/>
<path d="M144.516 105.082H105.125V93.2979C105.125 90.5156 107.392 88.3061 110.152 88.3061H139.489C142.291 88.3061 144.516 90.5565 144.516 93.2979V105.082Z" fill="#6C5E81"/>
<path d="M125.102 79.8901L125.067 89.0145L125.602 89.0166L125.638 79.8922L125.102 79.8901Z" fill="#210B04"/>
<path d="M234.875 59.5417C236.44 63.7152 238.047 67.9296 239.613 72.1031C239.489 73.4943 239.407 74.8854 239.283 76.2766C239.201 77.3404 239.118 78.4043 239.036 79.4681C238.83 82.1686 238.624 84.8691 238.418 87.5696L232.32 87.9378C231.908 84.7463 231.62 81.9231 231.455 79.509C231.372 78.5679 231.331 77.6678 231.249 76.8904C230.507 64.6972 231.702 61.5057 233.762 60.0737C234.257 59.7872 234.627 59.6236 234.875 59.5417Z" fill="#BF6052"/>
<path d="M239.325 76.2766C239.242 77.3405 239.16 78.4043 239.077 79.4681C236.564 79.509 234.051 79.55 231.537 79.55C233.886 78.4452 236.275 77.3405 238.583 76.2357C238.83 76.2357 239.077 76.2357 239.325 76.2766Z" fill="#210B04"/>
<path d="M242.085 77.0131C238.542 77.8724 235.039 78.6907 231.496 79.5499C231.166 78.568 226.881 65.4337 233.515 59.419C234.215 58.7644 235.122 58.1506 236.234 57.6596C236.894 59.7054 237.594 61.7103 238.253 63.7562C239.531 68.1752 240.808 72.5941 242.085 77.0131Z" fill="#210B04"/>
<path d="M214.932 178.977C220.371 178.977 225.851 179.018 231.29 179.018C231.455 178.404 231.578 177.504 231.207 176.522C231.084 176.154 230.919 175.949 230.837 175.786C230.425 175.131 230.013 174.026 230.054 172.144C228.859 171.776 227.664 171.408 226.469 171.039C222.637 175.99 220.618 177.34 219.506 177.504C218.64 177.627 217.775 177.954 216.869 177.954C216.292 177.954 215.591 177.913 215.179 178.363C215.015 178.568 214.973 178.813 214.932 178.977Z" fill="#BF6052"/>
<path d="M249.502 136.465C249.461 136.71 249.419 136.997 249.461 137.242C249.625 141.334 251.768 144.034 253.416 144.034C255.105 144.034 257.495 141.047 257.372 136.547C259.679 131.637 263.181 122.471 262.769 110.728C262.563 104.673 261.368 99.5581 260.132 95.7529L248.101 106.187C248.389 115.966 248.966 121.285 249.502 124.394C249.667 125.336 250.161 128.2 250.037 132.005C249.914 133.846 249.708 135.401 249.502 136.465Z" fill="#BF6052"/>
<path d="M250.161 173.29C251.521 173.412 252.88 173.576 254.24 173.699C254.323 172.676 254.487 171.121 254.817 169.239C256.342 159.501 258.937 156.268 259.143 150.295C259.226 147.84 258.937 144.198 257.001 139.697C254.487 138.756 251.974 137.815 249.461 136.833C249.873 140.925 250.161 145.221 250.367 149.681C250.697 158.11 250.573 166.007 250.161 173.29Z" fill="#BF6052"/>
<path d="M249.213 177.627C249.048 178.363 249.584 179.018 250.326 179.018H257.619C257.66 178.813 257.701 178.527 257.619 178.2C257.413 177.504 256.671 177.218 256.383 177.054C255.682 176.686 254.776 175.786 254.116 173.249C251.974 173.29 252.304 173.29 250.161 173.29C249.831 174.722 249.543 176.154 249.213 177.627Z" fill="#BF6052"/>
<path d="M240.231 91.0475C239.901 98.8625 244.805 104.795 249.419 105.205C254.652 105.696 261.409 99.3535 260.75 90.0655C260.462 86.5876 260.132 83.1506 259.844 79.6727C260.338 78.6498 260.791 77.5859 261.203 76.4812C264.005 69.239 264.747 62.3241 264.706 56.6367C261.698 55.491 256.3 53.8543 249.502 54.2226C242.58 54.5908 237.347 56.8822 234.463 58.3961C234.916 63.1424 235.987 68.8298 238.294 74.8854C238.995 76.6858 239.737 78.3633 240.478 79.9182C240.396 83.6007 240.313 87.3241 240.231 91.0475Z" fill="#BF6052"/>
<path d="M250.779 59.7054C250.449 60.4828 249.708 60.8101 249.213 60.6056C248.801 60.4419 248.636 59.9509 248.636 59.8691L250.779 59.7054Z" fill="#210B04"/>
<path d="M259.761 59.2144C259.267 59.5827 258.443 60.1146 257.33 60.401C255.476 60.8511 253.952 60.3601 253.334 60.1146L259.761 59.2144Z" fill="#210B04"/>
<path d="M246.041 60.5647C245.505 60.8102 244.599 61.1784 243.404 61.1784C241.508 61.2193 240.107 60.4419 239.572 60.0737L246.041 60.5647Z" fill="#210B04"/>
<path d="M232.361 135.606C232.567 137.733 233.062 142.684 234.916 143.052C237.058 143.462 239.819 137.365 240.231 136.465C243.445 132.087 251.315 100.949 250.82 96.9804C247.483 95.7938 244.186 94.6072 240.849 93.4207C231.99 118.257 231.826 130.286 232.361 135.606Z" fill="#BF6052"/>
<path d="M226.304 171.694C227.54 171.898 228.735 172.103 229.971 172.308C230.26 171.326 230.713 169.812 231.372 168.011C234.792 158.682 237.882 155.941 239.283 150.254C239.901 147.717 240.396 143.83 239.16 138.592C236.893 137.488 234.668 136.342 232.402 135.237C231.99 139.37 231.455 143.625 230.795 148.003C229.6 156.391 228.035 164.329 226.304 171.694Z" fill="#BF6052"/>
<path d="M243.074 56.964L252.798 54.3454C251.356 50.581 249.914 46.7758 248.472 43.0115L240.808 45.0573C241.137 45.5483 241.508 46.203 241.879 46.9804C242.456 48.2079 242.992 49.7627 243.28 51.6449C243.321 51.9313 243.362 52.2586 243.362 52.545C243.445 54.3454 243.28 55.9002 243.074 56.964Z" fill="#BF6052"/>
<path opacity="0.12" d="M243.321 52.545C243.362 52.545 243.445 52.545 243.486 52.5041C245.134 52.054 245.917 49.7218 245.258 47.2668C245.134 46.8985 245.011 46.5303 244.846 46.2029L241.838 47.0213C242.415 48.2488 242.95 49.8036 243.239 51.6858C243.28 51.9722 243.28 52.2586 243.321 52.545Z" fill="#210B04"/>
<path d="M236.729 45.9574C237.264 48.4124 237.512 49.6809 238.336 50.4583C240.519 52.4632 245.505 50.4174 247.112 48.8216C247.895 48.0442 248.389 47.144 248.389 47.144C248.678 46.5712 248.884 46.0802 249.007 45.671C249.254 44.689 249.502 43.4206 249.543 41.9067C249.584 39.3699 249.007 37.3241 248.472 36.0557C247.648 35.5647 245.381 34.2962 242.25 34.4599C239.407 34.6236 237.388 35.8511 236.605 36.4239C236.564 37.2422 236.523 38.1833 236.564 39.2471C236.564 39.4926 236.564 39.7791 236.564 40.0246C236.564 40.1064 236.564 40.1882 236.564 40.2701C236.564 40.4746 236.564 40.6383 236.564 40.8429V41.0065C236.564 41.6612 236.605 42.0704 236.646 42.3977C236.729 42.9296 236.77 43.0524 236.77 43.4206C236.77 43.9935 236.646 44.1571 236.564 44.689C236.564 45.0982 236.646 45.5074 236.729 45.9574Z" fill="#BF6052"/>
<path d="M238.13 47.4713C238.212 48.2487 239.16 48.4942 239.242 48.4942C240.355 48.7807 241.632 47.6759 241.508 47.2258C241.467 47.0622 241.302 47.1031 240.272 46.7348C239.119 46.3666 238.954 46.2438 238.665 46.3666C238.294 46.5712 238.047 47.0622 238.13 47.4713Z" fill="white"/>
<path d="M221.277 71.4484C220.495 72.635 219.753 73.8216 218.97 75.0082C220.989 76.9312 222.514 78.6088 223.544 79.7954C227.458 84.2553 228.776 86.874 232.155 88.1833C233.515 88.7152 234.751 88.8379 235.534 88.8789C236.069 88.7561 237.058 88.4697 238.088 87.6514C239.077 86.833 239.572 85.892 239.778 85.401C238.212 83.1505 236.605 81.7594 235.575 80.9001C231.29 77.545 227.705 77.545 223.338 73.5352C222.39 72.7578 221.69 71.9394 221.277 71.4484Z" fill="#BF6052"/>
<path d="M249.666 171.735C251.644 171.694 253.663 171.653 255.641 171.571C257.495 166.702 259.473 160.033 260.338 151.931C261.162 144.28 260.709 137.692 260.009 132.741C261.492 129.141 263.387 123.126 263.387 115.557C263.387 109.501 262.151 104.591 261.039 101.236C256.712 102.913 252.386 104.55 248.06 106.228C247.936 116.825 247.977 127.791 248.224 139.124C248.513 150.336 249.007 161.219 249.666 171.735Z" fill="#BF48F4"/>
<path d="M231.413 137.242C229.518 148.412 227.623 159.583 225.727 170.753C227.911 171.162 230.095 171.53 232.279 171.939C235.369 167.439 240.066 159.255 240.808 148.29C241.055 144.894 240.849 141.825 240.478 139.165C243.486 128.854 246.535 118.543 249.543 108.232C252.139 106.678 254.693 105.123 257.289 103.568C251.521 98.3715 245.711 93.1751 239.943 87.9378C240.025 89.2471 240.149 90.5565 240.231 91.8249C237.141 101.195 234.339 112.079 232.691 124.394C232.073 128.895 231.702 133.151 231.413 137.242Z" fill="#BF48F4"/>
<path d="M249.007 179.263H258.113C257.248 176.113 254.899 174.067 252.592 174.149C251.315 174.19 249.254 174.885 248.678 176.645C248.307 177.79 248.801 178.854 249.007 179.263Z" fill="#210B04"/>
<path d="M214.685 179.059C220.33 179.059 225.975 179.018 231.578 179.018C231.702 178.568 231.826 177.913 231.62 177.136C231.537 176.809 231.414 176.563 231.166 176.072C230.754 175.213 230.383 174.476 230.095 173.944C228.694 175.417 227.994 175.54 227.623 175.417C226.675 175.049 226.799 172.717 225.727 172.471C225.48 172.43 225.315 172.512 225.192 172.553C221.813 174.476 219.3 175.458 217.569 175.949C216.745 176.195 214.891 176.686 214.561 177.913C214.479 178.363 214.603 178.773 214.685 179.059Z" fill="#210B04"/>
<path d="M238.5 139.37C238.418 139.37 238.418 139.288 238.418 139.247L245.134 111.506C245.134 111.465 245.217 111.424 245.258 111.424C245.299 111.424 245.34 111.465 245.34 111.547L238.624 139.288C238.583 139.329 238.542 139.37 238.5 139.37Z" fill="white"/>
<path d="M231.455 171.162H231.414C231.372 171.121 231.372 171.08 231.372 171.039C234.916 165.597 237.223 159.624 238.212 153.322C238.913 148.944 238.954 144.444 238.336 140.025C238.336 139.984 238.377 139.943 238.418 139.943C238.459 139.943 238.5 139.984 238.5 140.025C239.119 144.484 239.077 148.985 238.377 153.404C237.388 159.746 235.039 165.72 231.496 171.203C231.496 171.121 231.496 171.162 231.455 171.162Z" fill="white"/>
<path d="M247.689 112.529C247.648 112.529 245.175 111.588 245.175 111.588C245.134 111.588 245.093 111.506 245.134 111.465C245.134 111.424 245.217 111.383 245.258 111.424L247.73 112.365C247.771 112.365 247.812 112.447 247.771 112.488C247.73 112.529 247.689 112.529 247.689 112.529Z" fill="white"/>
<path d="M245.134 110.647C245.093 110.647 245.052 110.606 245.052 110.565L246.082 98.4125C246.082 98.3715 246.123 98.3306 246.164 98.3306C246.205 98.3306 246.247 98.3715 246.247 98.4125L245.217 110.565C245.217 110.606 245.175 110.647 245.134 110.647Z" fill="white"/>
<path d="M248.842 172.821H256.712V170.366H248.842V172.821Z" fill="#FB15A6"/>
<path d="M225.084 170.701L233.173 172.969L233.845 170.607L225.756 168.338L225.084 170.701Z" fill="#FB15A6"/>
<path d="M236.317 102.545C247.153 103.036 257.948 103.568 268.785 104.059C266.931 90.8429 265.035 77.6269 263.181 64.4517C263.14 61.3421 263.14 58.2324 263.099 55.1228C259.596 54.7545 256.094 54.3454 252.592 53.9771C248.801 57.3323 245.381 58.8053 244.022 57.7414C243.692 57.4959 243.156 56.8822 243.321 55.0409C241.467 55.1637 236.234 55.7774 232.938 59.7873C232.402 60.4419 231.99 61.0966 231.661 61.7513C233.226 75.3355 234.751 88.9198 236.317 102.545Z" fill="#210B04"/>
<path d="M253.54 73.5761C253.787 73.6988 253.704 73.6579 254.075 73.8625C257.495 75.7856 261.451 76.3584 265.324 75.8674C268.373 75.4992 271.504 75.9902 274.347 77.4632C282.217 81.5957 284.937 91.7839 280.445 100.254C275.954 108.723 265.942 112.242 258.072 108.11C255.229 106.637 253.045 104.345 251.644 101.604C249.873 98.126 247.153 95.2209 243.651 93.5024C243.28 93.3388 243.362 93.3797 243.115 93.2569C239.366 91.2111 235.369 84.7054 238.418 78.5679C241.55 72.2258 249.584 71.6121 253.54 73.5761Z" fill="#FB15A6"/>
<path d="M261.307 91.4344C263.361 88.8405 262.908 85.0849 260.296 83.046C257.684 81.007 253.902 81.4569 251.848 84.0508C249.795 86.6446 250.248 90.4003 252.86 92.4392C255.472 94.4781 259.254 94.0283 261.307 91.4344Z" fill="#210B04"/>
<path d="M254.57 91.5793C256.712 92.6841 259.349 91.8657 260.462 89.779C261.574 87.6513 260.75 85.0327 258.649 83.9279C256.506 82.8232 253.869 83.6415 252.757 85.7283C251.603 87.8559 252.427 90.4746 254.57 91.5793Z" fill="#210B04"/>
<path d="M267.619 98.1552L271.464 90.9171L270.042 90.1725L266.197 97.4106L267.619 98.1552Z" fill="#210B04"/>
<path d="M245.214 84.6851L247.637 80.1251L206.455 58.5515L204.032 63.1115L245.214 84.6851Z" fill="#210B04"/>
<path d="M212.46 68.3797L215.55 62.5286C213.984 61.7512 212.254 60.851 210.4 59.6645C208.669 58.5597 207.186 57.4959 205.867 56.473C205.661 56.5139 203.189 56.8003 201.994 59.0916C200.799 61.3011 201.788 63.4697 201.912 63.6743C203.478 64.1244 205.249 64.7381 207.104 65.5973C209.205 66.4975 210.977 67.4795 212.46 68.3797Z" fill="#FB15A6"/>
<path d="M269.774 92.4796H269.733L211.059 61.7103C211.059 61.7103 211.018 61.7103 211.018 61.6694L210.441 60.7283C210.4 60.6874 210.441 60.6465 210.482 60.6056C210.523 60.5647 210.565 60.6056 210.606 60.6465L211.141 61.5466L269.815 92.275C269.856 92.3159 269.856 92.3568 269.856 92.3977C269.856 92.4796 269.815 92.4796 269.774 92.4796Z" fill="white"/>
<path d="M269.403 93.216H269.362L210.647 62.4468C210.606 62.4059 208.546 59.9918 208.546 59.9918C208.504 59.9509 208.504 59.91 208.546 59.8691C208.587 59.8281 208.628 59.8281 208.669 59.8691L210.729 62.2831L269.403 93.0115C269.444 93.0524 269.444 93.0933 269.444 93.1342C269.444 93.216 269.403 93.216 269.403 93.216Z" fill="white"/>
<path d="M269.032 93.8707H268.991L210.317 63.1015C210.276 63.1015 205.703 57.8232 205.703 57.8232C205.661 57.7823 205.661 57.7414 205.703 57.7005C205.744 57.6596 205.785 57.6596 205.826 57.7005L210.441 62.9378L269.114 93.6661C269.156 93.707 269.156 93.748 269.156 93.7889C269.114 93.8298 269.073 93.8707 269.032 93.8707Z" fill="white"/>
<path d="M268.702 94.5254H268.661L209.988 63.7562L203.23 63.1833C203.189 63.1833 203.148 63.1424 203.148 63.1015C203.148 63.0606 203.189 63.0197 203.23 63.0197L209.988 63.6334H210.029L268.702 94.3617C268.744 94.4026 268.744 94.4436 268.744 94.4845C268.785 94.4845 268.744 94.5254 268.702 94.5254Z" fill="white"/>
<path d="M268.332 95.18H268.29L209.617 64.4517L206.28 64.4108C206.238 64.4108 206.197 64.3699 206.197 64.329C206.197 64.288 206.238 64.2471 206.28 64.2471L209.658 64.2881H209.699L268.373 95.0164C268.414 95.0573 268.414 95.0982 268.414 95.1391C268.414 95.18 268.373 95.18 268.332 95.18Z" fill="white"/>
<path d="M267.961 95.8756H267.92L209.287 65.1473L208.216 65.2701C208.175 65.2701 208.134 65.2291 208.134 65.1882C208.134 65.1473 208.175 65.1064 208.216 65.1064L209.329 64.9836H209.37L268.043 95.712C268.084 95.7529 268.084 95.7938 268.084 95.8347C268.043 95.8756 268.002 95.8756 267.961 95.8756Z" fill="white"/>
<path d="M210.935 60.4828C211.306 60.6874 211.924 60.2782 212.295 59.6235C212.666 58.9279 212.625 58.2324 212.254 58.0278C211.883 57.8232 211.265 58.2324 210.894 58.887C210.523 59.5826 210.565 60.2782 210.935 60.4828Z" fill="#210B04"/>
<path d="M210.977 60.9737L211.389 60.1963C211.471 60.0736 211.389 59.9099 211.265 59.869C211.141 59.7872 210.977 59.869 210.935 59.9918L210.523 60.7692C210.441 60.8919 210.523 61.0556 210.647 61.0965C210.729 61.1374 210.894 61.0965 210.977 60.9737Z" fill="#210B04"/>
<path d="M208.875 59.4189C209.246 59.6235 209.864 59.2144 210.235 58.5597C210.606 57.8641 210.565 57.1685 210.194 56.9639C209.823 56.7594 209.205 57.1685 208.834 57.8232C208.463 58.5188 208.504 59.2144 208.875 59.4189Z" fill="#210B04"/>
<path d="M208.916 59.9099L209.328 59.1325C209.411 59.0097 209.328 58.8461 209.205 58.8052C209.081 58.7233 208.916 58.8052 208.875 58.9279L208.463 59.7053C208.381 59.8281 208.463 59.9917 208.587 60.0327C208.669 60.0736 208.834 60.0327 208.916 59.9099Z" fill="#210B04"/>
<path d="M206.897 58.3961C207.268 58.6006 207.886 58.1915 208.257 57.5368C208.628 56.8412 208.587 56.1456 208.216 55.9411C207.845 55.7365 207.227 56.1456 206.856 56.8003C206.485 57.455 206.527 58.1915 206.897 58.3961Z" fill="#210B04"/>
<path d="M206.939 58.887L207.351 58.1096C207.433 57.9869 207.351 57.8232 207.227 57.7823C207.103 57.7004 206.939 57.7823 206.897 57.905L206.485 58.6824C206.403 58.8052 206.485 58.9689 206.609 59.0098C206.733 59.0507 206.856 59.0098 206.939 58.887Z" fill="#B6C7CD"/>
<path d="M208.119 67.4634C208.48 66.7838 208.463 66.0705 208.08 65.8702C207.698 65.6698 207.095 66.0583 206.734 66.7379C206.373 67.4175 206.391 68.1308 206.773 68.3311C207.156 68.5315 207.758 68.143 208.119 67.4634Z" fill="#210B04"/>
<path d="M208.504 65.6383L208.092 66.4157C208.01 66.5384 207.886 66.5793 207.763 66.5384C207.639 66.4566 207.598 66.3338 207.639 66.2111L208.051 65.4337C208.134 65.3109 208.257 65.27 208.381 65.3109C208.504 65.3519 208.587 65.5155 208.504 65.6383Z" fill="#210B04"/>
<path d="M206.072 66.3856C206.433 65.706 206.416 64.9927 206.034 64.7923C205.651 64.592 205.048 64.9805 204.687 65.6601C204.326 66.3397 204.344 67.053 204.726 67.2533C205.109 67.4536 205.711 67.0651 206.072 66.3856Z" fill="#210B04"/>
<path d="M206.444 64.5335L206.032 65.3109C205.95 65.4337 205.826 65.4746 205.703 65.4337C205.579 65.3519 205.538 65.2291 205.579 65.1064L205.991 64.329C206.073 64.2062 206.197 64.1653 206.321 64.2062C206.444 64.2471 206.486 64.4108 206.444 64.5335Z" fill="#210B04"/>
<path d="M204.054 63.7561C204.425 63.9607 204.467 64.6563 204.096 65.3519C203.725 66.0474 203.148 66.4157 202.736 66.2111C202.365 66.0065 202.324 65.3109 202.695 64.6154C203.066 63.9607 203.684 63.5515 204.054 63.7561Z" fill="#210B04"/>
<path d="M204.467 63.5106L204.055 64.2881C203.972 64.4108 203.848 64.4517 203.725 64.4108C203.601 64.329 203.56 64.2062 203.601 64.0835L204.013 63.3061C204.096 63.1833 204.219 63.1424 204.343 63.1833C204.467 63.2242 204.549 63.3879 204.467 63.5106Z" fill="#210B04"/>
<path d="M256.671 84.5417C256.877 85.3191 257.042 86.1375 257.248 86.9149C260.338 88.2242 263.058 88.5516 264.788 88.6334C266.766 88.7561 272.04 89.0016 276.737 85.7283C277.932 84.91 278.756 84.0507 279.333 83.437C279.539 82.946 279.91 81.964 279.868 80.6956C279.786 79.4272 279.333 78.4452 279.044 77.9951C276.284 77.9133 274.182 78.3633 272.905 78.7316C267.631 80.1637 265.53 83.0278 259.679 84.1735C258.36 84.419 257.33 84.5008 256.671 84.5417Z" fill="#BF6052"/>
<path d="M261.121 55.7365C262.151 60.0736 263.14 64.4517 264.17 68.7889C265.035 69.8936 265.901 70.9983 266.766 72.1031C267.425 72.9214 268.084 73.7807 268.744 74.6399C270.433 76.7676 272.081 78.9361 273.77 81.0638L279.044 78.036C277.602 75.1718 276.243 72.635 275.089 70.5483C274.636 69.7299 274.182 68.9525 273.77 68.2569C267.59 57.7005 264.788 55.6956 262.275 55.6546C261.78 55.6137 261.368 55.6956 261.121 55.7365Z" fill="#BF6052"/>
<path d="M266.725 72.103C267.384 72.9214 268.043 73.7806 268.702 74.6399C270.804 73.2896 272.946 71.9394 275.048 70.5482C272.452 70.9165 269.856 71.2847 267.301 71.653C267.137 71.8166 266.931 71.9394 266.725 72.103Z" fill="#210B04"/>
<path d="M264.871 74.2717C268.29 73.0442 271.669 71.7757 275.089 70.5482C274.801 69.5253 271.051 56.2684 262.192 54.8772C261.245 54.7136 260.173 54.7136 258.937 54.9181C259.514 56.964 260.091 59.0507 260.668 61.0965C262.027 65.4746 263.428 69.8936 264.871 74.2717Z" fill="#210B04"/>
<path d="M264.871 74.5171C264.747 74.5171 264.665 74.4353 264.623 74.3126L262.192 66.743C262.151 66.6203 262.234 66.4566 262.357 66.4157C262.481 66.3748 262.646 66.4566 262.687 66.5793L265.118 74.1489C265.159 74.2716 265.077 74.4353 264.953 74.4762C264.912 74.5171 264.871 74.5171 264.871 74.5171Z" fill="#210B04"/>
<path d="M232.979 72.3895C232.856 72.3895 232.732 72.3077 232.691 72.144L232.031 67.1522C232.031 66.9885 232.114 66.8658 232.279 66.8658C232.444 66.8249 232.567 66.9476 232.567 67.1113L233.226 72.1031C233.268 72.2259 233.144 72.3486 232.979 72.3895Z" fill="#210B04"/>
<path d="M236.605 34.5417C236.399 34.1735 236.234 33.7643 236.234 33.3552C236.234 32.0867 237.264 31.0638 238.542 31.0638H238.583C238.83 30.9411 239.119 30.8592 239.407 30.8592C239.737 30.8592 239.984 30.9411 240.272 31.1047C240.561 30.4501 241.22 30 241.962 30C242.456 30 242.95 30.2046 243.28 30.5319C243.61 30.2046 244.063 30 244.599 30C245.299 30 245.876 30.4092 246.206 30.9411C246.412 30.982 246.618 31.0638 246.782 31.1866C247.071 30.982 247.4 30.8592 247.771 30.8592C248.801 30.8592 249.625 31.6776 249.625 32.7005V32.7414C250.243 32.8642 250.779 33.2324 251.026 33.8052C251.727 34.0507 252.221 34.7054 252.221 35.5237C252.221 35.9738 252.056 36.383 251.768 36.7103C251.809 36.8331 251.85 36.9967 251.85 37.1195C251.85 37.1604 251.85 37.2013 251.809 37.2422C251.933 37.4059 252.015 37.6105 252.015 37.856C252.015 38.1833 251.85 38.5106 251.603 38.7152C251.85 38.8789 252.015 39.1653 252.015 39.4517C252.015 39.6154 251.933 39.7791 251.85 39.9427C252.139 40.5565 252.015 41.293 251.521 41.784C251.397 41.9067 251.274 41.9885 251.109 42.0704C251.109 42.1113 251.109 42.1522 251.109 42.1522C251.109 42.6432 250.779 43.0524 250.326 43.216C250.326 43.257 250.326 43.257 250.326 43.2979C250.326 43.6252 250.161 43.9525 249.914 44.1571C249.749 44.6072 249.378 44.9345 248.843 44.9345C248.224 44.9345 247.73 44.4435 247.73 43.8298C247.73 43.5025 247.895 43.216 248.101 43.0115C248.101 42.9705 248.06 42.9296 248.06 42.8887C248.06 42.766 248.101 42.6841 248.142 42.5614C247.977 42.4795 247.854 42.3568 247.73 42.1931C247.236 42.1931 246.824 41.9067 246.659 41.4566C246.618 41.4566 246.618 41.4566 246.576 41.4566C245.876 41.4566 245.34 40.9247 245.34 40.2291C245.34 40.0655 245.381 39.9018 245.423 39.7791C245.258 39.5745 245.134 39.2881 245.134 39.0016C245.134 38.7561 245.217 38.5516 245.34 38.347C245.258 38.347 245.217 38.3879 245.134 38.3879C244.599 38.3879 244.145 38.0196 243.981 37.5286C243.733 37.4468 243.527 37.4059 243.362 37.2831C243.198 37.3241 242.992 37.4059 242.786 37.4059C242.291 37.4059 241.879 37.2013 241.55 36.9149C241.385 37.6923 240.725 38.2651 239.901 38.2651C239.695 38.2651 239.531 38.2242 239.366 38.1424C238.995 38.3879 238.583 38.5516 238.088 38.5516C236.852 38.5516 235.822 37.5286 235.822 36.3011C235.822 35.5646 236.152 34.9918 236.605 34.5417Z" fill="#210B04"/>
<path d="M256.259 88.7562C256.547 88.9198 259.432 90.5156 262.234 89.1244C263.428 88.5107 264.129 87.6105 264.5 87.0377C263.84 85.892 263.14 84.7873 262.481 83.6416C260.956 83.5598 259.39 83.4779 257.866 83.3961C256.506 82.1277 255.147 80.8183 253.787 79.5499C253.416 79.6318 253.251 79.7954 253.128 79.9591C252.468 81.0638 255.517 83.8462 255.682 84.0098C254.034 84.0917 252.345 84.1326 250.697 84.2144C250.491 85.4419 250.326 86.6694 250.12 87.8969C250.161 88.347 250.326 88.7562 250.573 88.838C250.861 88.9198 251.356 88.4288 251.562 87.6105C251.85 88.4288 252.18 89.2472 252.468 90.0246C253.004 90.5974 253.581 91.0884 253.828 90.9247C254.281 90.6792 253.704 88.6743 253.581 88.6743C253.416 88.6743 253.251 91.3748 254.405 92.0295C254.611 92.1113 254.776 92.1522 254.899 92.1522C255.394 91.0066 255.847 89.8609 256.259 88.7562Z" fill="#BF6052"/>
<path d="M254.487 92.2749C254.364 92.2749 254.24 92.1931 254.24 92.0704L253.334 88.2651C253.292 88.1015 253.375 87.9787 253.54 87.9378C253.704 87.8969 253.828 87.9787 253.869 88.1424L254.776 91.9476C254.817 92.1113 254.735 92.234 254.57 92.2749C254.529 92.234 254.487 92.2749 254.487 92.2749Z" fill="#210B04"/>
<path d="M253.169 90.3928C253.086 90.3928 252.963 90.3519 252.922 90.2291L251.479 87.0785C251.438 86.9558 251.479 86.7921 251.603 86.7103C251.727 86.6694 251.891 86.7103 251.974 86.833L253.416 89.9836C253.457 90.1064 253.416 90.27 253.292 90.3519C253.21 90.3928 253.169 90.3928 253.169 90.3928Z" fill="#210B04"/>
<path d="M251.191 86.8331C251.067 86.8331 250.944 86.7513 250.944 86.6285C250.903 86.4648 250.985 86.3421 251.15 86.3012L254.405 85.5647C254.57 85.5238 254.693 85.6056 254.735 85.7693C254.776 85.9329 254.693 86.0557 254.529 86.0966L251.273 86.8331C251.232 86.8331 251.191 86.8331 251.191 86.8331Z" fill="#210B04"/>
<path d="M219.3 75.3355C220.247 75.0082 221.195 74.6809 222.102 74.3535V68.9116C222.102 68.748 221.896 67.1931 220.453 66.3748C219.217 65.6792 218.022 66.0475 217.816 66.0884C216.704 67.0704 215.55 68.0933 214.438 69.0753C214.479 69.689 214.644 71.3666 215.921 72.9624C217.157 74.5581 218.682 75.1309 219.3 75.3355Z" fill="#BF6052"/>
<path d="M220.783 71.5303C220.618 71.5303 220.495 71.3666 220.495 71.2439L220.907 67.6432C220.907 67.4795 221.071 67.3977 221.195 67.3977C221.36 67.3977 221.442 67.5614 221.442 67.6841L221.03 71.2848C221.071 71.4484 220.948 71.5303 220.783 71.5303Z" fill="#210B04"/>
<path d="M219.794 70.9165C219.753 70.9165 219.753 70.9165 219.712 70.9165C219.588 70.8756 219.465 70.712 219.506 70.5892L220.536 67.0704C220.577 66.9476 220.742 66.8249 220.865 66.8658C220.989 66.9067 221.113 67.0704 221.071 67.1931L220.041 70.712C220 70.8347 219.918 70.9165 219.794 70.9165Z" fill="#210B04"/>
<path d="M218.27 70.4664C218.228 70.4664 218.187 70.4664 218.146 70.4255C218.022 70.3846 217.94 70.2209 218.022 70.0573L219.588 66.4975C219.629 66.3748 219.794 66.293 219.959 66.3748C220.083 66.4157 220.165 66.5794 220.083 66.743L218.517 70.3028C218.476 70.4255 218.393 70.4664 218.27 70.4664Z" fill="#210B04"/>
<path d="M217.075 69.1571C216.992 69.1571 216.951 69.1162 216.91 69.0753C216.786 68.9934 216.786 68.7888 216.869 68.707L218.764 66.5384C218.846 66.4157 219.052 66.4157 219.135 66.4975C219.258 66.5794 219.258 66.7839 219.176 66.8658L217.281 69.0343C217.24 69.1162 217.157 69.1571 217.075 69.1571Z" fill="#210B04"/>
<path d="M214.52 179.877L214.809 179.386C214.891 179.264 214.85 179.1 214.726 179.018L200.882 171.08C200.758 170.998 200.593 171.039 200.511 171.162L200.223 171.653C200.14 171.776 200.181 171.939 200.305 172.021L214.149 179.959C214.273 180.041 214.438 180 214.52 179.877Z" fill="#210B04"/>
<path d="M200.47 171.162L200.758 171.653C200.841 171.776 200.799 171.939 200.676 172.021L186.832 179.959C186.708 180.041 186.543 180 186.461 179.877L186.172 179.386C186.09 179.264 186.131 179.1 186.255 179.018L200.099 171.08C200.264 170.998 200.429 171.039 200.47 171.162Z" fill="#210B04"/>
<path d="M201.047 59.2144V178.486C201.047 178.773 200.799 179.018 200.511 179.018C200.181 179.018 199.975 178.773 199.975 178.486V59.4599L201.047 59.2144Z" fill="#210B04"/>
<path d="M225.027 54.9182L201.047 60.5646L199.975 60.8102L191.323 62.856C190.993 62.9378 190.663 62.7332 190.581 62.4059L190.499 62.3241C190.416 61.9967 190.622 61.6694 190.952 61.5876L199.934 59.4599L201.005 59.2144L224.697 53.6498C225.027 53.5679 225.357 53.7725 225.439 54.0998L225.48 54.1817C225.604 54.509 225.357 54.8363 225.027 54.9182Z" fill="#210B04"/>
<path d="M216.209 55L218.393 54.3454L217.734 52.095L215.55 52.7496C214.932 52.9133 214.561 53.6089 214.767 54.2226C214.932 54.8364 215.591 55.1637 216.209 55Z" fill="#210B04"/>
<path d="M216.853 55.0815L227.405 51.992L226.578 49.2055L216.026 52.295L216.853 55.0815Z" fill="#210B04"/>
<path d="M225.398 51.1129C225.81 52.4632 227.252 53.2406 228.612 52.8314C229.971 52.4223 230.754 50.9902 230.342 49.6399C229.93 48.2897 228.488 47.5123 227.128 47.9215C225.769 48.3306 224.986 49.7627 225.398 51.1129Z" fill="#210B04"/>
<path d="M226.139 52.9133C226.428 52.8314 226.593 52.545 226.51 52.2586L225.686 49.4763C225.604 49.1899 225.315 49.0262 225.027 49.108C224.738 49.1899 224.574 49.4763 224.656 49.7627L225.48 52.545C225.521 52.8314 225.851 52.9951 226.139 52.9133Z" fill="#FB15A6"/>
<path d="M220.536 56.3093C221.525 56.0638 222.513 55.7774 223.461 55.5319C223.008 53.8134 222.555 52.0949 222.101 50.3355C221.113 50.581 220.165 50.8674 219.176 51.1129C219.629 52.8723 220.082 54.5908 220.536 56.3093Z" fill="#210B04"/>
<path d="M203.148 178.118C200.264 174.885 198.327 171.285 197.338 167.521C194.949 158.232 199.028 149.599 202.612 141.989C206.073 134.665 209.04 128.322 205.991 122.84C205.002 121.039 204.013 120.548 202.777 119.935C201.541 119.321 199.975 118.543 197.956 116.17C193.094 110.36 190.663 100.867 191.694 91.4158C192.6 83.0688 195.937 76.0721 200.841 72.2259C202.695 70.7938 204.879 69.73 206.774 68.7889C209.988 67.2341 212.748 65.8429 212.996 63.2652C213.119 61.6285 212.295 59.7873 211.595 58.2734C210.894 56.7185 210.359 55.6138 211.018 55.0819C211.306 54.8773 211.595 54.8773 212.007 54.8773C212.46 54.8773 213.037 54.9182 213.902 54.6318C214.355 54.509 214.767 54.3045 215.138 54.059L215.427 54.509C215.015 54.7545 214.52 55 214.067 55.1228C213.16 55.4092 212.501 55.4092 212.007 55.4092C211.636 55.4092 211.471 55.4092 211.347 55.491C211.018 55.7775 211.554 56.9231 212.089 58.0688C212.79 59.6236 213.696 61.5467 213.531 63.3061C213.284 66.1703 210.4 67.6023 207.021 69.239C205.043 70.221 202.983 71.203 201.17 72.6351C196.349 76.3994 193.094 83.2734 192.229 91.4567C191.24 100.786 193.589 110.115 198.368 115.802C200.305 118.093 201.747 118.83 202.983 119.444C204.261 120.057 205.332 120.589 206.444 122.553C209.617 128.282 206.568 134.746 203.066 142.193C199.522 149.722 195.484 158.273 197.833 167.398C198.78 171.121 200.717 174.599 203.519 177.791L203.148 178.118Z" fill="#210B04"/>
<path d="M70.4323 177.095C64.3342 177.095 59.3074 176.604 57.8241 176.318C57.2884 176.236 57 176.154 57 175.867C57 175.458 56.9588 175.254 71.8744 174.354L71.9156 174.885C63.7573 175.376 60.1315 175.704 58.5245 175.908C63.0569 176.522 79.9914 177.668 90.8279 173.863C95.1542 172.349 97.9149 170.221 99.0686 167.561C100.593 164.083 99.151 160.237 97.6264 156.146C95.8135 151.195 93.7121 145.589 96.72 139.738C97.7912 137.651 99.1098 136.26 100.305 135.033C101.829 133.396 102.942 132.209 102.653 130.409C102.324 128.2 100.222 127.136 97.544 125.786C94.907 124.435 91.8992 122.881 89.6742 119.771C87.0784 116.129 86.2955 111.178 87.2844 105.123L87.8201 105.205C86.8312 111.137 87.614 115.925 90.1274 119.444C92.27 122.471 95.1954 123.944 97.7912 125.295C100.469 126.686 102.777 127.872 103.189 130.327C103.519 132.414 102.282 133.723 100.675 135.401C99.5218 136.628 98.2033 137.979 97.1732 139.984C94.289 145.589 96.2255 150.867 98.1209 155.941C99.6866 160.155 101.129 164.083 99.5218 167.766C96.2255 175.417 81.5572 177.095 70.4323 177.095Z" fill="#210B04"/>
</svg>
