<?xml version="1.0" encoding="UTF-8" standalone="no"?>
<!-- Created with Inkscape (http://www.inkscape.org/) -->

<svg
   width="826.2348mm"
   height="1059.2461mm"
   viewBox="0 0 826.2348 1059.2461"
   version="1.1"
   id="svg23433"
   inkscape:version="1.2.2 (b0a8486, 2022-12-01)"
   sodipodi:docname="vote-notifications.svg"
   xmlns:inkscape="http://www.inkscape.org/namespaces/inkscape"
   xmlns:sodipodi="http://sodipodi.sourceforge.net/DTD/sodipodi-0.dtd"
   xmlns="http://www.w3.org/2000/svg"
   xmlns:svg="http://www.w3.org/2000/svg">
  <sodipodi:namedview
     id="namedview23435"
     pagecolor="#ffffff"
     bordercolor="#666666"
     borderopacity="1.0"
     inkscape:showpageshadow="2"
     inkscape:pageopacity="0.0"
     inkscape:pagecheckerboard="0"
     inkscape:deskcolor="#d1d1d1"
     inkscape:document-units="mm"
     showgrid="false"
     inkscape:zoom="0.18930626"
     inkscape:cx="1663.9704"
     inkscape:cy="1666.6116"
     inkscape:window-width="1848"
     inkscape:window-height="1016"
     inkscape:window-x="72"
     inkscape:window-y="27"
     inkscape:window-maximized="1"
     inkscape:current-layer="layer1" />
  <defs
     id="defs23430" />
  <g
     inkscape:label="Layer 1"
     inkscape:groupmode="layer"
     id="layer1"
     transform="translate(335.54806,402.4372)">
    <g
       id="g21997"
       transform="matrix(0.88727825,0,0,0.88727825,-1966.7055,-548.77896)">
      <g
         id="g3653"
         transform="matrix(0.08294547,0,0,-0.08294547,1538.8055,1516.9445)">
        <path
           d="m 12291.7,1907.23 c 0,0 -1321.7,0 -2753.59,0 -130.18,0.21 -261.31,0.34 -392.48,0.72 -896.09,4.17 -1785.93,9.11 -2679.89,0.17 -291.09,-0.89 -465.85,-0.89 -465.85,-0.89 -386.91,0 -700.53,323.83 -700.53,723.29 V 15576.7 c 0,399.5 313.62,723.3 700.53,723.3 h 6291.81 c 386.9,0 700.6,-323.8 700.6,-723.3 V 2630.52 c 0,-399.46 -313.7,-723.29 -700.6,-723.29"
           style="fill:#fe15a3;fill-opacity:0.259207;fill-rule:nonzero;stroke:none"
           id="path3655" />
      </g>
      <g
         id="g3657"
         transform="matrix(0.05960745,0,0,-0.05960745,1538.8055,1516.9445)">
        <path
           d="m 6275.87,15888.9 c -153.17,174 -328.71,348.7 -561.18,405.7 -22.13,5.4 -31.57,-28.7 -9.41,-34.2 226.56,-55.5 396.35,-227.1 545.49,-396.6 15.1,-17.1 40.07,8 25.1,25.1 v 0"
           style="fill:#d35548;fill-opacity:1;fill-rule:nonzero;stroke:none"
           id="path3659" />
      </g>
      <g
         id="g3661"
         transform="matrix(0.07356687,0,0,-0.07356687,1538.8055,1516.9445)">
        <path
           d="m 15227.7,15012.1 c 104.7,73.9 230.8,105 357.4,81.8 102.2,-18.7 202.2,-51.7 294.5,-99.5 185.2,-95.8 336,-253.2 380.2,-461.5 4.9,-23.1 40.2,-13.3 35.3,9.7 -35.8,168.6 -139.5,309 -277.4,409.7 -135.1,98.7 -308.9,169.4 -476.3,185.3 -117.1,11.2 -237.1,-26.7 -332.2,-93.8 -19.1,-13.6 -0.8,-45.3 18.5,-31.7 v 0"
           style="fill:#ffffff;fill-opacity:1;fill-rule:nonzero;stroke:none"
           id="path3663" />
      </g>
      <g
         id="g3665"
         transform="matrix(0.08079247,0,0,-0.08079247,1538.8055,1516.9445)">
        <path
           d="m 12721,16207.7 h -18.2 v 1.6 c 0,50.1 -40.6,90.7 -90.7,90.7 h -548.3 c -50.1,0 -90.7,-40.6 -90.7,-90.7 v -119.7 c 0,-50.1 40.6,-90.7 90.7,-90.7 h 548.3 c 49.1,0 89,39.1 90.6,87.8 h 18.3 c 13.3,0 24.1,10.8 24.1,24.1 v 72.8 c 0,13.3 -10.8,24.1 -24.1,24.1"
           style="fill:#ffffff;fill-opacity:1;fill-rule:nonzero;stroke:none"
           id="path3667" />
      </g>
      <g
         id="g3669"
         transform="matrix(0.08057269,0,0,-0.08057269,1538.8055,1516.9445)">
        <path
           d="m 12504.3,16087 h -362.5 c -44.4,0 -80.3,36 -80.3,80.4 v 52.2 c 0,44.4 35.9,80.4 80.3,80.4 h 362.5 c 5.2,0 9.4,-4.2 9.4,-9.3 v -194.4 c 0,-5.1 -4.2,-9.3 -9.4,-9.3"
           style="fill:#95c11f;fill-opacity:1;fill-rule:nonzero;stroke:none"
           id="path3671" />
      </g>
      <g
         id="g3673"
         transform="matrix(0.08148673,0,0,-0.08148673,1538.8055,1516.9445)">
        <path
           d="m 11564.4,15862.6 h 42 c 16.4,0 29.6,13.2 29.6,29.6 v 378.2 c 0,16.4 -13.2,29.6 -29.6,29.6 h -42 c -16.4,0 -29.6,-13.2 -29.6,-29.6 v -378.2 c 0,-16.4 13.2,-29.6 29.6,-29.6"
           style="fill:#ffffff;fill-opacity:1;fill-rule:nonzero;stroke:none"
           id="path3675" />
      </g>
      <g
         id="g3677"
         transform="matrix(0.08100519,0,0,-0.08100519,1538.8055,1516.9445)">
        <path
           d="m 11491.6,15956.9 h 42.3 c 16.5,0 29.8,13.3 29.8,29.7 v 283.6 c 0,16.5 -13.3,29.8 -29.8,29.8 h -42.3 c -16.4,0 -29.7,-13.3 -29.7,-29.8 v -283.6 c 0,-16.4 13.3,-29.7 29.7,-29.7"
           style="fill:#ffffff;fill-opacity:1;fill-rule:nonzero;stroke:none"
           id="path3679" />
      </g>
      <g
         id="g3681"
         transform="matrix(0.08042981,0,0,-0.08042981,1538.8055,1516.9445)">
        <path
           d="m 11431.3,16071 h 42.6 c 16.5,0 30,13.5 30,30 v 169 c 0,16.6 -13.5,30 -30,30 h -42.6 c -16.6,0 -30,-13.4 -30,-30 v -169 c 0,-16.5 13.4,-30 30,-30"
           style="fill:#ffffff;fill-opacity:1;fill-rule:nonzero;stroke:none"
           id="path3683" />
      </g>
      <g
         id="g3685"
         transform="matrix(0.07999554,0,0,-0.07999554,1538.8055,1516.9445)">
        <path
           d="m 11350.1,16158.3 h 42.9 c 16.6,0 30.1,13.5 30.1,30.2 v 81.4 c 0,16.6 -13.5,30.1 -30.1,30.1 h -42.9 c -16.6,0 -30.1,-13.5 -30.1,-30.1 v -81.4 c 0,-16.7 13.5,-30.2 30.1,-30.2"
           style="fill:#ffffff;fill-opacity:1;fill-rule:nonzero;stroke:none"
           id="path3687" />
      </g>
      <g
         id="g3689"
         transform="matrix(0.07536004,0,0,-0.07536004,1538.8055,1516.9445)">
        <path
           d="m 6874.71,16300 c -311.49,0 -564,-252.5 -564,-564 v -1445.7 c 0,-311.5 252.51,-564 564,-564 H 14300 V 16300 H 6874.71"
           style="fill:#fe15a3;fill-opacity:0.149807;fill-rule:nonzero;stroke:none"
           id="path3691" />
      </g>
      <g
         id="g3693"
         transform="matrix(0.06390358,0,0,-0.06390358,1538.8055,1516.9445)">
        <path
           d="m 15634.9,14868 c 367.3,0 665.1,-297.8 665.1,-665.1 V 12498 c 0,-367.3 -297.8,-665.1 -665.1,-665.1 H 6878.47 V 14868 h 8756.43"
           style="fill:#ffa8dd;fill-opacity:1;fill-rule:nonzero;stroke:none"
           id="path3695" />
      </g>
      <g
         id="g3697"
         transform="matrix(0.06611338,0,0,-0.06611338,1538.8055,1516.9445)">
        <path
           d="m 7836.22,10162.2 c -355.05,0 -642.88,-287.81 -642.88,-642.86 V 7871.38 c 0,-355 287.83,-642.82 642.88,-642.82 H 16300 V 10162.2 H 7836.22"
           style="fill:#ffa8dd;fill-opacity:1;fill-rule:nonzero;stroke:none"
           id="path3699" />
      </g>
      <g
         id="g3701"
         transform="matrix(0.06390358,0,0,-0.06390358,1538.8055,1516.9445)">
        <path
           d="m 15634.9,6166.99 c 367.3,0 665.1,-297.78 665.1,-665.06 V 3796.99 c 0,-367.33 -297.8,-665.11 -665.1,-665.11 H 6920.37 c -124.71,382.18 69.39,806.05 -41.9,3035.11 h 8756.43"
           style="fill:#ffa8dd;fill-opacity:1;fill-rule:nonzero;stroke:none"
           id="path3703" />
      </g>
      <g
         id="g3705"
         transform="matrix(0.07698635,0,0,-0.07698635,1538.8055,1516.9445)">
        <path
           d="M 15206.4,16300 H 7043.12 c -304.86,0 -552.04,-247.2 -552.04,-552.1 v -1415.2 c 0,-304.8 247.18,-552 552.04,-552 h 7252.28 l 545.4,-557.9 c 42.7,-43.7 117,-13.4 117,47.7 v 510.2 h 248.6 c 304.9,0 552,247.2 552,552 v 1415.2 c 0,304.9 -247.1,552.1 -552,552.1"
           style="fill:#8f00ff;fill-opacity:0.482477;fill-rule:nonzero;stroke:none"
           id="path3707" />
      </g>
      <g
         id="g3709"
         transform="matrix(0.07558864,0,0,-0.07558864,1538.8055,1516.9445)">
        <path
           d="m 8914.22,15312.7 c 0,-545.3 -442.02,-987.3 -987.27,-987.3 -545.26,0 -987.28,442 -987.28,987.3 0,545.3 442.02,987.3 987.28,987.3 545.25,0 987.27,-442 987.27,-987.3"
           style="fill:#ffffff;fill-opacity:1;fill-rule:nonzero;stroke:none"
           id="path3711" />
      </g>
      <g
         id="g3713"
         transform="matrix(0.07442835,0,0,-0.07442835,1538.8055,1516.9445)">
        <path
           d="M 15728.9,9387.43 H 7285.17 c -315.34,0 -571.01,-255.67 -571.01,-571.06 v -1463.8 c 0,-315.39 255.67,-571.05 571.01,-571.05 h 7501.53 l 564.1,-577.03 c 44.2,-45.22 121,-13.94 121,49.34 v 527.69 h 257.1 c 315.4,0 571.1,255.66 571.1,571.05 v 1463.8 c 0,315.39 -255.7,571.06 -571.1,571.06"
           style="fill:#8f00ff;fill-opacity:0.482353;fill-rule:nonzero;stroke:none"
           id="path3715" />
      </g>
      <g
         id="g3717"
         transform="matrix(0.06214957,0,0,-0.06214957,1538.8055,1516.9445)">
        <path
           d="M 15616.1,15716.6 H 5504.14 c -377.69,0 -683.87,-306.1 -683.87,-683.8 v -1753 c 0,-377.7 306.18,-683.9 683.87,-683.9 h 307.91 v -632 c 0,-75.7 92.02,-113.2 144.92,-59 l 675.59,691 h 8983.54 c 377.7,0 683.9,306.2 683.9,683.9 v 1753 c 0,377.7 -306.2,683.8 -683.9,683.8"
           style="fill:#8f00ff;fill-opacity:0.482353;fill-rule:nonzero;stroke:none"
           id="path3719" />
      </g>
      <g
         id="g3721"
         transform="matrix(0.06214957,0,0,-0.06214957,1538.8055,1516.9445)">
        <path
           d="M 15616.1,6767.54 H 5504.14 c -377.69,0 -683.87,-306.18 -683.87,-683.88 V 4330.6 c 0,-377.64 306.18,-683.82 683.87,-683.82 h 307.91 v -631.99 c 0,-75.73 92.02,-113.25 144.92,-59.09 l 675.59,691.08 h 8983.54 c 377.7,0 683.9,306.18 683.9,683.82 v 1753.06 c 0,377.7 -306.2,683.88 -683.9,683.88"
           style="fill:#8f00ff;fill-opacity:0.482353;fill-rule:nonzero;stroke:none"
           id="path3723" />
      </g>
      <g
         id="g3725"
         transform="matrix(0.04146691,0,0,-0.04146691,1538.8055,1516.9445)">
        <path
           d="m 13699.4,13327.9 c 40.1,10.2 80.3,21.8 120.7,35.4 13.9,4.9 27.7,10.3 41.2,16.3 13.6,5.9 26.8,12.4 39.8,19.4 -9.4,-15.7 -15.4,-31.6 -18.7,-47.7 -3.1,-16 -3.4,-32.1 -1.4,-48 17.3,-81.6 59.2,-142.1 115.4,-186.2 18.7,-14.7 39.2,-27.7 60.7,-38.9 66.3,-36.7 136.4,-58.9 208.6,-70.6 24.1,-3.9 48.4,-6.7 72.9,-8.5 208.6,-21.9 489.1,-1.1 635.4,172.1 8.1,9.6 15.8,19.7 23.1,30.4 7.5,7.7 13.6,16.6 18.6,26.2 5.1,9.5 8.9,19.9 11.8,30.7 14.2,46.3 14.2,93.4 -14.1,131.1 38.9,-14.1 79.1,-21.6 120.3,-26.5 13.7,-1.6 27.6,-2.9 41.5,-4.1 158.9,-26.1 316.8,-58 479,-104.3 12.3,-4.5 21.5,-7 33.7,-11.9 12.1,-4.8 30.7,-3.3 44.7,-4.6 319.7,324.9 516.9,770.4 516.9,1262.1 0,994 -805.8,1799.7 -1799.7,1799.7 -993.9,0 -1799.7,-805.7 -1799.7,-1799.7 0,-502.2 205.7,-956.3 537.4,-1282.7 145.4,49.1 305.6,55.1 451.9,96 20,4.5 40,9.2 60,14.3"
           style="fill:#ffffff;fill-opacity:1;fill-rule:nonzero;stroke:none"
           id="path3727" />
      </g>
      <g
         id="g3729"
         transform="matrix(0.0384362,0,0,-0.0384362,1538.8055,1516.9445)">
        <path
           d="m 16190.9,15229.5 c 2.7,155.8 25.7,317.7 -12,461.3 -42.3,145.4 -219.5,172.8 -372.8,179.1 3.6,-21.8 6.7,-43.8 9.4,-65.8 7,-62 13.4,-123.9 19.4,-185.9 6.2,-61.9 11.9,-124 17.6,-186 3.6,-43.5 7.7,-86.9 11.9,-130.1 4.2,-43.3 8.6,-86.4 13.3,-129.5 15,-166.9 37.9,-332.2 55.1,-497 5,-51.7 9.9,-103.1 14.7,-154.3 47.4,-10.7 95.1,-17 142.7,-19.7 47.5,-2.6 95.1,-1.6 142.3,2.7 22.6,2 45.1,4.8 67.5,8.2 -40.6,239.8 -106.9,474.6 -109.1,717"
           style="fill:#512600;fill-opacity:1;fill-rule:nonzero;stroke:none"
           id="path3731" />
      </g>
      <g
         id="g3733"
         transform="matrix(0.04048407,0,0,-0.04048407,1538.8055,1516.9445)">
        <path
           d="m 15829.6,14246.6 c -54.7,171.8 -54.1,351.9 -38.3,533.1 2.6,30.2 5.6,60.4 8.9,90.7 3.3,30.2 6.8,60.5 10.3,90.6 10.1,71.3 18.9,144.5 24.2,218.3 5.4,73.8 7.4,148.2 3.9,221.7 -7,370.2 -248.4,727.4 -592.6,851.9 -55.9,20.9 -115.7,35.9 -173.5,39.6 -115.5,7.5 -223.3,-30 -277.8,-154.9 -46.7,-107.6 6.1,-224.8 30.7,-343.2 37.1,-180.1 94.6,-350.7 138.6,-524.7 16.9,-66.8 31.7,-134.1 42.6,-202.6 97,-4 204.2,-16.9 276.7,-65.9 36.2,-24.5 63.9,-58.1 77.5,-104.5 36.3,-149 17,-293.8 11.1,-437.6 0.2,-28.8 1.5,-57.4 3.5,-85.9 14,-200 66.4,-395.6 100.1,-594.8 162.6,24.8 317.5,85.4 464.2,164.5 0.7,0.3 -31.7,87.9 -61.7,169.3 -10,27.1 -19.7,53.6 -27.9,75.9 -10.7,29.7 -18.5,51.7 -20.5,58.5"
           style="fill:#663300;fill-opacity:1;fill-rule:nonzero;stroke:none"
           id="path3735" />
      </g>
      <g
         id="g3737"
         transform="matrix(0.04056662,0,0,-0.04056662,1538.8055,1516.9445)">
        <path
           d="m 14743.4,16169.7 c 17.5,-84.2 7.5,-170.8 -2.2,-262 -22.2,-225.6 -82.7,-438.6 -85.3,-661 0.5,-44.5 0.7,-89 0.4,-133.6 -0.3,-44.5 -1.1,-89 -2.5,-133.5 -1.4,-50.6 -3.5,-100.9 -6.5,-151.4 -25.6,-359.2 -103,-711.7 -85.6,-1073.9 -343,-26 -687.1,-28.2 -1021.9,70.4 18.7,33.4 34.6,67.4 48.3,102.1 13.6,34.6 25,69.8 34.8,105.3 142.6,395.8 94,818.6 108.5,1228.3 3,36.7 6.2,73.5 9.4,110.2 3.9,24.6 8.6,48.9 14.2,73 11.3,48.1 25.9,95 43.8,140.5 146.4,304.5 456.7,715.9 835.7,607.1 32.1,-3.4 67.9,-10.7 108.9,-21.5"
           style="fill:#663300;fill-opacity:1;fill-rule:nonzero;stroke:none"
           id="path3739" />
      </g>
      <g
         id="g3741"
         transform="matrix(0.03813951,0,0,-0.03813951,1538.8055,1516.9445)">
        <path
           d="m 15275.9,16171.4 c -211.2,-224.6 -221.9,-538.9 -264.6,-833.7 -37,-249.8 -32.9,-483.3 -44.1,-721.4 173.3,-7.2 347.3,0.2 521.2,13.4 -18.5,385.2 63.9,760.1 91,1142.1 3.3,53.8 5.5,107.3 7,161.2 1.5,47.2 2.3,94.6 2.7,142 0.2,47.3 0.1,94.7 -0.5,142 0.3,27.9 1.5,55.4 3.3,83 -78.1,-22.6 -154,-55.2 -225.1,-87.6 -30.2,-17.2 -71.6,-14 -90.9,-41"
           style="fill:#663300;fill-opacity:1;fill-rule:nonzero;stroke:none"
           id="path3743" />
      </g>
      <g
         id="g3745"
         transform="matrix(0.04056662,0,0,-0.04056662,1538.8055,1516.9445)">
        <path
           d="m 14743.4,16169.7 c -41,10.8 -76.8,18.1 -108.9,21.5 -379,108.8 -689.3,-302.6 -835.7,-607.1 -17.9,-45.5 -32.5,-92.4 -43.8,-140.5 -5.6,-24.1 -10.3,-48.4 -14.2,-73 -3.2,-36.7 -6.4,-73.5 -9.4,-110.2 -14.5,-409.7 34.1,-832.5 -108.5,-1228.3 -9.8,-35.5 -21.2,-70.7 -34.8,-105.3 -13.7,-34.7 -29.6,-68.7 -48.3,-102.1 53,-15.7 106.2,-28.6 159.6,-39.4 28.2,72 61.7,144.8 74.5,220 3.7,-76.1 0.5,-156 -17.9,-230.7 41.2,-7.2 82.6,-13.1 124,-18 -25,290 48.4,572.3 122,854.7 52.9,213.9 116,413.7 173.7,627.8 66.2,221.9 292,374.4 518.6,355.4 17.4,103.1 36.4,206.8 46.9,313.2 9.7,91.2 19.7,177.8 2.2,262"
           style="fill:#663300;fill-opacity:1;fill-rule:nonzero;stroke:none"
           id="path3747" />
      </g>
      <g
         id="g3749"
         transform="matrix(0.03885812,0,0,-0.03885812,1538.8055,1516.9445)">
        <path
           d="m 14798.9,15909.2 c -60.1,-223.6 -126.1,-432.2 -181.3,-655.5 -76.8,-294.8 -153.5,-589.5 -127.3,-892.3 66.5,-7.7 133.2,-12.7 200.1,-15.5 10.9,233.7 7,462.9 43.3,708.1 41.8,289.4 52.4,597.9 259.6,818.3 19,26.5 59.7,23.3 89.3,40.2 69.8,31.8 144.2,63.8 220.9,86 6.5,94.5 21.1,187.8 36.9,281.6 -236.6,19.9 -472.4,-139.3 -541.5,-370.9"
           style="fill:#512600;fill-opacity:1;fill-rule:nonzero;stroke:none"
           id="path3751" />
      </g>
      <g
         id="g3753"
         transform="matrix(0.06062592,0,0,-0.06062592,1538.8055,1516.9445)">
        <path
           d="m 14262.9,13834.1 c 139.2,21.4 279.5,37.3 419.4,54 -8.8,-21.8 -32.3,-26.2 -38.8,-51.1 -5.2,-19.6 -2.4,-41.6 1.7,-61.2 7.6,-35.8 27.3,-68.5 52.4,-94.9 95.4,-100.5 240.7,-128.5 373.3,-133.7 15.8,-0.6 31.6,-0.6 47.2,0 58.9,2.3 117.4,13.8 173.1,35.1 18.5,7 36.7,15.2 54.6,24.5 13.2,4.3 27.1,9.6 41.3,15.7 14.1,6.1 28.4,13.1 42.3,21 24.4,11.3 47.5,28.7 66.1,49.9 6.2,7 12,14.5 17.1,22.2 4.7,7.3 8.6,14.6 11.7,22 26,49 -0.4,108.2 -33.3,147.7 4.6,-6 43.1,-6.1 51.4,-7.3 17,-2.4 34.1,-4.8 51.2,-7.1 31.9,-4.4 63.9,-7.1 95.9,-10.7 69.5,-7.8 138.6,-18.8 207,-33.2 46.5,-9.7 93.6,-19.9 139.1,-34 10.3,-3.2 20.8,-6.1 31.1,-9.1 146.7,202.7 233.3,451.7 233.3,721 0,679.8 -551.2,1231 -1231,1231 -679.8,0 -1230.9,-551.2 -1230.9,-1231 0,-264.9 83.6,-510.2 226,-711.1 12.7,3.8 25.3,7.4 38,11 51.9,14.6 107.4,21.1 160.8,29.3"
           style="fill:#ffffff;fill-opacity:1;fill-rule:nonzero;stroke:none"
           id="path3755" />
      </g>
      <g
         id="g3757"
         transform="matrix(0.03804991,0,0,-0.03804991,1538.8055,1516.9445)">
        <path
           d="m 16257.2,14902.6 c -16.6,157.5 15.2,313.8 32.5,470.2 10.3,82.2 -10.2,184.9 -90.7,227.8 -22.8,10.9 -50.5,17.5 -83.9,18.7 -113,10.3 -215.7,-61.6 -326.6,-92.7 -30,-6.8 -60,-11 -90,-11.2 -20.5,0.6 -40.9,2.3 -61,5.2 -20.2,3.1 -40.1,7.5 -59.8,13.6 -109.8,23.5 -181.7,126.3 -277.8,189.4 -36,19.5 -71.8,33.9 -107.6,43 -39.3,-73 -52.3,-148.1 -50.9,-224.2 0.6,-25.4 2.6,-50.9 5.9,-76.5 35.7,-167.1 96.4,-356.5 97.9,-534.6 279.7,-230.3 707.6,-210.4 1012,-28.7"
           style="fill:#bc5839;fill-opacity:1;fill-rule:nonzero;stroke:none"
           id="path3759" />
      </g>
      <g
         id="g3761"
         transform="matrix(0.03896113,0,0,-0.03896113,1538.8055,1516.9445)">
        <path
           d="m 16218.8,14084.1 c -99.4,66.2 -219.8,96.4 -269.3,221.4 -4.4,9.8 -8.6,19.8 -12.6,29.7 -8,20 -15.7,40 -23.3,59.7 -9.6,24.6 -17.2,49.4 -22.9,74.4 -6.5,28.3 -10.9,56.5 -13.8,84.7 -297.3,-177.5 -715.2,-196.8 -988.3,28 0.8,-95.1 -15.7,-186.8 -62.9,-269.9 -9.4,-16.7 -20.1,-32.9 -32.1,-48.7 -78.8,-103 -259.4,-82.9 -269.4,-153.2 -10,-170.6 270.8,-290.9 460.4,-293.2 24.8,-0.5 49.4,-0.3 74.1,0 73.9,1 149,3 222.6,-1.2 16.8,-0.8 33,-1.6 49.2,-2.4 158.9,-59.1 295.1,-57.2 424.4,11.3 18.6,9.7 37,20.9 55.3,33.4 13.6,15.2 28.1,28.8 43.5,41 31.3,25.2 65.5,44.7 101.4,59.2 12,4.8 24.2,9.1 36.5,12.9 8.5,3.5 17.1,6.5 26,9 31.6,9.6 51.6,9.6 83.7,10.5 9.8,0.2 19.7,0.1 29.7,-0.3 30,-0.8 61,-3.2 92.5,-4.8 12.8,-1.9 25.7,-4.2 38.5,-6.8 12.7,-2.7 25.4,-5.6 38,-9 -5.1,10 -7.5,22.5 -10.7,34.6 -3.1,12.1 -6.8,23.7 -14.2,31.9 -7.6,8.5 -16.3,16.6 -25.7,24.6 -9.4,8 -19.7,15.7 -30.6,23.2"
           style="fill:#db7249;fill-opacity:1;fill-rule:nonzero;stroke:none"
           id="path3763" />
      </g>
      <g
         id="g3765"
         transform="matrix(0.06062592,0,0,-0.06062592,1538.8055,1516.9445)">
        <path
           d="m 14550.4,4631.12 c 32.7,-41.55 66.3,-81.59 103.2,-117.84 13.6,-13.32 27.6,-26.18 42.2,-38.34 38,-21.65 77.5,-42.37 117.2,-63.49 19.8,-10.53 39.7,-21.12 59.4,-32 89.5,-57.15 181.1,-139.77 245.5,-236.31 3,3.2 6,6.4 9.1,9.6 14.2,14.55 29.1,28.69 44.5,42.36 128.6,92.64 247.1,191.39 378.8,296.71 12.2,16.35 34.7,22.52 57.8,21.76 -1.4,9.95 -2.8,19.96 -4,29.91 -0.9,19.03 -1.6,37.94 -2.3,56.74 1.2,36.42 -5.5,69.36 -10.5,111.37 -3.4,18.39 -8,36.66 -14.2,54.7 -5.4,14.78 -11.4,29.21 -17.7,43.47 2.6,-5.94 24.6,-15.66 47.8,-25.02 144.8,-78.74 302.2,-128.02 458.8,-175.91 147.1,202.85 234,452.25 234,722.01 0,679.83 -551.2,1231 -1231,1231 -679.8,0 -1230.9,-551.17 -1230.9,-1231 0,-268.89 86.3,-517.65 232.6,-720.15 154.9,48.36 313.7,88.57 472.4,137.85 3.2,-38.93 6.1,-78.2 7.3,-117.42"
           style="fill:#ffffff;fill-opacity:1;fill-rule:nonzero;stroke:none"
           id="path3767" />
      </g>
      <g
         id="g3769"
         transform="matrix(0.04002335,0,0,-0.04002335,1538.8055,1516.9445)">
        <path
           d="m 16300,13715.7 c -105.2,33.6 -204.5,62.2 -314.2,84.6 -12.5,2.5 -298.1,53.4 -427.8,73.3 29.9,-79.8 10,-159.5 -44.1,-227.2 -10.7,-13 -22.3,-25.1 -34.4,-36.3 -158.2,-146.2 -423.1,-163.2 -623.8,-142.2 -25.4,1.8 -50.6,4.7 -75.5,8.8 -74.8,12.1 -147.4,35.2 -216.2,73.2 -22.3,11.6 -43.4,25 -62.8,40.2 -58.3,45.8 -101.6,108.5 -119.6,193 -2.1,16.5 -1.8,33.1 1.5,49.7 3.3,16.7 9.6,33.1 19.3,49.4 -13.4,-7.3 -578.2,-96.3 -739.3,-188 336.6,-331.2 798.3,-535.6 1307.8,-535.6 520.4,0 990.9,213.2 1329.1,557.1"
           style="fill:#002544;fill-opacity:1;fill-rule:nonzero;stroke:none"
           id="path3771" />
      </g>
      <g
         id="g3773"
         transform="matrix(0.04065729,0,0,-0.04065729,1538.8055,1516.9445)">
        <path
           d="m 13942.9,15287.4 c -5.4,-323.7 4.2,-669.8 190.4,-951.1 22,-34.2 45.9,-67.1 71.9,-98.3 78.1,-93.6 174.5,-172 289.9,-226.1 182.7,-76.9 384.6,-57.7 549.1,60.1 34.5,22 67,46.4 97.3,73.1 272.7,240.1 376.5,660.7 359,1023.1 0,36.4 -0.7,72.7 -2.1,108.9 -4,108.3 -15,216.3 -29.6,322.1 -5.1,37.4 -11.1,74.2 -18.4,110.8 -15.5,42.2 -34.1,81.7 -55.1,118.4 -230.3,403.7 -745.9,471.6 -1100.7,233.4 -32.3,-21.6 -63.3,-45.8 -92.5,-72.4 -78.3,-63.2 -132.1,-142.2 -171.4,-229.4 -13.1,-29 -24.5,-59 -34.6,-89.2 -9.6,-28 -17.4,-55.9 -23.8,-84 -15.6,-75.1 -25.2,-161.6 -27.5,-242.3 -1,-18.8 -1.6,-37.8 -1.9,-57.1"
           style="fill:#db7249;fill-opacity:1;fill-rule:nonzero;stroke:none"
           id="path3775" />
      </g>
      <g
         id="g3777"
         transform="matrix(0.04057827,0,0,-0.04057827,1538.8055,1516.9445)">
        <path
           d="m 15084.2,16207.2 c 28.8,-259.8 -233.2,-426.7 -331.9,-646.7 -17.3,-23.6 -35.4,-46.7 -54.4,-69.1 -94.8,-111.8 -210.3,-206.3 -338.5,-272.6 -13.6,-6.8 -27.3,-13.4 -41.3,-19.3 -18.1,-7.8 -36.5,-14.6 -55.2,-20.7 -26.4,-11.8 -52.9,-20.3 -79.6,-26.1 -21.3,-4.5 -43.2,-8 -65.3,-10.3 -17.8,-1.5 -37,-2.6 -56.9,-3 -22.1,-0.7 -45.4,-0.6 -68.4,1.3 -97.7,-3.1 -191.4,64.3 -231.5,154.6 -8,18 -13.9,37 -17.3,56.5 -1.1,22.1 -0.9,44.1 0.3,65.9 1.3,21.9 3.7,43.6 7.1,65.2 15.7,84.1 42.3,166.1 78.7,243.2 18.3,38.5 39,75.9 62,111.8 13.3,21.2 27.7,42 42.8,62.2 101.1,144.9 241.9,245.8 399.7,305.8 31.7,12.1 64.1,22.5 97.1,31.4 191.9,62.7 405,44 603.4,-6.4 19.1,-8.1 35.1,-16.2 49.2,-23.7"
           style="fill:#663300;fill-opacity:1;fill-rule:nonzero;stroke:none"
           id="path3779" />
      </g>
      <g
         id="g3781"
         transform="matrix(0.04046608,0,0,-0.04046608,1538.8055,1516.9445)">
        <path
           d="m 14632.5,16261.3 c 11.7,-40.2 24.1,-80.6 37.4,-120.9 13.2,-40.4 27.4,-80.7 42.7,-120.5 20.1,-84.1 49.5,-163 86.8,-236.3 18.7,-36.6 39.3,-71.8 61.7,-105.5 99.8,-176.7 252.8,-292.2 424.1,-381.4 24.5,-12.9 49.3,-25.1 74.1,-36.8 140.2,-69 326.8,-104.4 392.9,-263.8 88.6,280.3 74.2,580.2 -105.6,815.9 -14.8,24.4 -29.8,48.5 -45.1,72.4 -45.5,71.6 -92.3,140.6 -135.9,206.4 -32.9,28.7 -67.6,53 -103.9,73.7 -181.3,103.9 -400.1,117.9 -606.8,135.1 -40.8,0.4 -82,-13.6 -122.4,-38.3"
           style="fill:#663300;fill-opacity:1;fill-rule:nonzero;stroke:none"
           id="path3783" />
      </g>
      <g
         id="g3785"
         transform="matrix(0.0396681,0,0,-0.0396681,1538.8055,1516.9445)">
        <path
           d="m 14877.3,16117.2 c -7.1,10 8.2,36.7 20.1,49 25.7,26.5 51.5,45.5 72.2,76.8 2,3.1 4.1,6.4 4.1,10.1 0,5.5 -4.8,10.3 -10.2,11.7 -5.3,1.3 -11,0.2 -16.3,-1.3 -31.8,-8.7 -58.8,-28.2 -85.3,-47.3 -13.5,-9.6 -26.8,-19.4 -41.1,-27.5 -3.9,-2.2 -42,-12.6 -42.4,-13.8 9.2,23.7 27.5,40.3 44.8,58.5 17.1,19 33.5,38.7 39.7,66.6 -0.5,-2.2 -53.9,-15.3 -59.9,-17.6 -191.9,-79.2 -394.9,-194.5 -469.4,-399.2 59.2,7.9 97.1,44.9 145.2,77.3 19.3,11.1 38.9,17 64.1,8.1 -36.5,-67 -115.5,-75.8 -164.4,-133.9 -19.3,-16.6 -37.5,-35.7 -50.9,-57.4 -13.4,-21.6 -21.9,-45.8 -21.8,-72.3 28.4,7.9 53.2,21.7 77.3,36.7 12.1,7.5 24,15.5 36,23.1 42.8,29 91.4,51.5 140.2,68.9 107.5,35.3 215.2,65.7 299.3,145.3 11.4,10.8 22.4,21.9 33.6,32.9 11.1,11.2 22.4,22.3 34.1,33.2 48.4,45.2 122.3,94.6 154.2,152.1 -27.5,-6.5 -54.5,-25.4 -79.6,-37.8 -32.3,-16.2 -64.8,-31.6 -99,-43.1 -14.1,-4.7 -21.5,-3.6 -24.6,0.9"
           style="fill:#7f3c00;fill-opacity:1;fill-rule:nonzero;stroke:none"
           id="path3787" />
      </g>
      <g
         id="g3789"
         transform="matrix(0.03924829,0,0,-0.03924829,1538.8055,1516.9445)">
        <path
           d="m 15250.3,16275.2 c 48.8,-166.4 148.5,-312.2 273.2,-429.8 123.8,-116.8 266.6,-202.3 418.4,-275.6 86.5,-41.8 173.2,-83.3 254.1,-135.8 14.4,-9.4 26.5,14.5 12.2,23.8 -135,87.5 -286.5,143 -424.8,224.6 -143.7,84.9 -278.2,198.7 -376.5,335.3 -58.2,80.7 -103.3,169.9 -131.4,265.9 -4.8,16.4 -30,8.1 -25.2,-8.4 v 0"
           style="fill:#663300;fill-opacity:1;fill-rule:nonzero;stroke:none"
           id="path3791" />
      </g>
      <g
         id="g3793"
         transform="matrix(0.03977781,0,0,-0.03977781,1538.8055,1516.9445)">
        <path
           d="m 16084.8,15710.6 c 12,-48.9 11,-96.5 9.9,-146.3 -1.1,-50.2 -2.6,-100.3 -4,-150.4 -2.9,-101.3 -5.8,-202.8 -4.7,-304.2 2.2,-196.2 22.3,-392 71.6,-582.2 27.4,-105.7 64.2,-208.7 110.4,-307.5 7.1,-15.1 32,-7.2 24.8,8.3 -83.4,178 -134.1,369.2 -160,564.1 -26.5,199.6 -22.4,401.3 -16.6,602.1 1.5,55.3 3.2,110.5 4.5,165.8 1.2,54 1.9,105.7 -11,158.5 -4.1,16.5 -28.8,8.3 -24.9,-8.2 v 0"
           style="fill:#663300;fill-opacity:1;fill-rule:nonzero;stroke:none"
           id="path3795" />
      </g>
      <g
         id="g3797"
         transform="matrix(0.03964976,0,0,-0.03964976,1538.8055,1516.9445)">
        <path
           d="m 14319.8,16287.6 c -410.8,-439.1 -314.8,-1089.5 -416.6,-1638.3 -29.9,-161.9 -77.8,-319.7 -154.5,-465.3 -7.9,-15.1 15.3,-27.4 23.3,-12.2 133.4,253.2 176.3,538.2 201.5,820.7 26.1,292.2 33.6,591.4 128.7,871.4 51,150.4 128.7,290.1 237,405.8 11.7,12.5 -7.8,30.3 -19.4,17.9 v 0"
           style="fill:#663300;fill-opacity:1;fill-rule:nonzero;stroke:none"
           id="path3799" />
      </g>
      <g
         id="g3801"
         transform="matrix(0.05908323,0,0,-0.05908323,1538.8055,1516.9445)">
        <path
           d="m 15080.3,14820.7 c 25.6,-222.7 124.8,-487.1 -87.5,-660.5 -15.6,-12.8 -32.5,-24 -51.4,-33.2 -18.8,-9.3 -39.6,-16.7 -62.5,-21.9 -18.2,-5.5 -36.9,-10.3 -55.7,-15.1 -75,-19 -150.9,-36.7 -201.1,-85.5 -15.9,-11.8 -5.3,-39.3 21.1,-51.1 74.1,-27.4 158.8,-11.7 232.9,-39.2 211.8,-78.5 434,-145.3 670.1,-160.2 30.6,0.4 61.3,3.8 92.2,11 23.8,5.4 46.8,12.1 69.4,19.7 22.5,7.6 44.5,16.1 66.2,25.1 131.9,47.8 250.9,140.3 396.8,136.8 21.8,4.5 43.6,9.6 65.3,15.4 21.6,5.7 42.9,12.2 63.9,19.3 -11.5,11.3 -19.1,25.5 -38.2,31.1 -25.7,5.7 -51.8,11 -77.6,16.7 -11.6,1 -23,2.6 -34.1,4.7 -17.9,2.2 -34.7,6.2 -50.7,11.7 -16,5.5 -31.1,12.6 -45.3,20.9 -234.2,148.2 -247.4,439.1 -181.3,683.7 0,19.8 -6.6,33.1 -13.4,52.9 -13.1,26.4 -27.9,41.7 -44,48.5 -80.2,34.1 -190,-142.1 -270.4,-180.6 -18,-8.9 -37.4,-15.9 -57.5,-20.8 -130.4,-32.2 -269.2,33.9 -357.6,132.4 -17.4,13.9 -33.9,26.6 -49.6,38.2"
           style="fill:#a04424;fill-opacity:1;fill-rule:nonzero;stroke:none"
           id="path3803" />
      </g>
      <g
         id="g3805"
         transform="matrix(0.05753453,0,0,-0.05753453,1538.8055,1516.9445)">
        <path
           d="m 15926.6,14590.3 c 127.3,22.2 254.6,75.9 352.5,161.3 -27.1,127 -13.7,267.4 20.9,395.5 0,20.3 -6.7,33.9 -13.8,54.3 -13.4,27.2 -28.6,42.8 -45.1,49.9 -82.4,35 -195.2,-146 -277.7,-185.5 -18.5,-9.2 -38.4,-16.3 -59,-21.4 -134,-33.1 -276.5,34.8 -367.2,136 -18,14.2 -34.9,27.3 -51,39.2 17,-147.9 65.6,-313.8 38.8,-460.7 81.1,-128.4 253.5,-194.3 401.6,-168.6"
           style="fill:#772c18;fill-opacity:1;fill-rule:nonzero;stroke:none"
           id="path3807" />
      </g>
      <g
         id="g3809"
         transform="matrix(0.05908323,0,0,-0.05908323,1538.8055,1516.9445)">
        <path
           d="m 16261.8,14012.4 c -25.7,5.7 -51.8,11 -77.6,16.7 -11.6,1 -23,2.6 -34.1,4.7 -17.9,2.2 -34.7,6.2 -50.7,11.7 -16,5.5 -31.1,12.6 -45.3,20.9 -114.8,72.6 -176.4,179.6 -201.7,298.6 -95.3,-83.2 -219.2,-135.5 -343.2,-157.1 -144.2,-25 -312.1,39.1 -391.1,164.2 -14.3,-78.1 -50.4,-150.7 -125.3,-211.9 -15.6,-12.8 -32.5,-24 -51.4,-33.2 -18.8,-9.3 -39.5,-16.7 -62.5,-21.9 -18.2,-5.5 -36.9,-10.3 -55.7,-15.1 -75,-19 -150.9,-36.7 -201.1,-85.5 -15.9,-11.8 -5.3,-39.3 21.1,-51.1 74.1,-27.4 158.8,-11.7 232.9,-39.2 211.8,-78.5 434,-145.3 670.1,-160.2 30.6,0.4 61.3,3.8 92.2,11 23.8,5.4 46.8,12.1 69.4,19.7 22.5,7.6 44.5,16.1 66.2,25.1 131.9,47.8 250.9,140.3 396.8,136.8 21.8,4.5 43.6,9.6 65.3,15.4 21.6,5.7 42.9,12.2 63.9,19.3 -11.5,11.3 -19.1,25.5 -38.2,31.1"
           style="fill:#a04424;fill-opacity:1;fill-rule:nonzero;stroke:none"
           id="path3811" />
      </g>
      <g
         id="g3813"
         transform="matrix(0.0580637,0,0,-0.0580637,1538.8055,1516.9445)">
        <path
           d="m 15201.5,15382.5 c -0.5,-90.6 15.6,-182.7 37,-266.8 37.5,-147.6 101.8,-293.7 202.3,-409.5 66.1,-76 155.8,-133.5 257.1,-145.9 382.1,-46.9 602.1,470.1 588.2,780 -5.9,131.8 -50.6,261.9 -143.1,358.2 -31.5,32.9 -68.2,60.6 -108.1,82.4 -244,133.1 -672.6,99.7 -794.3,-189.8 -27.5,-65.4 -38.6,-136.5 -39.1,-208.6"
           style="fill:#a04424;fill-opacity:1;fill-rule:nonzero;stroke:none"
           id="path3815" />
      </g>
      <g
         id="g3817"
         transform="matrix(0.0584073,0,0,-0.0584073,1538.8055,1516.9445)">
        <path
           d="m 15116.8,15276.4 c -1.3,18.8 -22.4,47.2 -29.6,65.4 -9.9,25.5 -18.3,51.6 -25,78.1 -12.6,49.2 -18.6,99.9 -22.6,150.5 -5.9,74.7 -9.7,149.9 -5.1,224.9 3.5,57.8 4.9,134.9 70,158.4 53.2,19.2 98.5,-44.2 149,-46.2 43.7,-1.8 80.7,49.4 113,73.8 36.9,27.8 79.8,51.1 127.3,38.7 61.9,-16.1 100.1,-93.7 169,-92 79.1,1.9 112,115.4 202.3,89 48.3,-15.1 54.3,-75.4 102.6,-93.5 15.1,-3 30.2,-9.1 48.1,-8.1 46.8,1.2 95.4,34 142.1,44.4 15.2,3.4 30.8,6.1 46.2,3.7 47,-7.2 71.3,-73.2 81.8,-112.9 14.1,-53.5 13.6,-110 11.4,-164.8 -0.4,-9.5 -0.8,-19 -1.3,-28.4 -11.3,-87.1 -23.4,-177.6 -49.5,-261 -2.4,-8.9 -5,-17.7 -7.7,-26.6 -8.2,-26.4 -17.3,-52.5 -27.5,-78.2 -3.8,-8.1 -8,-16.2 -12.3,-24.1 -4.5,-7.9 -9,-15.6 -13.9,-23.2 -2.1,9.1 -3.6,18.2 -4.8,27.4 -1.3,9.2 -2.2,18.4 -3.2,27.7 -1.1,56.6 -22.2,110.9 -51.7,160 -4.1,9 -8.5,17.7 -13.4,26 -59.5,101.5 -174.7,152.9 -286.7,169.5 -142.3,21 -284.2,18.5 -425.8,-7 -64.7,-11.7 -130.8,-29.4 -181.7,-71.1 -42.5,-34.8 -71.3,-84.5 -86.8,-137.1 -15.4,-52.8 -18,-108.5 -14.2,-163.3"
           style="fill:#2d231f;fill-opacity:1;fill-rule:nonzero;stroke:none"
           id="path3819" />
      </g>
      <g
         id="g3821"
         transform="matrix(0.0546982,0,0,-0.0546982,1538.8055,1516.9445)">
        <path
           d="m 16161.5,16258.7 c -3.1,18.7 -37.1,34.5 -53.3,36.3 -44,5 -50.5,-40.1 -49.7,-73.3 1.3,-48.2 16.3,-105.6 36.1,-149.4 11.7,-25.9 57.5,-98.5 93.4,-78.5 30.6,17.1 5.1,68.1 -3.7,91.2 -14.5,37.6 -31,75.2 -27.9,116.5 0,6.7 0.5,13.2 1.6,19.6 1.2,6.5 3,13 5.7,19.4 -0.5,6 -1.2,12.1 -2.2,18.2"
           style="fill:#a04424;fill-opacity:1;fill-rule:nonzero;stroke:none"
           id="path3823" />
      </g>
      <g
         id="g3825"
         transform="matrix(0.05834063,0,0,-0.05834063,1538.8055,1516.9445)">
        <path
           d="m 16202.6,15265.4 c 2.9,17.6 34.9,32.3 50.1,34.1 41.2,4.6 47.3,-37.6 46.5,-68.8 -1.1,-45.1 -15.3,-99 -33.8,-140 -10.9,-24.3 -53.9,-92.4 -87.6,-73.5 -28.7,16 -4.8,63.8 3.5,85.4 13.5,35.3 29,70.5 26.2,109.3 -0.1,6.1 -0.5,12.2 -1.7,18.4 -1,6 -2.7,12 -5.2,18.1 0.5,5.6 1.1,11.3 2,17"
           style="fill:#a04424;fill-opacity:1;fill-rule:nonzero;stroke:none"
           id="path3827" />
      </g>
      <g
         id="g3829"
         transform="matrix(0.07377078,0,0,-0.07377078,1538.8055,1516.9445)">
        <path
           d="m 8482.93,15008.6 c 39.03,-37.9 98.51,-59.5 147.24,-27 13.49,10.1 24.82,21.3 34.29,33.3 125.1,220.6 46.44,480.1 10.86,712.2 -26.3,171.8 -52.41,347.1 -150.54,495.2 -9.85,8.5 -18.27,15.9 -25.44,22.3 -25.06,16.3 -49.16,55.4 -70.25,37.3 -120.46,-99.4 -45.19,-292.1 -89.95,-432.8 -1.68,-18 -2.49,-35.8 -2.68,-53.5 -0.24,-26.5 1.1,-52.9 3.2,-79.3 2.16,-26.4 5.12,-52.8 8.13,-79.6 0.86,-18.6 0.77,-37.1 0,-55.5 -2.39,-78.7 -32.42,-152.3 -39.93,-230.3 -7.51,-80.8 23.1,-160.3 70.92,-226.9 9.61,-13.4 19.89,-26.4 30.8,-38.8 10.9,-12.6 22.52,-25.1 34.81,-37.7 12.29,-12.8 25.3,-25.9 38.54,-38.9"
           style="fill:#59220c;fill-opacity:1;fill-rule:nonzero;stroke:none"
           id="path3831" />
      </g>
      <g
         id="g3833"
         transform="matrix(0.06737386,0,0,-0.06737386,1538.8055,1516.9445)">
        <path
           d="m 8241.08,16295.1 c 1.52,1.2 2.99,2.2 4.5,3.2 -1.2,0.6 -2.4,1.1 -3.56,1.7 -0.31,-1.6 -0.57,-3.2 -0.94,-4.9"
           style="fill:#59220c;fill-opacity:1;fill-rule:nonzero;stroke:none"
           id="path3835" />
      </g>
      <g
         id="g3837"
         transform="matrix(0.07417012,0,0,-0.07417012,1538.8055,1516.9445)">
        <path
           d="m 7597.73,14775.4 c 17.26,-9.6 35.43,-16 56.22,-13.1 14.07,1.1 28.1,4.7 41.66,10.2 27.06,11.1 52.08,29.6 72.34,49.5 12.13,11.5 23.45,24.2 33.96,37.7 21.08,26.9 39.01,56.7 54.13,84.7 8.18,15.1 15.55,30.5 22.12,45.5 35.48,75.2 89.23,148.4 80.29,236.5 -8.95,94.1 -86.62,152.3 -135.94,230 -14.93,25.4 -25.35,49.3 -30.92,76.8 -3.37,15.7 -5.89,31.3 -7.89,47 -5.95,47 -7.56,94.4 -3.19,141.9 0.91,20.9 2.28,41.7 3.95,62.7 11.61,146.5 36.91,295.3 0.81,439.9 -12.42,28.3 -28.45,53.4 -48.52,75.3 -122.09,-82.7 -175.93,-225.9 -214.55,-362.1 -4.95,-17.4 -9.61,-34.9 -13.99,-52.4 -21.59,-122.7 -43,-247.3 -56.74,-372.3 -1.95,-17.9 -3.76,-35.7 -5.38,-53.6 -8.41,-113.5 -11.27,-227.1 0.1,-342.2 5.66,-58.3 19.88,-113.7 34.81,-169.1 3.43,-16.1 6.28,-32.2 8.23,-48.3 3.67,-30.9 3.76,-61.9 -2.42,-93.6 1.04,-0.5 2.14,-1 3.23,-1.5 37.2,24.4 76.63,-9.3 107.69,-29.5"
           style="fill:#59220c;fill-opacity:1;fill-rule:nonzero;stroke:none"
           id="path3839" />
      </g>
      <g
         id="g3841"
         transform="matrix(0.0698426,0,0,-0.0698426,1538.8055,1516.9445)">
        <path
           d="m 8331.48,15809.6 c 101.13,-107.1 267.05,-158.4 392.32,-60.3 93.54,72.4 173.5,149.3 264.02,218.7 -98.1,24.2 -178.05,104.1 -199.32,203.4 -6.62,26.9 -9.65,55.1 -8.89,83.3 -63.39,37.7 -140.32,45.3 -213.25,38.4 -17.23,-1.9 -34.5,-4.1 -51.73,-6.5 -35.25,-4.7 -71.47,-10.7 -106.57,-14.2 -12.13,-1.9 -24.65,-4.2 -37.78,-6.8 2.62,-22.7 1.91,-44.7 -1.57,-66 -22.12,-107.8 -106.63,-195.3 -203.15,-240.6 66.37,-36.2 113.14,-95.1 165.92,-149.4"
           style="fill:#ea9283;fill-opacity:1;fill-rule:nonzero;stroke:none"
           id="path3843" />
      </g>
      <g
         id="g3845"
         transform="matrix(0.0698426,0,0,-0.0698426,1538.8055,1516.9445)">
        <path
           d="m 8806.33,16118 c -7.83,16.9 -13.84,34.8 -17.83,53.4 -6.62,26.9 -9.65,55.1 -8.89,83.3 -63.39,37.7 -140.32,45.3 -213.25,38.4 -17.23,-1.9 -34.5,-4.1 -51.73,-6.5 -35.25,-4.7 -71.47,-10.7 -106.57,-14.2 -12.13,-1.9 -24.65,-4.2 -37.78,-6.8 2.62,-22.7 1.91,-44.7 -1.57,-66 -4.6,-22.4 -11.97,-44 -21.47,-64.4 122.74,-122.7 331.1,-126 459.09,-17.2"
           style="fill:#db6653;fill-opacity:1;fill-rule:nonzero;stroke:none"
           id="path3847" />
      </g>
      <g
         id="g3849"
         transform="matrix(0.06913633,0,0,-0.06913633,1538.8055,1516.9445)">
        <path
           d="m 8896.28,16282.6 c -129.3,-109.9 -339.78,-106.5 -463.77,17.4 -36.74,-78.7 -106.29,-141.8 -183.54,-178 67.04,-36.6 114.3,-96 167.62,-150.9 102.15,-108.2 269.77,-160 396.32,-60.9 94.5,73.1 175.27,150.8 266.71,221 -80.52,19.8 -148.99,76.9 -183.34,151.4"
           style="fill:#ea9283;fill-opacity:1;fill-rule:nonzero;stroke:none"
           id="path3851" />
      </g>
      <g
         id="g3853"
         transform="matrix(0.06875851,0,0,-0.06875851,1538.8055,1516.9445)">
        <path
           d="m 8309.59,16084.7 c 2.41,9.2 5.34,18.4 8.67,27.5 19.19,49.9 48.28,94.3 75.88,141.8 3.85,7.7 7.65,15.4 11.29,23.2 4.06,7.5 7.08,15.2 11.7,22.8 -10.72,-6.1 -22.99,-12.3 -32.94,-19.9 -5.28,-3.4 -10.62,-6.8 -16.06,-10.1 -26.99,-16.6 -55.31,-31.1 -86.14,-41 -10.83,-3 -21.71,-6 -32.58,-8.9 -97.64,-26.2 -193.84,-46.8 -287.17,-79.5 -16.93,-5.8 -33.76,-12.1 -50.38,-18.9 -5.44,-2 -7.13,-2.7 -12.47,-4.8 90.66,-105.4 242.53,-227.8 428,-298.5 -1.84,8.1 3.85,93.6 1.18,101.7 -29.75,52 -33.4,109.3 -18.98,164.6"
           style="fill:#b54741;fill-opacity:1;fill-rule:nonzero;stroke:none"
           id="path3855" />
      </g>
      <g
         id="g3857"
         transform="matrix(0.0744915,0,0,-0.0744915,1538.8055,1516.9445)">
        <path
           d="m 7601.45,15903.5 c -3.5,-170.2 -27.37,-352.2 66.92,-504.1 8.29,-15.7 17.1,-30.9 26.47,-45.8 65.41,-103.5 156.52,-186.1 282.35,-226.1 25.15,-5.9 50.72,-8.4 76.2,-6.7 25.48,1.7 50.86,7.7 75.44,18.9 21.69,10.9 42.25,23.1 61.76,36.4 19.51,13.3 37.93,27.8 55.31,43.1 205.11,168.1 214.06,445.5 217,690.1 2.27,17.9 1.89,35.4 -0.52,52.5 -7.39,51.2 -33.58,98.5 -64.41,140 -11.7,15.8 -24.34,31 -37.89,45.7 -13.54,14.6 -27.99,28.7 -43.28,42.1 -113.33,98.5 -265.49,110.4 -400.04,62.1 -13.54,-4.2 -26.99,-8.8 -40.25,-13.9 -13.45,-5.1 -26.99,-10.3 -40.49,-15.6 -13.5,-5.4 -27,-10.9 -40.3,-16.7 -17.57,-8.6 -32.58,-19.5 -46.04,-32 -35.61,-30.7 -58.63,-70.7 -78.75,-112.8 -6.73,-14 -13.12,-28.3 -19.51,-42.5 -11.7,-28.4 -26.62,-58.2 -41.06,-84.4 -3.65,-9.7 -6.63,-19.8 -8.91,-30.3"
           style="fill:#ea9283;fill-opacity:1;fill-rule:nonzero;stroke:none"
           id="path3859" />
      </g>
      <g
         id="g3861"
         transform="matrix(0.06876521,0,0,-0.06876521,1538.8055,1516.9445)">
        <path
           d="m 9530.56,16117.8 c -12.52,9.1 -26.78,17.5 -41.81,23.9 -58.23,24.5 -119.53,45.9 -181.25,66.4 -17.6,5.1 -35.09,10.4 -52.48,15.9 -43.61,13.8 -86.91,28.6 -130.57,42.4 -7.23,2.3 -14.51,4.6 -21.85,6.7 -6.05,2 -12.16,3.7 -18.26,5.4 -30.53,9.2 -61.15,13.9 -91.83,21.5 15.34,-18.4 33.7,-35.2 44.17,-56.2 3.07,-5 5.95,-10.1 8.67,-15.3 2.77,-5.2 5.33,-10.5 7.8,-15.9 2.87,-6.7 5.59,-13.5 8.1,-20.4 10.11,-27.6 17.24,-56.5 22.63,-84.9 2.25,-12.5 4.25,-24.9 6.05,-37.3 1.79,-12.4 3.43,-24.8 4.97,-37 1.6,-12.4 9.24,-23.1 16.47,-33.8 4.62,-7.3 9.49,-14.4 14.68,-21.3 10.36,-13.7 21.9,-26.6 34.57,-38.3 5.59,-5.4 46.43,-66.7 52.43,-71.8 102.61,46.9 259.28,175.5 317.51,250"
           style="fill:#b54741;fill-opacity:1;fill-rule:nonzero;stroke:none"
           id="path3863" />
      </g>
      <g
         id="g3865"
         transform="matrix(0.07469364,0,0,-0.07469364,1538.8055,1516.9445)">
        <path
           d="m 8029.14,15961.2 c -26.69,-34.2 -57.9,-64.8 -92.52,-90.9 -8.65,-6.6 -17.53,-12.8 -26.59,-18.8 -68.63,-53 -152.13,-79.2 -238.66,-92.8 -9.63,-1.5 -19.27,-2.8 -28.95,-4 -7.6,-1 -15.59,-1.6 -23.76,-2.2 -8.17,-0.6 -16.48,-1.2 -24.74,-2.2 -40.2,4.6 -86.25,-30 -80.49,-73.1 -9.35,16.5 -15.63,34 -19.41,51.9 -1.22,5.9 -2.22,12 -2.93,18 -0.47,5.6 -0.75,11.1 -0.89,16.6 -5.53,74.7 40.52,135.1 60.59,205.4 2.37,7.8 4.54,15.6 6.62,23.4 6.18,23.7 11.24,47.8 15.2,72.7 2.32,4.4 4.73,8.7 7.23,13 7.56,12.8 16.06,25.2 25.79,37 6.19,7.8 12.61,15.4 19.22,22.9 86.48,97.3 215.09,161.9 346.58,160.3 9.68,-0.1 19.41,-0.5 29.09,-1.2 40.85,-2.9 71.74,-15.7 99.13,-46.5 2.08,-3.6 3.88,-7.3 5.53,-11 9.73,-22.3 13.13,-46.1 12.09,-70.5 -1.42,-31.8 -7.18,-61.2 -16.58,-88.2 -3.16,-9 -6.66,-17.8 -10.62,-26.3 -3.12,-6.6 -6.52,-12.8 -10.16,-18.8 -3.59,-5.9 -7.37,-11.7 -11.19,-17.3 -7.7,-11.4 -15.54,-22.5 -22.67,-34.7 -4.68,-8 -10.49,-15.5 -16.91,-22.7"
           style="fill:#59220c;fill-opacity:1;fill-rule:nonzero;stroke:none"
           id="path3867" />
      </g>
      <g
         id="g3869"
         transform="matrix(0.07470811,0,0,-0.07470811,1538.8055,1516.9445)">
        <path
           d="m 8008.74,16014.6 c 4.58,-5.3 10.34,-11.1 14.55,-15.7 4.95,-5.1 9.91,-10 14.96,-14.9 10.11,-9.8 20.4,-19.2 30.84,-28.5 6.99,-6.1 14.02,-12.2 21.11,-18.2 29.27,-25 56.76,-50.9 83.15,-77.6 8.79,-8.9 17.43,-17.9 26.02,-27 110.36,-108.3 190.96,-249.3 186.71,-409 0.48,-12.9 0.85,-25.9 1.37,-38.9 23.94,6.7 43.49,18.9 59.64,34.4 8.08,7.8 15.35,16.4 21.91,25.7 30.08,46.8 50.86,100.9 61.11,157 2.07,11.2 3.73,22.5 5.1,33.8 16.24,106 -9.64,212.4 -44.67,314.6 -3.45,9.9 -7.09,19.7 -10.91,29.4 -26.92,67.8 -64.03,130.9 -112.48,185.9 -8.41,9.4 -17.33,18.5 -26.68,27.3 -9.31,8.7 -19.03,16.9 -29.04,24.6 -55.91,41 -133.02,82.5 -202.72,36.5 -68.19,-45.9 -65.21,-129 -91.23,-195.1 -3.31,-9.7 -6.66,-19.3 -10.01,-28.7 0.14,-5.1 0.61,-10.3 1.27,-15.6"
           style="fill:#59220c;fill-opacity:1;fill-rule:nonzero;stroke:none"
           id="path3871" />
      </g>
      <g
         id="g3873"
         transform="matrix(0.07207885,0,0,-0.07207885,1538.8055,1516.9445)">
        <path
           d="m 7888.55,16208.7 c -1.86,3.7 -3.72,7.5 -5.73,11.4 -1.96,3.8 -3.96,7.8 -6.12,11.7 -15.17,22 -36.75,68.2 -61.42,49.7 -27.75,-21.6 -18.5,-61.6 -12.24,-97 0.88,-4.4 1.86,-8.9 2.99,-13.2 4.45,-17.6 10.86,-34.9 17.86,-51.6 1.72,-3.9 3.48,-7.7 5.29,-11.6 1.81,-3.9 3.72,-7.7 5.63,-11.6 18.5,-33.9 49.33,-24.6 70.92,0 -6.37,3.5 -11.75,7.8 -16.3,12.8 -2.25,2.5 -4.36,5.2 -6.22,8 -7.73,12.7 -10.08,26 -9.74,39.2 0.15,4.4 0.59,8.8 1.18,13.2 2.3,10.1 2.3,16.2 6.61,26.9 1.95,4 4.45,8 7.29,12.1"
           style="fill:#ea9283;fill-opacity:1;fill-rule:nonzero;stroke:none"
           id="path3875" />
      </g>
      <g
         id="g3877"
         transform="matrix(0.0735009,0,0,-0.0735009,1538.8055,1516.9445)">
        <path
           d="m 8196.84,16291.5 c -22.51,-47 -43.96,-94.8 -78.57,-134.4 -33.79,-38.6 -75.31,-70.2 -120.18,-94.8 -47.71,-26.2 -98.97,-44.1 -152.63,-53.2 -29.14,-4.9 -58.7,-7.6 -88.32,-8 -29.13,-0.4 -57.45,3.8 -86.2,8.3 -9.21,1.4 -13.2,-12.7 -3.89,-14.1 20.6,-3.2 41.43,-7.1 62.21,-8.5 24.14,-1.7 48.95,-0.1 72.95,2.1 45.98,4.2 91.44,13.2 134.73,29.4 77.47,29.1 151.04,76.5 202.78,141.8 29.67,37.5 49.2,81.2 69.74,124 4.03,8.5 -8.59,15.9 -12.62,7.4 v 0"
           style="fill:#59220c;fill-opacity:1;fill-rule:nonzero;stroke:none"
           id="path3879" />
      </g>
      <g
         id="g3881"
         transform="matrix(0.0737415,0,0,-0.0737415,1538.8055,1516.9445)">
        <path
           d="m 7839.81,16232.7 c -39.94,-29.4 -75.97,-62.9 -104.77,-103.4 -9.23,-13 -16.89,-27.6 -18.32,-43.4 -1.44,-15.9 4.4,-33 17.6,-41.9 7.66,-5.2 16.99,-7.2 26.17,-8.2 66.64,-7.9 134.62,11 191.07,46.4 46.55,29.1 126.97,94.2 110.32,158 -10.81,41.5 -59.7,59.8 -98.59,54.6 -28.95,-3.9 -55.64,-17.7 -80.52,-33.1 -14.73,-9 -29.08,-18.7 -42.96,-29"
           style="fill:#771f00;fill-opacity:1;fill-rule:nonzero;stroke:none"
           id="path3883" />
      </g>
      <g
         id="g3885"
         transform="matrix(0.07449327,0,0,-0.07449327,1538.8055,1516.9445)">
        <path
           d="m 8048.47,16292.6 c -6.25,1.3 -12.41,2.2 -18.23,2.5 -90.84,4.9 -178.59,-25 -256.63,-69.6 -16.82,-9.6 -33.2,-19.8 -49.06,-30.6 -106.98,-76.9 -193.22,-189.9 -215.53,-322.3 74.35,102.6 172.52,184.4 281.35,246.7 21.31,12.4 43.05,24.5 65.12,35.8 88.27,45.2 182.46,77.9 282.58,67 -9.62,36.8 -51.95,62.5 -89.6,70.5"
           style="fill:#351305;fill-opacity:1;fill-rule:nonzero;stroke:none"
           id="path3887" />
      </g>
      <g
         id="g3889"
         transform="matrix(0.0734441,0,0,-0.0734441,1538.8055,1516.9445)">
        <path
           d="m 8455.67,16062.3 c -70.71,86.2 -154.67,154.2 -224.41,237.7 -1.88,-3.5 -4.04,-6.9 -6.44,-10 -1.15,-2.7 -2.45,-5.4 -3.99,-8 l -1.87,-2.4 c -1.97,-7.5 -5.19,-14.5 -9.46,-20.9 -1.78,-7.7 -4.9,-15 -9.18,-21.6 2.55,-2.3 5.09,-4.7 7.64,-7 7.11,-6.2 14.26,-12.4 21.47,-18.5 29.78,-25.4 57.74,-51.8 84.59,-78.9 8.93,-9.1 17.72,-18.2 26.46,-27.5 112.26,-110.2 194.25,-253.6 189.93,-416.1 0.48,-13.1 0.86,-26.3 1.39,-39.5 24.35,6.8 44.24,19.2 60.67,35 1.49,1.4 2.88,2.9 4.27,4.3 1.68,133.5 -53.03,270.7 -141.07,373.4"
           style="fill:#351305;fill-opacity:1;fill-rule:nonzero;stroke:none"
           id="path3891" />
      </g>
      <g
         id="g3893"
         transform="matrix(0.07193104,0,0,-0.07193104,1538.8055,1516.9445)">
        <path
           d="m 8727.44,15992.7 c 94.21,69.4 146.15,180.7 142.67,297.7 -0.25,9.6 -15.21,9.6 -14.91,0 3.28,-111.3 -45.42,-218.6 -135.31,-284.8 -7.65,-5.7 -0.2,-18.7 7.55,-12.9 v 0"
           style="fill:#351305;fill-opacity:1;fill-rule:nonzero;stroke:none"
           id="path3895" />
      </g>
      <g
         id="g3897"
         transform="matrix(0.07453454,0,0,-0.07453454,1538.8055,1516.9445)">
        <path
           d="m 8459.44,15465.4 c -4.64,-8.6 8.05,-12.9 12.31,-7.2 14.15,17 25.46,33.9 31.24,54.7 3.07,9.4 5.35,18.9 7,28.5 14.72,86.3 -24.61,180.1 -65.6,256.7 -30.15,56.2 -68.77,104.3 -115.01,148 -46.1,43.6 -96.84,83.9 -136.46,133.7 -46.43,58.5 -71.85,134.9 -33.74,204.8 4.4,8.1 -8.05,15.4 -12.5,7.2 -27.59,-50.7 -25.89,-110.1 -2.6,-162.1 25.46,-56.9 75.44,-102.4 120.6,-143.8 48.13,-44.2 97.73,-86.9 134.75,-141.2 35.73,-52.5 63.66,-111.6 83.44,-171.8 14.58,-44.3 20.54,-90.5 11.79,-134.1 -1.76,-8.7 -4.12,-17.3 -7.1,-25.8 -2.98,-8.5 -6.68,-16.8 -11.36,-24.7 -4.69,-7.9 -10.27,-15.6 -16.76,-22.9"
           style="fill:#351305;fill-opacity:1;fill-rule:nonzero;stroke:none"
           id="path3899" />
      </g>
      <g
         id="g3901"
         transform="matrix(0.06859094,0,0,-0.06859094,1538.8055,1516.9445)">
        <path
           d="m 8944.32,15806.9 c 196.27,38.1 346.4,124.2 424.73,183.3 -67.79,80.6 -162.94,188.4 -243.89,255.3 -22.99,19 -46.81,37 -71.65,53.9 15.17,-45.5 1.6,-90.2 -31.01,-124.3 -59.15,-62 -149.47,-93.2 -232.78,-102.5 -70.06,-7.7 -142.11,-0.1 -208.51,23.7 -57.97,20.9 -131.67,58.6 -158.52,117.7 -6.01,13.2 -9.92,27.7 -11.21,43.5 -0.1,14.1 2.27,28.4 6.17,42.5 -7.87,-7.5 -15.37,-15.3 -22.42,-23.5 -8.85,-9.3 -16.31,-20.1 -23.2,-31.4 -6.84,-11.3 -13.01,-23.3 -19.23,-34.8 -19.8,-46 -44.39,-89.1 -56.42,-138.3 -3.55,-13.7 -6.59,-27.5 -9.21,-41.4 -5.04,-26.3 -19.7,-109.5 -23.04,-136.5 334.31,-167.4 667.95,-89.6 680.19,-87.2"
           style="fill:#b54741;fill-opacity:1;fill-rule:nonzero;stroke:none"
           id="path3903" />
      </g>
      <g
         id="g3905"
         transform="matrix(0.06832565,0,0,-0.06832565,1538.8055,1516.9445)">
        <path
           d="m 8459.71,16172.5 c 30.83,-30.8 66.87,-55.4 105.75,-74.8 73.11,-36.4 155.98,-54.6 237.66,-50 45.85,2.6 91.13,12.5 133.52,30.3 4.49,1.9 2.53,9.3 -2.07,7.4 -74.24,-31.1 -157.01,-37.7 -236.01,-23.6 -78.79,14 -157.42,47.7 -217.57,101.2 -19.88,17.7 -36.56,36.9 -50.45,59.7 -13.89,22.9 -25.04,47.1 -33.3,72.6 -1.5,4.7 -8.98,2.7 -7.44,-2.1 14.31,-44.1 36.87,-87.8 69.91,-120.7"
           style="fill:#932525;fill-opacity:1;fill-rule:nonzero;stroke:none"
           id="path3907" />
      </g>
      <g
         id="g3909"
         transform="matrix(0.06855496,0,0,-0.06855496,1538.8055,1516.9445)">
        <path
           d="m 8982.4,16062.2 c 62.17,36 127.47,85.2 146.71,158.1 6.44,24.3 7.21,50 4.02,74.8 -0.67,4.8 -8.34,4.9 -7.72,0 6.64,-51.6 -6.54,-100.4 -39.47,-140.7 -29.18,-35.8 -67.77,-62.6 -107.4,-85.6 -4.27,-2.4 -0.41,-9.1 3.86,-6.6"
           style="fill:#932525;fill-opacity:1;fill-rule:nonzero;stroke:none"
           id="path3911" />
      </g>
      <g
         id="g3913"
         transform="matrix(0.07427207,0,0,-0.07427207,1538.8055,1516.9445)">
        <path
           d="m 8098.99,16295.6 c -11.21,-37.2 -9.69,-76.7 1.52,-113.8 10.45,-34.6 28.74,-70.3 56,-94.5 3.42,-3 8.4,2 5.03,5 -26.41,23.5 -44.07,57.9 -54.19,91.4 -10.88,35.9 -12.4,74 -1.52,110 1.33,4.4 -5.51,6.3 -6.84,1.9 v 0"
           style="fill:#351305;fill-opacity:1;fill-rule:nonzero;stroke:none"
           id="path3915" />
      </g>
      <g
         id="g3917"
         transform="matrix(0.05807322,0,0,-0.05807322,1538.8055,1516.9445)">
        <path
           d="m 15253.1,5042.61 c 51.5,21.93 107,30.61 162.5,35.78 13.8,1.76 27.7,8.68 41.6,10.45 31.2,3.46 62.4,3.46 94.5,5.34 13.5,0.79 27,0.67 40.5,-0.12 11.2,-0.61 22.4,-1.7 33.6,-3.1 11.3,-1.39 22.5,-3.1 33.8,-4.92 17,-3.77 34,-6.86 51,-9.41 17,-2.55 34.1,-4.56 51.1,-6.08 87.5,-0.79 174.2,14.82 261,18.29 88.4,1.7 176.9,-17.38 252.6,-62.45 7.1,-7.35 12.7,-16.16 16.6,-26.49 3.9,-10.38 6.1,-22.35 6.6,-36.08 1.5,-41.55 -13.7,-71.07 -39,-91.91 -8.4,-6.93 -17.9,-12.88 -28.3,-18.04 -118.3,-40.82 -246.7,-40.82 -369.3,-45.93 -17.8,-0.48 -35.5,-0.97 -53.2,-1.64 -16.7,0.43 -33.4,1.04 -50.1,1.95 -50.2,2.61 -100.2,7.41 -150,14.51 -12.3,1.65 -24.6,3.35 -36.8,5.11 -20.9,0.79 -38.2,5.95 -59.1,11.18 -90.2,19.07 -168.3,62.44 -258.4,64.14 -26.1,0 -53.8,12.15 -66,34.75 -12.1,24.24 17.4,50.3 33.6,70.23 8.6,10.26 18.9,21.68 31.2,34.44"
           style="fill:#7878b5;fill-opacity:1;fill-rule:nonzero;stroke:none"
           id="path3919" />
      </g>
      <g
         id="g3921"
         transform="matrix(0.05846975,0,0,-0.05846975,1538.8055,1516.9445)">
        <path
           d="m 15076.8,4783.86 c 22.4,-58.58 48.2,-113.73 93.8,-158.38 8.6,-8.87 17.3,-17.55 26,-26.18 17.5,-17.2 34.9,-34.27 51.1,-52.37 84.3,-237.54 384.6,-326.3 604.1,-245.99 22,3.32 44.4,6.16 67.2,8.45 122.8,20.45 136.5,163.81 175.3,269.15 8,22.93 16.5,45.92 25.9,68.3 37.3,89.66 88.3,170.87 179.8,211.11 -9.5,3.57 -18.9,7.43 -28.3,11.53 -71.6,31.49 -152.6,59.07 -195.7,131.47 -49.9,80.97 -39.6,175.7 -40.3,264.09 -0.3,17.31 -0.2,34.63 0.2,51.89 1.2,51.82 4.8,103.05 7.4,150.89 0,24.08 -48.2,12.07 -70.6,-1.75 -108.6,-62.02 -193,-160.19 -317.2,-182.75 -23.3,-3.98 -45.9,-4.65 -67.9,-2.78 -27.6,2.42 -54.3,8.75 -80.6,17.56 -13.1,4.35 -26.2,9.41 -39.2,14.97 -77.5,32.4 -148.1,87.54 -232.6,103.17 -15,2.35 -30.1,4.22 -45.6,5.61 6.6,-14.72 12.2,-29.69 16.8,-44.89 4.7,-15.21 8.5,-30.65 11.8,-46.58 32.6,-141.67 37.8,-324.3 -90.6,-419.87 -7.5,-5.86 -15.5,-11.17 -23.7,-15.87 -25,-14.3 -53,-23.77 -82.2,-28.12 -3.5,0 -6.9,-3.44 -5.2,-6.88 27.6,-20.69 49.9,-44.76 60.3,-75.78"
           style="fill:#ea9283;fill-opacity:1;fill-rule:nonzero;stroke:none"
           id="path3923" />
      </g>
      <g
         id="g3925"
         transform="matrix(0.05767176,0,0,-0.05767176,1538.8055,1516.9445)">
        <path
           d="m 16014.6,4825.69 c 131.8,28.63 225.6,123.75 285.4,241.99 -0.5,0.86 -1.1,1.59 -1.6,2.45 -50.6,82.09 -40.2,178.12 -40.9,267.74 -0.3,17.55 -0.1,35.11 0.2,52.6 1.2,52.55 4.9,104.48 7.5,152.99 0,24.41 -48.9,12.23 -71.6,-1.77 -110,-62.89 -195.6,-162.41 -321.5,-185.29 -23.7,-4.04 -46.5,-4.71 -68.9,-2.81 -27.9,2.44 -55.1,8.87 -81.7,17.8 -13.3,4.4 -26.5,9.54 -39.7,15.17 -78.6,32.85 -150.2,88.76 -235.9,104.6 -15.1,2.39 -30.5,4.28 -46.1,5.69 6.6,-14.93 12.3,-30.1 17,-45.51 4.7,-15.42 8.5,-31.08 12,-47.22 25.3,-110.54 34.3,-245.66 -22.3,-346.23 126.1,-200.45 373.2,-277.89 608.1,-232.2"
           style="fill:#db6653;fill-opacity:1;fill-rule:nonzero;stroke:none"
           id="path3927" />
      </g>
      <g
         id="g3929"
         transform="matrix(0.05846975,0,0,-0.05846975,1538.8055,1516.9445)">
        <path
           d="m 16271.7,4869.48 c -70.8,31.13 -150.7,58.52 -194.1,129.06 -59,-116.63 -151.5,-210.45 -281.5,-238.69 -231.7,-45.07 -475.5,31.32 -599.8,229.03 -16.7,-29.68 -39.1,-56.35 -68.7,-78.37 -7.5,-5.86 -15.5,-11.17 -23.7,-15.87 -25,-14.3 -53,-23.77 -82.2,-28.12 -3.5,0 -6.9,-3.44 -5.2,-6.88 27.6,-20.63 49.9,-44.76 60.3,-75.78 22.4,-58.58 48.2,-113.73 93.8,-158.38 8.6,-8.87 17.3,-17.55 26,-26.18 17.5,-17.2 34.9,-34.27 51.1,-52.37 84.3,-237.54 384.6,-326.3 604.1,-245.99 22,3.32 44.4,6.16 67.2,8.45 122.8,20.45 136.5,163.81 175.3,269.15 8,22.93 16.5,45.92 25.9,68.3 37.3,89.66 88.3,170.87 179.8,211.11 -9.5,3.57 -18.9,7.43 -28.3,11.53"
           style="fill:#ea9283;fill-opacity:1;fill-rule:nonzero;stroke:none"
           id="path3931" />
      </g>
      <g
         id="g3933"
         transform="matrix(0.05425758,0,0,-0.05425758,1538.8055,1516.9445)">
        <path
           d="m 16256.1,6186.88 c 1.2,8.13 0.2,15.41 -2.5,21.91 -8.3,19.44 -31.6,31.21 -52.5,33.16 -30.9,2.99 -48.2,-7.15 -57.7,-28.54 -3.1,-7.09 -5.4,-15.48 -7.1,-25.03 -1.2,-7.03 -2.1,-14.18 -2.7,-21.33 -0.6,-7.15 -0.8,-14.3 -0.8,-21.46 3.4,-62.41 23.8,-129.25 79.5,-166.38 11.1,-5.59 24.1,-9.3 37.1,-7.48 29.7,5.59 46.4,33.42 50.1,61.32 0.5,9.75 -0.5,18.98 -2.6,28.02 -6.1,26.98 -21,51.3 -30.8,77.76 -1.8,9.3 -5.5,18.6 -6.4,28.15 -1.2,6.7 -2.4,13.27 -3.6,19.9"
           style="fill:#ea9283;fill-opacity:1;fill-rule:nonzero;stroke:none"
           id="path3935" />
      </g>
      <g
         id="g3937"
         transform="matrix(0.05841506,0,0,-0.05841506,1538.8055,1516.9445)">
        <path
           d="m 16185.4,5746.56 c -1.1,7.55 -0.1,14.32 2.4,20.36 7.7,18.05 29.3,28.98 48.7,30.8 28.8,2.77 44.8,-6.65 53.6,-26.52 2.9,-6.58 5.1,-14.37 6.6,-23.25 1.1,-6.52 2,-13.16 2.5,-19.8 0.6,-6.65 0.8,-13.29 0.7,-19.93 -3,-57.98 -22.1,-120.06 -73.8,-154.55 -10.3,-5.19 -22.4,-8.63 -34.4,-6.94 -27.6,5.19 -43.2,31.04 -46.6,56.95 -0.4,9.06 0.5,17.63 2.4,26.03 5.7,25.06 19.6,47.65 28.6,72.22 1.7,8.64 5.2,17.28 6,26.15 1.2,6.22 2.3,12.33 3.3,18.48"
           style="fill:#ea9283;fill-opacity:1;fill-rule:nonzero;stroke:none"
           id="path3939" />
      </g>
      <g
         id="g3941"
         transform="matrix(0.05803301,0,0,-0.05803301,1538.8055,1516.9445)">
        <path
           d="m 15182.3,6008.34 c -4.2,-273.49 42.6,-563.34 245.9,-765.09 23.1,-23.83 48.8,-45.23 77.7,-63.59 28.7,-18.36 60.6,-33.68 95.7,-45.35 140.6,-46.87 293.4,-12.16 406.2,85.05 159.6,140.6 230.8,340.17 269.5,539.38 8.4,43.89 14.6,87.05 18.4,128.45 3.5,38.17 4.3,76.16 2.1,113.73 1.9,161.7 -75.2,307.66 -195.4,403.28 -30,23.89 -62.7,44.62 -97.5,61.7 -108.2,57.02 -233.2,63.95 -354.7,50.03 -33.8,-4.01 -67.7,-11.31 -100.7,-21.64 -33,-10.28 -65.2,-23.59 -95.7,-39.82 -123,-61.76 -218.5,-179.81 -236.9,-318.96 -11.5,-39.03 -23.1,-81.46 -34.6,-127.17"
           style="fill:#ea9283;fill-opacity:1;fill-rule:nonzero;stroke:none"
           id="path3943" />
      </g>
      <g
         id="g3945"
         transform="matrix(0.05806793,0,0,-0.05806793,1538.8055,1516.9445)">
        <path
           d="m 16292,5809.78 c -4.2,-24.85 -4.2,-49.15 -6.8,-73.33 -0.2,-4.74 -0.5,-9.42 -0.8,-14.16 -0.4,-4.68 -0.8,-9.29 -1.3,-13.97 -0.4,-5.41 -0.8,-10.81 -1.3,-16.22 -3.2,-37.91 -7.9,-75.94 -17.6,-113.43 -3.6,-15.67 -7.1,-31.28 -10.6,-46.9 -3.4,-15.67 -6.9,-31.35 -10.2,-47.02 -27.1,-126 -70.5,-253.4 -144.4,-360.93 -71.4,-104.01 -181.5,-185.6 -308.8,-201.58 -252.6,-31.71 -423.5,192.77 -515.5,399.09 -4.7,10.45 -9.3,21.02 -13.6,31.71 -14.5,43.38 -28,87.36 -38.9,131.83 -2.2,8.93 -4.3,17.86 -6.3,26.79 -1.4,9.12 -2.9,18.23 -4.7,27.34 -1.2,8.63 -3,17.68 -4.6,26.79 -4.7,26.86 -2.9,54.62 -7.7,81.47 -1,9.12 -2,18.23 -3,27.28 -11.3,72.48 -16.5,147.08 -35.6,219.92 17.4,-5.16 26,-22.53 31.2,-36.38 22.5,-62.46 27.8,-130.14 59.9,-188.16 4.5,-10.26 9.1,-20.59 14,-30.92 33.8,-72.17 77.9,-141.67 156.9,-149.57 6.4,0.24 13.1,1.03 19.9,2.49 15.8,3.64 31.4,10.27 46.6,18.83 45.9,25.7 88.9,68.47 126.5,96.6 23.2,15.25 47.8,27.03 75.4,32.38 57.7,10.15 116.7,-5.47 160,-40.16 39,-31.22 84.5,-60.26 131.9,-73.51 11.8,-3.28 23.7,-5.59 35.6,-6.74 18.1,-0.79 34.5,1.09 49.6,5.22 15,4.13 28.6,10.51 41.3,18.47 15,10.33 28.5,21.87 40.8,34.39 12.4,12.51 23.6,26 34.1,40.15 21.5,27.4 37.1,58.51 51.5,90.53 2,4.61 4.1,9.17 6.1,13.79 2.3,4.19 4.3,8.5 6.1,12.94 21.1,39.73 17.6,90.03 47.1,126.42 5.2,-12.15 -1.7,-26 -0.8,-37.85 -0.6,-4.19 -1.2,-8.74 -2,-13.6"
           style="fill:#5b170e;fill-opacity:1;fill-rule:nonzero;stroke:none"
           id="path3947" />
      </g>
      <g
         id="g3949"
         transform="matrix(0.05975527,0,0,-0.05975527,1538.8055,1516.9445)">
        <path
           d="m 15288.5,4159.63 c 416.1,0 784.6,203.5 1011.5,516.34 -158.8,48.58 -318.5,98.59 -465.4,178.47 -23.6,9.5 -45.9,19.36 -48.5,25.38 6.4,-14.46 12.4,-29.1 17.9,-44.1 6.3,-18.3 11,-36.84 14.4,-55.49 5.1,-42.63 11.8,-76.04 10.7,-113 0.7,-19.07 1.4,-38.26 2.3,-57.56 1.2,-10.1 2.6,-20.25 4,-30.35 -11.7,0.42 -23.3,-1 -33.4,-4.48 -55.1,-45.05 -120.6,-74.92 -182.5,-108.28 -8.9,-4.72 -17.6,-9.56 -26.3,-14.52 -90.3,-41.74 -157,-121.85 -243.8,-175.28 -4.5,7.79 -9.7,14.82 -15.4,21.31 -28.8,32.29 -71.8,49.83 -107,71.49 -7.5,4.14 -15.1,8.09 -22.6,12.05 -38,19.66 -77.5,37.49 -115.4,61.64 -19.9,11.03 -40.1,21.78 -60.2,32.47 -40.3,21.42 -80.4,42.44 -118.9,64.4 -14.8,12.34 -29,25.39 -42.8,38.91 -37.5,36.78 -71.5,77.4 -104.7,119.55 -1.3,39.79 -4.2,79.64 -7.5,119.14 -161,-50.01 -322.1,-90.8 -479.3,-139.86 226.9,-313.9 596,-518.23 1012.9,-518.23"
           style="fill:#555584;fill-opacity:1;fill-rule:nonzero;stroke:none"
           id="path3951" />
      </g>
      <g
         id="g3953"
         transform="matrix(0.05849126,0,0,-0.05849126,1538.8055,1516.9445)">
        <path
           d="m 15884,6485.09 c 6.7,4.16 13.6,8.02 20.6,11.46 34.7,17.01 75.5,23.58 112.3,12.24 45.6,-13.99 77.2,-53.61 73.4,-101.38 -0.7,-7.72 -1.8,-15.5 -3.1,-23.22 -5.9,-19.85 -7.6,-50.85 23.4,-43.91 58.5,12 137.7,32.69 165.3,-31 24.1,-51.69 -25.8,-99.94 -62,-136.07 34.4,-6.87 62,-34.44 73.4,-64.59 2.9,-7.72 4.8,-15.62 5.3,-23.46 0.6,-7.9 -0.2,-15.69 -2.6,-23.1 -27,-84.14 -152.9,-66.83 -215.6,-49.82 -112.7,30.57 -258.4,83.17 -295.4,207.29 -5,16.65 -6.9,35.29 -5.7,55.19 0.5,6.63 1.3,13.39 2.3,20.26 -1.5,15.32 -0.9,29.98 1.7,43.91 0.8,4.71 1.8,9.29 3.1,13.81 15.2,54.59 55.1,102.41 103.6,132.39"
           style="fill:#5b170e;fill-opacity:1;fill-rule:nonzero;stroke:none"
           id="path3955" />
      </g>
      <g
         id="g3957"
         transform="matrix(0.05453592,0,0,-0.05453592,1538.8055,1516.9445)">
        <path
           d="m 16270.4,6763.95 c -35.1,52.98 -101.3,67.08 -153.8,28.91 -27.5,-20.05 -50.7,-54.79 -56.6,-88.55 -5.4,-30.47 6.5,-62.81 34.2,-78.27 8,-4.08 16.3,-7.12 24.7,-9.38 13,-2.46 26.4,-3.76 39.8,-4.34 13.4,-0.65 26.8,-0.65 39.7,-0.58 -7.3,-0.07 -14.8,-0.52 -22.1,-1.43 -79.2,-9.38 -154.6,-63.65 -184.8,-138.29 -7.6,-18.96 -10.8,-40.37 -4.6,-59.78 6,-18.89 20.5,-34.34 37.4,-44.63 37.8,-22.9 85.1,-24.39 126,-7.76 86.6,35.31 105,133.12 128.9,212.88 9.2,30.73 18.4,61.91 19.6,94.06 1.2,30.92 -9,67.86 -28.4,97.16"
           style="fill:#5b170e;fill-opacity:1;fill-rule:nonzero;stroke:none"
           id="path3959" />
      </g>
      <g
         id="g3961"
         transform="matrix(0.05693551,0,0,-0.05693551,1538.8055,1516.9445)">
        <path
           d="m 16275.8,6392.94 c -54.1,-97.09 -153.2,-194.37 -273.6,-195.67 -17.5,1.12 -35.8,4.27 -50.9,12.02 -15,7.74 -26.8,20.2 -31.2,39.66 -4.4,19.14 4.5,40.58 7.8,59.23 -10.5,-2.97 -12.1,-11.71 -17.9,-19.7 -58.1,-70.45 -157.2,-107.63 -245.7,-109.36 -58.3,0 -129.1,22.98 -155.6,76.08 -19.5,38.92 35.4,61.9 60.2,90.22 10.6,14.13 15.9,30.05 14.1,47.77 -2.4,14.13 -6.1,28.07 -10.6,41.83 -22.6,68.77 -64.9,133.83 -53.4,207.19 2.7,11.16 7.7,21.75 15.8,31.67 26,31.72 64.9,43.74 100.8,20.63 29.4,-18.9 47.1,-48.58 81.2,-60.23 27.2,-9.35 55.5,-0.5 74.9,17.23 33.2,31.84 72.3,59.17 114.4,78.07 14.1,6.26 28.4,11.58 43,15.86 92.1,29.93 193,3.35 262,-67.41 53,-54.53 88.9,-128.76 82.2,-202.86 -1.3,-14.88 -4.3,-29.74 -9.3,-44.49 -2.2,-11.46 -4.9,-24.04 -8.2,-37.74"
           style="fill:#5b170e;fill-opacity:1;fill-rule:nonzero;stroke:none"
           id="path3963" />
      </g>
      <g
         id="g3965"
         transform="matrix(0.05591881,0,0,-0.05591881,1538.8055,1516.9445)">
        <path
           d="m 16235.5,6737.92 c -33.6,21.57 -73.2,26.81 -111.9,17.73 -17,-4.04 -33.5,-7.76 -49.3,-15.52 -15.5,-7.58 -29.9,-17.86 -42,-30.1 -22.1,-22.2 -37.8,-52.74 -34.7,-84.79 3.1,-31.29 21.3,-61.44 55,-63.46 16.6,-0.95 33.2,3.65 48.9,8.2 8,2.27 16.1,4.79 24.3,6.75 12.6,3.03 23,0.25 35.5,-2.02 -0.4,2.71 -0.7,5.49 -1.1,8.2 -23.1,-12.24 -73.3,-39.43 -59,-72.99 8.1,-18.86 32.5,-30.41 51.2,-35.33 21.9,-5.8 45.2,-4.22 67,1.2 26.9,6.69 52.1,18.99 75.7,33.25 4.9,2.96 0.4,10.78 -4.6,7.76 -43.3,-26.19 -101.5,-51.23 -151.3,-27.95 -10.6,4.98 -23.8,12.43 -29.2,23.34 -4.4,9.08 -1,18.3 4.7,25.93 12.4,16.53 32.2,27.5 50,37.03 3.3,1.7 2.8,7.51 -1,8.27 -8,1.45 -15.9,3.84 -24,4.16 -6.7,0.25 -13.1,-1.32 -19.5,-2.97 -13.2,-3.4 -26.2,-7.82 -39.6,-10.78 -12.7,-2.9 -26.5,-4.99 -39.3,-1.08 -17.1,5.24 -26.7,21.2 -31.6,37.6 -19.2,63.53 43.6,120.5 100.4,132.99 19.9,4.42 39.4,8.84 60,7.51 21.9,-1.51 42.5,-8.9 60.8,-20.69 4.9,-3.16 9.4,4.67 4.6,7.76 v 0"
           style="fill:#bf433a;fill-opacity:1;fill-rule:nonzero;stroke:none"
           id="path3967" />
      </g>
      <g
         id="g3969"
         transform="matrix(0.05849409,0,0,-0.05849409,1538.8055,1516.9445)">
        <path
           d="m 16223.8,6037.32 c 4.8,-5.61 10.1,-11.4 15.8,-17.37 39.8,-32.39 60.4,-84.07 32.8,-132.26 -10.3,-19.36 -31.3,-25.21 -49.2,-35.46 -5.9,-3.44 -11.6,-7.36 -16.3,-12.49 -27.5,-43.3 -29.2,-96.74 -55,-141.49 -13.8,48.25 6.9,98.19 -3,148.61 -0.6,5.37 -1.4,10.79 -2.4,16.16 -1,5.37 -2.1,10.67 -3.5,15.92 -7.9,30.4 -22.7,58.44 -33,87.94 -3.4,9.7 -9,19.35 -11.5,29.3 -1.7,6.88 0,15.5 0.2,22.38 1.1,7.48 3.2,14.89 6.7,22.37 3.9,8.21 9.7,15.08 16.8,20.57 7.1,5.49 15.4,9.53 24.4,12.06 19.1,5.25 39.8,3.56 56.7,-4.88 4.4,-3.08 8.5,-7.12 11.9,-12.31 3.4,-5.18 6.3,-11.45 8.6,-19.05"
           style="fill:#5b170e;fill-opacity:1;fill-rule:nonzero;stroke:none"
           id="path3971" />
      </g>
      <g
         id="g3973"
         transform="matrix(0.0583491,0,0,-0.0583491,1538.8055,1516.9445)">
        <path
           d="m 16156.5,6023.48 c 23.6,-12.39 53.1,-14.21 79,-10.1 22.5,3.57 48.8,11.98 61.5,32.35 3,4.71 -4.4,9.07 -7.4,4.35 -11.5,-18.32 -36.3,-25.21 -56.3,-28.35 -23.7,-3.75 -51,-2.06 -72.4,9.19 -5,2.6 -9.3,-4.9 -4.4,-7.44 v 0"
           style="fill:#bf433a;fill-opacity:1;fill-rule:nonzero;stroke:none"
           id="path3975" />
      </g>
      <g
         id="g3977"
         transform="matrix(0.05455497,0,0,-0.05455497,1538.8055,1516.9445)">
        <path
           d="m 16294.1,6660.03 c -26.4,0.45 -54.8,-3.3 -76.7,-19.01 -21.6,-15.39 -31.9,-39.97 -32,-66.03 -0.4,-49.4 34.5,-95.06 81.2,-109.73 5.7,-1.75 8.1,7.11 2.5,8.92 -42,13.19 -73.7,54.06 -74.5,98.35 -0.5,24.45 8.9,48.12 29.7,62.02 20.3,13.64 45.8,16.62 69.8,16.23 5.9,-0.13 5.9,9.12 0,9.25 v 0"
           style="fill:#bf433a;fill-opacity:1;fill-rule:nonzero;stroke:none"
           id="path3979" />
      </g>
      <g
         id="g3981"
         transform="matrix(0.05419231,0,0,-0.05419231,1538.8055,1516.9445)">
        <path
           d="m 16200.3,6383.26 c 8,-11.59 15.3,-23.89 21.8,-36.72 2.1,-4.23 4.1,-8.59 6.1,-13.02 16.3,-43.81 27.4,-90.29 46,-133.06 4.8,25.39 5,51.3 6.8,77.01 1.2,15.37 2.9,30.47 7,45.38 8.9,32.41 12,60.86 -3.2,92.17 -4.7,9.7 -12.5,20.25 -20.3,27.41 -10.8,9.76 -17.7,5.73 -30.1,1.17 -22.1,-8.2 -41.7,6.58 -61.9,14.65 -8.7,-23.5 14.9,-56.25 27.5,-74.54 0.1,-0.13 0.3,-0.26 0.3,-0.45"
           style="fill:#5b170e;fill-opacity:1;fill-rule:nonzero;stroke:none"
           id="path3983" />
      </g>
      <g
         id="g3985"
         transform="matrix(0.05507426,0,0,-0.05507426,1538.8055,1516.9445)">
        <path
           d="m 16119.6,5330.65 c -21.8,-29.91 -34.5,-67.06 -34.4,-104.09 0.2,-37.02 11.7,-73.98 35.6,-103.44 26.6,-35.3 71.3,-57.65 109.3,-82.25 38.1,-24.54 69.5,-51.18 69.9,-94.48 -0.4,-82.38 -44.4,-157.77 -50.7,-239.44 0.9,12.23 -46.3,47.08 -55.6,55.09 -20.5,17.74 -42,34.27 -63.6,50.67 -42.8,32.6 -86.6,64.63 -123.5,104.02 -66.6,70.84 -93,174.81 -67.5,268.84 6.6,24.28 17.3,42.79 33.3,62.2 10.6,12.94 22.8,24.66 36.1,34.84 13.2,10.19 27.5,18.83 42.6,25.88 18.6,8.52 38.3,14.03 58,19.09 3.5,0.9 7.1,1.73 10.5,3.07"
           style="fill:#7878b5;fill-opacity:1;fill-rule:nonzero;stroke:none"
           id="path3987" />
      </g>
      <g
         id="g3989"
         transform="matrix(0.05694963,0,0,-0.05694963,1538.8055,1516.9445)">
        <path
           d="m 16251.6,5502.63 c -4.9,-21.62 -11.9,-43.61 -8.7,-66.04 3.7,-25.45 20.2,-43.42 33.6,-64.29 12.3,-19.45 15.4,-41.01 9.2,-63.19 -5.5,-19.57 -15.9,-37.23 -24.7,-55.32 -9.8,-19.7 -18,-40.38 -17.6,-62.75 0.2,-5.63 9,-5.7 8.9,0 -0.9,40.64 28.1,73.28 40.3,110.27 5.9,17.96 7.4,37.35 1.3,55.5 -7.5,22.36 -25.9,38.41 -35.7,59.53 -13,28.06 -4.5,55.57 1.9,83.93 1.2,5.58 -7.2,7.93 -8.5,2.36 v 0"
           style="fill:#bf433a;fill-opacity:1;fill-rule:nonzero;stroke:none"
           id="path3991" />
      </g>
      <g
         id="g3993"
         transform="matrix(0.05482908,0,0,-0.05482908,1538.8055,1516.9445)">
        <path
           d="m 16243.4,5777.6 c -3.1,-32.94 16.3,-61.7 30.9,-89.56 7.2,-13.64 14.3,-28.38 15.1,-43.94 1,-19.31 -9.1,-35.01 -22.6,-47.88 -4.3,-4.05 2.2,-10.55 6.5,-6.49 12.8,12.22 23.1,27.08 25,45.04 1.7,15.63 -3.3,30.88 -9.6,44.9 -14.3,31.34 -39.5,61.58 -36.1,97.93 0.6,5.92 -8.6,5.86 -9.2,0 v 0"
           style="fill:#bf433a;fill-opacity:1;fill-rule:nonzero;stroke:none"
           id="path3995" />
      </g>
      <g
         id="g3997"
         transform="matrix(0.05564576,0,0,-0.05564576,1538.8055,1516.9445)">
        <path
           d="m 16263.7,4646.87 c -6.9,-12.23 1.7,-27.32 14.7,-29.48 10.8,-2.15 18.4,5.39 20.5,15.09 1.1,9.7 -2.1,22.7 -13,25.93 -7.5,1.08 -15.1,-2.15 -19.2,-7.29 -1.3,-1.33 -2.3,-2.73 -3,-4.25"
           style="fill:#3b3b63;fill-opacity:1;fill-rule:nonzero;stroke:none"
           id="path3999" />
      </g>
      <g
         id="g4001"
         transform="matrix(0.05734403,0,0,-0.05734403,1538.8055,1516.9445)">
        <path
           d="m 16117.2,6374.6 c -15.6,-92.09 12.9,-204.67 102.3,-250.01 23.2,-11.82 48.8,-17.53 74.8,-15.63 5.6,0.37 5.7,9.17 0,8.8 -60.2,-4.37 -111.9,33.53 -141.2,83.85 -30,51.49 -37.3,112.46 -27.4,170.66 0.9,5.53 -7.6,7.87 -8.5,2.33 v 0"
           style="fill:#5b170e;fill-opacity:1;fill-rule:nonzero;stroke:none"
           id="path4003" />
      </g>
      <g
         id="g4005"
         transform="matrix(0.05552123,0,0,-0.05552123,1538.8055,1516.9445)">
        <path
           d="m 16294.2,6883.45 c -25.5,-2.42 -50.6,-10.36 -76.2,-9.09 -24.4,1.2 -47.1,12.71 -61,32.85 -11.6,16.84 -17.4,37.49 -18.8,57.75 -1.2,15.19 2.5,45.5 24.3,42.13 5.7,-0.83 8.1,7.88 2.4,8.77 -22.2,3.43 -32.5,-15.95 -35.6,-35.07 -3.5,-21.99 3.7,-48.36 13.7,-67.74 11.4,-22.24 30.6,-37.99 54.7,-44.67 32,-8.83 64.5,2.99 96.5,5.98 5.7,0.51 5.8,9.59 0,9.09 v 0"
           style="fill:#5b170e;fill-opacity:1;fill-rule:nonzero;stroke:none"
           id="path4007" />
      </g>
      <g
         id="g4009"
         transform="matrix(0.05613189,0,0,-0.05613189,1538.8055,1516.9445)">
        <path
           d="m 16295.7,4750.32 c -27.4,7.79 -54.8,15.9 -82.4,23.07 -27.9,7.16 -55.8,14.7 -81.5,28.02 -3.9,2.08 -7.5,-3.95 -3.5,-6.03 25.5,-13.2 53.2,-20.99 80.8,-28.09 28.4,-7.35 56.5,-15.71 84.7,-23.7 4.3,-1.19 6.2,5.47 1.9,6.73 v 0"
           style="fill:#cc6256;fill-opacity:1;fill-rule:nonzero;stroke:none"
           id="path4011" />
      </g>
      <g
         id="g4013"
         transform="matrix(0.05706957,0,0,-0.05706957,1538.8055,1516.9445)">
        <path
           d="m 16043.6,4627.32 c 10.8,-14.46 29.5,-21.57 47.1,-16.38 22.1,6.55 31.6,29.79 42.2,48.03 1.9,3.34 3,4.64 6.6,5.75 2.8,0.8 5.7,1.67 8.5,2.41 6.4,1.73 12.8,3.22 19.2,4.7 13.1,3.09 26,6.37 38.4,11.49 18.3,7.55 36.4,16.32 52.4,28.01 18,13.04 33,29.55 40.5,50.69 1.5,4.14 -5.1,5.93 -6.6,1.79 -12.8,-35.79 -48.4,-56.44 -81.3,-70.96 -21.6,-9.53 -44.2,-13.48 -66.7,-19.72 -3.7,-0.99 -8.3,-1.8 -11.6,-3.71 -3.6,-2.04 -4.7,-5.75 -6.4,-9.21 -4.9,-9.65 -10.6,-18.79 -16.8,-27.57 -14.3,-20.46 -44.3,-22.26 -59.6,-1.86 -2.6,3.46 -8.6,0.06 -5.9,-3.46 v 0"
           style="fill:#cc6256;fill-opacity:1;fill-rule:nonzero;stroke:none"
           id="path4015" />
      </g>
      <g
         id="g4017"
         transform="matrix(0.05618763,0,0,-0.05618763,1538.8055,1516.9445)">
        <path
           d="m 15840.3,14974.3 c -5.9,-9.4 -9.3,-19.2 -10.8,-29.1 -1.5,-9.9 -1.1,-20 0.8,-30 13.9,-72.2 85.7,-114.4 151.6,-132.5 72.6,-20.1 146,-37.9 216.4,-65.1 31.1,-12.1 60.6,-22.6 80.9,-50.5 16.1,-22.1 20.8,-49.6 -7.1,-64.5 -45.8,-24.6 -92.8,-34.7 -139.6,-34.3 -15.6,0.1 -31.3,1.5 -46.8,3.9 -16,4.7 -32.3,9.8 -48.7,15.3 -16.4,5.4 -33,11.1 -49.8,17.4 -83.2,19.4 -167.9,57.5 -229.7,114.3 -15.5,14.2 -29.5,29.6 -41.7,46.2 -5,8.2 -10.2,16.4 -15,24.9 -9,14.2 -23.2,35.5 -23.2,49.7 7.1,71.1 63.9,120.7 137.8,127 9.6,2.8 17.9,5.2 24.9,7.3"
           style="fill:#ffcc66;fill-opacity:1;fill-rule:nonzero;stroke:none"
           id="path4019" />
      </g>
      <g
         id="g4021"
         transform="matrix(0.05822774,0,0,-0.05822774,1538.8055,1516.9445)">
        <path
           d="m 16130.4,14453.8 c -0.2,-6.3 -0.2,-12.9 -0.2,-19.7 0,-6.7 0,-13.5 -0.1,-20.5 -1.9,-93.7 -78.6,-137.2 -159.1,-161 -51.3,-15.2 -106,-24.2 -155.6,-46.3 -29.3,-13.1 -127.1,-69.1 -74.7,-107.7 2.3,-1.7 4.8,-3.3 7.3,-4.6 84,-44.9 171.7,-40 255.6,-9.6 11.9,4.3 23.8,9.2 35.6,14.6 55.2,24.8 111.9,56.1 159.1,95.8 11.8,9.9 23,20.3 33.4,31.3 6.9,9.8 15,19.7 23.2,29.9 26.4,24.9 45.1,67.1 38.7,104.2 -1.2,7.5 -3.5,14.7 -7,21.6 -27.4,47.9 -82.2,47.9 -125,65.7 -12.3,2.5 -22.9,4.4 -31.2,6.3"
           style="fill:#ffcc66;fill-opacity:1;fill-rule:nonzero;stroke:none"
           id="path4023" />
      </g>
      <g
         id="g4025"
         transform="matrix(0.05975809,0,0,-0.05975809,1538.8055,1516.9445)">
        <path
           d="m 15287.8,13466.7 c 416.5,0 785.3,203.9 1012.2,517.3 -10.5,3.1 -21.1,6 -31.6,9.3 -46.1,14.3 -93.9,24.6 -141.1,34.5 -69.4,14.6 -139.5,25.8 -210,33.7 -32.4,3.6 -64.9,6.4 -97.3,10.8 -17.4,2.3 -34.7,4.8 -52,7.2 -8.4,1.2 -47.4,1.3 -52.1,7.4 33.4,-40.1 60.2,-100.2 33.8,-149.8 -3.1,-7.5 -7.1,-15 -11.9,-22.3 -5.2,-7.9 -11,-15.5 -17.3,-22.6 -18.9,-21.5 -42.3,-39.1 -67,-50.6 -14.2,-8.1 -28.7,-15.1 -43,-21.3 -14.4,-6.2 -28.5,-11.5 -41.9,-16 -18.1,-9.4 -36.6,-17.7 -55.4,-24.8 -56.5,-21.6 -115.8,-33.3 -175.6,-35.6 -15.9,-0.6 -31.9,-0.6 -47.9,0 -134.5,5.2 -282,33.7 -378.7,135.6 -25.5,26.8 -45.4,60 -53.1,96.3 -4.2,19.9 -7,42.2 -1.8,62.1 6.7,25.2 30.5,29.8 39.4,51.9 -142,-17 -284.3,-33.1 -425.6,-54.8 -54.1,-8.4 -110.4,-15 -163.1,-29.8 -12.8,-3.6 -25.7,-7.3 -38.5,-11.1 226.3,-319.1 598.5,-527.4 1019.5,-527.4"
           style="fill:#223a49;fill-opacity:1;fill-rule:nonzero;stroke:none"
           id="path4027" />
      </g>
      <g
         id="g4029"
         transform="matrix(0.05563588,0,0,-0.05563588,1538.8055,1516.9445)">
        <path
           d="m 16139.2,4634.96 c 54.7,-29.61 107.3,-60.87 150.5,-106.34 4,-4.18 10.3,2.16 6.3,6.34 -43.7,45.98 -96.9,77.74 -152.2,107.73 -5.1,2.73 -9.7,-5 -4.6,-7.73 v 0"
           style="fill:#3b3b63;fill-opacity:1;fill-rule:nonzero;stroke:none"
           id="path4031" />
      </g>
      <g
         id="g4033"
         transform="matrix(0.05635237,0,0,-0.05635237,1538.8055,1516.9445)">
        <path
           d="m 16275.6,4518.49 c 4,-25.98 15.3,-48.77 6.1,-75.12 -1.9,-5.39 6.7,-7.7 8.5,-2.32 9.8,27.98 -1.8,52.02 -6,79.75 -0.9,5.64 -9.4,3.26 -8.6,-2.31 v 0"
           style="fill:#3b3b63;fill-opacity:1;fill-rule:nonzero;stroke:none"
           id="path4035" />
      </g>
      <g
         id="g4037"
         transform="matrix(0.05837591,0,0,-0.05837591,1538.8055,1516.9445)">
        <path
           d="m 16120.5,5026.2 c 63.3,-87.81 29.1,-217.68 -76.6,-260.04 -9.4,-5.74 -18.7,-11.42 -27.8,-17.22 -35.8,-23.15 -65.5,-48.28 -65.8,-89.14 0.3,-77.71 41.9,-148.84 47.8,-225.89 -0.9,11.54 43.7,44.41 52.4,51.97 19.4,16.74 39.7,32.33 60,47.8 40.4,30.76 81.7,60.98 116.6,98.14 47.1,50.1 72.9,117.78 72.7,185.95 0,11.36 -0.8,22.72 -2.3,34.02 -4.3,86.6 -79.5,154.95 -167.1,171.63 -3.4,0.85 -6.7,1.63 -9.9,2.78"
           style="fill:#7878b5;fill-opacity:1;fill-rule:nonzero;stroke:none"
           id="path4039" />
      </g>
      <g
         id="g4041"
         transform="matrix(0.07057285,0,0,-0.07057285,1538.8055,1516.9445)">
        <path
           d="m 16169.6,16196.5 h -5974.1 c -72,0 -130.3,-36.9 -130.3,-82.5 v 0 c 0,-45.5 58.3,-82.4 130.3,-82.4 h 5974.1 c 72,0 130.4,36.9 130.4,82.4 v 0 c 0,45.6 -58.4,82.5 -130.4,82.5"
           style="fill:#ffffff;fill-opacity:1;fill-rule:nonzero;stroke:none"
           id="path4043" />
      </g>
      <g
         id="g4045"
         transform="matrix(0.06769347,0,0,-0.06769347,1538.8055,1516.9445)">
        <path
           d="m 14857.8,16300 h -4221 c -79.3,0 -143.5,-36.9 -143.5,-82.4 0,-45.5 64.2,-82.4 143.5,-82.4 h 4221 c 79.2,0 143.5,36.9 143.5,82.4 0,45.5 -64.3,82.4 -143.5,82.4"
           style="fill:#ffffff;fill-opacity:1;fill-rule:nonzero;stroke:none"
           id="path4047" />
      </g>
      <g
         id="g4049"
         transform="matrix(0.07035483,0,0,-0.07035483,1538.8055,1516.9445)">
        <path
           d="m 16170.3,8336.63 h -5944.2 c -71.6,0 -129.7,-37.05 -129.7,-82.73 v 0 c 0,-45.68 58.1,-82.74 129.7,-82.74 h 5944.2 c 71.6,0 129.7,37.06 129.7,82.74 v 0 c 0,45.68 -58.1,82.73 -129.7,82.73"
           style="fill:#ffffff;fill-opacity:1;fill-rule:nonzero;stroke:none"
           id="path4051" />
      </g>
      <g
         id="g4053"
         transform="matrix(0.06339629,0,0,-0.06339629,1538.8055,1516.9445)">
        <path
           d="m 16137.8,8626.47 h -4771.1 c -89.6,0 -162.1,-39.4 -162.1,-87.98 0,-48.58 72.5,-87.97 162.1,-87.97 h 4771.1 c 89.6,0 162.2,39.39 162.2,87.97 0,48.58 -72.6,87.98 -162.2,87.98"
           style="fill:#ffffff;fill-opacity:1;fill-rule:nonzero;stroke:none"
           id="path4055" />
      </g>
      <g
         id="g4057"
         transform="matrix(0.0492499,0,0,-0.0492499,1538.8055,1516.9445)">
        <path
           d="M 16102.7,6284.11 H 7063.73 c -108.93,0 -197.23,-52.94 -197.23,-118.19 v 0 c 0,-65.26 88.3,-118.19 197.23,-118.19 h 9038.97 c 109,0 197.3,52.93 197.3,118.19 v 0 c 0,65.25 -88.3,118.19 -197.3,118.19"
           style="fill:#ffffff;fill-opacity:1;fill-rule:nonzero;stroke:none"
           id="path4059" />
      </g>
      <g
         id="g4061"
         transform="matrix(0.03946843,0,0,-0.03946843,1538.8055,1516.9445)">
        <path
           d="M 16053.9,6837.33 H 8814.38 c -135.92,0 -246.11,-63.2 -246.11,-141.32 0,-78.03 110.19,-141.31 246.11,-141.31 h 7239.52 c 135.9,0 246.1,63.28 246.1,141.31 0,78.12 -110.2,141.32 -246.1,141.32"
           style="fill:#ffffff;fill-opacity:1;fill-rule:nonzero;stroke:none"
           id="path4063" />
      </g>
      <g
         id="g4065"
         transform="matrix(0.05321371,0,0,-0.05321371,1538.8055,1516.9445)">
        <path
           d="M 14903.2,16300 H 6537.56 c -100.82,0 -182.55,-49 -182.55,-109.4 v 0 c 0,-60.4 81.73,-109.4 182.55,-109.4 h 8365.64 c 100.9,0 182.6,49 182.6,109.4 v 0 c 0,60.4 -81.7,109.4 -182.6,109.4"
           style="fill:#ffffff;fill-opacity:1;fill-rule:nonzero;stroke:none"
           id="path4067" />
      </g>
      <g
         id="g4069"
         transform="matrix(0.05078236,0,0,-0.05078236,1538.8055,1516.9445)">
        <path
           d="M 12376.5,16300 H 6847.27 c -103.81,0 -187.96,-49.2 -187.96,-109.8 0,-60.7 84.15,-109.9 187.96,-109.9 h 5529.23 c 103.8,0 188,49.2 188,109.9 0,60.6 -84.2,109.8 -188,109.8"
           style="fill:#ffffff;fill-opacity:1;fill-rule:nonzero;stroke:none"
           id="path4071" />
      </g>
      <g
         id="g4073"
         transform="matrix(0.08150261,0,0,-0.08150261,1538.8055,1516.9445)">
        <path
           d="m 10592.4,15875.6 251.2,150.1 c 36.8,21.9 41.7,73.6 9.3,101.6 -198.5,172.4 -397,172.7 -595.5,0.8 -32.6,-28.2 -27.2,-80.4 10.1,-102 l 260.9,-151 c 19.8,-11.5 44.3,-11.3 64,0.5"
           style="fill:#ffffff;fill-opacity:1;fill-rule:nonzero;stroke:none"
           id="path4075" />
      </g>
      <g
         id="g4077"
         transform="matrix(0.07551068,0,0,-0.07551068,1538.8055,1516.9445)">
        <path
           d="m 16246.6,8592.13 c -6.6,-377.35 -11.3,-754.7 -17.3,-1132.05 -2.5,-155.58 6.6,-309.33 -30.7,-462.1 -37.8,-155.11 -119.6,-298.53 -258.8,-383 -170,-103.11 -366.3,-104.56 -558.1,-85.92 -33.8,3.32 -33.5,-49.56 0,-52.83 176.3,-17.15 352.3,-16.54 516.8,57.46 153,68.86 260.8,195.1 320.3,350.39 56.5,147.96 67,310.31 64,467.28 -3.6,189.31 3.5,379.22 6.2,568.57 3.2,224.07 6.5,448.13 10.4,672.2 0.6,34.01 -52.3,34.01 -52.8,0 v 0"
           style="fill:#9999ff;fill-opacity:1;fill-rule:nonzero;stroke:none"
           id="path4079" />
      </g>
      <g
         id="g4081"
         transform="matrix(0.07810359,0,0,-0.07810359,1538.8055,1516.9445)">
        <path
           d="m 14789.2,16232.6 c 96.2,15.8 193.7,4.6 289.5,-8.5 80.2,-10.9 160,-29.2 234.9,-60.6 125.7,-52.7 234.6,-142.5 296.3,-265.5 37.9,-75.6 54.9,-159.5 65.2,-242.9 11.5,-94.1 17,-188.9 19.6,-283.7 2.6,-96.7 2.2,-193.4 2.4,-290 0.2,-96.7 3.9,-193.2 5.2,-289.8 2.9,-218.6 0.8,-437.6 -3.3,-656.2 -0.5,-33 50.5,-33 51.2,0 3.7,204.4 4.4,408.9 3.4,613.4 -0.4,100.8 -4.9,201.6 -5.3,302.5 -0.3,100.1 0.2,200.1 -2.1,300.1 -2.3,99.8 -7.5,199.6 -19.4,298.8 -10.5,87.3 -26.9,173.1 -63.3,253.7 -59.1,130.7 -169.2,231.3 -297.8,291.9 -81.8,38.6 -169.5,62.7 -258.9,75.6 -110,15.9 -220.6,28.6 -331.2,10.5 -32.4,-5.3 -18.6,-54.5 13.6,-49.3 v 0"
           style="fill:#9999ff;fill-opacity:1;fill-rule:nonzero;stroke:none"
           id="path4083" />
      </g>
      <g
         id="g4085"
         transform="matrix(0.0805748,0,0,-0.0805748,1538.8055,1516.9445)">
        <path
           d="m 6183.68,16300 h 781.34 c 69.23,0 125.35,-56.1 125.35,-125.3 v 0 c 0,-69.3 -56.12,-125.4 -125.35,-125.4 h -781.34 c -69.22,0 -125.35,56.1 -125.35,125.4 v 0 c 0,69.2 56.13,125.3 125.35,125.3"
           style="fill:#ffffff;fill-opacity:1;fill-rule:nonzero;stroke:none"
           id="path4087" />
      </g>
      <text
         xml:space="preserve"
         style="font-style:normal;font-variant:normal;font-weight:500;font-stretch:normal;font-size:31.4745px;line-height:1.25;font-family:Montserrat;-inkscape-font-specification:'Montserrat Medium';letter-spacing:0px;word-spacing:0px;fill:#ffffff;fill-opacity:1;stroke:none;stroke-width:0.786861"
         x="1877.6826"
         y="610.63794"
         id="text21067"><tspan
           sodipodi:role="line"
           id="tspan21065"
           style="font-style:normal;font-variant:normal;font-weight:500;font-stretch:normal;font-family:Montserrat;-inkscape-font-specification:'Montserrat Medium';fill:#ffffff;fill-opacity:1;stroke-width:0.786861"
           x="1877.6826"
           y="610.63794">100 votes from Mariam</tspan></text>
      <text
         xml:space="preserve"
         style="font-style:normal;font-variant:normal;font-weight:500;font-stretch:normal;font-size:31.4745px;line-height:1.25;font-family:Montserrat;-inkscape-font-specification:'Montserrat Medium';letter-spacing:0px;word-spacing:0px;fill:#ffffff;fill-opacity:1;stroke:none;stroke-width:0.786861"
         x="2250.2112"
         y="335.08893"
         id="text21071"><tspan
           sodipodi:role="line"
           id="tspan21069"
           style="font-style:normal;font-variant:normal;font-weight:500;font-stretch:normal;font-family:Montserrat;-inkscape-font-specification:'Montserrat Medium';fill:#ffffff;fill-opacity:1;stroke-width:0.786861"
           x="2250.2112"
           y="335.08893">10 votes from Bayo</tspan></text>
      <text
         xml:space="preserve"
         style="font-style:normal;font-variant:normal;font-weight:500;font-stretch:normal;font-size:31.4745px;line-height:1.25;font-family:Montserrat;-inkscape-font-specification:'Montserrat Medium';letter-spacing:0px;word-spacing:0px;fill:#ffffff;fill-opacity:1;stroke:none;stroke-width:0.786861"
         x="2250.1445"
         y="884.60522"
         id="text21075"><tspan
           sodipodi:role="line"
           id="tspan21073"
           style="font-style:normal;font-variant:normal;font-weight:500;font-stretch:normal;font-family:Montserrat;-inkscape-font-specification:'Montserrat Medium';fill:#ffffff;fill-opacity:1;stroke-width:0.786861"
           x="2250.1445"
           y="884.60522">5 votes from Adam</tspan></text>
      <text
         xml:space="preserve"
         style="font-style:normal;font-variant:normal;font-weight:500;font-stretch:normal;font-size:31.4745px;line-height:1.25;font-family:Montserrat;-inkscape-font-specification:'Montserrat Medium';letter-spacing:0px;word-spacing:0px;fill:#ffffff;fill-opacity:1;stroke:none;stroke-width:0.786861"
         x="1876.5961"
         y="1167.9148"
         id="text21079"><tspan
           sodipodi:role="line"
           id="tspan21077"
           style="font-style:normal;font-variant:normal;font-weight:500;font-stretch:normal;font-family:Montserrat;-inkscape-font-specification:'Montserrat Medium';fill:#ffffff;fill-opacity:1;stroke-width:0.786861"
           x="1876.5961"
           y="1167.9148">100 votes from Emeka</tspan></text>
    </g>
  </g>
</svg>
