<?xml version="1.0" encoding="UTF-8" standalone="no"?>
<!-- Created with Inkscape (http://www.inkscape.org/) -->

<svg
   version="1.1"
   id="svg429"
   xml:space="preserve"
   width="682.66669"
   height="682.66669"
   viewBox="0 0 682.66669 682.66669"
   xmlns="http://www.w3.org/2000/svg"
   xmlns:svg="http://www.w3.org/2000/svg"><defs
     id="defs433"><clipPath
       clipPathUnits="userSpaceOnUse"
       id="clipPath443"><path
         d="M 0,512 H 512 V 0 H 0 Z"
         id="path441" /></clipPath><clipPath
       clipPathUnits="userSpaceOnUse"
       id="clipPath459"><path
         d="M 0,512 H 512 V 0 H 0 Z"
         id="path457" /></clipPath></defs><g
     id="g435"
     transform="matrix(1.3333333,0,0,-1.3333333,0,682.66667)"><g
       id="g437"><g
         id="g439"
         clip-path="url(#clipPath443)"><g
           id="g445"
           transform="translate(10,50)"><path
             d="M 0,0 H 452"
             style="fill:none;stroke:#000000;stroke-width:20;stroke-linecap:round;stroke-linejoin:round;stroke-miterlimit:10;stroke-dasharray:none;stroke-opacity:1"
             id="path447" /></g></g></g><g
       id="g449"
       transform="translate(168.3534,170.3604)"><path
         d="m 0,0 33.093,-68.731 -68.731,33.093"
         style="fill:none;stroke:#000000;stroke-width:20;stroke-linecap:round;stroke-linejoin:round;stroke-miterlimit:10;stroke-dasharray:none;stroke-opacity:1"
         id="path451" /></g><g
       id="g453"><g
         id="g455"
         clip-path="url(#clipPath459)"><g
           id="g461"
           transform="translate(258.8292,159.0128)"><path
             d="m 0,0 v 0 c -9.841,-9.841 -25.797,-9.841 -35.638,0 l -15.274,15.273 c -9.841,9.842 -9.841,25.797 0,35.639 v 0 c 9.842,9.841 25.797,9.841 35.638,0 L 0,35.638 C 9.841,25.797 9.841,9.841 0,0 Z"
             style="fill:none;stroke:#000000;stroke-width:20;stroke-linecap:round;stroke-linejoin:round;stroke-miterlimit:10;stroke-dasharray:none;stroke-opacity:1"
             id="path463" /></g><g
           id="g465"
           transform="translate(379.2848,279.4684)"><path
             d="m 0,0 -16.254,-16.254 c -4.808,-4.808 -12.604,-4.808 -17.412,0 l -33.499,33.5 c -4.809,4.808 -4.809,12.604 0,17.412 l 16.253,16.254"
             style="fill:none;stroke:#000000;stroke-width:20;stroke-linecap:round;stroke-linejoin:round;stroke-miterlimit:10;stroke-dasharray:none;stroke-opacity:1"
             id="path467" /></g><g
           id="g469"
           transform="translate(315.3624,215.546)"><path
             d="M 0,0 -50.912,50.912"
             style="fill:none;stroke:#000000;stroke-width:20;stroke-linecap:round;stroke-linejoin:round;stroke-miterlimit:10;stroke-dasharray:none;stroke-opacity:1"
             id="path471" /></g><g
           id="g473"
           transform="translate(248.1165,250.1235)"><path
             d="M 0,0 32.668,32.668"
             style="fill:none;stroke:#000000;stroke-width:20;stroke-linecap:round;stroke-linejoin:round;stroke-miterlimit:10;stroke-dasharray:none;stroke-opacity:1"
             id="path475" /></g><g
           id="g477"
           transform="translate(330.6005,281.6958)"><path
             d="M 0,0 16.088,16.088"
             style="fill:none;stroke:#000000;stroke-width:20;stroke-linecap:round;stroke-linejoin:round;stroke-miterlimit:10;stroke-dasharray:none;stroke-opacity:1"
             id="path479" /></g><g
           id="g481"
           transform="translate(138.2791,50)"><path
             d="m 0,0 h 173.161 l 185.895,185.895 c 6.213,6.214 6.213,16.287 0,22.5 L 160.112,407.34 c -6.214,6.213 -16.287,6.213 -22.5,0 L -123.614,146.114 c -6.213,-6.213 -6.213,-16.287 0,-22.5 z"
             style="fill:none;stroke:#000000;stroke-width:20;stroke-linecap:round;stroke-linejoin:round;stroke-miterlimit:10;stroke-dasharray:none;stroke-opacity:1"
             id="path483" /></g><g
           id="g485"
           transform="translate(502,50)"><path
             d="M 0,0 V 0"
             style="fill:none;stroke:#000000;stroke-width:20;stroke-linecap:round;stroke-linejoin:round;stroke-miterlimit:10;stroke-dasharray:none;stroke-opacity:1"
             id="path487" /></g></g></g></g></svg>
